<?xml version="1.0" encoding="utf-8" standalone="no"?>
<!DOCTYPE svg PUBLIC "-//W3C//DTD SVG 1.1//EN"
  "http://www.w3.org/Graphics/SVG/1.1/DTD/svg11.dtd">
<!-- Created with matplotlib (https://matplotlib.org/) -->
<svg height="359.402109pt" version="1.1" viewBox="0 0 402.402656 359.402109" width="402.402656pt" xmlns="http://www.w3.org/2000/svg" xmlns:xlink="http://www.w3.org/1999/xlink">
 <metadata>
  <rdf:RDF xmlns:cc="http://creativecommons.org/ns#" xmlns:dc="http://purl.org/dc/elements/1.1/" xmlns:rdf="http://www.w3.org/1999/02/22-rdf-syntax-ns#">
   <cc:Work>
    <dc:type rdf:resource="http://purl.org/dc/dcmitype/StillImage"/>
    <dc:date>2021-03-25T07:11:37.855402</dc:date>
    <dc:format>image/svg+xml</dc:format>
    <dc:creator>
     <cc:Agent>
      <dc:title>Matplotlib v3.3.4, https://matplotlib.org/</dc:title>
     </cc:Agent>
    </dc:creator>
   </cc:Work>
  </rdf:RDF>
 </metadata>
 <defs>
  <style type="text/css">*{stroke-linecap:butt;stroke-linejoin:round;}</style>
 </defs>
 <g id="figure_1">
  <g id="patch_1">
   <path d="M 0 359.402109 
L 402.402656 359.402109 
L 402.402656 0 
L 0 0 
z
" style="fill:none;"/>
  </g>
  <g id="axes_1">
   <g id="patch_2">
    <path d="M 76.260156 314.538984 
L 378.660156 314.538984 
L 378.660156 12.138984 
L 76.260156 12.138984 
z
" style="fill:#ffffff;"/>
   </g>
   <g id="patch_3">
    <path clip-path="url(#p6071b83682)" d="M 136.740156 12.138984 
L 167.840792 56.263144 
L 161.789487 49.395742 
L 157.517716 45.731311 
L 152.292195 42.218888 
L 147.771852 39.96133 
L 141.950632 38.031132 
L 136.903113 37.322331 
L 131.106982 37.532725 
L 124.709782 39.117115 
L 117.691534 42.624474 
L 111.520153 47.791224 
L 107.721401 52.585071 
L 104.254603 58.365094 
L 101.188352 65.377377 
L 98.998644 72.97961 
L 97.795827 80.684097 
L 97.510296 88.341396 
L 98.139219 96.494886 
L 99.674968 104.088544 
L 101.989478 111.112241 
L 105.585053 118.823184 
L 109.862426 125.469983 
L 114.677841 132.064374 
L 121.326511 138.496741 
L 126.636963 144.399347 
L 133.778452 149.087001 
L 137.602221 151.800463 
L 139.778156 153.528057 
L 144.023457 156.78727 
L 150.419956 161.657411 
L 155.442717 165.220043 
L 161.901731 169.688501 
L 167.600874 173.548787 
L 171.475639 176.144668 
L 176.418194 179.431194 
L 181.272351 182.639659 
L 185.856727 185.655315 
L 190.767786 188.872897 
L 195.523551 191.980066 
L 200.153757 195.011221 
L 204.813657 198.068412 
L 209.603315 201.214012 
L 214.310425 204.306031 
L 219.227681 207.535402 
L 224.127504 210.752027 
L 228.789 213.810302 
L 233.991369 217.221326 
L 238.840681 220.399096 
L 244.091442 223.83816 
L 249.217511 227.193797 
L 254.499462 230.64978 
L 259.344853 233.819025 
L 264.512828 237.198906 
L 269.582194 240.515171 
L 274.603069 243.802 
L 279.691316 247.136766 
L 284.960606 250.595742 
L 289.62013 253.660132 
L 294.048734 256.577835 
L 297.41358 258.797195 
L 300.294665 260.697348 
L 303.395016 262.738099 
L 306.315996 264.652062 
L 308.958678 266.370781 
L 313.361116 269.199587 
L 316.983262 271.488096 
L 322.371408 274.839746 
L 354.444606 321.008104 
L 414.924606 393.008104 
L 414.924606 -59.861016 
z
" style="fill:#b2e6ff;stroke:#b2e6ff;stroke-linejoin:miter;"/>
   </g>
   <g id="patch_4">
    <path clip-path="url(#p6071b83682)" d="M 136.740156 12.138984 
L 167.840792 56.263144 
L 161.789487 49.395742 
L 157.517716 45.731311 
L 152.292195 42.218888 
L 147.771852 39.96133 
L 141.950632 38.031132 
L 136.903113 37.322331 
L 131.106982 37.532725 
L 124.709782 39.117115 
L 117.691534 42.624474 
L 111.520153 47.791224 
L 107.721401 52.585071 
L 104.254603 58.365094 
L 101.188352 65.377377 
L 98.998644 72.97961 
L 97.795827 80.684097 
L 97.510296 88.341396 
L 98.139219 96.494886 
L 99.674968 104.088544 
L 101.989478 111.112241 
L 105.585053 118.823184 
L 109.862426 125.469983 
L 114.677841 132.064374 
L 121.326511 138.496741 
L 126.636963 144.399347 
L 133.778452 149.087001 
L 137.602221 151.800463 
L 139.778156 153.528057 
L 144.023457 156.78727 
L 150.419956 161.657411 
L 155.442717 165.220043 
L 161.901731 169.688501 
L 167.600874 173.548787 
L 171.475639 176.144668 
L 176.418194 179.431194 
L 181.272351 182.639659 
L 185.856727 185.655315 
L 190.767786 188.872897 
L 195.523551 191.980066 
L 200.153757 195.011221 
L 204.813657 198.068412 
L 209.603315 201.214012 
L 214.310425 204.306031 
L 219.227681 207.535402 
L 224.127504 210.752027 
L 228.789 213.810302 
L 233.991369 217.221326 
L 238.840681 220.399096 
L 244.091442 223.83816 
L 249.217511 227.193797 
L 254.499462 230.64978 
L 259.344853 233.819025 
L 264.512828 237.198906 
L 269.582194 240.515171 
L 274.603069 243.802 
L 279.691316 247.136766 
L 284.960606 250.595742 
L 289.62013 253.660132 
L 294.048734 256.577835 
L 297.41358 258.797195 
L 300.294665 260.697348 
L 303.395016 262.738099 
L 306.315996 264.652062 
L 308.958678 266.370781 
L 313.361116 269.199587 
L 316.983262 271.488096 
L 322.371408 274.839746 
L 354.444606 321.008104 
L 37.030296 393.008104 
L 37.030296 -59.861016 
z
" style="fill:#ffe699;stroke:#ffe699;stroke-linejoin:miter;"/>
   </g>
   <g id="matplotlib.axis_1">
    <g id="xtick_1">
     <g id="line2d_1">
      <defs>
       <path d="M 0 0 
L 0 3.5 
" id="m8c35ca2737" style="stroke:#000000;stroke-width:0.8;"/>
      </defs>
      <g>
       <use style="stroke:#000000;stroke-width:0.8;" x="76.260156" xlink:href="#m8c35ca2737" y="314.538984"/>
      </g>
     </g>
     <g id="text_1">
      <!-- −500 -->
      <g transform="translate(58.406484 332.916953)scale(0.13 -0.13)">
       <defs>
        <path d="M 10.59375 35.5 
L 73.1875 35.5 
L 73.1875 27.203125 
L 10.59375 27.203125 
z
" id="DejaVuSans-8722"/>
        <path d="M 10.796875 72.90625 
L 49.515625 72.90625 
L 49.515625 64.59375 
L 19.828125 64.59375 
L 19.828125 46.734375 
Q 21.96875 47.46875 24.109375 47.828125 
Q 26.265625 48.1875 28.421875 48.1875 
Q 40.625 48.1875 47.75 41.5 
Q 54.890625 34.8125 54.890625 23.390625 
Q 54.890625 11.625 47.5625 5.09375 
Q 40.234375 -1.421875 26.90625 -1.421875 
Q 22.3125 -1.421875 17.546875 -0.640625 
Q 12.796875 0.140625 7.71875 1.703125 
L 7.71875 11.625 
Q 12.109375 9.234375 16.796875 8.0625 
Q 21.484375 6.890625 26.703125 6.890625 
Q 35.15625 6.890625 40.078125 11.328125 
Q 45.015625 15.765625 45.015625 23.390625 
Q 45.015625 31 40.078125 35.4375 
Q 35.15625 39.890625 26.703125 39.890625 
Q 22.75 39.890625 18.8125 39.015625 
Q 14.890625 38.140625 10.796875 36.28125 
z
" id="DejaVuSans-53"/>
        <path d="M 31.78125 66.40625 
Q 24.171875 66.40625 20.328125 58.90625 
Q 16.5 51.421875 16.5 36.375 
Q 16.5 21.390625 20.328125 13.890625 
Q 24.171875 6.390625 31.78125 6.390625 
Q 39.453125 6.390625 43.28125 13.890625 
Q 47.125 21.390625 47.125 36.375 
Q 47.125 51.421875 43.28125 58.90625 
Q 39.453125 66.40625 31.78125 66.40625 
z
M 31.78125 74.21875 
Q 44.046875 74.21875 50.515625 64.515625 
Q 56.984375 54.828125 56.984375 36.375 
Q 56.984375 17.96875 50.515625 8.265625 
Q 44.046875 -1.421875 31.78125 -1.421875 
Q 19.53125 -1.421875 13.0625 8.265625 
Q 6.59375 17.96875 6.59375 36.375 
Q 6.59375 54.828125 13.0625 64.515625 
Q 19.53125 74.21875 31.78125 74.21875 
z
" id="DejaVuSans-48"/>
       </defs>
       <use xlink:href="#DejaVuSans-8722"/>
       <use x="83.789062" xlink:href="#DejaVuSans-53"/>
       <use x="147.412109" xlink:href="#DejaVuSans-48"/>
       <use x="211.035156" xlink:href="#DejaVuSans-48"/>
      </g>
     </g>
    </g>
    <g id="xtick_2">
     <g id="line2d_2">
      <g>
       <use style="stroke:#000000;stroke-width:0.8;" x="136.740156" xlink:href="#m8c35ca2737" y="314.538984"/>
      </g>
     </g>
     <g id="text_2">
      <!-- 0 -->
      <g transform="translate(132.604531 332.916953)scale(0.13 -0.13)">
       <use xlink:href="#DejaVuSans-48"/>
      </g>
     </g>
    </g>
    <g id="xtick_3">
     <g id="line2d_3">
      <g>
       <use style="stroke:#000000;stroke-width:0.8;" x="197.220156" xlink:href="#m8c35ca2737" y="314.538984"/>
      </g>
     </g>
     <g id="text_3">
      <!-- 500 -->
      <g transform="translate(184.813281 332.916953)scale(0.13 -0.13)">
       <use xlink:href="#DejaVuSans-53"/>
       <use x="63.623047" xlink:href="#DejaVuSans-48"/>
       <use x="127.246094" xlink:href="#DejaVuSans-48"/>
      </g>
     </g>
    </g>
    <g id="xtick_4">
     <g id="line2d_4">
      <g>
       <use style="stroke:#000000;stroke-width:0.8;" x="257.700156" xlink:href="#m8c35ca2737" y="314.538984"/>
      </g>
     </g>
     <g id="text_4">
      <!-- 1000 -->
      <g transform="translate(241.157656 332.916953)scale(0.13 -0.13)">
       <defs>
        <path d="M 12.40625 8.296875 
L 28.515625 8.296875 
L 28.515625 63.921875 
L 10.984375 60.40625 
L 10.984375 69.390625 
L 28.421875 72.90625 
L 38.28125 72.90625 
L 38.28125 8.296875 
L 54.390625 8.296875 
L 54.390625 0 
L 12.40625 0 
z
" id="DejaVuSans-49"/>
       </defs>
       <use xlink:href="#DejaVuSans-49"/>
       <use x="63.623047" xlink:href="#DejaVuSans-48"/>
       <use x="127.246094" xlink:href="#DejaVuSans-48"/>
       <use x="190.869141" xlink:href="#DejaVuSans-48"/>
      </g>
     </g>
    </g>
    <g id="xtick_5">
     <g id="line2d_5">
      <g>
       <use style="stroke:#000000;stroke-width:0.8;" x="318.180156" xlink:href="#m8c35ca2737" y="314.538984"/>
      </g>
     </g>
     <g id="text_5">
      <!-- 1500 -->
      <g transform="translate(301.637656 332.916953)scale(0.13 -0.13)">
       <use xlink:href="#DejaVuSans-49"/>
       <use x="63.623047" xlink:href="#DejaVuSans-53"/>
       <use x="127.246094" xlink:href="#DejaVuSans-48"/>
       <use x="190.869141" xlink:href="#DejaVuSans-48"/>
      </g>
     </g>
    </g>
    <g id="xtick_6">
     <g id="line2d_6">
      <g>
       <use style="stroke:#000000;stroke-width:0.8;" x="378.660156" xlink:href="#m8c35ca2737" y="314.538984"/>
      </g>
     </g>
     <g id="text_6">
      <!-- 2000 -->
      <g transform="translate(362.117656 332.916953)scale(0.13 -0.13)">
       <defs>
        <path d="M 19.1875 8.296875 
L 53.609375 8.296875 
L 53.609375 0 
L 7.328125 0 
L 7.328125 8.296875 
Q 12.9375 14.109375 22.625 23.890625 
Q 32.328125 33.6875 34.8125 36.53125 
Q 39.546875 41.84375 41.421875 45.53125 
Q 43.3125 49.21875 43.3125 52.78125 
Q 43.3125 58.59375 39.234375 62.25 
Q 35.15625 65.921875 28.609375 65.921875 
Q 23.96875 65.921875 18.8125 64.3125 
Q 13.671875 62.703125 7.8125 59.421875 
L 7.8125 69.390625 
Q 13.765625 71.78125 18.9375 73 
Q 24.125 74.21875 28.421875 74.21875 
Q 39.75 74.21875 46.484375 68.546875 
Q 53.21875 62.890625 53.21875 53.421875 
Q 53.21875 48.921875 51.53125 44.890625 
Q 49.859375 40.875 45.40625 35.40625 
Q 44.1875 33.984375 37.640625 27.21875 
Q 31.109375 20.453125 19.1875 8.296875 
z
" id="DejaVuSans-50"/>
       </defs>
       <use xlink:href="#DejaVuSans-50"/>
       <use x="63.623047" xlink:href="#DejaVuSans-48"/>
       <use x="127.246094" xlink:href="#DejaVuSans-48"/>
       <use x="190.869141" xlink:href="#DejaVuSans-48"/>
      </g>
     </g>
    </g>
    <g id="text_7">
     <!-- X-coordinate (m) -->
     <g transform="translate(172.848984 349.498516)scale(0.13 -0.13)">
      <defs>
       <path d="M 6.296875 72.90625 
L 16.890625 72.90625 
L 35.015625 45.796875 
L 53.21875 72.90625 
L 63.8125 72.90625 
L 40.375 37.890625 
L 65.375 0 
L 54.78125 0 
L 34.28125 31 
L 13.625 0 
L 2.984375 0 
L 29 38.921875 
z
" id="DejaVuSans-88"/>
       <path d="M 4.890625 31.390625 
L 31.203125 31.390625 
L 31.203125 23.390625 
L 4.890625 23.390625 
z
" id="DejaVuSans-45"/>
       <path d="M 48.78125 52.59375 
L 48.78125 44.1875 
Q 44.96875 46.296875 41.140625 47.34375 
Q 37.3125 48.390625 33.40625 48.390625 
Q 24.65625 48.390625 19.8125 42.84375 
Q 14.984375 37.3125 14.984375 27.296875 
Q 14.984375 17.28125 19.8125 11.734375 
Q 24.65625 6.203125 33.40625 6.203125 
Q 37.3125 6.203125 41.140625 7.25 
Q 44.96875 8.296875 48.78125 10.40625 
L 48.78125 2.09375 
Q 45.015625 0.34375 40.984375 -0.53125 
Q 36.96875 -1.421875 32.421875 -1.421875 
Q 20.0625 -1.421875 12.78125 6.34375 
Q 5.515625 14.109375 5.515625 27.296875 
Q 5.515625 40.671875 12.859375 48.328125 
Q 20.21875 56 33.015625 56 
Q 37.15625 56 41.109375 55.140625 
Q 45.0625 54.296875 48.78125 52.59375 
z
" id="DejaVuSans-99"/>
       <path d="M 30.609375 48.390625 
Q 23.390625 48.390625 19.1875 42.75 
Q 14.984375 37.109375 14.984375 27.296875 
Q 14.984375 17.484375 19.15625 11.84375 
Q 23.34375 6.203125 30.609375 6.203125 
Q 37.796875 6.203125 41.984375 11.859375 
Q 46.1875 17.53125 46.1875 27.296875 
Q 46.1875 37.015625 41.984375 42.703125 
Q 37.796875 48.390625 30.609375 48.390625 
z
M 30.609375 56 
Q 42.328125 56 49.015625 48.375 
Q 55.71875 40.765625 55.71875 27.296875 
Q 55.71875 13.875 49.015625 6.21875 
Q 42.328125 -1.421875 30.609375 -1.421875 
Q 18.84375 -1.421875 12.171875 6.21875 
Q 5.515625 13.875 5.515625 27.296875 
Q 5.515625 40.765625 12.171875 48.375 
Q 18.84375 56 30.609375 56 
z
" id="DejaVuSans-111"/>
       <path d="M 41.109375 46.296875 
Q 39.59375 47.171875 37.8125 47.578125 
Q 36.03125 48 33.890625 48 
Q 26.265625 48 22.1875 43.046875 
Q 18.109375 38.09375 18.109375 28.8125 
L 18.109375 0 
L 9.078125 0 
L 9.078125 54.6875 
L 18.109375 54.6875 
L 18.109375 46.1875 
Q 20.953125 51.171875 25.484375 53.578125 
Q 30.03125 56 36.53125 56 
Q 37.453125 56 38.578125 55.875 
Q 39.703125 55.765625 41.0625 55.515625 
z
" id="DejaVuSans-114"/>
       <path d="M 45.40625 46.390625 
L 45.40625 75.984375 
L 54.390625 75.984375 
L 54.390625 0 
L 45.40625 0 
L 45.40625 8.203125 
Q 42.578125 3.328125 38.25 0.953125 
Q 33.9375 -1.421875 27.875 -1.421875 
Q 17.96875 -1.421875 11.734375 6.484375 
Q 5.515625 14.40625 5.515625 27.296875 
Q 5.515625 40.1875 11.734375 48.09375 
Q 17.96875 56 27.875 56 
Q 33.9375 56 38.25 53.625 
Q 42.578125 51.265625 45.40625 46.390625 
z
M 14.796875 27.296875 
Q 14.796875 17.390625 18.875 11.75 
Q 22.953125 6.109375 30.078125 6.109375 
Q 37.203125 6.109375 41.296875 11.75 
Q 45.40625 17.390625 45.40625 27.296875 
Q 45.40625 37.203125 41.296875 42.84375 
Q 37.203125 48.484375 30.078125 48.484375 
Q 22.953125 48.484375 18.875 42.84375 
Q 14.796875 37.203125 14.796875 27.296875 
z
" id="DejaVuSans-100"/>
       <path d="M 9.421875 54.6875 
L 18.40625 54.6875 
L 18.40625 0 
L 9.421875 0 
z
M 9.421875 75.984375 
L 18.40625 75.984375 
L 18.40625 64.59375 
L 9.421875 64.59375 
z
" id="DejaVuSans-105"/>
       <path d="M 54.890625 33.015625 
L 54.890625 0 
L 45.90625 0 
L 45.90625 32.71875 
Q 45.90625 40.484375 42.875 44.328125 
Q 39.84375 48.1875 33.796875 48.1875 
Q 26.515625 48.1875 22.3125 43.546875 
Q 18.109375 38.921875 18.109375 30.90625 
L 18.109375 0 
L 9.078125 0 
L 9.078125 54.6875 
L 18.109375 54.6875 
L 18.109375 46.1875 
Q 21.34375 51.125 25.703125 53.5625 
Q 30.078125 56 35.796875 56 
Q 45.21875 56 50.046875 50.171875 
Q 54.890625 44.34375 54.890625 33.015625 
z
" id="DejaVuSans-110"/>
       <path d="M 34.28125 27.484375 
Q 23.390625 27.484375 19.1875 25 
Q 14.984375 22.515625 14.984375 16.5 
Q 14.984375 11.71875 18.140625 8.90625 
Q 21.296875 6.109375 26.703125 6.109375 
Q 34.1875 6.109375 38.703125 11.40625 
Q 43.21875 16.703125 43.21875 25.484375 
L 43.21875 27.484375 
z
M 52.203125 31.203125 
L 52.203125 0 
L 43.21875 0 
L 43.21875 8.296875 
Q 40.140625 3.328125 35.546875 0.953125 
Q 30.953125 -1.421875 24.3125 -1.421875 
Q 15.921875 -1.421875 10.953125 3.296875 
Q 6 8.015625 6 15.921875 
Q 6 25.140625 12.171875 29.828125 
Q 18.359375 34.515625 30.609375 34.515625 
L 43.21875 34.515625 
L 43.21875 35.40625 
Q 43.21875 41.609375 39.140625 45 
Q 35.0625 48.390625 27.6875 48.390625 
Q 23 48.390625 18.546875 47.265625 
Q 14.109375 46.140625 10.015625 43.890625 
L 10.015625 52.203125 
Q 14.9375 54.109375 19.578125 55.046875 
Q 24.21875 56 28.609375 56 
Q 40.484375 56 46.34375 49.84375 
Q 52.203125 43.703125 52.203125 31.203125 
z
" id="DejaVuSans-97"/>
       <path d="M 18.3125 70.21875 
L 18.3125 54.6875 
L 36.8125 54.6875 
L 36.8125 47.703125 
L 18.3125 47.703125 
L 18.3125 18.015625 
Q 18.3125 11.328125 20.140625 9.421875 
Q 21.96875 7.515625 27.59375 7.515625 
L 36.8125 7.515625 
L 36.8125 0 
L 27.59375 0 
Q 17.1875 0 13.234375 3.875 
Q 9.28125 7.765625 9.28125 18.015625 
L 9.28125 47.703125 
L 2.6875 47.703125 
L 2.6875 54.6875 
L 9.28125 54.6875 
L 9.28125 70.21875 
z
" id="DejaVuSans-116"/>
       <path d="M 56.203125 29.59375 
L 56.203125 25.203125 
L 14.890625 25.203125 
Q 15.484375 15.921875 20.484375 11.0625 
Q 25.484375 6.203125 34.421875 6.203125 
Q 39.59375 6.203125 44.453125 7.46875 
Q 49.3125 8.734375 54.109375 11.28125 
L 54.109375 2.78125 
Q 49.265625 0.734375 44.1875 -0.34375 
Q 39.109375 -1.421875 33.890625 -1.421875 
Q 20.796875 -1.421875 13.15625 6.1875 
Q 5.515625 13.8125 5.515625 26.8125 
Q 5.515625 40.234375 12.765625 48.109375 
Q 20.015625 56 32.328125 56 
Q 43.359375 56 49.78125 48.890625 
Q 56.203125 41.796875 56.203125 29.59375 
z
M 47.21875 32.234375 
Q 47.125 39.59375 43.09375 43.984375 
Q 39.0625 48.390625 32.421875 48.390625 
Q 24.90625 48.390625 20.390625 44.140625 
Q 15.875 39.890625 15.1875 32.171875 
z
" id="DejaVuSans-101"/>
       <path id="DejaVuSans-32"/>
       <path d="M 31 75.875 
Q 24.46875 64.65625 21.28125 53.65625 
Q 18.109375 42.671875 18.109375 31.390625 
Q 18.109375 20.125 21.3125 9.0625 
Q 24.515625 -2 31 -13.1875 
L 23.1875 -13.1875 
Q 15.875 -1.703125 12.234375 9.375 
Q 8.59375 20.453125 8.59375 31.390625 
Q 8.59375 42.28125 12.203125 53.3125 
Q 15.828125 64.359375 23.1875 75.875 
z
" id="DejaVuSans-40"/>
       <path d="M 52 44.1875 
Q 55.375 50.25 60.0625 53.125 
Q 64.75 56 71.09375 56 
Q 79.640625 56 84.28125 50.015625 
Q 88.921875 44.046875 88.921875 33.015625 
L 88.921875 0 
L 79.890625 0 
L 79.890625 32.71875 
Q 79.890625 40.578125 77.09375 44.375 
Q 74.3125 48.1875 68.609375 48.1875 
Q 61.625 48.1875 57.5625 43.546875 
Q 53.515625 38.921875 53.515625 30.90625 
L 53.515625 0 
L 44.484375 0 
L 44.484375 32.71875 
Q 44.484375 40.625 41.703125 44.40625 
Q 38.921875 48.1875 33.109375 48.1875 
Q 26.21875 48.1875 22.15625 43.53125 
Q 18.109375 38.875 18.109375 30.90625 
L 18.109375 0 
L 9.078125 0 
L 9.078125 54.6875 
L 18.109375 54.6875 
L 18.109375 46.1875 
Q 21.1875 51.21875 25.484375 53.609375 
Q 29.78125 56 35.6875 56 
Q 41.65625 56 45.828125 52.96875 
Q 50 49.953125 52 44.1875 
z
" id="DejaVuSans-109"/>
       <path d="M 8.015625 75.875 
L 15.828125 75.875 
Q 23.140625 64.359375 26.78125 53.3125 
Q 30.421875 42.28125 30.421875 31.390625 
Q 30.421875 20.453125 26.78125 9.375 
Q 23.140625 -1.703125 15.828125 -13.1875 
L 8.015625 -13.1875 
Q 14.5 -2 17.703125 9.0625 
Q 20.90625 20.125 20.90625 31.390625 
Q 20.90625 42.671875 17.703125 53.65625 
Q 14.5 64.65625 8.015625 75.875 
z
" id="DejaVuSans-41"/>
      </defs>
      <use xlink:href="#DejaVuSans-88"/>
      <use x="63.505859" xlink:href="#DejaVuSans-45"/>
      <use x="99.589844" xlink:href="#DejaVuSans-99"/>
      <use x="154.570312" xlink:href="#DejaVuSans-111"/>
      <use x="215.751953" xlink:href="#DejaVuSans-111"/>
      <use x="276.933594" xlink:href="#DejaVuSans-114"/>
      <use x="316.296875" xlink:href="#DejaVuSans-100"/>
      <use x="379.773438" xlink:href="#DejaVuSans-105"/>
      <use x="407.556641" xlink:href="#DejaVuSans-110"/>
      <use x="470.935547" xlink:href="#DejaVuSans-97"/>
      <use x="532.214844" xlink:href="#DejaVuSans-116"/>
      <use x="571.423828" xlink:href="#DejaVuSans-101"/>
      <use x="632.947266" xlink:href="#DejaVuSans-32"/>
      <use x="664.734375" xlink:href="#DejaVuSans-40"/>
      <use x="703.748047" xlink:href="#DejaVuSans-109"/>
      <use x="801.160156" xlink:href="#DejaVuSans-41"/>
     </g>
    </g>
   </g>
   <g id="matplotlib.axis_2">
    <g id="ytick_1">
     <g id="line2d_7">
      <defs>
       <path d="M 0 0 
L -3.5 0 
" id="m5dafdd2a61" style="stroke:#000000;stroke-width:0.8;"/>
      </defs>
      <g>
       <use style="stroke:#000000;stroke-width:0.8;" x="76.260156" xlink:href="#m5dafdd2a61" y="300.138984"/>
      </g>
     </g>
     <g id="text_8">
      <!-- −2000 -->
      <g transform="translate(23.781563 305.077969)scale(0.13 -0.13)">
       <use xlink:href="#DejaVuSans-8722"/>
       <use x="83.789062" xlink:href="#DejaVuSans-50"/>
       <use x="147.412109" xlink:href="#DejaVuSans-48"/>
       <use x="211.035156" xlink:href="#DejaVuSans-48"/>
       <use x="274.658203" xlink:href="#DejaVuSans-48"/>
      </g>
     </g>
    </g>
    <g id="ytick_2">
     <g id="line2d_8">
      <g>
       <use style="stroke:#000000;stroke-width:0.8;" x="76.260156" xlink:href="#m5dafdd2a61" y="264.138984"/>
      </g>
     </g>
     <g id="text_9">
      <!-- −1750 -->
      <g transform="translate(23.781563 269.077969)scale(0.13 -0.13)">
       <defs>
        <path d="M 8.203125 72.90625 
L 55.078125 72.90625 
L 55.078125 68.703125 
L 28.609375 0 
L 18.3125 0 
L 43.21875 64.59375 
L 8.203125 64.59375 
z
" id="DejaVuSans-55"/>
       </defs>
       <use xlink:href="#DejaVuSans-8722"/>
       <use x="83.789062" xlink:href="#DejaVuSans-49"/>
       <use x="147.412109" xlink:href="#DejaVuSans-55"/>
       <use x="211.035156" xlink:href="#DejaVuSans-53"/>
       <use x="274.658203" xlink:href="#DejaVuSans-48"/>
      </g>
     </g>
    </g>
    <g id="ytick_3">
     <g id="line2d_9">
      <g>
       <use style="stroke:#000000;stroke-width:0.8;" x="76.260156" xlink:href="#m5dafdd2a61" y="228.138984"/>
      </g>
     </g>
     <g id="text_10">
      <!-- −1500 -->
      <g transform="translate(23.781563 233.077969)scale(0.13 -0.13)">
       <use xlink:href="#DejaVuSans-8722"/>
       <use x="83.789062" xlink:href="#DejaVuSans-49"/>
       <use x="147.412109" xlink:href="#DejaVuSans-53"/>
       <use x="211.035156" xlink:href="#DejaVuSans-48"/>
       <use x="274.658203" xlink:href="#DejaVuSans-48"/>
      </g>
     </g>
    </g>
    <g id="ytick_4">
     <g id="line2d_10">
      <g>
       <use style="stroke:#000000;stroke-width:0.8;" x="76.260156" xlink:href="#m5dafdd2a61" y="192.138984"/>
      </g>
     </g>
     <g id="text_11">
      <!-- −1250 -->
      <g transform="translate(23.781563 197.077969)scale(0.13 -0.13)">
       <use xlink:href="#DejaVuSans-8722"/>
       <use x="83.789062" xlink:href="#DejaVuSans-49"/>
       <use x="147.412109" xlink:href="#DejaVuSans-50"/>
       <use x="211.035156" xlink:href="#DejaVuSans-53"/>
       <use x="274.658203" xlink:href="#DejaVuSans-48"/>
      </g>
     </g>
    </g>
    <g id="ytick_5">
     <g id="line2d_11">
      <g>
       <use style="stroke:#000000;stroke-width:0.8;" x="76.260156" xlink:href="#m5dafdd2a61" y="156.138984"/>
      </g>
     </g>
     <g id="text_12">
      <!-- −1000 -->
      <g transform="translate(23.781563 161.077969)scale(0.13 -0.13)">
       <use xlink:href="#DejaVuSans-8722"/>
       <use x="83.789062" xlink:href="#DejaVuSans-49"/>
       <use x="147.412109" xlink:href="#DejaVuSans-48"/>
       <use x="211.035156" xlink:href="#DejaVuSans-48"/>
       <use x="274.658203" xlink:href="#DejaVuSans-48"/>
      </g>
     </g>
    </g>
    <g id="ytick_6">
     <g id="line2d_12">
      <g>
       <use style="stroke:#000000;stroke-width:0.8;" x="76.260156" xlink:href="#m5dafdd2a61" y="120.138984"/>
      </g>
     </g>
     <g id="text_13">
      <!-- −750 -->
      <g transform="translate(32.052813 125.077969)scale(0.13 -0.13)">
       <use xlink:href="#DejaVuSans-8722"/>
       <use x="83.789062" xlink:href="#DejaVuSans-55"/>
       <use x="147.412109" xlink:href="#DejaVuSans-53"/>
       <use x="211.035156" xlink:href="#DejaVuSans-48"/>
      </g>
     </g>
    </g>
    <g id="ytick_7">
     <g id="line2d_13">
      <g>
       <use style="stroke:#000000;stroke-width:0.8;" x="76.260156" xlink:href="#m5dafdd2a61" y="84.138984"/>
      </g>
     </g>
     <g id="text_14">
      <!-- −500 -->
      <g transform="translate(32.052813 89.077969)scale(0.13 -0.13)">
       <use xlink:href="#DejaVuSans-8722"/>
       <use x="83.789062" xlink:href="#DejaVuSans-53"/>
       <use x="147.412109" xlink:href="#DejaVuSans-48"/>
       <use x="211.035156" xlink:href="#DejaVuSans-48"/>
      </g>
     </g>
    </g>
    <g id="ytick_8">
     <g id="line2d_14">
      <g>
       <use style="stroke:#000000;stroke-width:0.8;" x="76.260156" xlink:href="#m5dafdd2a61" y="48.138984"/>
      </g>
     </g>
     <g id="text_15">
      <!-- −250 -->
      <g transform="translate(32.052813 53.077969)scale(0.13 -0.13)">
       <use xlink:href="#DejaVuSans-8722"/>
       <use x="83.789062" xlink:href="#DejaVuSans-50"/>
       <use x="147.412109" xlink:href="#DejaVuSans-53"/>
       <use x="211.035156" xlink:href="#DejaVuSans-48"/>
      </g>
     </g>
    </g>
    <g id="ytick_9">
     <g id="line2d_15">
      <g>
       <use style="stroke:#000000;stroke-width:0.8;" x="76.260156" xlink:href="#m5dafdd2a61" y="12.138984"/>
      </g>
     </g>
     <g id="text_16">
      <!-- 0 -->
      <g transform="translate(59.488906 17.077969)scale(0.13 -0.13)">
       <use xlink:href="#DejaVuSans-48"/>
      </g>
     </g>
    </g>
    <g id="text_17">
     <!-- Y-coordinate (m) -->
     <g transform="translate(17.077969 217.020859)rotate(-90)scale(0.13 -0.13)">
      <defs>
       <path d="M -0.203125 72.90625 
L 10.40625 72.90625 
L 30.609375 42.921875 
L 50.6875 72.90625 
L 61.28125 72.90625 
L 35.5 34.71875 
L 35.5 0 
L 25.59375 0 
L 25.59375 34.71875 
z
" id="DejaVuSans-89"/>
      </defs>
      <use xlink:href="#DejaVuSans-89"/>
      <use x="49.208984" xlink:href="#DejaVuSans-45"/>
      <use x="85.292969" xlink:href="#DejaVuSans-99"/>
      <use x="140.273438" xlink:href="#DejaVuSans-111"/>
      <use x="201.455078" xlink:href="#DejaVuSans-111"/>
      <use x="262.636719" xlink:href="#DejaVuSans-114"/>
      <use x="302" xlink:href="#DejaVuSans-100"/>
      <use x="365.476562" xlink:href="#DejaVuSans-105"/>
      <use x="393.259766" xlink:href="#DejaVuSans-110"/>
      <use x="456.638672" xlink:href="#DejaVuSans-97"/>
      <use x="517.917969" xlink:href="#DejaVuSans-116"/>
      <use x="557.126953" xlink:href="#DejaVuSans-101"/>
      <use x="618.650391" xlink:href="#DejaVuSans-32"/>
      <use x="650.4375" xlink:href="#DejaVuSans-40"/>
      <use x="689.451172" xlink:href="#DejaVuSans-109"/>
      <use x="786.863281" xlink:href="#DejaVuSans-41"/>
     </g>
    </g>
   </g>
   <g id="line2d_16">
    <defs>
     <path d="M 0 1.25 
C 0.331504 1.25 0.649475 1.118292 0.883883 0.883883 
C 1.118292 0.649475 1.25 0.331504 1.25 0 
C 1.25 -0.331504 1.118292 -0.649475 0.883883 -0.883883 
C 0.649475 -1.118292 0.331504 -1.25 0 -1.25 
C -0.331504 -1.25 -0.649475 -1.118292 -0.883883 -0.883883 
C -1.118292 -0.649475 -1.25 -0.331504 -1.25 0 
C -1.25 0.331504 -1.118292 0.649475 -0.883883 0.883883 
C -0.649475 1.118292 -0.331504 1.25 0 1.25 
z
" id="m9bb44e2daa" style="stroke:#0000ff;"/>
    </defs>
    <g clip-path="url(#p6071b83682)">
     <use style="fill:#0000ff;stroke:#0000ff;" x="136.740156" xlink:href="#m9bb44e2daa" y="12.138984"/>
     <use style="fill:#0000ff;stroke:#0000ff;" x="167.840792" xlink:href="#m9bb44e2daa" y="56.263144"/>
     <use style="fill:#0000ff;stroke:#0000ff;" x="171.628714" xlink:href="#m9bb44e2daa" y="61.585539"/>
     <use style="fill:#0000ff;stroke:#0000ff;" x="175.381892" xlink:href="#m9bb44e2daa" y="67.062201"/>
     <use style="fill:#0000ff;stroke:#0000ff;" x="179.255801" xlink:href="#m9bb44e2daa" y="72.484934"/>
     <use style="fill:#0000ff;stroke:#0000ff;" x="183.061602" xlink:href="#m9bb44e2daa" y="77.990805"/>
     <use style="fill:#0000ff;stroke:#0000ff;" x="187.22269" xlink:href="#m9bb44e2daa" y="83.206664"/>
     <use style="fill:#0000ff;stroke:#0000ff;" x="191.192348" xlink:href="#m9bb44e2daa" y="88.565731"/>
     <use style="fill:#0000ff;stroke:#0000ff;" x="194.863169" xlink:href="#m9bb44e2daa" y="94.004233"/>
     <use style="fill:#0000ff;stroke:#0000ff;" x="198.458207" xlink:href="#m9bb44e2daa" y="99.704875"/>
     <use style="fill:#0000ff;stroke:#0000ff;" x="202.126384" xlink:href="#m9bb44e2daa" y="105.001387"/>
     <use style="fill:#0000ff;stroke:#0000ff;" x="205.806323" xlink:href="#m9bb44e2daa" y="110.588227"/>
     <use style="fill:#0000ff;stroke:#0000ff;" x="209.47" xlink:href="#m9bb44e2daa" y="116.385405"/>
     <use style="fill:#0000ff;stroke:#0000ff;" x="213.659329" xlink:href="#m9bb44e2daa" y="122.10378"/>
     <use style="fill:#0000ff;stroke:#0000ff;" x="217.55473" xlink:href="#m9bb44e2daa" y="127.375139"/>
     <use style="fill:#0000ff;stroke:#0000ff;" x="221.510434" xlink:href="#m9bb44e2daa" y="133.037516"/>
     <use style="fill:#0000ff;stroke:#0000ff;" x="225.481205" xlink:href="#m9bb44e2daa" y="138.53555"/>
     <use style="fill:#0000ff;stroke:#0000ff;" x="229.364903" xlink:href="#m9bb44e2daa" y="143.710672"/>
     <use style="fill:#0000ff;stroke:#0000ff;" x="233.126997" xlink:href="#m9bb44e2daa" y="149.030814"/>
     <use style="fill:#0000ff;stroke:#0000ff;" x="237.030752" xlink:href="#m9bb44e2daa" y="154.351996"/>
     <use style="fill:#0000ff;stroke:#0000ff;" x="240.857989" xlink:href="#m9bb44e2daa" y="159.585615"/>
     <use style="fill:#0000ff;stroke:#0000ff;" x="244.614517" xlink:href="#m9bb44e2daa" y="165.207365"/>
     <use style="fill:#0000ff;stroke:#0000ff;" x="248.688209" xlink:href="#m9bb44e2daa" y="170.421186"/>
     <use style="fill:#0000ff;stroke:#0000ff;" x="252.315576" xlink:href="#m9bb44e2daa" y="175.61319"/>
     <use style="fill:#0000ff;stroke:#0000ff;" x="256.218878" xlink:href="#m9bb44e2daa" y="181.42675"/>
     <use style="fill:#0000ff;stroke:#0000ff;" x="259.920308" xlink:href="#m9bb44e2daa" y="186.824747"/>
     <use style="fill:#0000ff;stroke:#0000ff;" x="264.0439" xlink:href="#m9bb44e2daa" y="192.449064"/>
     <use style="fill:#0000ff;stroke:#0000ff;" x="267.66789" xlink:href="#m9bb44e2daa" y="198.310167"/>
     <use style="fill:#0000ff;stroke:#0000ff;" x="271.529888" xlink:href="#m9bb44e2daa" y="204.140258"/>
     <use style="fill:#0000ff;stroke:#0000ff;" x="275.259179" xlink:href="#m9bb44e2daa" y="209.316921"/>
     <use style="fill:#0000ff;stroke:#0000ff;" x="279.390014" xlink:href="#m9bb44e2daa" y="214.579779"/>
     <use style="fill:#0000ff;stroke:#0000ff;" x="283.136473" xlink:href="#m9bb44e2daa" y="220.066672"/>
     <use style="fill:#0000ff;stroke:#0000ff;" x="286.948578" xlink:href="#m9bb44e2daa" y="225.394813"/>
     <use style="fill:#0000ff;stroke:#0000ff;" x="290.843738" xlink:href="#m9bb44e2daa" y="230.789571"/>
     <use style="fill:#0000ff;stroke:#0000ff;" x="294.750433" xlink:href="#m9bb44e2daa" y="236.63681"/>
     <use style="fill:#0000ff;stroke:#0000ff;" x="298.600296" xlink:href="#m9bb44e2daa" y="241.841408"/>
     <use style="fill:#0000ff;stroke:#0000ff;" x="302.748429" xlink:href="#m9bb44e2daa" y="247.197843"/>
     <use style="fill:#0000ff;stroke:#0000ff;" x="306.505549" xlink:href="#m9bb44e2daa" y="252.541618"/>
     <use style="fill:#0000ff;stroke:#0000ff;" x="310.477788" xlink:href="#m9bb44e2daa" y="258.162223"/>
     <use style="fill:#0000ff;stroke:#0000ff;" x="314.478986" xlink:href="#m9bb44e2daa" y="263.918242"/>
     <use style="fill:#0000ff;stroke:#0000ff;" x="318.330341" xlink:href="#m9bb44e2daa" y="269.160107"/>
     <use style="fill:#0000ff;stroke:#0000ff;" x="322.417021" xlink:href="#m9bb44e2daa" y="274.797785"/>
     <use style="fill:#0000ff;stroke:#0000ff;" x="323.34397" xlink:href="#m9bb44e2daa" y="276.883944"/>
     <use style="fill:#0000ff;stroke:#0000ff;" x="354.444606" xlink:href="#m9bb44e2daa" y="321.008104"/>
    </g>
   </g>
   <g id="line2d_17">
    <path clip-path="url(#p6071b83682)" d="M 136.740156 12.138984 
L 167.840792 56.263144 
L 160.70356 56.796321 
L 156.278126 61.987364 
L 154.619321 69.730771 
L 156.332386 77.468375 
L 161.941768 85.876375 
L 167.343093 91.358849 
L 172.347784 95.750855 
L 177.236772 99.733299 
L 182.088178 103.5272 
L 186.796433 107.151402 
L 191.562277 110.835356 
L 196.073423 114.373738 
L 200.736335 118.074687 
L 205.462568 122.052135 
L 210.368035 126.487507 
L 214.827283 130.803451 
L 219.43003 135.55259 
L 223.867533 140.410632 
L 228.028604 145.204281 
L 232.122308 150.125809 
L 236.21005 155.224574 
L 240.16463 160.307665 
L 244.205105 165.629427 
L 248.168477 170.951032 
L 251.899045 176.03168 
L 255.986665 181.660222 
L 259.796269 186.948284 
L 263.862546 192.625096 
L 267.817408 198.167982 
L 271.846192 203.828539 
L 275.542407 209.029067 
L 279.446532 214.525972 
L 283.279327 219.923503 
L 287.07481 225.267657 
L 290.933294 230.698416 
L 294.985996 236.399408 
L 298.748475 241.688882 
L 302.703616 247.245769 
L 306.487962 252.559582 
L 310.479069 258.160824 
L 314.539394 263.856771 
L 318.32478 269.165501 
L 322.371408 274.839746 
L 354.444606 321.008104 
" style="fill:none;stroke:#ff0000;stroke-dasharray:5.55,2.4;stroke-dashoffset:0;stroke-width:1.5;"/>
   </g>
   <g id="line2d_18">
    <path clip-path="url(#p6071b83682)" d="M 136.740156 12.138984 
L 167.840792 56.263144 
L 160.220035 54.549569 
L 155.028854 56.47926 
L 150.478469 61.125315 
L 147.543857 67.735104 
L 146.476599 77.098683 
L 148.604117 86.729741 
L 153.409785 95.172016 
L 159.525394 102.261927 
L 164.96686 107.527257 
L 170.057075 112.073015 
L 175.031674 116.256678 
L 179.835601 120.109876 
L 184.682737 123.864539 
L 189.276854 127.33817 
L 193.994462 130.852043 
L 198.754586 134.363324 
L 203.744297 138.044346 
L 208.330875 141.526614 
L 213.164886 145.381834 
L 217.896322 149.341123 
L 222.391935 153.270172 
L 226.870319 157.346424 
L 231.386367 161.620368 
L 235.776707 165.931325 
L 240.279362 170.511445 
L 244.694216 175.156958 
L 248.834169 179.648473 
L 253.354635 184.701817 
L 257.534813 189.508152 
L 261.964723 194.736947 
L 266.234443 199.901839 
L 270.546073 205.234425 
L 274.467472 210.177945 
L 278.577657 215.44594 
L 282.581925 220.655846 
L 286.519922 225.846311 
L 290.4986 231.14904 
L 294.65427 236.741671 
L 298.493474 241.950888 
L 302.512097 247.44194 
L 306.34321 252.707446 
L 310.372831 258.269056 
L 314.467124 263.929478 
L 318.285819 269.204339 
L 322.371408 274.839746 
L 354.444606 321.008104 
" style="fill:none;stroke:#ff0000;stroke-dasharray:5.55,2.4;stroke-dashoffset:0;stroke-width:1.5;"/>
   </g>
   <g id="line2d_19">
    <path clip-path="url(#p6071b83682)" d="M 136.740156 12.138984 
L 167.840792 56.263144 
L 160.309416 52.982518 
L 153.988968 53.521983 
L 147.323632 57.011453 
L 143.273505 61.836941 
L 140.077098 68.349804 
L 138.191625 76.456666 
L 138.095195 86.115251 
L 140.209448 95.402485 
L 143.160738 101.437356 
L 146.97727 106.986765 
L 151.655043 112.497665 
L 157.489022 118.442234 
L 162.817524 123.481793 
L 167.936224 128.055292 
L 172.840127 132.240695 
L 177.749789 136.282321 
L 182.397782 139.982285 
L 187.148729 143.667472 
L 191.942244 147.30007 
L 196.932362 151.001892 
L 201.454156 154.3492 
L 206.233359 157.952202 
L 210.948916 161.570224 
L 215.457909 165.103829 
L 219.982853 168.742053 
L 224.58336 172.536789 
L 229.084984 176.341908 
L 233.745761 180.379604 
L 238.351328 184.46976 
L 242.68949 188.416112 
L 247.477962 192.875361 
L 251.920416 197.111814 
L 256.666729 201.742665 
L 261.260092 206.326239 
L 265.923913 211.081288 
L 270.173819 215.500955 
L 274.644567 220.237058 
L 279.006435 224.939975 
L 283.301159 229.645637 
L 287.642831 234.473957 
L 292.178974 239.590083 
L 296.368616 244.369818 
L 300.753988 249.426406 
L 304.933053 254.287548 
L 309.326821 259.434459 
L 313.783904 264.683535 
L 317.935401 269.589116 
L 322.371408 274.839746 
L 354.444606 321.008104 
" style="fill:none;stroke:#ff0000;stroke-dasharray:5.55,2.4;stroke-dashoffset:0;stroke-width:1.5;"/>
   </g>
   <g id="line2d_20">
    <path clip-path="url(#p6071b83682)" d="M 136.740156 12.138984 
L 167.840792 56.263144 
L 160.502506 52.030067 
L 153.671673 50.925002 
L 145.48776 52.54838 
L 138.987817 56.618058 
L 134.918729 60.972327 
L 131.352438 66.502703 
L 128.604031 73.130131 
L 126.533642 82.082702 
L 126.206659 91.26582 
L 127.478491 100.427183 
L 130.506294 110.113039 
L 135.031478 118.666499 
L 140.585118 126.031164 
L 146.916299 133.049973 
L 152.616004 138.700473 
L 158.329236 143.640469 
L 163.738815 148.144691 
L 168.750454 152.210325 
L 173.534455 155.998315 
L 178.399905 159.77186 
L 183.313641 163.513029 
L 188.388567 167.306172 
L 192.945198 170.632896 
L 197.708368 174.133724 
L 202.426695 177.612637 
L 206.950085 180.952215 
L 211.509973 184.327418 
L 216.17173 187.791854 
L 220.75176 191.213823 
L 225.524912 194.804289 
L 230.270572 198.403983 
L 234.756534 201.841974 
L 239.755837 205.717879 
L 244.411075 209.368373 
L 249.432252 213.348469 
L 254.321779 217.265547 
L 259.32914 221.318522 
L 263.916421 225.066934 
L 268.78238 229.077997 
L 273.55938 233.049188 
L 278.292274 237.01428 
L 283.105641 241.075428 
L 288.166074 245.373264 
L 292.859494 249.38233 
L 297.796847 253.620355 
L 302.519101 257.689191 
L 307.500163 261.991474 
L 312.559171 266.364631 
L 317.279859 270.443464 
L 322.371408 274.839746 
L 354.444606 321.008104 
" style="fill:none;stroke:#ff0000;stroke-dasharray:5.55,2.4;stroke-dashoffset:0;stroke-width:1.5;"/>
   </g>
   <g id="line2d_21">
    <path clip-path="url(#p6071b83682)" d="M 136.740156 12.138984 
L 167.840792 56.263144 
L 160.755538 51.24267 
L 156.213179 49.1917 
L 150.810776 48.008434 
L 144.740988 47.969895 
L 136.23571 50.161211 
L 129.91862 54.164764 
L 124.115962 59.724754 
L 118.880232 67.064123 
L 115.502247 74.408158 
L 113.180273 82.287569 
L 111.908104 90.604376 
L 111.702856 99.70571 
L 112.751872 108.783082 
L 114.551606 115.604366 
L 117.326781 122.654206 
L 121.327863 130.206352 
L 125.866869 136.765081 
L 130.598023 142.366368 
L 135.747716 147.719749 
L 140.762726 152.435367 
L 145.756624 156.470991 
L 150.162832 159.449481 
L 156.439089 163.30385 
L 161.597984 166.595988 
L 166.624684 169.875579 
L 171.662632 173.194802 
L 176.83057 176.609833 
L 182.074738 180.083632 
L 186.727752 183.179881 
L 191.603837 186.412982 
L 196.442887 189.625306 
L 201.080748 192.714345 
L 205.755019 195.837176 
L 210.535714 199.03821 
L 215.234955 202.190465 
L 220.138287 205.483641 
L 225.021974 208.767141 
L 229.646821 211.87962 
L 234.819065 215.364013 
L 239.64631 218.620603 
L 244.870787 222.15128 
L 249.971861 225.605789 
L 255.213176 229.163392 
L 260.026433 232.437683 
L 265.148005 235.928801 
L 270.18902 239.371171 
L 275.196412 242.795294 
L 280.301675 246.289502 
L 285.682742 249.974004 
L 290.683811 253.398103 
L 295.955407 257.005639 
L 301.001899 260.456238 
L 306.29802 264.091238 
L 311.539767 267.81037 
L 316.163121 271.562249 
L 322.371408 274.839746 
L 354.444606 321.008104 
" style="fill:none;stroke:#ff0000;stroke-dasharray:5.55,2.4;stroke-dashoffset:0;stroke-width:1.5;"/>
   </g>
   <g id="line2d_22">
    <path clip-path="url(#p6071b83682)" d="M 136.740156 12.138984 
L 167.840792 56.263144 
L 161.120497 50.475651 
L 156.611661 47.817567 
L 151.199515 45.612511 
L 146.871795 44.582724 
L 141.459173 44.146828 
L 135.006787 44.825631 
L 127.026815 47.503451 
L 121.751182 51.00504 
L 116.843496 55.515289 
L 112.353173 61.06013 
L 107.28592 69.377042 
L 103.620572 78.740551 
L 101.422233 88.86566 
L 100.981434 96.435561 
L 101.34499 103.911183 
L 102.478323 111.260337 
L 104.736642 119.91256 
L 108.110748 128.406575 
L 112.859008 137.118211 
L 117.967647 144.624014 
L 122.047675 149.540756 
L 127.108382 154.146736 
L 132.162733 157.442273 
L 139.820102 162.170376 
L 144.092988 165.738124 
L 147.742638 167.073885 
L 154.270208 171.046995 
L 158.893715 174.260497 
L 163.880336 177.02416 
L 168.901409 180.023614 
L 173.975799 183.1425 
L 179.307947 186.439904 
L 184.007796 189.353481 
L 188.963375 192.42958 
L 193.847206 195.462338 
L 198.545883 198.382143 
L 203.288803 201.329024 
L 208.1453 204.342031 
L 212.923128 207.304062 
L 217.911455 210.396855 
L 222.885349 213.471297 
L 227.594886 216.387356 
L 232.863637 219.652742 
L 237.782929 222.700494 
L 243.109931 225.999508 
L 248.313493 229.223132 
L 253.663697 232.53743 
L 258.579355 235.582916 
L 263.8144 238.821901 
L 268.970329 242.009178 
L 274.094054 245.174845 
L 279.320667 248.398342 
L 284.831543 251.790494 
L 289.951293 254.936871 
L 295.339003 258.246084 
L 300.453097 261.395346 
L 305.597259 264.594532 
L 309.905291 267.309106 
L 313.857369 269.778597 
L 316.577165 271.43523 
L 322.371408 274.839746 
L 354.444606 321.008104 
" style="fill:none;stroke:#ff0000;stroke-dasharray:5.55,2.4;stroke-dashoffset:0;stroke-width:1.5;"/>
   </g>
   <g id="line2d_23">
    <path clip-path="url(#p6071b83682)" d="M 136.740156 12.138984 
L 167.840792 56.263144 
L 161.477873 49.858371 
L 157.07644 46.636811 
L 151.733962 43.712249 
L 147.263567 42.029137 
L 141.56712 40.801837 
L 134.511769 40.603682 
L 125.595741 42.417924 
L 119.134871 45.788132 
L 113.342705 50.475804 
L 109.769802 54.696736 
L 106.269385 59.947124 
L 103.001597 66.411823 
L 100.477345 73.533126 
L 98.847526 80.895958 
L 98.083542 88.373393 
L 98.139821 96.527632 
L 99.090623 104.3338 
L 100.843257 111.815914 
L 103.837473 120.314253 
L 107.934351 128.276565 
L 111.465877 133.635974 
L 116.521485 139.154873 
L 122.428303 145.357626 
L 127.415689 149.463373 
L 131.451306 152.950736 
L 136.056092 155.979936 
L 140.443098 159.013028 
L 146.51674 163.068428 
L 150.340331 165.57061 
L 157.222662 170.022896 
L 160.609162 172.204851 
L 165.600604 175.414374 
L 170.09156 178.29851 
L 174.974938 181.430486 
L 180.169249 184.755439 
L 184.814362 187.719196 
L 189.728056 190.855553 
L 194.567882 193.946246 
L 199.243409 196.931625 
L 203.939275 199.928543 
L 208.763821 203.005379 
L 213.510458 206.029977 
L 218.466565 209.185082 
L 223.405601 212.326301 
L 228.083816 215.299128 
L 233.326725 218.628311 
L 238.225089 221.736797 
L 243.518799 225.094519 
L 248.690347 228.373486 
L 254.013696 231.747657 
L 258.903082 234.84593 
L 264.11014 238.144541 
L 269.234946 241.389724 
L 274.327414 244.612438 
L 279.513884 247.891515 
L 284.987355 251.347134 
L 290.041655 254.531916 
L 295.268886 257.817449 
L 300.039759 260.80882 
L 304.172874 263.399277 
L 306.812235 265.055952 
L 309.640253 266.841409 
L 313.945726 269.573107 
L 316.799452 271.372547 
L 322.371408 274.839746 
L 354.444606 321.008104 
" style="fill:none;stroke:#ff0000;stroke-dasharray:5.55,2.4;stroke-dashoffset:0;stroke-width:1.5;"/>
   </g>
   <g id="line2d_24">
    <path clip-path="url(#p6071b83682)" d="M 136.740156 12.138984 
L 167.840792 56.263144 
L 161.603838 49.663921 
L 157.243466 46.274565 
L 151.936254 43.130469 
L 147.442334 41.22149 
L 141.699902 39.680857 
L 136.86678 39.222942 
L 131.334794 39.590775 
L 125.261265 41.175938 
L 118.546843 44.50208 
L 112.566069 49.320254 
L 108.857562 53.73732 
L 105.312408 59.172303 
L 102.052141 65.847764 
L 99.594361 73.18431 
L 98.091004 80.732482 
L 97.496464 88.344326 
L 97.802797 96.563205 
L 99.060107 104.33904 
L 101.172383 111.65681 
L 104.618364 119.79341 
L 108.973638 127.347496 
L 112.597978 132.407152 
L 116.09571 136.5596 
L 120.686999 141.259575 
L 125.8967 145.630792 
L 132.389287 150.394254 
L 136.238754 153.150168 
L 139.34659 156.268896 
L 143.852015 158.642903 
L 148.739065 162.126667 
L 152.543155 164.800034 
L 158.883593 169.162156 
L 161.598889 171.00129 
L 166.457743 174.256325 
L 170.815038 177.151507 
L 175.598809 180.310666 
L 180.697907 183.657233 
L 185.298405 186.657533 
L 190.252409 189.86616 
L 195.024273 192.957574 
L 199.682148 195.970283 
L 204.364174 198.996453 
L 209.17425 202.104689 
L 213.905225 205.161822 
L 218.840729 208.351557 
L 223.76147 211.532423 
L 228.431317 214.551688 
L 233.647866 217.924809 
L 238.522579 221.076818 
L 243.792806 224.48402 
L 248.941581 227.811708 
L 254.242123 231.236085 
L 259.106824 234.377342 
L 264.294643 237.72537 
L 269.400376 241.018381 
L 274.468598 244.285346 
L 279.61971 247.604691 
L 285.058994 251.110936 
L 290.049465 254.332932 
L 295.128495 257.621031 
L 299.590832 260.519223 
L 303.008395 262.743186 
L 305.762027 264.536902 
L 308.533802 266.335356 
L 312.916567 269.174876 
L 316.584228 271.485324 
L 322.371408 274.839746 
L 354.444606 321.008104 
" style="fill:none;stroke:#ff0000;stroke-dasharray:5.55,2.4;stroke-dashoffset:0;stroke-width:1.5;"/>
   </g>
   <g id="line2d_25">
    <path clip-path="url(#p6071b83682)" d="M 136.740156 12.138984 
L 167.840792 56.263144 
L 161.789487 49.395742 
L 157.517716 45.731311 
L 152.292195 42.218888 
L 147.771852 39.96133 
L 141.950632 38.031132 
L 136.903113 37.322331 
L 131.106982 37.532725 
L 124.709782 39.117115 
L 117.691534 42.624474 
L 111.520153 47.791224 
L 107.721401 52.585071 
L 104.254603 58.365094 
L 101.188352 65.377377 
L 98.998644 72.97961 
L 97.795827 80.684097 
L 97.510296 88.341396 
L 98.139219 96.494886 
L 99.674968 104.088544 
L 101.989478 111.112241 
L 105.585053 118.823184 
L 109.862426 125.469983 
L 114.677841 132.064374 
L 121.326511 138.496741 
L 126.636963 144.399347 
L 133.778452 149.087001 
L 137.602221 151.800463 
L 139.778156 153.528057 
L 144.023457 156.78727 
L 150.419956 161.657411 
L 155.442717 165.220043 
L 161.901731 169.688501 
L 167.600874 173.548787 
L 171.475639 176.144668 
L 176.418194 179.431194 
L 181.272351 182.639659 
L 185.856727 185.655315 
L 190.767786 188.872897 
L 195.523551 191.980066 
L 200.153757 195.011221 
L 204.813657 198.068412 
L 209.603315 201.214012 
L 214.310425 204.306031 
L 219.227681 207.535402 
L 224.127504 210.752027 
L 228.789 213.810302 
L 233.991369 217.221326 
L 238.840681 220.399096 
L 244.091442 223.83816 
L 249.217511 227.193797 
L 254.499462 230.64978 
L 259.344853 233.819025 
L 264.512828 237.198906 
L 269.582194 240.515171 
L 274.603069 243.802 
L 279.691316 247.136766 
L 284.960606 250.595742 
L 289.62013 253.660132 
L 294.048734 256.577835 
L 297.41358 258.797195 
L 300.294665 260.697348 
L 303.395016 262.738099 
L 306.315996 264.652062 
L 308.958678 266.370781 
L 313.361116 269.199587 
L 316.983262 271.488096 
L 322.371408 274.839746 
L 354.444606 321.008104 
" style="fill:none;stroke:#ff0000;stroke-dasharray:5.55,2.4;stroke-dashoffset:0;stroke-width:1.5;"/>
   </g>
   <g id="line2d_26">
    <path clip-path="url(#p6071b83682)" d="M 136.740156 12.138984 
L 167.840792 56.263144 
L 161.789487 49.395742 
L 157.517716 45.731311 
L 152.292195 42.218888 
L 147.771852 39.96133 
L 141.950632 38.031132 
L 136.903113 37.322331 
L 131.106982 37.532725 
L 124.709782 39.117115 
L 117.691534 42.624474 
L 111.520153 47.791224 
L 107.721401 52.585071 
L 104.254603 58.365094 
L 101.188352 65.377377 
L 98.998644 72.97961 
L 97.795827 80.684097 
L 97.510296 88.341396 
L 98.139219 96.494886 
L 99.674968 104.088544 
L 101.989478 111.112241 
L 105.585053 118.823184 
L 109.862426 125.469983 
L 114.677841 132.064374 
L 121.326511 138.496741 
L 126.636963 144.399347 
L 133.778452 149.087001 
L 137.602221 151.800463 
L 139.778156 153.528057 
L 144.023457 156.78727 
L 150.419956 161.657411 
L 155.442717 165.220043 
L 161.901731 169.688501 
L 167.600874 173.548787 
L 171.475639 176.144668 
L 176.418194 179.431194 
L 181.272351 182.639659 
L 185.856727 185.655315 
L 190.767786 188.872897 
L 195.523551 191.980066 
L 200.153757 195.011221 
L 204.813657 198.068412 
L 209.603315 201.214012 
L 214.310425 204.306031 
L 219.227681 207.535402 
L 224.127504 210.752027 
L 228.789 213.810302 
L 233.991369 217.221326 
L 238.840681 220.399096 
L 244.091442 223.83816 
L 249.217511 227.193797 
L 254.499462 230.64978 
L 259.344853 233.819025 
L 264.512828 237.198906 
L 269.582194 240.515171 
L 274.603069 243.802 
L 279.691316 247.136766 
L 284.960606 250.595742 
L 289.62013 253.660132 
L 294.048734 256.577835 
L 297.41358 258.797195 
L 300.294665 260.697348 
L 303.395016 262.738099 
L 306.315996 264.652062 
L 308.958678 266.370781 
L 313.361116 269.199587 
L 316.983262 271.488096 
L 322.371408 274.839746 
L 354.444606 321.008104 
" style="fill:none;stroke:#ff0000;stroke-dasharray:5.55,2.4;stroke-dashoffset:0;stroke-width:1.5;"/>
   </g>
   <g id="line2d_27">
    <path clip-path="url(#p6071b83682)" d="M 136.740156 12.138984 
L 167.840792 56.263144 
L 161.789487 49.395742 
L 157.517716 45.731311 
L 152.292195 42.218888 
L 147.771852 39.96133 
L 141.950632 38.031132 
L 136.903113 37.322331 
L 131.106982 37.532725 
L 124.709782 39.117115 
L 117.691534 42.624474 
L 111.520153 47.791224 
L 107.721401 52.585071 
L 104.254603 58.365094 
L 101.188352 65.377377 
L 98.998644 72.97961 
L 97.795827 80.684097 
L 97.510296 88.341396 
L 98.139219 96.494886 
L 99.674968 104.088544 
L 101.989478 111.112241 
L 105.585053 118.823184 
L 109.862426 125.469983 
L 114.677841 132.064374 
L 121.326511 138.496741 
L 126.636963 144.399347 
L 133.778452 149.087001 
L 137.602221 151.800463 
L 139.778156 153.528057 
L 144.023457 156.78727 
L 150.419956 161.657411 
L 155.442717 165.220043 
L 161.901731 169.688501 
L 167.600874 173.548787 
L 171.475639 176.144668 
L 176.418194 179.431194 
L 181.272351 182.639659 
L 185.856727 185.655315 
L 190.767786 188.872897 
L 195.523551 191.980066 
L 200.153757 195.011221 
L 204.813657 198.068412 
L 209.603315 201.214012 
L 214.310425 204.306031 
L 219.227681 207.535402 
L 224.127504 210.752027 
L 228.789 213.810302 
L 233.991369 217.221326 
L 238.840681 220.399096 
L 244.091442 223.83816 
L 249.217511 227.193797 
L 254.499462 230.64978 
L 259.344853 233.819025 
L 264.512828 237.198906 
L 269.582194 240.515171 
L 274.603069 243.802 
L 279.691316 247.136766 
L 284.960606 250.595742 
L 289.62013 253.660132 
L 294.048734 256.577835 
L 297.41358 258.797195 
L 300.294665 260.697348 
L 303.395016 262.738099 
L 306.315996 264.652062 
L 308.958678 266.370781 
L 313.361116 269.199587 
L 316.983262 271.488096 
L 322.371408 274.839746 
L 354.444606 321.008104 
" style="fill:none;stroke:#ff0000;stroke-linecap:square;stroke-width:2;"/>
   </g>
   <g id="line2d_28">
    <defs>
     <path d="M 0 3 
C 0.795609 3 1.55874 2.683901 2.12132 2.12132 
C 2.683901 1.55874 3 0.795609 3 0 
C 3 -0.795609 2.683901 -1.55874 2.12132 -2.12132 
C 1.55874 -2.683901 0.795609 -3 0 -3 
C -0.795609 -3 -1.55874 -2.683901 -2.12132 -2.12132 
C -2.683901 -1.55874 -3 -0.795609 -3 0 
C -3 0.795609 -2.683901 1.55874 -2.12132 2.12132 
C -1.55874 2.683901 -0.795609 3 0 3 
z
" id="mfa1a53db8f" style="stroke:#ff0000;"/>
    </defs>
    <g clip-path="url(#p6071b83682)">
     <use style="fill:#ff0000;stroke:#ff0000;" x="136.740156" xlink:href="#mfa1a53db8f" y="12.138984"/>
     <use style="fill:#ff0000;stroke:#ff0000;" x="167.840792" xlink:href="#mfa1a53db8f" y="56.263144"/>
     <use style="fill:#ff0000;stroke:#ff0000;" x="161.789487" xlink:href="#mfa1a53db8f" y="49.395742"/>
     <use style="fill:#ff0000;stroke:#ff0000;" x="157.517716" xlink:href="#mfa1a53db8f" y="45.731311"/>
     <use style="fill:#ff0000;stroke:#ff0000;" x="152.292195" xlink:href="#mfa1a53db8f" y="42.218888"/>
     <use style="fill:#ff0000;stroke:#ff0000;" x="147.771852" xlink:href="#mfa1a53db8f" y="39.96133"/>
     <use style="fill:#ff0000;stroke:#ff0000;" x="141.950632" xlink:href="#mfa1a53db8f" y="38.031132"/>
     <use style="fill:#ff0000;stroke:#ff0000;" x="136.903113" xlink:href="#mfa1a53db8f" y="37.322331"/>
     <use style="fill:#ff0000;stroke:#ff0000;" x="131.106982" xlink:href="#mfa1a53db8f" y="37.532725"/>
     <use style="fill:#ff0000;stroke:#ff0000;" x="124.709782" xlink:href="#mfa1a53db8f" y="39.117115"/>
     <use style="fill:#ff0000;stroke:#ff0000;" x="117.691534" xlink:href="#mfa1a53db8f" y="42.624474"/>
     <use style="fill:#ff0000;stroke:#ff0000;" x="111.520153" xlink:href="#mfa1a53db8f" y="47.791224"/>
     <use style="fill:#ff0000;stroke:#ff0000;" x="107.721401" xlink:href="#mfa1a53db8f" y="52.585071"/>
     <use style="fill:#ff0000;stroke:#ff0000;" x="104.254603" xlink:href="#mfa1a53db8f" y="58.365094"/>
     <use style="fill:#ff0000;stroke:#ff0000;" x="101.188352" xlink:href="#mfa1a53db8f" y="65.377377"/>
     <use style="fill:#ff0000;stroke:#ff0000;" x="98.998644" xlink:href="#mfa1a53db8f" y="72.97961"/>
     <use style="fill:#ff0000;stroke:#ff0000;" x="97.795827" xlink:href="#mfa1a53db8f" y="80.684097"/>
     <use style="fill:#ff0000;stroke:#ff0000;" x="97.510296" xlink:href="#mfa1a53db8f" y="88.341396"/>
     <use style="fill:#ff0000;stroke:#ff0000;" x="98.139219" xlink:href="#mfa1a53db8f" y="96.494886"/>
     <use style="fill:#ff0000;stroke:#ff0000;" x="99.674968" xlink:href="#mfa1a53db8f" y="104.088544"/>
     <use style="fill:#ff0000;stroke:#ff0000;" x="101.989478" xlink:href="#mfa1a53db8f" y="111.112241"/>
     <use style="fill:#ff0000;stroke:#ff0000;" x="105.585053" xlink:href="#mfa1a53db8f" y="118.823184"/>
     <use style="fill:#ff0000;stroke:#ff0000;" x="109.862426" xlink:href="#mfa1a53db8f" y="125.469983"/>
     <use style="fill:#ff0000;stroke:#ff0000;" x="114.677841" xlink:href="#mfa1a53db8f" y="132.064374"/>
     <use style="fill:#ff0000;stroke:#ff0000;" x="121.326511" xlink:href="#mfa1a53db8f" y="138.496741"/>
     <use style="fill:#ff0000;stroke:#ff0000;" x="126.636963" xlink:href="#mfa1a53db8f" y="144.399347"/>
     <use style="fill:#ff0000;stroke:#ff0000;" x="133.778452" xlink:href="#mfa1a53db8f" y="149.087001"/>
     <use style="fill:#ff0000;stroke:#ff0000;" x="137.602221" xlink:href="#mfa1a53db8f" y="151.800463"/>
     <use style="fill:#ff0000;stroke:#ff0000;" x="139.778156" xlink:href="#mfa1a53db8f" y="153.528057"/>
     <use style="fill:#ff0000;stroke:#ff0000;" x="144.023457" xlink:href="#mfa1a53db8f" y="156.78727"/>
     <use style="fill:#ff0000;stroke:#ff0000;" x="150.419956" xlink:href="#mfa1a53db8f" y="161.657411"/>
     <use style="fill:#ff0000;stroke:#ff0000;" x="155.442717" xlink:href="#mfa1a53db8f" y="165.220043"/>
     <use style="fill:#ff0000;stroke:#ff0000;" x="161.901731" xlink:href="#mfa1a53db8f" y="169.688501"/>
     <use style="fill:#ff0000;stroke:#ff0000;" x="167.600874" xlink:href="#mfa1a53db8f" y="173.548787"/>
     <use style="fill:#ff0000;stroke:#ff0000;" x="171.475639" xlink:href="#mfa1a53db8f" y="176.144668"/>
     <use style="fill:#ff0000;stroke:#ff0000;" x="176.418194" xlink:href="#mfa1a53db8f" y="179.431194"/>
     <use style="fill:#ff0000;stroke:#ff0000;" x="181.272351" xlink:href="#mfa1a53db8f" y="182.639659"/>
     <use style="fill:#ff0000;stroke:#ff0000;" x="185.856727" xlink:href="#mfa1a53db8f" y="185.655315"/>
     <use style="fill:#ff0000;stroke:#ff0000;" x="190.767786" xlink:href="#mfa1a53db8f" y="188.872897"/>
     <use style="fill:#ff0000;stroke:#ff0000;" x="195.523551" xlink:href="#mfa1a53db8f" y="191.980066"/>
     <use style="fill:#ff0000;stroke:#ff0000;" x="200.153757" xlink:href="#mfa1a53db8f" y="195.011221"/>
     <use style="fill:#ff0000;stroke:#ff0000;" x="204.813657" xlink:href="#mfa1a53db8f" y="198.068412"/>
     <use style="fill:#ff0000;stroke:#ff0000;" x="209.603315" xlink:href="#mfa1a53db8f" y="201.214012"/>
     <use style="fill:#ff0000;stroke:#ff0000;" x="214.310425" xlink:href="#mfa1a53db8f" y="204.306031"/>
     <use style="fill:#ff0000;stroke:#ff0000;" x="219.227681" xlink:href="#mfa1a53db8f" y="207.535402"/>
     <use style="fill:#ff0000;stroke:#ff0000;" x="224.127504" xlink:href="#mfa1a53db8f" y="210.752027"/>
     <use style="fill:#ff0000;stroke:#ff0000;" x="228.789" xlink:href="#mfa1a53db8f" y="213.810302"/>
     <use style="fill:#ff0000;stroke:#ff0000;" x="233.991369" xlink:href="#mfa1a53db8f" y="217.221326"/>
     <use style="fill:#ff0000;stroke:#ff0000;" x="238.840681" xlink:href="#mfa1a53db8f" y="220.399096"/>
     <use style="fill:#ff0000;stroke:#ff0000;" x="244.091442" xlink:href="#mfa1a53db8f" y="223.83816"/>
     <use style="fill:#ff0000;stroke:#ff0000;" x="249.217511" xlink:href="#mfa1a53db8f" y="227.193797"/>
     <use style="fill:#ff0000;stroke:#ff0000;" x="254.499462" xlink:href="#mfa1a53db8f" y="230.64978"/>
     <use style="fill:#ff0000;stroke:#ff0000;" x="259.344853" xlink:href="#mfa1a53db8f" y="233.819025"/>
     <use style="fill:#ff0000;stroke:#ff0000;" x="264.512828" xlink:href="#mfa1a53db8f" y="237.198906"/>
     <use style="fill:#ff0000;stroke:#ff0000;" x="269.582194" xlink:href="#mfa1a53db8f" y="240.515171"/>
     <use style="fill:#ff0000;stroke:#ff0000;" x="274.603069" xlink:href="#mfa1a53db8f" y="243.802"/>
     <use style="fill:#ff0000;stroke:#ff0000;" x="279.691316" xlink:href="#mfa1a53db8f" y="247.136766"/>
     <use style="fill:#ff0000;stroke:#ff0000;" x="284.960606" xlink:href="#mfa1a53db8f" y="250.595742"/>
     <use style="fill:#ff0000;stroke:#ff0000;" x="289.62013" xlink:href="#mfa1a53db8f" y="253.660132"/>
     <use style="fill:#ff0000;stroke:#ff0000;" x="294.048734" xlink:href="#mfa1a53db8f" y="256.577835"/>
     <use style="fill:#ff0000;stroke:#ff0000;" x="297.41358" xlink:href="#mfa1a53db8f" y="258.797195"/>
     <use style="fill:#ff0000;stroke:#ff0000;" x="300.294665" xlink:href="#mfa1a53db8f" y="260.697348"/>
     <use style="fill:#ff0000;stroke:#ff0000;" x="303.395016" xlink:href="#mfa1a53db8f" y="262.738099"/>
     <use style="fill:#ff0000;stroke:#ff0000;" x="306.315996" xlink:href="#mfa1a53db8f" y="264.652062"/>
     <use style="fill:#ff0000;stroke:#ff0000;" x="308.958678" xlink:href="#mfa1a53db8f" y="266.370781"/>
     <use style="fill:#ff0000;stroke:#ff0000;" x="313.361116" xlink:href="#mfa1a53db8f" y="269.199587"/>
     <use style="fill:#ff0000;stroke:#ff0000;" x="316.983262" xlink:href="#mfa1a53db8f" y="271.488096"/>
     <use style="fill:#ff0000;stroke:#ff0000;" x="322.371408" xlink:href="#mfa1a53db8f" y="274.839746"/>
     <use style="fill:#ff0000;stroke:#ff0000;" x="354.444606" xlink:href="#mfa1a53db8f" y="321.008104"/>
    </g>
   </g>
   <g id="line2d_29">
    <path clip-path="url(#p6071b83682)" d="M 136.740156 12.138984 
L 167.840792 56.263144 
" style="fill:none;stroke:#000000;stroke-linecap:square;stroke-width:5;"/>
   </g>
   <g id="line2d_30">
    <path clip-path="url(#p6071b83682)" d="M 323.34397 276.883944 
L 354.444606 321.008104 
" style="fill:none;stroke:#000000;stroke-linecap:square;stroke-width:5;"/>
   </g>
   <g id="patch_5">
    <path d="M 76.260156 314.538984 
L 76.260156 12.138984 
" style="fill:none;stroke:#000000;stroke-linecap:square;stroke-linejoin:miter;stroke-width:0.8;"/>
   </g>
   <g id="patch_6">
    <path d="M 378.660156 314.538984 
L 378.660156 12.138984 
" style="fill:none;stroke:#000000;stroke-linecap:square;stroke-linejoin:miter;stroke-width:0.8;"/>
   </g>
   <g id="patch_7">
    <path d="M 76.260156 314.538984 
L 378.660156 314.538984 
" style="fill:none;stroke:#000000;stroke-linecap:square;stroke-linejoin:miter;stroke-width:0.8;"/>
   </g>
   <g id="patch_8">
    <path d="M 76.260156 12.138984 
L 378.660156 12.138984 
" style="fill:none;stroke:#000000;stroke-linecap:square;stroke-linejoin:miter;stroke-width:0.8;"/>
   </g>
   <g id="legend_1">
    <g id="line2d_31"/>
    <g id="line2d_32">
     <g>
      <use style="fill:#0000ff;stroke:#0000ff;" x="91.860156" xlink:href="#m9bb44e2daa" y="271.249922"/>
      <use style="fill:#0000ff;stroke:#0000ff;" x="103.560156" xlink:href="#m9bb44e2daa" y="271.249922"/>
     </g>
    </g>
    <g id="text_18">
     <!-- Initial Coastline -->
     <g transform="translate(117.860156 275.799922)scale(0.1 -0.1)">
      <defs>
       <path d="M 9.8125 72.90625 
L 19.671875 72.90625 
L 19.671875 0 
L 9.8125 0 
z
" id="DejaVuSans-73"/>
       <path d="M 9.421875 75.984375 
L 18.40625 75.984375 
L 18.40625 0 
L 9.421875 0 
z
" id="DejaVuSans-108"/>
       <path d="M 64.40625 67.28125 
L 64.40625 56.890625 
Q 59.421875 61.53125 53.78125 63.8125 
Q 48.140625 66.109375 41.796875 66.109375 
Q 29.296875 66.109375 22.65625 58.46875 
Q 16.015625 50.828125 16.015625 36.375 
Q 16.015625 21.96875 22.65625 14.328125 
Q 29.296875 6.6875 41.796875 6.6875 
Q 48.140625 6.6875 53.78125 8.984375 
Q 59.421875 11.28125 64.40625 15.921875 
L 64.40625 5.609375 
Q 59.234375 2.09375 53.4375 0.328125 
Q 47.65625 -1.421875 41.21875 -1.421875 
Q 24.65625 -1.421875 15.125 8.703125 
Q 5.609375 18.84375 5.609375 36.375 
Q 5.609375 53.953125 15.125 64.078125 
Q 24.65625 74.21875 41.21875 74.21875 
Q 47.75 74.21875 53.53125 72.484375 
Q 59.328125 70.75 64.40625 67.28125 
z
" id="DejaVuSans-67"/>
       <path d="M 44.28125 53.078125 
L 44.28125 44.578125 
Q 40.484375 46.53125 36.375 47.5 
Q 32.28125 48.484375 27.875 48.484375 
Q 21.1875 48.484375 17.84375 46.4375 
Q 14.5 44.390625 14.5 40.28125 
Q 14.5 37.15625 16.890625 35.375 
Q 19.28125 33.59375 26.515625 31.984375 
L 29.59375 31.296875 
Q 39.15625 29.25 43.1875 25.515625 
Q 47.21875 21.78125 47.21875 15.09375 
Q 47.21875 7.46875 41.1875 3.015625 
Q 35.15625 -1.421875 24.609375 -1.421875 
Q 20.21875 -1.421875 15.453125 -0.5625 
Q 10.6875 0.296875 5.421875 2 
L 5.421875 11.28125 
Q 10.40625 8.6875 15.234375 7.390625 
Q 20.0625 6.109375 24.8125 6.109375 
Q 31.15625 6.109375 34.5625 8.28125 
Q 37.984375 10.453125 37.984375 14.40625 
Q 37.984375 18.0625 35.515625 20.015625 
Q 33.0625 21.96875 24.703125 23.78125 
L 21.578125 24.515625 
Q 13.234375 26.265625 9.515625 29.90625 
Q 5.8125 33.546875 5.8125 39.890625 
Q 5.8125 47.609375 11.28125 51.796875 
Q 16.75 56 26.8125 56 
Q 31.78125 56 36.171875 55.265625 
Q 40.578125 54.546875 44.28125 53.078125 
z
" id="DejaVuSans-115"/>
      </defs>
      <use xlink:href="#DejaVuSans-73"/>
      <use x="29.492188" xlink:href="#DejaVuSans-110"/>
      <use x="92.871094" xlink:href="#DejaVuSans-105"/>
      <use x="120.654297" xlink:href="#DejaVuSans-116"/>
      <use x="159.863281" xlink:href="#DejaVuSans-105"/>
      <use x="187.646484" xlink:href="#DejaVuSans-97"/>
      <use x="248.925781" xlink:href="#DejaVuSans-108"/>
      <use x="276.708984" xlink:href="#DejaVuSans-32"/>
      <use x="308.496094" xlink:href="#DejaVuSans-67"/>
      <use x="378.320312" xlink:href="#DejaVuSans-111"/>
      <use x="439.501953" xlink:href="#DejaVuSans-97"/>
      <use x="500.78125" xlink:href="#DejaVuSans-115"/>
      <use x="552.880859" xlink:href="#DejaVuSans-116"/>
      <use x="592.089844" xlink:href="#DejaVuSans-108"/>
      <use x="619.873047" xlink:href="#DejaVuSans-105"/>
      <use x="647.65625" xlink:href="#DejaVuSans-110"/>
      <use x="711.035156" xlink:href="#DejaVuSans-101"/>
     </g>
    </g>
    <g id="line2d_33">
     <path d="M 91.860156 283.729609 
L 103.560156 283.729609 
" style="fill:none;stroke:#ff0000;stroke-dasharray:5.55,2.4;stroke-dashoffset:0;stroke-width:1.5;"/>
    </g>
    <g id="line2d_34"/>
    <g id="text_19">
     <!-- Intermediate Coastlines -->
     <g transform="translate(117.860156 288.279609)scale(0.1 -0.1)">
      <use xlink:href="#DejaVuSans-73"/>
      <use x="29.492188" xlink:href="#DejaVuSans-110"/>
      <use x="92.871094" xlink:href="#DejaVuSans-116"/>
      <use x="132.080078" xlink:href="#DejaVuSans-101"/>
      <use x="193.603516" xlink:href="#DejaVuSans-114"/>
      <use x="232.966797" xlink:href="#DejaVuSans-109"/>
      <use x="330.378906" xlink:href="#DejaVuSans-101"/>
      <use x="391.902344" xlink:href="#DejaVuSans-100"/>
      <use x="455.378906" xlink:href="#DejaVuSans-105"/>
      <use x="483.162109" xlink:href="#DejaVuSans-97"/>
      <use x="544.441406" xlink:href="#DejaVuSans-116"/>
      <use x="583.650391" xlink:href="#DejaVuSans-101"/>
      <use x="645.173828" xlink:href="#DejaVuSans-32"/>
      <use x="676.960938" xlink:href="#DejaVuSans-67"/>
      <use x="746.785156" xlink:href="#DejaVuSans-111"/>
      <use x="807.966797" xlink:href="#DejaVuSans-97"/>
      <use x="869.246094" xlink:href="#DejaVuSans-115"/>
      <use x="921.345703" xlink:href="#DejaVuSans-116"/>
      <use x="960.554688" xlink:href="#DejaVuSans-108"/>
      <use x="988.337891" xlink:href="#DejaVuSans-105"/>
      <use x="1016.121094" xlink:href="#DejaVuSans-110"/>
      <use x="1079.5" xlink:href="#DejaVuSans-101"/>
      <use x="1141.023438" xlink:href="#DejaVuSans-115"/>
     </g>
    </g>
    <g id="line2d_35">
     <path d="M 91.860156 296.209297 
L 103.560156 296.209297 
" style="fill:none;stroke:#ff0000;stroke-linecap:square;stroke-width:2;"/>
    </g>
    <g id="line2d_36"/>
    <g id="text_20">
     <!-- 50 Year Coastline -->
     <g transform="translate(117.860156 300.759297)scale(0.1 -0.1)">
      <use xlink:href="#DejaVuSans-53"/>
      <use x="63.623047" xlink:href="#DejaVuSans-48"/>
      <use x="127.246094" xlink:href="#DejaVuSans-32"/>
      <use x="159.033203" xlink:href="#DejaVuSans-89"/>
      <use x="206.867188" xlink:href="#DejaVuSans-101"/>
      <use x="268.390625" xlink:href="#DejaVuSans-97"/>
      <use x="329.669922" xlink:href="#DejaVuSans-114"/>
      <use x="370.783203" xlink:href="#DejaVuSans-32"/>
      <use x="402.570312" xlink:href="#DejaVuSans-67"/>
      <use x="472.394531" xlink:href="#DejaVuSans-111"/>
      <use x="533.576172" xlink:href="#DejaVuSans-97"/>
      <use x="594.855469" xlink:href="#DejaVuSans-115"/>
      <use x="646.955078" xlink:href="#DejaVuSans-116"/>
      <use x="686.164062" xlink:href="#DejaVuSans-108"/>
      <use x="713.947266" xlink:href="#DejaVuSans-105"/>
      <use x="741.730469" xlink:href="#DejaVuSans-110"/>
      <use x="805.109375" xlink:href="#DejaVuSans-101"/>
     </g>
    </g>
   </g>
  </g>
  <g id="axes_2">
   <g id="patch_9">
    <path clip-path="url(#p81d1bd3085)" d="M 324.660156 87.738984 
C 324.660156 87.738984 324.660156 87.738984 324.660156 87.738984 
C 324.660156 87.738984 324.660156 87.738984 324.660156 87.738984 
L 326.51349 73.661515 
C 325.899026 73.58062 325.279923 73.540041 324.660156 73.540041 
C 324.040389 73.540041 323.421287 73.58062 322.806822 73.661515 
z
" style="fill:#ffffff;stroke:#000000;stroke-linejoin:miter;"/>
   </g>
   <g id="patch_10">
    <path clip-path="url(#p81d1bd3085)" d="M 324.660156 87.738984 
C 324.660156 87.738984 324.660156 87.738984 324.660156 87.738984 
C 324.660156 87.738984 324.660156 87.738984 324.660156 87.738984 
L 344.341018 40.22518 
C 342.267098 39.366134 340.139156 38.643795 337.97085 38.062799 
C 335.802544 37.481803 333.598523 37.043396 331.372932 36.750392 
z
" style="fill:#ffffff;stroke:#000000;stroke-linejoin:miter;"/>
   </g>
   <g id="patch_11">
    <path clip-path="url(#p81d1bd3085)" d="M 324.660156 87.738984 
C 324.660156 87.738984 324.660156 87.738984 324.660156 87.738984 
C 324.660156 87.738984 324.660156 87.738984 324.660156 87.738984 
L 340.720279 66.809025 
C 339.806711 66.10802 338.848226 65.467581 337.850974 64.891817 
C 336.853723 64.316054 335.819843 63.806201 334.755971 63.365531 
z
" style="fill:#ffffff;stroke:#000000;stroke-linejoin:miter;"/>
   </g>
   <g id="patch_12">
    <path clip-path="url(#p81d1bd3085)" d="M 324.660156 87.738984 
C 324.660156 87.738984 324.660156 87.738984 324.660156 87.738984 
C 324.660156 87.738984 324.660156 87.738984 324.660156 87.738984 
L 326.259755 86.511569 
C 326.20618 86.441749 326.14809 86.375511 326.08586 86.31328 
C 326.02363 86.25105 325.957392 86.192961 325.887571 86.139386 
z
" style="fill:#ffffff;stroke:#000000;stroke-linejoin:miter;"/>
   </g>
   <g id="patch_13">
    <path clip-path="url(#p81d1bd3085)" d="M 324.660156 87.738984 
C 324.660156 87.738984 324.660156 87.738984 324.660156 87.738984 
C 324.660156 87.738984 324.660156 87.738984 324.660156 87.738984 
L 324.677647 87.731739 
C 324.677331 87.730976 324.676965 87.730234 324.676552 87.729518 
C 324.676139 87.728803 324.675679 87.728115 324.675176 87.727459 
z
" style="fill:#ffffff;stroke:#000000;stroke-linejoin:miter;"/>
   </g>
   <g id="patch_14">
    <path clip-path="url(#p81d1bd3085)" d="M 324.660156 87.738984 
C 324.660156 87.738984 324.660156 87.738984 324.660156 87.738984 
C 324.660156 87.738984 324.660156 87.738984 324.660156 87.738984 
L 324.660156 87.738984 
C 324.660156 87.738984 324.660156 87.738984 324.660156 87.738984 
C 324.660156 87.738984 324.660156 87.738984 324.660156 87.738984 
z
" style="fill:#ffffff;stroke:#000000;stroke-linejoin:miter;"/>
   </g>
   <g id="patch_15">
    <path clip-path="url(#p81d1bd3085)" d="M 324.660156 87.738984 
C 324.660156 87.738984 324.660156 87.738984 324.660156 87.738984 
C 324.660156 87.738984 324.660156 87.738984 324.660156 87.738984 
L 324.660156 87.738984 
C 324.660156 87.738984 324.660156 87.738984 324.660156 87.738984 
C 324.660156 87.738984 324.660156 87.738984 324.660156 87.738984 
z
" style="fill:#ffffff;stroke:#000000;stroke-linejoin:miter;"/>
   </g>
   <g id="patch_16">
    <path clip-path="url(#p81d1bd3085)" d="M 324.660156 87.738984 
C 324.660156 87.738984 324.660156 87.738984 324.660156 87.738984 
C 324.660156 87.738984 324.660156 87.738984 324.660156 87.738984 
L 324.660156 87.738984 
C 324.660156 87.738984 324.660156 87.738984 324.660156 87.738984 
C 324.660156 87.738984 324.660156 87.738984 324.660156 87.738984 
z
" style="fill:#ffffff;stroke:#000000;stroke-linejoin:miter;"/>
   </g>
   <g id="patch_17">
    <path clip-path="url(#p81d1bd3085)" d="M 324.660156 87.738984 
C 324.660156 87.738984 324.660156 87.738984 324.660156 87.738984 
C 324.660156 87.738984 324.660156 87.738984 324.660156 87.738984 
L 324.660156 87.738984 
C 324.660156 87.738984 324.660156 87.738984 324.660156 87.738984 
C 324.660156 87.738984 324.660156 87.738984 324.660156 87.738984 
z
" style="fill:#ffffff;stroke:#000000;stroke-linejoin:miter;"/>
   </g>
   <g id="patch_18">
    <path clip-path="url(#p81d1bd3085)" d="M 324.660156 87.738984 
C 324.660156 87.738984 324.660156 87.738984 324.660156 87.738984 
C 324.660156 87.738984 324.660156 87.738984 324.660156 87.738984 
L 324.660156 87.738984 
C 324.660156 87.738984 324.660156 87.738984 324.660156 87.738984 
C 324.660156 87.738984 324.660156 87.738984 324.660156 87.738984 
z
" style="fill:#ffffff;stroke:#000000;stroke-linejoin:miter;"/>
   </g>
   <g id="patch_19">
    <path clip-path="url(#p81d1bd3085)" d="M 324.660156 87.738984 
C 324.660156 87.738984 324.660156 87.738984 324.660156 87.738984 
C 324.660156 87.738984 324.660156 87.738984 324.660156 87.738984 
L 324.660156 87.738984 
C 324.660156 87.738984 324.660156 87.738984 324.660156 87.738984 
C 324.660156 87.738984 324.660156 87.738984 324.660156 87.738984 
z
" style="fill:#ffffff;stroke:#000000;stroke-linejoin:miter;"/>
   </g>
   <g id="patch_20">
    <path clip-path="url(#p81d1bd3085)" d="M 324.660156 87.738984 
C 324.660156 87.738984 324.660156 87.738984 324.660156 87.738984 
C 324.660156 87.738984 324.660156 87.738984 324.660156 87.738984 
L 324.660156 87.738984 
C 324.660156 87.738984 324.660156 87.738984 324.660156 87.738984 
C 324.660156 87.738984 324.660156 87.738984 324.660156 87.738984 
z
" style="fill:#ffffff;stroke:#000000;stroke-linejoin:miter;"/>
   </g>
   <g id="patch_21">
    <path clip-path="url(#p81d1bd3085)" d="M 324.660156 87.738984 
C 324.660156 87.738984 324.660156 87.738984 324.660156 87.738984 
C 324.660156 87.738984 324.660156 87.738984 324.660156 87.738984 
L 324.660156 87.738984 
C 324.660156 87.738984 324.660156 87.738984 324.660156 87.738984 
C 324.660156 87.738984 324.660156 87.738984 324.660156 87.738984 
z
" style="fill:#ffffff;stroke:#000000;stroke-linejoin:miter;"/>
   </g>
   <g id="patch_22">
    <path clip-path="url(#p81d1bd3085)" d="M 324.660156 87.738984 
C 324.660156 87.738984 324.660156 87.738984 324.660156 87.738984 
C 324.660156 87.738984 324.660156 87.738984 324.660156 87.738984 
L 324.660156 87.738984 
C 324.660156 87.738984 324.660156 87.738984 324.660156 87.738984 
C 324.660156 87.738984 324.660156 87.738984 324.660156 87.738984 
z
" style="fill:#ffffff;stroke:#000000;stroke-linejoin:miter;"/>
   </g>
   <g id="patch_23">
    <path clip-path="url(#p81d1bd3085)" d="M 324.660156 87.738984 
C 324.660156 87.738984 324.660156 87.738984 324.660156 87.738984 
C 324.660156 87.738984 324.660156 87.738984 324.660156 87.738984 
L 324.660156 87.738984 
C 324.660156 87.738984 324.660156 87.738984 324.660156 87.738984 
C 324.660156 87.738984 324.660156 87.738984 324.660156 87.738984 
z
" style="fill:#ffffff;stroke:#000000;stroke-linejoin:miter;"/>
   </g>
   <g id="patch_24">
    <path clip-path="url(#p81d1bd3085)" d="M 324.660156 87.738984 
C 324.660156 87.738984 324.660156 87.738984 324.660156 87.738984 
C 324.660156 87.738984 324.660156 87.738984 324.660156 87.738984 
L 324.660156 87.738984 
C 324.660156 87.738984 324.660156 87.738984 324.660156 87.738984 
C 324.660156 87.738984 324.660156 87.738984 324.660156 87.738984 
z
" style="fill:#ffffff;stroke:#000000;stroke-linejoin:miter;"/>
   </g>
   <g id="patch_25">
    <path clip-path="url(#p81d1bd3085)" d="M 324.660156 87.738984 
C 324.660156 87.738984 324.660156 87.738984 324.660156 87.738984 
C 324.660156 87.738984 324.660156 87.738984 324.660156 87.738984 
L 324.660156 87.738984 
C 324.660156 87.738984 324.660156 87.738984 324.660156 87.738984 
C 324.660156 87.738984 324.660156 87.738984 324.660156 87.738984 
z
" style="fill:#ffffff;stroke:#000000;stroke-linejoin:miter;"/>
   </g>
   <g id="patch_26">
    <path clip-path="url(#p81d1bd3085)" d="M 324.660156 87.738984 
C 324.660156 87.738984 324.660156 87.738984 324.660156 87.738984 
C 324.660156 87.738984 324.660156 87.738984 324.660156 87.738984 
L 324.660156 87.738984 
C 324.660156 87.738984 324.660156 87.738984 324.660156 87.738984 
C 324.660156 87.738984 324.660156 87.738984 324.660156 87.738984 
z
" style="fill:#ffffff;stroke:#000000;stroke-linejoin:miter;"/>
   </g>
   <g id="patch_27">
    <path clip-path="url(#p81d1bd3085)" d="M 324.660156 87.738984 
C 324.660156 87.738984 324.660156 87.738984 324.660156 87.738984 
C 324.660156 87.738984 324.660156 87.738984 324.660156 87.738984 
L 324.660156 87.738984 
C 324.660156 87.738984 324.660156 87.738984 324.660156 87.738984 
C 324.660156 87.738984 324.660156 87.738984 324.660156 87.738984 
z
" style="fill:#ffffff;stroke:#000000;stroke-linejoin:miter;"/>
   </g>
   <g id="patch_28">
    <path clip-path="url(#p81d1bd3085)" d="M 324.660156 87.738984 
C 324.660156 87.738984 324.660156 87.738984 324.660156 87.738984 
C 324.660156 87.738984 324.660156 87.738984 324.660156 87.738984 
L 324.660156 87.738984 
C 324.660156 87.738984 324.660156 87.738984 324.660156 87.738984 
C 324.660156 87.738984 324.660156 87.738984 324.660156 87.738984 
z
" style="fill:#ffffff;stroke:#000000;stroke-linejoin:miter;"/>
   </g>
   <g id="patch_29">
    <path clip-path="url(#p81d1bd3085)" d="M 324.660156 87.738984 
C 324.660156 87.738984 324.660156 87.738984 324.660156 87.738984 
C 324.660156 87.738984 324.660156 87.738984 324.660156 87.738984 
L 324.660156 87.738984 
C 324.660156 87.738984 324.660156 87.738984 324.660156 87.738984 
C 324.660156 87.738984 324.660156 87.738984 324.660156 87.738984 
z
" style="fill:#ffffff;stroke:#000000;stroke-linejoin:miter;"/>
   </g>
   <g id="patch_30">
    <path clip-path="url(#p81d1bd3085)" d="M 324.660156 87.738984 
C 324.660156 87.738984 324.660156 87.738984 324.660156 87.738984 
C 324.660156 87.738984 324.660156 87.738984 324.660156 87.738984 
L 324.660156 87.738984 
C 324.660156 87.738984 324.660156 87.738984 324.660156 87.738984 
C 324.660156 87.738984 324.660156 87.738984 324.660156 87.738984 
z
" style="fill:#ffffff;stroke:#000000;stroke-linejoin:miter;"/>
   </g>
   <g id="patch_31">
    <path clip-path="url(#p81d1bd3085)" d="M 324.660156 87.738984 
C 324.660156 87.738984 324.660156 87.738984 324.660156 87.738984 
C 324.660156 87.738984 324.660156 87.738984 324.660156 87.738984 
L 324.660156 87.738984 
C 324.660156 87.738984 324.660156 87.738984 324.660156 87.738984 
C 324.660156 87.738984 324.660156 87.738984 324.660156 87.738984 
z
" style="fill:#ffffff;stroke:#000000;stroke-linejoin:miter;"/>
   </g>
   <g id="patch_32">
    <path clip-path="url(#p81d1bd3085)" d="M 324.660156 87.738984 
C 324.660156 87.738984 324.660156 87.738984 324.660156 87.738984 
C 324.660156 87.738984 324.660156 87.738984 324.660156 87.738984 
L 324.660156 87.738984 
C 324.660156 87.738984 324.660156 87.738984 324.660156 87.738984 
C 324.660156 87.738984 324.660156 87.738984 324.660156 87.738984 
z
" style="fill:#ffffff;stroke:#000000;stroke-linejoin:miter;"/>
   </g>
  </g>
 </g>
 <defs>
  <clipPath id="p6071b83682">
   <rect height="302.4" width="302.4" x="76.260156" y="12.138984"/>
  </clipPath>
  <clipPath id="p81d1bd3085">
   <path d="M 378.660156 87.738984 
C 378.660156 80.647769 377.263342 73.625507 374.549651 67.074079 
C 371.83596 60.522651 367.858169 54.569464 362.843922 49.555218 
C 357.829676 44.540972 351.87649 40.56318 345.325062 37.84949 
C 338.773633 35.135799 331.751371 33.738984 324.660156 33.738984 
C 317.568941 33.738984 310.546679 35.135799 303.995251 37.84949 
C 297.443822 40.56318 291.490636 44.540972 286.47639 49.555218 
C 281.462144 54.569464 277.484352 60.522651 274.770661 67.074079 
C 272.056971 73.625507 270.660156 80.647769 270.660156 87.738984 
C 270.660156 94.830199 272.056971 101.852461 274.770661 108.40389 
C 277.484352 114.955318 281.462144 120.908504 286.47639 125.922751 
C 291.490636 130.936997 297.443822 134.914789 303.995251 137.628479 
C 310.546679 140.34217 317.568941 141.738984 324.660156 141.738984 
C 331.751371 141.738984 338.773633 140.34217 345.325062 137.628479 
C 351.87649 134.914789 357.829676 130.936997 362.843922 125.922751 
C 367.858169 120.908504 371.83596 114.955318 374.549651 108.40389 
C 377.263342 101.852461 378.660156 94.830199 378.660156 87.738984 
M 324.660156 87.738984 
C 324.660156 87.738984 324.660156 87.738984 324.660156 87.738984 
C 324.660156 87.738984 324.660156 87.738984 324.660156 87.738984 
C 324.660156 87.738984 324.660156 87.738984 324.660156 87.738984 
C 324.660156 87.738984 324.660156 87.738984 324.660156 87.738984 
C 324.660156 87.738984 324.660156 87.738984 324.660156 87.738984 
C 324.660156 87.738984 324.660156 87.738984 324.660156 87.738984 
C 324.660156 87.738984 324.660156 87.738984 324.660156 87.738984 
C 324.660156 87.738984 324.660156 87.738984 324.660156 87.738984 
C 324.660156 87.738984 324.660156 87.738984 324.660156 87.738984 
C 324.660156 87.738984 324.660156 87.738984 324.660156 87.738984 
C 324.660156 87.738984 324.660156 87.738984 324.660156 87.738984 
C 324.660156 87.738984 324.660156 87.738984 324.660156 87.738984 
C 324.660156 87.738984 324.660156 87.738984 324.660156 87.738984 
C 324.660156 87.738984 324.660156 87.738984 324.660156 87.738984 
C 324.660156 87.738984 324.660156 87.738984 324.660156 87.738984 
C 324.660156 87.738984 324.660156 87.738984 324.660156 87.738984 
M 378.660156 87.738984 
z
"/>
  </clipPath>
 </defs>
</svg>
