<?xml version="1.0" encoding="utf-8" standalone="no"?>
<!DOCTYPE svg PUBLIC "-//W3C//DTD SVG 1.1//EN"
  "http://www.w3.org/Graphics/SVG/1.1/DTD/svg11.dtd">
<!-- Created with matplotlib (https://matplotlib.org/) -->
<svg height="262.116562pt" version="1.1" viewBox="0 0 655.240625 262.116562" width="655.240625pt" xmlns="http://www.w3.org/2000/svg" xmlns:xlink="http://www.w3.org/1999/xlink">
 <metadata>
  <rdf:RDF xmlns:cc="http://creativecommons.org/ns#" xmlns:dc="http://purl.org/dc/elements/1.1/" xmlns:rdf="http://www.w3.org/1999/02/22-rdf-syntax-ns#">
   <cc:Work>
    <dc:type rdf:resource="http://purl.org/dc/dcmitype/StillImage"/>
    <dc:date>2021-03-25T02:51:47.054225</dc:date>
    <dc:format>image/svg+xml</dc:format>
    <dc:creator>
     <cc:Agent>
      <dc:title>Matplotlib v3.3.4, https://matplotlib.org/</dc:title>
     </cc:Agent>
    </dc:creator>
   </cc:Work>
  </rdf:RDF>
 </metadata>
 <defs>
  <style type="text/css">*{stroke-linecap:butt;stroke-linejoin:round;}</style>
 </defs>
 <g id="figure_1">
  <g id="patch_1">
   <path d="M 0 262.116562 
L 655.240625 262.116562 
L 655.240625 0 
L 0 0 
z
" style="fill:none;"/>
  </g>
  <g id="axes_1">
   <g id="patch_2">
    <path d="M 34.240625 238.238437 
L 648.040625 238.238437 
L 648.040625 20.798437 
L 34.240625 20.798437 
z
" style="fill:#ffffff;"/>
   </g>
   <g id="matplotlib.axis_1">
    <g id="xtick_1">
     <g id="line2d_1">
      <path clip-path="url(#p272aa13d1c)" d="M 61.364547 238.238437 
L 61.364547 20.798437 
" style="fill:none;stroke:#b0b0b0;stroke-linecap:square;stroke-width:0.8;"/>
     </g>
     <g id="line2d_2">
      <defs>
       <path d="M 0 0 
L 0 3.5 
" id="m918f2c16de" style="stroke:#000000;stroke-width:0.8;"/>
      </defs>
      <g>
       <use style="stroke:#000000;stroke-width:0.8;" x="61.364547" xlink:href="#m918f2c16de" y="238.238437"/>
      </g>
     </g>
     <g id="text_1">
      <!-- 01-Jun -->
      <g transform="translate(45.104391 252.836875)scale(0.1 -0.1)">
       <defs>
        <path d="M 31.78125 66.40625 
Q 24.171875 66.40625 20.328125 58.90625 
Q 16.5 51.421875 16.5 36.375 
Q 16.5 21.390625 20.328125 13.890625 
Q 24.171875 6.390625 31.78125 6.390625 
Q 39.453125 6.390625 43.28125 13.890625 
Q 47.125 21.390625 47.125 36.375 
Q 47.125 51.421875 43.28125 58.90625 
Q 39.453125 66.40625 31.78125 66.40625 
z
M 31.78125 74.21875 
Q 44.046875 74.21875 50.515625 64.515625 
Q 56.984375 54.828125 56.984375 36.375 
Q 56.984375 17.96875 50.515625 8.265625 
Q 44.046875 -1.421875 31.78125 -1.421875 
Q 19.53125 -1.421875 13.0625 8.265625 
Q 6.59375 17.96875 6.59375 36.375 
Q 6.59375 54.828125 13.0625 64.515625 
Q 19.53125 74.21875 31.78125 74.21875 
z
" id="DejaVuSans-48"/>
        <path d="M 12.40625 8.296875 
L 28.515625 8.296875 
L 28.515625 63.921875 
L 10.984375 60.40625 
L 10.984375 69.390625 
L 28.421875 72.90625 
L 38.28125 72.90625 
L 38.28125 8.296875 
L 54.390625 8.296875 
L 54.390625 0 
L 12.40625 0 
z
" id="DejaVuSans-49"/>
        <path d="M 4.890625 31.390625 
L 31.203125 31.390625 
L 31.203125 23.390625 
L 4.890625 23.390625 
z
" id="DejaVuSans-45"/>
        <path d="M 9.8125 72.90625 
L 19.671875 72.90625 
L 19.671875 5.078125 
Q 19.671875 -8.109375 14.671875 -14.0625 
Q 9.671875 -20.015625 -1.421875 -20.015625 
L -5.171875 -20.015625 
L -5.171875 -11.71875 
L -2.09375 -11.71875 
Q 4.4375 -11.71875 7.125 -8.046875 
Q 9.8125 -4.390625 9.8125 5.078125 
z
" id="DejaVuSans-74"/>
        <path d="M 8.5 21.578125 
L 8.5 54.6875 
L 17.484375 54.6875 
L 17.484375 21.921875 
Q 17.484375 14.15625 20.5 10.265625 
Q 23.53125 6.390625 29.59375 6.390625 
Q 36.859375 6.390625 41.078125 11.03125 
Q 45.3125 15.671875 45.3125 23.6875 
L 45.3125 54.6875 
L 54.296875 54.6875 
L 54.296875 0 
L 45.3125 0 
L 45.3125 8.40625 
Q 42.046875 3.421875 37.71875 1 
Q 33.40625 -1.421875 27.6875 -1.421875 
Q 18.265625 -1.421875 13.375 4.4375 
Q 8.5 10.296875 8.5 21.578125 
z
M 31.109375 56 
z
" id="DejaVuSans-117"/>
        <path d="M 54.890625 33.015625 
L 54.890625 0 
L 45.90625 0 
L 45.90625 32.71875 
Q 45.90625 40.484375 42.875 44.328125 
Q 39.84375 48.1875 33.796875 48.1875 
Q 26.515625 48.1875 22.3125 43.546875 
Q 18.109375 38.921875 18.109375 30.90625 
L 18.109375 0 
L 9.078125 0 
L 9.078125 54.6875 
L 18.109375 54.6875 
L 18.109375 46.1875 
Q 21.34375 51.125 25.703125 53.5625 
Q 30.078125 56 35.796875 56 
Q 45.21875 56 50.046875 50.171875 
Q 54.890625 44.34375 54.890625 33.015625 
z
" id="DejaVuSans-110"/>
       </defs>
       <use xlink:href="#DejaVuSans-48"/>
       <use x="63.623047" xlink:href="#DejaVuSans-49"/>
       <use x="127.246094" xlink:href="#DejaVuSans-45"/>
       <use x="168.955078" xlink:href="#DejaVuSans-74"/>
       <use x="198.447266" xlink:href="#DejaVuSans-117"/>
       <use x="261.826172" xlink:href="#DejaVuSans-110"/>
      </g>
     </g>
    </g>
    <g id="xtick_2">
     <g id="line2d_3">
      <path clip-path="url(#p272aa13d1c)" d="M 135.868024 238.238437 
L 135.868024 20.798437 
" style="fill:none;stroke:#b0b0b0;stroke-linecap:square;stroke-width:0.8;"/>
     </g>
     <g id="line2d_4">
      <g>
       <use style="stroke:#000000;stroke-width:0.8;" x="135.868024" xlink:href="#m918f2c16de" y="238.238437"/>
      </g>
     </g>
     <g id="text_2">
      <!-- 05-Jun -->
      <g transform="translate(119.607868 252.836875)scale(0.1 -0.1)">
       <defs>
        <path d="M 10.796875 72.90625 
L 49.515625 72.90625 
L 49.515625 64.59375 
L 19.828125 64.59375 
L 19.828125 46.734375 
Q 21.96875 47.46875 24.109375 47.828125 
Q 26.265625 48.1875 28.421875 48.1875 
Q 40.625 48.1875 47.75 41.5 
Q 54.890625 34.8125 54.890625 23.390625 
Q 54.890625 11.625 47.5625 5.09375 
Q 40.234375 -1.421875 26.90625 -1.421875 
Q 22.3125 -1.421875 17.546875 -0.640625 
Q 12.796875 0.140625 7.71875 1.703125 
L 7.71875 11.625 
Q 12.109375 9.234375 16.796875 8.0625 
Q 21.484375 6.890625 26.703125 6.890625 
Q 35.15625 6.890625 40.078125 11.328125 
Q 45.015625 15.765625 45.015625 23.390625 
Q 45.015625 31 40.078125 35.4375 
Q 35.15625 39.890625 26.703125 39.890625 
Q 22.75 39.890625 18.8125 39.015625 
Q 14.890625 38.140625 10.796875 36.28125 
z
" id="DejaVuSans-53"/>
       </defs>
       <use xlink:href="#DejaVuSans-48"/>
       <use x="63.623047" xlink:href="#DejaVuSans-53"/>
       <use x="127.246094" xlink:href="#DejaVuSans-45"/>
       <use x="168.955078" xlink:href="#DejaVuSans-74"/>
       <use x="198.447266" xlink:href="#DejaVuSans-117"/>
       <use x="261.826172" xlink:href="#DejaVuSans-110"/>
      </g>
     </g>
    </g>
    <g id="xtick_3">
     <g id="line2d_5">
      <path clip-path="url(#p272aa13d1c)" d="M 210.371501 238.238437 
L 210.371501 20.798437 
" style="fill:none;stroke:#b0b0b0;stroke-linecap:square;stroke-width:0.8;"/>
     </g>
     <g id="line2d_6">
      <g>
       <use style="stroke:#000000;stroke-width:0.8;" x="210.371501" xlink:href="#m918f2c16de" y="238.238437"/>
      </g>
     </g>
     <g id="text_3">
      <!-- 09-Jun -->
      <g transform="translate(194.111345 252.836875)scale(0.1 -0.1)">
       <defs>
        <path d="M 10.984375 1.515625 
L 10.984375 10.5 
Q 14.703125 8.734375 18.5 7.8125 
Q 22.3125 6.890625 25.984375 6.890625 
Q 35.75 6.890625 40.890625 13.453125 
Q 46.046875 20.015625 46.78125 33.40625 
Q 43.953125 29.203125 39.59375 26.953125 
Q 35.25 24.703125 29.984375 24.703125 
Q 19.046875 24.703125 12.671875 31.3125 
Q 6.296875 37.9375 6.296875 49.421875 
Q 6.296875 60.640625 12.9375 67.421875 
Q 19.578125 74.21875 30.609375 74.21875 
Q 43.265625 74.21875 49.921875 64.515625 
Q 56.59375 54.828125 56.59375 36.375 
Q 56.59375 19.140625 48.40625 8.859375 
Q 40.234375 -1.421875 26.421875 -1.421875 
Q 22.703125 -1.421875 18.890625 -0.6875 
Q 15.09375 0.046875 10.984375 1.515625 
z
M 30.609375 32.421875 
Q 37.25 32.421875 41.125 36.953125 
Q 45.015625 41.5 45.015625 49.421875 
Q 45.015625 57.28125 41.125 61.84375 
Q 37.25 66.40625 30.609375 66.40625 
Q 23.96875 66.40625 20.09375 61.84375 
Q 16.21875 57.28125 16.21875 49.421875 
Q 16.21875 41.5 20.09375 36.953125 
Q 23.96875 32.421875 30.609375 32.421875 
z
" id="DejaVuSans-57"/>
       </defs>
       <use xlink:href="#DejaVuSans-48"/>
       <use x="63.623047" xlink:href="#DejaVuSans-57"/>
       <use x="127.246094" xlink:href="#DejaVuSans-45"/>
       <use x="168.955078" xlink:href="#DejaVuSans-74"/>
       <use x="198.447266" xlink:href="#DejaVuSans-117"/>
       <use x="261.826172" xlink:href="#DejaVuSans-110"/>
      </g>
     </g>
    </g>
    <g id="xtick_4">
     <g id="line2d_7">
      <path clip-path="url(#p272aa13d1c)" d="M 284.874978 238.238437 
L 284.874978 20.798437 
" style="fill:none;stroke:#b0b0b0;stroke-linecap:square;stroke-width:0.8;"/>
     </g>
     <g id="line2d_8">
      <g>
       <use style="stroke:#000000;stroke-width:0.8;" x="284.874978" xlink:href="#m918f2c16de" y="238.238437"/>
      </g>
     </g>
     <g id="text_4">
      <!-- 13-Jun -->
      <g transform="translate(268.614822 252.836875)scale(0.1 -0.1)">
       <defs>
        <path d="M 40.578125 39.3125 
Q 47.65625 37.796875 51.625 33 
Q 55.609375 28.21875 55.609375 21.1875 
Q 55.609375 10.40625 48.1875 4.484375 
Q 40.765625 -1.421875 27.09375 -1.421875 
Q 22.515625 -1.421875 17.65625 -0.515625 
Q 12.796875 0.390625 7.625 2.203125 
L 7.625 11.71875 
Q 11.71875 9.328125 16.59375 8.109375 
Q 21.484375 6.890625 26.8125 6.890625 
Q 36.078125 6.890625 40.9375 10.546875 
Q 45.796875 14.203125 45.796875 21.1875 
Q 45.796875 27.640625 41.28125 31.265625 
Q 36.765625 34.90625 28.71875 34.90625 
L 20.21875 34.90625 
L 20.21875 43.015625 
L 29.109375 43.015625 
Q 36.375 43.015625 40.234375 45.921875 
Q 44.09375 48.828125 44.09375 54.296875 
Q 44.09375 59.90625 40.109375 62.90625 
Q 36.140625 65.921875 28.71875 65.921875 
Q 24.65625 65.921875 20.015625 65.03125 
Q 15.375 64.15625 9.8125 62.3125 
L 9.8125 71.09375 
Q 15.4375 72.65625 20.34375 73.4375 
Q 25.25 74.21875 29.59375 74.21875 
Q 40.828125 74.21875 47.359375 69.109375 
Q 53.90625 64.015625 53.90625 55.328125 
Q 53.90625 49.265625 50.4375 45.09375 
Q 46.96875 40.921875 40.578125 39.3125 
z
" id="DejaVuSans-51"/>
       </defs>
       <use xlink:href="#DejaVuSans-49"/>
       <use x="63.623047" xlink:href="#DejaVuSans-51"/>
       <use x="127.246094" xlink:href="#DejaVuSans-45"/>
       <use x="168.955078" xlink:href="#DejaVuSans-74"/>
       <use x="198.447266" xlink:href="#DejaVuSans-117"/>
       <use x="261.826172" xlink:href="#DejaVuSans-110"/>
      </g>
     </g>
    </g>
    <g id="xtick_5">
     <g id="line2d_9">
      <path clip-path="url(#p272aa13d1c)" d="M 359.378455 238.238437 
L 359.378455 20.798437 
" style="fill:none;stroke:#b0b0b0;stroke-linecap:square;stroke-width:0.8;"/>
     </g>
     <g id="line2d_10">
      <g>
       <use style="stroke:#000000;stroke-width:0.8;" x="359.378455" xlink:href="#m918f2c16de" y="238.238437"/>
      </g>
     </g>
     <g id="text_5">
      <!-- 17-Jun -->
      <g transform="translate(343.118299 252.836875)scale(0.1 -0.1)">
       <defs>
        <path d="M 8.203125 72.90625 
L 55.078125 72.90625 
L 55.078125 68.703125 
L 28.609375 0 
L 18.3125 0 
L 43.21875 64.59375 
L 8.203125 64.59375 
z
" id="DejaVuSans-55"/>
       </defs>
       <use xlink:href="#DejaVuSans-49"/>
       <use x="63.623047" xlink:href="#DejaVuSans-55"/>
       <use x="127.246094" xlink:href="#DejaVuSans-45"/>
       <use x="168.955078" xlink:href="#DejaVuSans-74"/>
       <use x="198.447266" xlink:href="#DejaVuSans-117"/>
       <use x="261.826172" xlink:href="#DejaVuSans-110"/>
      </g>
     </g>
    </g>
    <g id="xtick_6">
     <g id="line2d_11">
      <path clip-path="url(#p272aa13d1c)" d="M 433.881932 238.238437 
L 433.881932 20.798437 
" style="fill:none;stroke:#b0b0b0;stroke-linecap:square;stroke-width:0.8;"/>
     </g>
     <g id="line2d_12">
      <g>
       <use style="stroke:#000000;stroke-width:0.8;" x="433.881932" xlink:href="#m918f2c16de" y="238.238437"/>
      </g>
     </g>
     <g id="text_6">
      <!-- 21-Jun -->
      <g transform="translate(417.621776 252.836875)scale(0.1 -0.1)">
       <defs>
        <path d="M 19.1875 8.296875 
L 53.609375 8.296875 
L 53.609375 0 
L 7.328125 0 
L 7.328125 8.296875 
Q 12.9375 14.109375 22.625 23.890625 
Q 32.328125 33.6875 34.8125 36.53125 
Q 39.546875 41.84375 41.421875 45.53125 
Q 43.3125 49.21875 43.3125 52.78125 
Q 43.3125 58.59375 39.234375 62.25 
Q 35.15625 65.921875 28.609375 65.921875 
Q 23.96875 65.921875 18.8125 64.3125 
Q 13.671875 62.703125 7.8125 59.421875 
L 7.8125 69.390625 
Q 13.765625 71.78125 18.9375 73 
Q 24.125 74.21875 28.421875 74.21875 
Q 39.75 74.21875 46.484375 68.546875 
Q 53.21875 62.890625 53.21875 53.421875 
Q 53.21875 48.921875 51.53125 44.890625 
Q 49.859375 40.875 45.40625 35.40625 
Q 44.1875 33.984375 37.640625 27.21875 
Q 31.109375 20.453125 19.1875 8.296875 
z
" id="DejaVuSans-50"/>
       </defs>
       <use xlink:href="#DejaVuSans-50"/>
       <use x="63.623047" xlink:href="#DejaVuSans-49"/>
       <use x="127.246094" xlink:href="#DejaVuSans-45"/>
       <use x="168.955078" xlink:href="#DejaVuSans-74"/>
       <use x="198.447266" xlink:href="#DejaVuSans-117"/>
       <use x="261.826172" xlink:href="#DejaVuSans-110"/>
      </g>
     </g>
    </g>
    <g id="xtick_7">
     <g id="line2d_13">
      <path clip-path="url(#p272aa13d1c)" d="M 508.385409 238.238437 
L 508.385409 20.798437 
" style="fill:none;stroke:#b0b0b0;stroke-linecap:square;stroke-width:0.8;"/>
     </g>
     <g id="line2d_14">
      <g>
       <use style="stroke:#000000;stroke-width:0.8;" x="508.385409" xlink:href="#m918f2c16de" y="238.238437"/>
      </g>
     </g>
     <g id="text_7">
      <!-- 25-Jun -->
      <g transform="translate(492.125253 252.836875)scale(0.1 -0.1)">
       <use xlink:href="#DejaVuSans-50"/>
       <use x="63.623047" xlink:href="#DejaVuSans-53"/>
       <use x="127.246094" xlink:href="#DejaVuSans-45"/>
       <use x="168.955078" xlink:href="#DejaVuSans-74"/>
       <use x="198.447266" xlink:href="#DejaVuSans-117"/>
       <use x="261.826172" xlink:href="#DejaVuSans-110"/>
      </g>
     </g>
    </g>
    <g id="xtick_8">
     <g id="line2d_15">
      <path clip-path="url(#p272aa13d1c)" d="M 582.888886 238.238437 
L 582.888886 20.798437 
" style="fill:none;stroke:#b0b0b0;stroke-linecap:square;stroke-width:0.8;"/>
     </g>
     <g id="line2d_16">
      <g>
       <use style="stroke:#000000;stroke-width:0.8;" x="582.888886" xlink:href="#m918f2c16de" y="238.238437"/>
      </g>
     </g>
     <g id="text_8">
      <!-- 29-Jun -->
      <g transform="translate(566.62873 252.836875)scale(0.1 -0.1)">
       <use xlink:href="#DejaVuSans-50"/>
       <use x="63.623047" xlink:href="#DejaVuSans-57"/>
       <use x="127.246094" xlink:href="#DejaVuSans-45"/>
       <use x="168.955078" xlink:href="#DejaVuSans-74"/>
       <use x="198.447266" xlink:href="#DejaVuSans-117"/>
       <use x="261.826172" xlink:href="#DejaVuSans-110"/>
      </g>
     </g>
    </g>
    <g id="xtick_9">
     <g id="line2d_17">
      <path clip-path="url(#p272aa13d1c)" d="M 620.140625 238.238437 
L 620.140625 20.798437 
" style="fill:none;stroke:#b0b0b0;stroke-linecap:square;stroke-width:0.8;"/>
     </g>
     <g id="line2d_18">
      <g>
       <use style="stroke:#000000;stroke-width:0.8;" x="620.140625" xlink:href="#m918f2c16de" y="238.238437"/>
      </g>
     </g>
     <g id="text_9">
      <!-- 01-Jul -->
      <g transform="translate(605.660156 252.836875)scale(0.1 -0.1)">
       <defs>
        <path d="M 9.421875 75.984375 
L 18.40625 75.984375 
L 18.40625 0 
L 9.421875 0 
z
" id="DejaVuSans-108"/>
       </defs>
       <use xlink:href="#DejaVuSans-48"/>
       <use x="63.623047" xlink:href="#DejaVuSans-49"/>
       <use x="127.246094" xlink:href="#DejaVuSans-45"/>
       <use x="168.955078" xlink:href="#DejaVuSans-74"/>
       <use x="198.447266" xlink:href="#DejaVuSans-117"/>
       <use x="261.826172" xlink:href="#DejaVuSans-108"/>
      </g>
     </g>
    </g>
   </g>
   <g id="matplotlib.axis_2">
    <g id="ytick_1">
     <g id="line2d_19">
      <path clip-path="url(#p272aa13d1c)" d="M 34.240625 197.188259 
L 648.040625 197.188259 
" style="fill:none;stroke:#b0b0b0;stroke-linecap:square;stroke-width:0.8;"/>
     </g>
     <g id="line2d_20">
      <defs>
       <path d="M 0 0 
L -3.5 0 
" id="mc9dab87d15" style="stroke:#000000;stroke-width:0.8;"/>
      </defs>
      <g>
       <use style="stroke:#000000;stroke-width:0.8;" x="34.240625" xlink:href="#mc9dab87d15" y="197.188259"/>
      </g>
     </g>
     <g id="text_10">
      <!-- 1 -->
      <g transform="translate(20.878125 200.987478)scale(0.1 -0.1)">
       <use xlink:href="#DejaVuSans-49"/>
      </g>
     </g>
    </g>
    <g id="ytick_2">
     <g id="line2d_21">
      <path clip-path="url(#p272aa13d1c)" d="M 34.240625 154.494365 
L 648.040625 154.494365 
" style="fill:none;stroke:#b0b0b0;stroke-linecap:square;stroke-width:0.8;"/>
     </g>
     <g id="line2d_22">
      <g>
       <use style="stroke:#000000;stroke-width:0.8;" x="34.240625" xlink:href="#mc9dab87d15" y="154.494365"/>
      </g>
     </g>
     <g id="text_11">
      <!-- 2 -->
      <g transform="translate(20.878125 158.293584)scale(0.1 -0.1)">
       <use xlink:href="#DejaVuSans-50"/>
      </g>
     </g>
    </g>
    <g id="ytick_3">
     <g id="line2d_23">
      <path clip-path="url(#p272aa13d1c)" d="M 34.240625 111.800472 
L 648.040625 111.800472 
" style="fill:none;stroke:#b0b0b0;stroke-linecap:square;stroke-width:0.8;"/>
     </g>
     <g id="line2d_24">
      <g>
       <use style="stroke:#000000;stroke-width:0.8;" x="34.240625" xlink:href="#mc9dab87d15" y="111.800472"/>
      </g>
     </g>
     <g id="text_12">
      <!-- 3 -->
      <g transform="translate(20.878125 115.59969)scale(0.1 -0.1)">
       <use xlink:href="#DejaVuSans-51"/>
      </g>
     </g>
    </g>
    <g id="ytick_4">
     <g id="line2d_25">
      <path clip-path="url(#p272aa13d1c)" d="M 34.240625 69.106578 
L 648.040625 69.106578 
" style="fill:none;stroke:#b0b0b0;stroke-linecap:square;stroke-width:0.8;"/>
     </g>
     <g id="line2d_26">
      <g>
       <use style="stroke:#000000;stroke-width:0.8;" x="34.240625" xlink:href="#mc9dab87d15" y="69.106578"/>
      </g>
     </g>
     <g id="text_13">
      <!-- 4 -->
      <g transform="translate(20.878125 72.905797)scale(0.1 -0.1)">
       <defs>
        <path d="M 37.796875 64.3125 
L 12.890625 25.390625 
L 37.796875 25.390625 
z
M 35.203125 72.90625 
L 47.609375 72.90625 
L 47.609375 25.390625 
L 58.015625 25.390625 
L 58.015625 17.1875 
L 47.609375 17.1875 
L 47.609375 0 
L 37.796875 0 
L 37.796875 17.1875 
L 4.890625 17.1875 
L 4.890625 26.703125 
z
" id="DejaVuSans-52"/>
       </defs>
       <use xlink:href="#DejaVuSans-52"/>
      </g>
     </g>
    </g>
    <g id="ytick_5">
     <g id="line2d_27">
      <path clip-path="url(#p272aa13d1c)" d="M 34.240625 26.412685 
L 648.040625 26.412685 
" style="fill:none;stroke:#b0b0b0;stroke-linecap:square;stroke-width:0.8;"/>
     </g>
     <g id="line2d_28">
      <g>
       <use style="stroke:#000000;stroke-width:0.8;" x="34.240625" xlink:href="#mc9dab87d15" y="26.412685"/>
      </g>
     </g>
     <g id="text_14">
      <!-- 5 -->
      <g transform="translate(20.878125 30.211903)scale(0.1 -0.1)">
       <use xlink:href="#DejaVuSans-53"/>
      </g>
     </g>
    </g>
    <g id="text_15">
     <!-- $H_s$ (m) -->
     <g transform="translate(14.798438 145.618437)rotate(-90)scale(0.1 -0.1)">
      <defs>
       <path d="M 16.890625 72.90625 
L 26.8125 72.90625 
L 21 43.015625 
L 56.78125 43.015625 
L 62.59375 72.90625 
L 72.515625 72.90625 
L 58.296875 0 
L 48.390625 0 
L 55.171875 34.71875 
L 19.390625 34.71875 
L 12.59375 0 
L 2.6875 0 
z
" id="DejaVuSans-Oblique-72"/>
       <path d="M 50 53.078125 
L 48.296875 44.578125 
Q 44.734375 46.53125 40.765625 47.5 
Q 36.8125 48.484375 32.625 48.484375 
Q 25.53125 48.484375 21.453125 46.0625 
Q 17.390625 43.65625 17.390625 39.5 
Q 17.390625 34.671875 26.859375 32.078125 
Q 27.59375 31.890625 27.9375 31.78125 
L 30.8125 30.90625 
Q 39.796875 28.421875 42.796875 25.6875 
Q 45.796875 22.953125 45.796875 18.21875 
Q 45.796875 9.515625 38.890625 4.046875 
Q 31.984375 -1.421875 20.796875 -1.421875 
Q 16.453125 -1.421875 11.671875 -0.578125 
Q 6.890625 0.25 1.125 2 
L 2.875 11.28125 
Q 7.8125 8.734375 12.59375 7.421875 
Q 17.390625 6.109375 21.78125 6.109375 
Q 28.375 6.109375 32.5 8.9375 
Q 36.625 11.765625 36.625 16.109375 
Q 36.625 20.796875 25.78125 23.6875 
L 24.859375 23.921875 
L 21.78125 24.703125 
Q 14.9375 26.515625 11.765625 29.46875 
Q 8.59375 32.421875 8.59375 37.015625 
Q 8.59375 45.75 15.15625 50.875 
Q 21.734375 56 33.015625 56 
Q 37.453125 56 41.671875 55.265625 
Q 45.90625 54.546875 50 53.078125 
z
" id="DejaVuSans-Oblique-115"/>
       <path id="DejaVuSans-32"/>
       <path d="M 31 75.875 
Q 24.46875 64.65625 21.28125 53.65625 
Q 18.109375 42.671875 18.109375 31.390625 
Q 18.109375 20.125 21.3125 9.0625 
Q 24.515625 -2 31 -13.1875 
L 23.1875 -13.1875 
Q 15.875 -1.703125 12.234375 9.375 
Q 8.59375 20.453125 8.59375 31.390625 
Q 8.59375 42.28125 12.203125 53.3125 
Q 15.828125 64.359375 23.1875 75.875 
z
" id="DejaVuSans-40"/>
       <path d="M 52 44.1875 
Q 55.375 50.25 60.0625 53.125 
Q 64.75 56 71.09375 56 
Q 79.640625 56 84.28125 50.015625 
Q 88.921875 44.046875 88.921875 33.015625 
L 88.921875 0 
L 79.890625 0 
L 79.890625 32.71875 
Q 79.890625 40.578125 77.09375 44.375 
Q 74.3125 48.1875 68.609375 48.1875 
Q 61.625 48.1875 57.5625 43.546875 
Q 53.515625 38.921875 53.515625 30.90625 
L 53.515625 0 
L 44.484375 0 
L 44.484375 32.71875 
Q 44.484375 40.625 41.703125 44.40625 
Q 38.921875 48.1875 33.109375 48.1875 
Q 26.21875 48.1875 22.15625 43.53125 
Q 18.109375 38.875 18.109375 30.90625 
L 18.109375 0 
L 9.078125 0 
L 9.078125 54.6875 
L 18.109375 54.6875 
L 18.109375 46.1875 
Q 21.1875 51.21875 25.484375 53.609375 
Q 29.78125 56 35.6875 56 
Q 41.65625 56 45.828125 52.96875 
Q 50 49.953125 52 44.1875 
z
" id="DejaVuSans-109"/>
       <path d="M 8.015625 75.875 
L 15.828125 75.875 
Q 23.140625 64.359375 26.78125 53.3125 
Q 30.421875 42.28125 30.421875 31.390625 
Q 30.421875 20.453125 26.78125 9.375 
Q 23.140625 -1.703125 15.828125 -13.1875 
L 8.015625 -13.1875 
Q 14.5 -2 17.703125 9.0625 
Q 20.90625 20.125 20.90625 31.390625 
Q 20.90625 42.671875 17.703125 53.65625 
Q 14.5 64.65625 8.015625 75.875 
z
" id="DejaVuSans-41"/>
      </defs>
      <use transform="translate(0 0.125)" xlink:href="#DejaVuSans-Oblique-72"/>
      <use transform="translate(75.195312 -16.28125)scale(0.7)" xlink:href="#DejaVuSans-Oblique-115"/>
      <use transform="translate(114.399414 0.125)" xlink:href="#DejaVuSans-32"/>
      <use transform="translate(146.186523 0.125)" xlink:href="#DejaVuSans-40"/>
      <use transform="translate(185.200195 0.125)" xlink:href="#DejaVuSans-109"/>
      <use transform="translate(282.612305 0.125)" xlink:href="#DejaVuSans-41"/>
     </g>
    </g>
   </g>
   <g id="line2d_29">
    <path clip-path="url(#p272aa13d1c)" d="M 62.140625 207.007854 
L 62.916703 207.434793 
L 63.692781 211.277244 
L 64.468859 209.996427 
L 65.244937 209.569488 
L 66.021014 211.704183 
L 67.57317 206.153976 
L 68.349248 204.446221 
L 69.901404 206.153976 
L 70.677482 204.019282 
L 72.229638 204.87316 
L 73.005715 206.580915 
L 74.557871 201.457648 
L 75.333949 197.615198 
L 76.110027 195.480503 
L 76.886105 195.053564 
L 77.662183 191.211114 
L 78.438261 189.503358 
L 79.214338 187.368663 
L 79.990416 187.795602 
L 80.766494 187.368663 
L 81.542572 186.514785 
L 82.31865 186.514785 
L 83.094728 185.660908 
L 83.870806 185.233969 
L 84.646884 176.69519 
L 86.199039 175.841312 
L 86.975117 183.526213 
L 89.303351 178.402946 
L 90.079429 177.122129 
L 90.855507 176.268251 
L 91.631585 167.729472 
L 93.18374 175.841312 
L 93.959818 182.245396 
L 95.511974 176.268251 
L 96.288052 183.526213 
L 97.06413 180.53764 
L 97.840208 178.402946 
L 99.392364 182.672335 
L 100.168441 186.087846 
L 100.944519 192.918869 
L 101.720597 189.076419 
L 102.496675 186.941724 
L 103.272753 186.941724 
L 104.824909 192.064992 
L 105.600987 192.064992 
L 107.153142 201.884587 
L 107.92922 190.784175 
L 108.705298 194.626625 
L 109.481376 200.176831 
L 110.257454 193.772747 
L 111.80961 195.480503 
L 112.585688 198.042137 
L 113.361765 198.469076 
L 114.137843 198.042137 
L 114.913921 201.457648 
L 115.689999 201.457648 
L 116.466077 201.030709 
L 117.242155 201.030709 
L 118.018233 201.884587 
L 118.794311 203.165404 
L 119.570389 202.738465 
L 120.346466 204.019282 
L 121.122544 204.87316 
L 121.898622 204.446221 
L 122.6747 202.311526 
L 123.450778 200.60377 
L 124.226856 198.042137 
L 125.002934 200.176831 
L 126.55509 205.727038 
L 127.331167 207.861732 
L 128.107245 210.423366 
L 128.883323 197.188259 
L 129.659401 200.176831 
L 130.435479 208.71561 
L 131.211557 211.704183 
L 132.763713 211.704183 
L 133.539791 212.984999 
L 135.091946 196.76132 
L 136.644102 198.469076 
L 137.42018 200.176831 
L 138.196258 208.71561 
L 138.972336 207.434793 
L 139.748414 205.727038 
L 140.524491 217.681328 
L 142.076647 202.738465 
L 142.852725 205.727038 
L 144.404881 201.457648 
L 145.180959 202.738465 
L 145.957037 202.738465 
L 146.733115 203.165404 
L 147.509192 206.580915 
L 149.061348 205.727038 
L 149.837426 180.53764 
L 151.389582 187.795602 
L 152.16566 186.087846 
L 153.717816 201.884587 
L 154.493893 181.818457 
L 156.046049 189.930297 
L 156.822127 180.110701 
L 157.598205 180.110701 
L 158.374283 180.964579 
L 159.150361 179.683762 
L 160.702517 181.391518 
L 161.478594 186.514785 
L 163.806828 191.638053 
L 164.582906 191.638053 
L 165.358984 191.211114 
L 166.135062 188.222541 
L 166.91114 187.368663 
L 167.687217 187.368663 
L 168.463295 190.357236 
L 170.015451 182.245396 
L 170.791529 183.953152 
L 171.567607 180.110701 
L 172.343685 177.122129 
L 173.119763 171.144984 
L 174.671918 166.021717 
L 175.447996 172.425801 
L 177.000152 178.402946 
L 177.77623 168.156411 
L 179.328386 163.033144 
L 181.656619 171.998862 
L 182.432697 164.313961 
L 183.208775 162.606205 
L 183.984853 161.752327 
L 184.760931 166.448655 
L 185.537009 163.887022 
L 186.313087 161.752327 
L 187.865243 152.78661 
L 189.417398 143.820892 
L 190.969554 131.866602 
L 191.745632 127.170273 
L 193.297788 106.250265 
L 194.073866 98.565365 
L 194.849943 96.003731 
L 195.626021 101.126998 
L 196.402099 107.531082 
L 197.954255 83.622502 
L 198.730333 101.553937 
L 199.506411 84.47638 
L 200.282489 70.814334 
L 201.058567 62.275555 
L 202.610722 55.871471 
L 203.3868 56.725349 
L 204.938956 50.321265 
L 205.715034 70.387395 
L 207.26719 56.725349 
L 208.043268 80.633929 
L 208.819345 75.510662 
L 209.595423 73.375967 
L 210.371501 58.860044 
L 211.923657 35.378402 
L 212.699735 30.682074 
L 213.475813 45.197998 
L 214.251891 61.848616 
L 215.027969 44.771059 
L 217.356202 76.36454 
L 218.13228 79.353113 
L 219.684436 87.464952 
L 221.236592 75.510662 
L 222.01267 69.960456 
L 223.564825 82.341685 
L 224.340903 69.960456 
L 225.893059 79.353113 
L 228.221293 88.31883 
L 228.99737 74.229845 
L 229.773448 74.656784 
L 230.549526 78.072296 
L 231.325604 77.645357 
L 232.101682 90.880464 
L 232.87776 106.250265 
L 233.653838 107.958021 
L 235.205994 132.293541 
L 235.982071 134.428235 
L 237.534227 136.989869 
L 238.310305 134.428235 
L 239.086383 142.113136 
L 239.862461 151.078854 
L 240.638539 151.932732 
L 241.414617 154.921304 
L 242.190695 158.763755 
L 242.966772 153.640487 
L 243.74285 152.78661 
L 244.518928 152.359671 
L 245.295006 151.505793 
L 246.071084 154.067426 
L 246.847162 158.336816 
L 247.62324 159.617632 
L 248.399318 157.055999 
L 249.175396 154.921304 
L 249.951473 163.887022 
L 251.503629 169.010289 
L 252.279707 170.291106 
L 253.831863 162.606205 
L 254.607941 161.752327 
L 256.936174 174.133556 
L 258.48833 169.864167 
L 259.264408 167.302533 
L 260.816564 179.683762 
L 261.592642 177.976007 
L 262.36872 175.414373 
L 263.144797 172.425801 
L 263.920875 178.829885 
L 265.473031 175.414373 
L 266.249109 180.110701 
L 267.025187 178.829885 
L 267.801265 177.976007 
L 268.577343 185.233969 
L 269.353421 184.380091 
L 270.129498 183.953152 
L 270.905576 180.53764 
L 272.457732 182.245396 
L 273.23381 177.976007 
L 274.785966 178.829885 
L 275.562044 183.099274 
L 277.114199 174.987434 
L 277.890277 177.976007 
L 278.666355 177.976007 
L 279.442433 177.549068 
L 280.218511 182.672335 
L 281.770667 179.256824 
L 282.546745 180.110701 
L 284.0989 174.133556 
L 284.874978 174.133556 
L 285.651056 173.706617 
L 286.427134 172.852739 
L 287.203212 176.268251 
L 288.755368 174.560495 
L 289.531446 183.099274 
L 290.307523 183.099274 
L 291.083601 183.526213 
L 291.859679 183.526213 
L 292.635757 180.110701 
L 293.411835 178.402946 
L 294.187913 192.064992 
L 295.740069 198.042137 
L 296.516147 189.503358 
L 297.292224 188.222541 
L 298.068302 187.795602 
L 298.84438 180.964579 
L 299.620458 180.53764 
L 300.396536 183.953152 
L 301.172614 163.887022 
L 301.948692 154.494365 
L 302.72477 148.944159 
L 303.500848 153.640487 
L 305.053003 155.348243 
L 305.829081 158.336816 
L 306.605159 160.044571 
L 307.381237 161.325388 
L 308.157315 171.998862 
L 308.933393 171.998862 
L 309.709471 172.425801 
L 310.485549 169.010289 
L 312.813782 177.549068 
L 313.58986 178.402946 
L 314.365938 179.683762 
L 315.142016 189.076419 
L 316.694172 177.549068 
L 317.470249 180.53764 
L 319.022405 169.864167 
L 319.798483 158.336816 
L 321.350639 154.921304 
L 322.126717 152.359671 
L 323.678873 163.033144 
L 324.45495 155.775182 
L 325.231028 156.202121 
L 326.007106 156.202121 
L 326.783184 163.460083 
L 327.559262 163.887022 
L 328.33534 164.7409 
L 329.111418 170.718045 
L 329.887496 172.425801 
L 330.663574 173.706617 
L 331.439651 176.69519 
L 332.215729 176.69519 
L 332.991807 176.268251 
L 333.767885 173.279678 
L 334.543963 172.425801 
L 335.320041 171.998862 
L 336.096119 175.841312 
L 336.872197 176.69519 
L 337.648275 177.976007 
L 338.424352 174.987434 
L 339.976508 166.021717 
L 340.752586 162.606205 
L 342.304742 160.898449 
L 343.08082 165.167839 
L 344.632975 150.651915 
L 345.409053 122.047006 
L 346.961209 57.152288 
L 347.737287 58.433105 
L 348.513365 75.510662 
L 349.289443 96.43067 
L 350.841599 115.215983 
L 351.617676 126.316395 
L 352.393754 133.147418 
L 353.94591 120.33925 
L 354.721988 119.485373 
L 355.498066 119.058434 
L 356.274144 119.058434 
L 357.050222 98.138426 
L 357.8263 109.665777 
L 358.602377 127.597212 
L 359.378455 130.158846 
L 360.930611 142.967014 
L 361.706689 129.304968 
L 362.482767 122.900884 
L 363.258845 118.631495 
L 364.034923 134.855174 
L 364.811001 133.574357 
L 365.587078 133.574357 
L 366.363156 153.640487 
L 367.139234 150.651915 
L 367.915312 151.078854 
L 368.69139 152.78661 
L 370.243546 153.640487 
L 371.019624 141.686197 
L 372.571779 151.932732 
L 373.347857 137.843747 
L 374.900013 135.282113 
L 375.676091 137.416808 
L 376.452169 139.978441 
L 377.228247 142.113136 
L 378.004325 140.832319 
L 378.780402 139.978441 
L 379.55648 140.832319 
L 380.332558 142.540075 
L 381.884714 144.247831 
L 382.660792 137.416808 
L 383.43687 142.540075 
L 384.212948 149.371098 
L 384.989026 160.47151 
L 385.765103 155.775182 
L 386.541181 151.932732 
L 388.869415 128.024151 
L 389.645493 152.359671 
L 390.421571 153.213548 
L 391.973727 154.067426 
L 393.525882 157.482938 
L 394.30196 160.898449 
L 395.854116 152.78661 
L 396.630194 145.101709 
L 397.406272 149.798037 
L 398.18235 169.010289 
L 398.958428 166.875594 
L 400.510583 178.402946 
L 401.286661 153.640487 
L 402.838817 159.190694 
L 403.614895 159.617632 
L 405.167051 172.425801 
L 405.943128 162.606205 
L 407.495284 182.245396 
L 409.823518 182.245396 
L 410.599596 182.672335 
L 412.151752 199.749892 
L 412.927829 199.749892 
L 414.479985 207.007854 
L 415.256063 194.626625 
L 417.584297 179.256824 
L 418.360375 148.944159 
L 419.136453 125.035579 
L 419.91253 97.284548 
L 420.688608 95.149853 
L 421.464686 93.869036 
L 422.240764 105.823327 
L 423.79292 105.823327 
L 424.568998 84.903319 
L 426.121154 104.54251 
L 426.897231 110.519655 
L 428.449387 113.081288 
L 430.001543 125.889457 
L 430.777621 132.293541 
L 431.553699 139.978441 
L 433.105854 146.382525 
L 433.881932 152.359671 
L 435.434088 170.718045 
L 436.210166 167.729472 
L 437.762322 179.256824 
L 438.5384 177.976007 
L 439.314478 180.53764 
L 440.090555 182.672335 
L 440.866633 186.514785 
L 441.642711 189.076419 
L 442.418789 192.064992 
L 443.194867 197.188259 
L 444.747023 198.042137 
L 445.523101 195.053564 
L 447.075256 187.368663 
L 447.851334 150.651915 
L 449.40349 140.832319 
L 450.179568 142.967014 
L 450.955646 147.663342 
L 451.731724 151.505793 
L 452.507802 139.978441 
L 454.059957 144.247831 
L 454.836035 142.540075 
L 456.388191 146.809464 
L 457.164269 143.820892 
L 457.940347 143.393953 
L 458.716425 143.393953 
L 459.492503 147.663342 
L 461.044658 146.809464 
L 461.820736 150.224976 
L 463.372892 152.78661 
L 464.14897 160.47151 
L 464.925048 159.617632 
L 465.701126 159.190694 
L 466.477204 158.336816 
L 467.253281 159.617632 
L 468.029359 161.325388 
L 468.805437 160.898449 
L 470.357593 163.460083 
L 471.133671 165.167839 
L 471.909749 167.729472 
L 472.685827 170.718045 
L 473.461905 167.302533 
L 475.01406 162.179266 
L 475.790138 166.021717 
L 477.342294 158.763755 
L 478.118372 157.909877 
L 479.670528 148.51722 
L 480.446606 134.855174 
L 481.998761 139.978441 
L 482.774839 139.124564 
L 483.550917 139.124564 
L 484.326995 139.551502 
L 485.103073 147.663342 
L 486.655229 141.259258 
L 487.431307 142.540075 
L 488.207384 141.686197 
L 488.983462 143.393953 
L 489.75954 145.528648 
L 491.311696 137.416808 
L 492.087774 143.393953 
L 492.863852 143.820892 
L 493.63993 144.67477 
L 494.416007 157.055999 
L 495.192085 157.482938 
L 495.968163 157.482938 
L 496.744241 155.348243 
L 499.072475 151.505793 
L 499.848553 151.932732 
L 500.624631 154.921304 
L 501.400708 156.202121 
L 502.176786 156.202121 
L 502.952864 156.62906 
L 503.728942 156.62906 
L 504.50502 158.336816 
L 505.281098 160.47151 
L 506.057176 164.7409 
L 506.833254 164.313961 
L 507.609332 164.7409 
L 508.385409 171.571923 
L 509.937565 163.887022 
L 510.713643 173.279678 
L 512.265799 171.571923 
L 513.041877 168.156411 
L 514.594033 175.841312 
L 515.37011 171.144984 
L 516.922266 178.829885 
L 517.698344 178.402946 
L 519.2505 183.526213 
L 520.026578 182.672335 
L 520.802656 184.380091 
L 521.578733 185.660908 
L 523.130889 183.953152 
L 523.906967 183.526213 
L 524.683045 182.245396 
L 526.235201 183.953152 
L 527.011279 188.222541 
L 527.787357 185.660908 
L 528.563434 183.526213 
L 529.339512 179.683762 
L 530.11559 176.69519 
L 530.891668 178.829885 
L 531.667746 179.256824 
L 532.443824 176.69519 
L 533.219902 175.414373 
L 533.99598 165.167839 
L 534.772058 166.448655 
L 535.548135 168.156411 
L 536.324213 171.571923 
L 537.876369 164.7409 
L 538.652447 164.313961 
L 539.428525 166.448655 
L 540.204603 173.706617 
L 540.980681 198.896015 
L 542.532836 171.998862 
L 543.308914 169.437228 
L 544.084992 167.302533 
L 544.86107 163.033144 
L 545.637148 176.268251 
L 547.189304 173.706617 
L 547.965382 147.236403 
L 548.741459 150.651915 
L 549.517537 155.348243 
L 550.293615 131.439663 
L 551.845771 124.60864 
L 552.621849 146.382525 
L 553.397927 136.135991 
L 554.174005 139.978441 
L 554.950083 137.416808 
L 556.502238 138.270686 
L 557.278316 152.78661 
L 558.054394 136.135991 
L 558.830472 130.585785 
L 559.60655 136.56293 
L 560.382628 134.855174 
L 561.158706 135.282113 
L 561.934784 138.697625 
L 562.710861 136.989869 
L 563.486939 135.709052 
L 564.263017 148.090281 
L 565.815173 154.921304 
L 566.591251 152.359671 
L 567.367329 151.078854 
L 568.143407 149.371098 
L 568.919485 154.494365 
L 570.47164 145.528648 
L 571.247718 157.055999 
L 572.023796 159.190694 
L 572.799874 162.179266 
L 573.575952 157.055999 
L 574.35203 158.336816 
L 575.128108 161.325388 
L 575.904186 167.729472 
L 577.456341 169.437228 
L 578.232419 159.190694 
L 579.008497 147.236403 
L 579.784575 137.416808 
L 580.560653 150.224976 
L 582.112809 131.439663 
L 582.888886 133.147418 
L 584.441042 93.015158 
L 585.21712 104.115571 
L 585.993198 104.54251 
L 586.769276 105.396388 
L 587.545354 113.935166 
L 589.09751 121.620067 
L 589.873587 129.304968 
L 591.425743 139.124564 
L 592.201821 159.190694 
L 592.977899 161.752327 
L 593.753977 164.7409 
L 594.530055 153.213548 
L 596.082211 166.021717 
L 596.858288 162.179266 
L 598.410444 171.144984 
L 599.186522 184.380091 
L 600.738678 176.268251 
L 601.514756 177.122129 
L 603.066912 186.087846 
L 603.842989 186.514785 
L 605.395145 188.222541 
L 606.171223 185.660908 
L 607.723379 189.076419 
L 608.499457 189.503358 
L 609.275535 189.503358 
L 610.051612 190.357236 
L 610.82769 193.345808 
L 612.379846 191.638053 
L 613.155924 192.064992 
L 614.70808 200.176831 
L 615.484158 195.907442 
L 616.260236 196.334381 
L 617.036313 197.188259 
L 617.812391 193.345808 
L 618.588469 199.749892 
L 619.364547 207.434793 
L 620.140625 198.469076 
L 620.140625 198.469076 
" style="fill:none;stroke:#1f77b4;stroke-linecap:square;"/>
   </g>
   <g id="line2d_30">
    <path clip-path="url(#p272aa13d1c)" d="M 62.140625 221.950717 
L 62.916703 221.523778 
L 63.692781 224.93929 
L 65.244937 223.231534 
L 66.021014 224.93929 
L 66.797092 223.658473 
L 67.57317 221.950717 
L 68.349248 221.096839 
L 69.901404 221.950717 
L 70.677482 219.816022 
L 72.229638 220.6699 
L 73.005715 221.950717 
L 74.557871 219.389083 
L 75.333949 215.546633 
L 76.110027 216.400511 
L 76.886105 216.400511 
L 77.662183 214.692755 
L 79.214338 212.131122 
L 79.990416 212.558061 
L 82.31865 211.277244 
L 83.870806 211.277244 
L 84.646884 205.727038 
L 86.199039 204.019282 
L 86.975117 210.850305 
L 88.527273 209.142549 
L 89.303351 207.861732 
L 90.079429 207.007854 
L 90.855507 206.580915 
L 91.631585 201.884587 
L 92.407663 203.592343 
L 93.18374 205.727038 
L 93.959818 209.569488 
L 94.735896 208.288671 
L 95.511974 206.580915 
L 96.288052 210.850305 
L 97.06413 208.71561 
L 97.840208 207.007854 
L 98.616286 204.019282 
L 99.392364 208.288671 
L 100.168441 211.277244 
L 100.944519 215.119694 
L 101.720597 212.558061 
L 102.496675 208.71561 
L 103.272753 209.569488 
L 104.824909 212.984999 
L 105.600987 212.558061 
L 107.153142 219.816022 
L 107.92922 206.580915 
L 108.705298 212.558061 
L 109.481376 217.254389 
L 110.257454 212.131122 
L 111.033532 212.131122 
L 111.80961 212.558061 
L 112.585688 216.400511 
L 113.361765 213.838877 
L 114.137843 210.423366 
L 114.913921 215.119694 
L 115.689999 214.692755 
L 117.242155 212.984999 
L 118.794311 218.108267 
L 119.570389 215.546633 
L 121.122544 216.400511 
L 123.450778 211.277244 
L 124.226856 212.131122 
L 125.779012 218.535206 
L 126.55509 220.6699 
L 128.107245 224.085412 
L 128.883323 208.288671 
L 130.435479 223.231534 
L 131.211557 225.366229 
L 133.539791 225.366229 
L 135.091946 215.973572 
L 135.868024 215.546633 
L 136.644102 217.254389 
L 137.42018 218.535206 
L 138.196258 222.804595 
L 138.972336 222.377656 
L 139.748414 221.523778 
L 140.524491 228.354801 
L 141.300569 223.658473 
L 142.076647 218.108267 
L 142.852725 220.6699 
L 144.404881 218.962145 
L 145.180959 218.535206 
L 145.957037 218.962145 
L 146.733115 219.816022 
L 147.509192 221.523778 
L 148.28527 221.523778 
L 149.061348 221.096839 
L 149.837426 204.87316 
L 150.613504 209.142549 
L 151.389582 212.558061 
L 152.16566 211.277244 
L 153.717816 218.962145 
L 154.493893 208.71561 
L 156.046049 214.265816 
L 156.822127 206.580915 
L 157.598205 208.288671 
L 158.374283 209.142549 
L 159.150361 205.727038 
L 159.926439 207.007854 
L 160.702517 207.861732 
L 161.478594 211.704183 
L 163.03075 213.411938 
L 163.806828 214.692755 
L 165.358984 214.692755 
L 166.135062 212.131122 
L 166.91114 212.131122 
L 167.687217 212.558061 
L 168.463295 213.838877 
L 170.015451 209.569488 
L 170.791529 210.423366 
L 172.343685 207.007854 
L 173.119763 203.165404 
L 173.895841 201.884587 
L 174.671918 201.030709 
L 175.447996 204.019282 
L 177.000152 207.434793 
L 177.77623 202.311526 
L 179.328386 198.896015 
L 180.104464 201.030709 
L 181.656619 204.446221 
L 182.432697 200.176831 
L 183.208775 199.322954 
L 183.984853 198.896015 
L 184.760931 200.60377 
L 186.313087 198.896015 
L 187.089165 195.480503 
L 187.865243 193.772747 
L 188.64132 191.638053 
L 189.417398 189.076419 
L 190.969554 182.672335 
L 191.745632 180.964579 
L 193.297788 169.864167 
L 194.073866 166.448655 
L 194.849943 164.7409 
L 195.626021 165.594778 
L 196.402099 163.460083 
L 197.954255 153.640487 
L 198.730333 162.179266 
L 200.282489 134.428235 
L 201.058567 145.101709 
L 203.3868 132.72048 
L 204.938956 133.574357 
L 205.715034 147.236403 
L 207.26719 136.56293 
L 208.043268 152.78661 
L 208.819345 149.371098 
L 209.595423 147.236403 
L 210.371501 130.585785 
L 211.923657 116.069861 
L 212.699735 112.65435 
L 214.251891 142.113136 
L 215.027969 121.193128 
L 217.356202 143.393953 
L 218.908358 150.651915 
L 219.684436 152.359671 
L 220.460514 152.359671 
L 221.236592 151.932732 
L 222.01267 153.213548 
L 223.564825 159.617632 
L 224.340903 151.505793 
L 225.116981 154.921304 
L 225.893059 157.482938 
L 226.669137 158.336816 
L 228.221293 160.898449 
L 228.99737 154.921304 
L 229.773448 152.78661 
L 230.549526 151.078854 
L 231.325604 143.820892 
L 232.101682 157.482938 
L 232.87776 168.58335 
L 233.653838 169.864167 
L 234.429916 174.560495 
L 235.205994 180.53764 
L 235.982071 182.245396 
L 237.534227 181.391518 
L 238.310305 176.268251 
L 239.086383 183.953152 
L 239.862461 190.357236 
L 240.638539 187.368663 
L 242.190695 195.053564 
L 243.74285 190.784175 
L 244.518928 189.503358 
L 245.295006 181.391518 
L 246.847162 193.772747 
L 247.62324 186.941724 
L 248.399318 187.368663 
L 249.951473 189.076419 
L 250.727551 193.345808 
L 251.503629 196.76132 
L 252.279707 196.76132 
L 253.831863 189.930297 
L 254.607941 192.491931 
L 255.384019 193.345808 
L 256.160096 193.772747 
L 256.936174 195.480503 
L 257.712252 195.907442 
L 258.48833 195.907442 
L 259.264408 194.199686 
L 260.040486 199.749892 
L 260.816564 204.446221 
L 261.592642 200.60377 
L 262.36872 198.042137 
L 263.144797 195.053564 
L 263.920875 203.592343 
L 265.473031 201.884587 
L 266.249109 206.580915 
L 267.801265 202.311526 
L 268.577343 208.288671 
L 270.129498 204.019282 
L 270.905576 206.580915 
L 271.681654 207.861732 
L 272.457732 208.71561 
L 273.23381 207.007854 
L 274.785966 207.007854 
L 275.562044 209.569488 
L 277.114199 204.446221 
L 277.890277 206.580915 
L 279.442433 205.727038 
L 280.218511 208.71561 
L 280.994589 207.434793 
L 281.770667 206.580915 
L 282.546745 206.153976 
L 284.0989 203.592343 
L 284.874978 204.019282 
L 286.427134 203.165404 
L 287.203212 205.727038 
L 288.755368 204.019282 
L 289.531446 208.71561 
L 291.083601 207.861732 
L 291.859679 209.142549 
L 292.635757 207.861732 
L 293.411835 207.007854 
L 294.187913 213.838877 
L 295.740069 216.400511 
L 296.516147 212.131122 
L 298.068302 210.423366 
L 298.84438 207.434793 
L 299.620458 207.007854 
L 300.396536 207.861732 
L 301.172614 198.469076 
L 301.948692 193.772747 
L 302.72477 191.211114 
L 303.500848 194.199686 
L 305.053003 195.053564 
L 305.829081 196.334381 
L 307.381237 198.042137 
L 308.157315 204.019282 
L 308.933393 204.446221 
L 309.709471 204.446221 
L 310.485549 202.738465 
L 312.037704 205.300099 
L 312.813782 207.007854 
L 313.58986 207.007854 
L 314.365938 207.434793 
L 315.142016 212.558061 
L 316.694172 206.153976 
L 317.470249 207.861732 
L 319.022405 201.884587 
L 319.798483 192.491931 
L 320.574561 191.638053 
L 322.126717 189.076419 
L 323.678873 196.334381 
L 324.45495 186.514785 
L 326.007106 184.80703 
L 326.783184 195.480503 
L 328.33534 195.480503 
L 329.111418 201.457648 
L 329.887496 200.60377 
L 330.663574 198.896015 
L 331.439651 202.311526 
L 332.215729 200.60377 
L 332.991807 198.469076 
L 333.767885 195.480503 
L 335.320041 194.626625 
L 336.096119 200.176831 
L 337.648275 203.592343 
L 338.424352 202.311526 
L 339.20043 198.896015 
L 339.976508 194.626625 
L 340.752586 186.514785 
L 341.528664 186.514785 
L 342.304742 186.941724 
L 343.08082 197.615198 
L 343.856898 191.211114 
L 344.632975 182.672335 
L 346.185131 142.540075 
L 346.961209 120.766189 
L 347.737287 116.4968 
L 350.065521 155.775182 
L 350.841599 160.47151 
L 351.617676 166.448655 
L 352.393754 166.448655 
L 353.169832 167.729472 
L 353.94591 168.58335 
L 354.721988 171.571923 
L 355.498066 169.437228 
L 356.274144 167.729472 
L 357.050222 151.505793 
L 357.8263 167.302533 
L 358.602377 179.683762 
L 359.378455 180.964579 
L 360.930611 186.941724 
L 361.706689 179.683762 
L 363.258845 171.998862 
L 364.034923 182.672335 
L 365.587078 178.402946 
L 366.363156 193.345808 
L 367.139234 190.784175 
L 367.915312 190.784175 
L 368.69139 192.491931 
L 369.467468 193.345808 
L 370.243546 193.772747 
L 371.019624 186.514785 
L 372.571779 192.491931 
L 373.347857 181.818457 
L 374.900013 180.110701 
L 375.676091 182.672335 
L 377.228247 184.380091 
L 378.004325 184.80703 
L 380.332558 175.414373 
L 381.884714 172.852739 
L 382.660792 158.763755 
L 384.212948 181.391518 
L 384.989026 196.76132 
L 385.765103 193.345808 
L 386.541181 189.076419 
L 387.317259 175.841312 
L 388.869415 160.044571 
L 389.645493 193.772747 
L 391.197649 194.626625 
L 391.973727 192.491931 
L 393.525882 195.053564 
L 394.30196 197.188259 
L 395.854116 191.211114 
L 396.630194 189.930297 
L 397.406272 191.211114 
L 398.18235 201.030709 
L 398.958428 200.60377 
L 400.510583 206.153976 
L 401.286661 194.199686 
L 402.062739 195.053564 
L 402.838817 196.334381 
L 403.614895 196.334381 
L 405.167051 204.019282 
L 405.943128 198.042137 
L 406.719206 203.592343 
L 407.495284 208.288671 
L 408.271362 207.861732 
L 409.04744 208.71561 
L 409.823518 209.142549 
L 410.599596 209.142549 
L 412.151752 218.535206 
L 412.927829 218.535206 
L 414.479985 221.950717 
L 415.256063 215.546633 
L 416.808219 210.423366 
L 417.584297 207.007854 
L 418.360375 190.357236 
L 419.91253 163.887022 
L 420.688608 163.887022 
L 421.464686 163.460083 
L 422.240764 169.864167 
L 423.79292 170.718045 
L 424.568998 159.617632 
L 426.121154 169.437228 
L 426.897231 172.852739 
L 427.673309 172.852739 
L 428.449387 173.279678 
L 429.225465 175.414373 
L 430.777621 182.245396 
L 431.553699 186.514785 
L 432.329777 187.368663 
L 433.105854 188.64948 
L 433.881932 192.064992 
L 435.434088 202.311526 
L 436.210166 199.322954 
L 437.762322 207.007854 
L 438.5384 206.580915 
L 439.314478 207.861732 
L 440.090555 208.71561 
L 440.866633 209.996427 
L 443.194867 216.400511 
L 443.970945 216.82745 
L 444.747023 217.681328 
L 445.523101 215.546633 
L 447.075256 212.131122 
L 447.851334 191.211114 
L 449.40349 185.660908 
L 450.179568 187.368663 
L 451.731724 192.918869 
L 452.507802 186.087846 
L 453.28388 187.795602 
L 454.059957 189.076419 
L 454.836035 187.368663 
L 455.612113 188.64948 
L 456.388191 189.503358 
L 457.164269 188.64948 
L 457.940347 188.64948 
L 458.716425 188.222541 
L 459.492503 190.784175 
L 461.044658 189.076419 
L 461.820736 191.638053 
L 463.372892 193.345808 
L 464.14897 196.76132 
L 465.701126 195.907442 
L 466.477204 195.907442 
L 468.029359 197.615198 
L 468.805437 197.188259 
L 469.581515 198.042137 
L 470.357593 198.469076 
L 471.133671 199.749892 
L 471.909749 201.457648 
L 472.685827 202.738465 
L 473.461905 200.176831 
L 474.237982 198.469076 
L 475.01406 196.334381 
L 475.790138 199.322954 
L 477.342294 195.907442 
L 478.118372 195.053564 
L 479.670528 189.503358 
L 480.446606 182.672335 
L 481.998761 183.526213 
L 482.774839 183.099274 
L 484.326995 185.660908 
L 485.103073 189.930297 
L 485.879151 187.795602 
L 486.655229 186.087846 
L 487.431307 187.795602 
L 488.207384 187.368663 
L 488.983462 188.222541 
L 489.75954 185.660908 
L 491.311696 183.953152 
L 492.087774 185.660908 
L 492.863852 186.941724 
L 493.63993 187.795602 
L 494.416007 195.053564 
L 495.192085 194.626625 
L 495.968163 194.626625 
L 496.744241 193.772747 
L 497.520319 193.772747 
L 499.072475 192.918869 
L 499.848553 192.064992 
L 500.624631 191.638053 
L 501.400708 195.053564 
L 502.952864 195.907442 
L 503.728942 194.626625 
L 504.50502 196.334381 
L 505.281098 197.615198 
L 506.057176 200.176831 
L 506.833254 199.749892 
L 507.609332 198.896015 
L 508.385409 203.592343 
L 509.161487 201.457648 
L 509.937565 198.896015 
L 510.713643 204.87316 
L 511.489721 204.019282 
L 512.265799 203.592343 
L 513.041877 199.749892 
L 513.817955 201.884587 
L 514.594033 204.446221 
L 515.37011 203.165404 
L 516.922266 207.434793 
L 517.698344 206.580915 
L 518.474422 207.861732 
L 519.2505 209.569488 
L 520.026578 208.288671 
L 520.802656 209.142549 
L 521.578733 209.569488 
L 522.354811 208.288671 
L 523.906967 209.142549 
L 524.683045 207.434793 
L 526.235201 205.727038 
L 527.011279 211.704183 
L 527.787357 207.007854 
L 528.563434 200.60377 
L 529.339512 196.76132 
L 530.11559 185.660908 
L 530.891668 181.391518 
L 531.667746 180.964579 
L 532.443824 177.976007 
L 533.219902 175.841312 
L 533.99598 168.156411 
L 534.772058 169.437228 
L 535.548135 171.571923 
L 536.324213 176.268251 
L 537.100291 173.706617 
L 537.876369 171.998862 
L 538.652447 173.706617 
L 539.428525 183.953152 
L 540.204603 196.334381 
L 540.980681 216.82745 
L 541.756759 209.142549 
L 542.532836 202.738465 
L 543.308914 201.030709 
L 544.084992 200.176831 
L 544.86107 198.042137 
L 545.637148 204.87316 
L 546.413226 204.446221 
L 547.189304 204.446221 
L 547.965382 187.795602 
L 548.741459 191.638053 
L 549.517537 194.626625 
L 550.293615 161.325388 
L 551.069693 160.044571 
L 551.845771 159.190694 
L 552.621849 189.503358 
L 554.174005 160.47151 
L 554.950083 153.640487 
L 556.502238 154.494365 
L 557.278316 192.918869 
L 558.054394 172.425801 
L 558.830472 146.809464 
L 559.60655 142.967014 
L 560.382628 147.236403 
L 561.158706 154.067426 
L 561.934784 157.055999 
L 562.710861 157.909877 
L 564.263017 160.47151 
L 566.591251 185.660908 
L 568.143407 179.683762 
L 568.919485 189.076419 
L 570.47164 182.245396 
L 571.247718 188.222541 
L 572.799874 193.772747 
L 573.575952 190.784175 
L 575.128108 189.930297 
L 575.904186 198.896015 
L 576.680263 198.896015 
L 577.456341 199.322954 
L 579.008497 189.503358 
L 579.784575 185.233969 
L 580.560653 192.918869 
L 582.112809 181.818457 
L 582.888886 183.526213 
L 584.441042 164.313961 
L 585.21712 169.010289 
L 585.993198 169.437228 
L 586.769276 170.291106 
L 587.545354 174.133556 
L 589.09751 177.549068 
L 589.873587 181.391518 
L 590.649665 183.526213 
L 591.425743 186.087846 
L 592.201821 197.188259 
L 593.753977 199.749892 
L 594.530055 192.491931 
L 596.082211 200.60377 
L 596.858288 198.042137 
L 597.634366 200.60377 
L 598.410444 202.738465 
L 599.186522 209.569488 
L 599.9626 207.861732 
L 600.738678 205.300099 
L 601.514756 205.300099 
L 602.290834 207.861732 
L 603.066912 209.996427 
L 603.842989 210.850305 
L 604.619067 210.850305 
L 605.395145 211.277244 
L 606.171223 210.423366 
L 607.723379 212.131122 
L 608.499457 212.131122 
L 610.051612 212.984999 
L 610.82769 215.546633 
L 611.603768 214.692755 
L 612.379846 214.265816 
L 613.155924 214.265816 
L 614.70808 218.535206 
L 615.484158 216.400511 
L 617.036313 217.254389 
L 617.812391 214.692755 
L 619.364547 221.950717 
L 620.140625 218.108267 
L 620.140625 218.108267 
" style="fill:none;stroke:#ff7f0e;stroke-linecap:square;"/>
   </g>
   <g id="patch_3">
    <path d="M 34.240625 238.238437 
L 34.240625 20.798437 
" style="fill:none;stroke:#000000;stroke-linecap:square;stroke-linejoin:miter;stroke-width:0.8;"/>
   </g>
   <g id="patch_4">
    <path d="M 648.040625 238.238437 
L 648.040625 20.798437 
" style="fill:none;stroke:#000000;stroke-linecap:square;stroke-linejoin:miter;stroke-width:0.8;"/>
   </g>
   <g id="patch_5">
    <path d="M 34.240625 238.238437 
L 648.040625 238.238437 
" style="fill:none;stroke:#000000;stroke-linecap:square;stroke-linejoin:miter;stroke-width:0.8;"/>
   </g>
   <g id="patch_6">
    <path d="M 34.240625 20.798437 
L 648.040625 20.798437 
" style="fill:none;stroke:#000000;stroke-linecap:square;stroke-linejoin:miter;stroke-width:0.8;"/>
   </g>
   <g id="text_16">
    <!-- Narrabeen-Collaroy Wave Height from 2007-6-1 to 2007-7-1 -->
    <g transform="translate(190.7625 14.798437)scale(0.1 -0.1)">
     <defs>
      <path d="M 9.8125 72.90625 
L 23.09375 72.90625 
L 55.421875 11.921875 
L 55.421875 72.90625 
L 64.984375 72.90625 
L 64.984375 0 
L 51.703125 0 
L 19.390625 60.984375 
L 19.390625 0 
L 9.8125 0 
z
" id="DejaVuSans-78"/>
      <path d="M 34.28125 27.484375 
Q 23.390625 27.484375 19.1875 25 
Q 14.984375 22.515625 14.984375 16.5 
Q 14.984375 11.71875 18.140625 8.90625 
Q 21.296875 6.109375 26.703125 6.109375 
Q 34.1875 6.109375 38.703125 11.40625 
Q 43.21875 16.703125 43.21875 25.484375 
L 43.21875 27.484375 
z
M 52.203125 31.203125 
L 52.203125 0 
L 43.21875 0 
L 43.21875 8.296875 
Q 40.140625 3.328125 35.546875 0.953125 
Q 30.953125 -1.421875 24.3125 -1.421875 
Q 15.921875 -1.421875 10.953125 3.296875 
Q 6 8.015625 6 15.921875 
Q 6 25.140625 12.171875 29.828125 
Q 18.359375 34.515625 30.609375 34.515625 
L 43.21875 34.515625 
L 43.21875 35.40625 
Q 43.21875 41.609375 39.140625 45 
Q 35.0625 48.390625 27.6875 48.390625 
Q 23 48.390625 18.546875 47.265625 
Q 14.109375 46.140625 10.015625 43.890625 
L 10.015625 52.203125 
Q 14.9375 54.109375 19.578125 55.046875 
Q 24.21875 56 28.609375 56 
Q 40.484375 56 46.34375 49.84375 
Q 52.203125 43.703125 52.203125 31.203125 
z
" id="DejaVuSans-97"/>
      <path d="M 41.109375 46.296875 
Q 39.59375 47.171875 37.8125 47.578125 
Q 36.03125 48 33.890625 48 
Q 26.265625 48 22.1875 43.046875 
Q 18.109375 38.09375 18.109375 28.8125 
L 18.109375 0 
L 9.078125 0 
L 9.078125 54.6875 
L 18.109375 54.6875 
L 18.109375 46.1875 
Q 20.953125 51.171875 25.484375 53.578125 
Q 30.03125 56 36.53125 56 
Q 37.453125 56 38.578125 55.875 
Q 39.703125 55.765625 41.0625 55.515625 
z
" id="DejaVuSans-114"/>
      <path d="M 48.6875 27.296875 
Q 48.6875 37.203125 44.609375 42.84375 
Q 40.53125 48.484375 33.40625 48.484375 
Q 26.265625 48.484375 22.1875 42.84375 
Q 18.109375 37.203125 18.109375 27.296875 
Q 18.109375 17.390625 22.1875 11.75 
Q 26.265625 6.109375 33.40625 6.109375 
Q 40.53125 6.109375 44.609375 11.75 
Q 48.6875 17.390625 48.6875 27.296875 
z
M 18.109375 46.390625 
Q 20.953125 51.265625 25.265625 53.625 
Q 29.59375 56 35.59375 56 
Q 45.5625 56 51.78125 48.09375 
Q 58.015625 40.1875 58.015625 27.296875 
Q 58.015625 14.40625 51.78125 6.484375 
Q 45.5625 -1.421875 35.59375 -1.421875 
Q 29.59375 -1.421875 25.265625 0.953125 
Q 20.953125 3.328125 18.109375 8.203125 
L 18.109375 0 
L 9.078125 0 
L 9.078125 75.984375 
L 18.109375 75.984375 
z
" id="DejaVuSans-98"/>
      <path d="M 56.203125 29.59375 
L 56.203125 25.203125 
L 14.890625 25.203125 
Q 15.484375 15.921875 20.484375 11.0625 
Q 25.484375 6.203125 34.421875 6.203125 
Q 39.59375 6.203125 44.453125 7.46875 
Q 49.3125 8.734375 54.109375 11.28125 
L 54.109375 2.78125 
Q 49.265625 0.734375 44.1875 -0.34375 
Q 39.109375 -1.421875 33.890625 -1.421875 
Q 20.796875 -1.421875 13.15625 6.1875 
Q 5.515625 13.8125 5.515625 26.8125 
Q 5.515625 40.234375 12.765625 48.109375 
Q 20.015625 56 32.328125 56 
Q 43.359375 56 49.78125 48.890625 
Q 56.203125 41.796875 56.203125 29.59375 
z
M 47.21875 32.234375 
Q 47.125 39.59375 43.09375 43.984375 
Q 39.0625 48.390625 32.421875 48.390625 
Q 24.90625 48.390625 20.390625 44.140625 
Q 15.875 39.890625 15.1875 32.171875 
z
" id="DejaVuSans-101"/>
      <path d="M 64.40625 67.28125 
L 64.40625 56.890625 
Q 59.421875 61.53125 53.78125 63.8125 
Q 48.140625 66.109375 41.796875 66.109375 
Q 29.296875 66.109375 22.65625 58.46875 
Q 16.015625 50.828125 16.015625 36.375 
Q 16.015625 21.96875 22.65625 14.328125 
Q 29.296875 6.6875 41.796875 6.6875 
Q 48.140625 6.6875 53.78125 8.984375 
Q 59.421875 11.28125 64.40625 15.921875 
L 64.40625 5.609375 
Q 59.234375 2.09375 53.4375 0.328125 
Q 47.65625 -1.421875 41.21875 -1.421875 
Q 24.65625 -1.421875 15.125 8.703125 
Q 5.609375 18.84375 5.609375 36.375 
Q 5.609375 53.953125 15.125 64.078125 
Q 24.65625 74.21875 41.21875 74.21875 
Q 47.75 74.21875 53.53125 72.484375 
Q 59.328125 70.75 64.40625 67.28125 
z
" id="DejaVuSans-67"/>
      <path d="M 30.609375 48.390625 
Q 23.390625 48.390625 19.1875 42.75 
Q 14.984375 37.109375 14.984375 27.296875 
Q 14.984375 17.484375 19.15625 11.84375 
Q 23.34375 6.203125 30.609375 6.203125 
Q 37.796875 6.203125 41.984375 11.859375 
Q 46.1875 17.53125 46.1875 27.296875 
Q 46.1875 37.015625 41.984375 42.703125 
Q 37.796875 48.390625 30.609375 48.390625 
z
M 30.609375 56 
Q 42.328125 56 49.015625 48.375 
Q 55.71875 40.765625 55.71875 27.296875 
Q 55.71875 13.875 49.015625 6.21875 
Q 42.328125 -1.421875 30.609375 -1.421875 
Q 18.84375 -1.421875 12.171875 6.21875 
Q 5.515625 13.875 5.515625 27.296875 
Q 5.515625 40.765625 12.171875 48.375 
Q 18.84375 56 30.609375 56 
z
" id="DejaVuSans-111"/>
      <path d="M 32.171875 -5.078125 
Q 28.375 -14.84375 24.75 -17.8125 
Q 21.140625 -20.796875 15.09375 -20.796875 
L 7.90625 -20.796875 
L 7.90625 -13.28125 
L 13.1875 -13.28125 
Q 16.890625 -13.28125 18.9375 -11.515625 
Q 21 -9.765625 23.484375 -3.21875 
L 25.09375 0.875 
L 2.984375 54.6875 
L 12.5 54.6875 
L 29.59375 11.921875 
L 46.6875 54.6875 
L 56.203125 54.6875 
z
" id="DejaVuSans-121"/>
      <path d="M 3.328125 72.90625 
L 13.28125 72.90625 
L 28.609375 11.28125 
L 43.890625 72.90625 
L 54.984375 72.90625 
L 70.3125 11.28125 
L 85.59375 72.90625 
L 95.609375 72.90625 
L 77.296875 0 
L 64.890625 0 
L 49.515625 63.28125 
L 33.984375 0 
L 21.578125 0 
z
" id="DejaVuSans-87"/>
      <path d="M 2.984375 54.6875 
L 12.5 54.6875 
L 29.59375 8.796875 
L 46.6875 54.6875 
L 56.203125 54.6875 
L 35.6875 0 
L 23.484375 0 
z
" id="DejaVuSans-118"/>
      <path d="M 9.8125 72.90625 
L 19.671875 72.90625 
L 19.671875 43.015625 
L 55.515625 43.015625 
L 55.515625 72.90625 
L 65.375 72.90625 
L 65.375 0 
L 55.515625 0 
L 55.515625 34.71875 
L 19.671875 34.71875 
L 19.671875 0 
L 9.8125 0 
z
" id="DejaVuSans-72"/>
      <path d="M 9.421875 54.6875 
L 18.40625 54.6875 
L 18.40625 0 
L 9.421875 0 
z
M 9.421875 75.984375 
L 18.40625 75.984375 
L 18.40625 64.59375 
L 9.421875 64.59375 
z
" id="DejaVuSans-105"/>
      <path d="M 45.40625 27.984375 
Q 45.40625 37.75 41.375 43.109375 
Q 37.359375 48.484375 30.078125 48.484375 
Q 22.859375 48.484375 18.828125 43.109375 
Q 14.796875 37.75 14.796875 27.984375 
Q 14.796875 18.265625 18.828125 12.890625 
Q 22.859375 7.515625 30.078125 7.515625 
Q 37.359375 7.515625 41.375 12.890625 
Q 45.40625 18.265625 45.40625 27.984375 
z
M 54.390625 6.78125 
Q 54.390625 -7.171875 48.1875 -13.984375 
Q 42 -20.796875 29.203125 -20.796875 
Q 24.46875 -20.796875 20.265625 -20.09375 
Q 16.0625 -19.390625 12.109375 -17.921875 
L 12.109375 -9.1875 
Q 16.0625 -11.328125 19.921875 -12.34375 
Q 23.78125 -13.375 27.78125 -13.375 
Q 36.625 -13.375 41.015625 -8.765625 
Q 45.40625 -4.15625 45.40625 5.171875 
L 45.40625 9.625 
Q 42.625 4.78125 38.28125 2.390625 
Q 33.9375 0 27.875 0 
Q 17.828125 0 11.671875 7.65625 
Q 5.515625 15.328125 5.515625 27.984375 
Q 5.515625 40.671875 11.671875 48.328125 
Q 17.828125 56 27.875 56 
Q 33.9375 56 38.28125 53.609375 
Q 42.625 51.21875 45.40625 46.390625 
L 45.40625 54.6875 
L 54.390625 54.6875 
z
" id="DejaVuSans-103"/>
      <path d="M 54.890625 33.015625 
L 54.890625 0 
L 45.90625 0 
L 45.90625 32.71875 
Q 45.90625 40.484375 42.875 44.328125 
Q 39.84375 48.1875 33.796875 48.1875 
Q 26.515625 48.1875 22.3125 43.546875 
Q 18.109375 38.921875 18.109375 30.90625 
L 18.109375 0 
L 9.078125 0 
L 9.078125 75.984375 
L 18.109375 75.984375 
L 18.109375 46.1875 
Q 21.34375 51.125 25.703125 53.5625 
Q 30.078125 56 35.796875 56 
Q 45.21875 56 50.046875 50.171875 
Q 54.890625 44.34375 54.890625 33.015625 
z
" id="DejaVuSans-104"/>
      <path d="M 18.3125 70.21875 
L 18.3125 54.6875 
L 36.8125 54.6875 
L 36.8125 47.703125 
L 18.3125 47.703125 
L 18.3125 18.015625 
Q 18.3125 11.328125 20.140625 9.421875 
Q 21.96875 7.515625 27.59375 7.515625 
L 36.8125 7.515625 
L 36.8125 0 
L 27.59375 0 
Q 17.1875 0 13.234375 3.875 
Q 9.28125 7.765625 9.28125 18.015625 
L 9.28125 47.703125 
L 2.6875 47.703125 
L 2.6875 54.6875 
L 9.28125 54.6875 
L 9.28125 70.21875 
z
" id="DejaVuSans-116"/>
      <path d="M 37.109375 75.984375 
L 37.109375 68.5 
L 28.515625 68.5 
Q 23.6875 68.5 21.796875 66.546875 
Q 19.921875 64.59375 19.921875 59.515625 
L 19.921875 54.6875 
L 34.71875 54.6875 
L 34.71875 47.703125 
L 19.921875 47.703125 
L 19.921875 0 
L 10.890625 0 
L 10.890625 47.703125 
L 2.296875 47.703125 
L 2.296875 54.6875 
L 10.890625 54.6875 
L 10.890625 58.5 
Q 10.890625 67.625 15.140625 71.796875 
Q 19.390625 75.984375 28.609375 75.984375 
z
" id="DejaVuSans-102"/>
      <path d="M 33.015625 40.375 
Q 26.375 40.375 22.484375 35.828125 
Q 18.609375 31.296875 18.609375 23.390625 
Q 18.609375 15.53125 22.484375 10.953125 
Q 26.375 6.390625 33.015625 6.390625 
Q 39.65625 6.390625 43.53125 10.953125 
Q 47.40625 15.53125 47.40625 23.390625 
Q 47.40625 31.296875 43.53125 35.828125 
Q 39.65625 40.375 33.015625 40.375 
z
M 52.59375 71.296875 
L 52.59375 62.3125 
Q 48.875 64.0625 45.09375 64.984375 
Q 41.3125 65.921875 37.59375 65.921875 
Q 27.828125 65.921875 22.671875 59.328125 
Q 17.53125 52.734375 16.796875 39.40625 
Q 19.671875 43.65625 24.015625 45.921875 
Q 28.375 48.1875 33.59375 48.1875 
Q 44.578125 48.1875 50.953125 41.515625 
Q 57.328125 34.859375 57.328125 23.390625 
Q 57.328125 12.15625 50.6875 5.359375 
Q 44.046875 -1.421875 33.015625 -1.421875 
Q 20.359375 -1.421875 13.671875 8.265625 
Q 6.984375 17.96875 6.984375 36.375 
Q 6.984375 53.65625 15.1875 63.9375 
Q 23.390625 74.21875 37.203125 74.21875 
Q 40.921875 74.21875 44.703125 73.484375 
Q 48.484375 72.75 52.59375 71.296875 
z
" id="DejaVuSans-54"/>
     </defs>
     <use xlink:href="#DejaVuSans-78"/>
     <use x="74.804688" xlink:href="#DejaVuSans-97"/>
     <use x="136.083984" xlink:href="#DejaVuSans-114"/>
     <use x="175.447266" xlink:href="#DejaVuSans-114"/>
     <use x="216.560547" xlink:href="#DejaVuSans-97"/>
     <use x="277.839844" xlink:href="#DejaVuSans-98"/>
     <use x="341.316406" xlink:href="#DejaVuSans-101"/>
     <use x="402.839844" xlink:href="#DejaVuSans-101"/>
     <use x="464.363281" xlink:href="#DejaVuSans-110"/>
     <use x="527.742188" xlink:href="#DejaVuSans-45"/>
     <use x="563.826172" xlink:href="#DejaVuSans-67"/>
     <use x="633.650391" xlink:href="#DejaVuSans-111"/>
     <use x="694.832031" xlink:href="#DejaVuSans-108"/>
     <use x="722.615234" xlink:href="#DejaVuSans-108"/>
     <use x="750.398438" xlink:href="#DejaVuSans-97"/>
     <use x="811.677734" xlink:href="#DejaVuSans-114"/>
     <use x="850.541016" xlink:href="#DejaVuSans-111"/>
     <use x="911.722656" xlink:href="#DejaVuSans-121"/>
     <use x="970.902344" xlink:href="#DejaVuSans-32"/>
     <use x="1002.689453" xlink:href="#DejaVuSans-87"/>
     <use x="1095.191406" xlink:href="#DejaVuSans-97"/>
     <use x="1156.470703" xlink:href="#DejaVuSans-118"/>
     <use x="1215.650391" xlink:href="#DejaVuSans-101"/>
     <use x="1277.173828" xlink:href="#DejaVuSans-32"/>
     <use x="1308.960938" xlink:href="#DejaVuSans-72"/>
     <use x="1384.15625" xlink:href="#DejaVuSans-101"/>
     <use x="1445.679688" xlink:href="#DejaVuSans-105"/>
     <use x="1473.462891" xlink:href="#DejaVuSans-103"/>
     <use x="1536.939453" xlink:href="#DejaVuSans-104"/>
     <use x="1600.318359" xlink:href="#DejaVuSans-116"/>
     <use x="1639.527344" xlink:href="#DejaVuSans-32"/>
     <use x="1671.314453" xlink:href="#DejaVuSans-102"/>
     <use x="1706.519531" xlink:href="#DejaVuSans-114"/>
     <use x="1745.382812" xlink:href="#DejaVuSans-111"/>
     <use x="1806.564453" xlink:href="#DejaVuSans-109"/>
     <use x="1903.976562" xlink:href="#DejaVuSans-32"/>
     <use x="1935.763672" xlink:href="#DejaVuSans-50"/>
     <use x="1999.386719" xlink:href="#DejaVuSans-48"/>
     <use x="2063.009766" xlink:href="#DejaVuSans-48"/>
     <use x="2126.632812" xlink:href="#DejaVuSans-55"/>
     <use x="2190.255859" xlink:href="#DejaVuSans-45"/>
     <use x="2226.339844" xlink:href="#DejaVuSans-54"/>
     <use x="2289.962891" xlink:href="#DejaVuSans-45"/>
     <use x="2326.046875" xlink:href="#DejaVuSans-49"/>
     <use x="2389.669922" xlink:href="#DejaVuSans-32"/>
     <use x="2421.457031" xlink:href="#DejaVuSans-116"/>
     <use x="2460.666016" xlink:href="#DejaVuSans-111"/>
     <use x="2521.847656" xlink:href="#DejaVuSans-32"/>
     <use x="2553.634766" xlink:href="#DejaVuSans-50"/>
     <use x="2617.257812" xlink:href="#DejaVuSans-48"/>
     <use x="2680.880859" xlink:href="#DejaVuSans-48"/>
     <use x="2744.503906" xlink:href="#DejaVuSans-55"/>
     <use x="2808.126953" xlink:href="#DejaVuSans-45"/>
     <use x="2844.210938" xlink:href="#DejaVuSans-55"/>
     <use x="2907.833984" xlink:href="#DejaVuSans-45"/>
     <use x="2943.917969" xlink:href="#DejaVuSans-49"/>
    </g>
   </g>
   <g id="legend_1">
    <g id="patch_7">
     <path d="M 590.896875 58.154687 
L 641.040625 58.154687 
Q 643.040625 58.154687 643.040625 56.154687 
L 643.040625 27.798437 
Q 643.040625 25.798437 641.040625 25.798437 
L 590.896875 25.798437 
Q 588.896875 25.798437 588.896875 27.798437 
L 588.896875 56.154687 
Q 588.896875 58.154687 590.896875 58.154687 
z
" style="fill:#ffffff;opacity:0.8;stroke:#cccccc;stroke-linejoin:miter;"/>
    </g>
    <g id="line2d_31">
     <path d="M 592.896875 33.896875 
L 612.896875 33.896875 
" style="fill:none;stroke:#1f77b4;stroke-linecap:square;"/>
    </g>
    <g id="line2d_32"/>
    <g id="text_17">
     <!-- PF1 -->
     <g transform="translate(620.896875 37.396875)scale(0.1 -0.1)">
      <defs>
       <path d="M 19.671875 64.796875 
L 19.671875 37.40625 
L 32.078125 37.40625 
Q 38.96875 37.40625 42.71875 40.96875 
Q 46.484375 44.53125 46.484375 51.125 
Q 46.484375 57.671875 42.71875 61.234375 
Q 38.96875 64.796875 32.078125 64.796875 
z
M 9.8125 72.90625 
L 32.078125 72.90625 
Q 44.34375 72.90625 50.609375 67.359375 
Q 56.890625 61.8125 56.890625 51.125 
Q 56.890625 40.328125 50.609375 34.8125 
Q 44.34375 29.296875 32.078125 29.296875 
L 19.671875 29.296875 
L 19.671875 0 
L 9.8125 0 
z
" id="DejaVuSans-80"/>
       <path d="M 9.8125 72.90625 
L 51.703125 72.90625 
L 51.703125 64.59375 
L 19.671875 64.59375 
L 19.671875 43.109375 
L 48.578125 43.109375 
L 48.578125 34.8125 
L 19.671875 34.8125 
L 19.671875 0 
L 9.8125 0 
z
" id="DejaVuSans-70"/>
      </defs>
      <use xlink:href="#DejaVuSans-80"/>
      <use x="60.302734" xlink:href="#DejaVuSans-70"/>
      <use x="117.822266" xlink:href="#DejaVuSans-49"/>
     </g>
    </g>
    <g id="line2d_33">
     <path d="M 592.896875 48.575 
L 612.896875 48.575 
" style="fill:none;stroke:#ff7f0e;stroke-linecap:square;"/>
    </g>
    <g id="line2d_34"/>
    <g id="text_18">
     <!-- PF8 -->
     <g transform="translate(620.896875 52.075)scale(0.1 -0.1)">
      <defs>
       <path d="M 31.78125 34.625 
Q 24.75 34.625 20.71875 30.859375 
Q 16.703125 27.09375 16.703125 20.515625 
Q 16.703125 13.921875 20.71875 10.15625 
Q 24.75 6.390625 31.78125 6.390625 
Q 38.8125 6.390625 42.859375 10.171875 
Q 46.921875 13.96875 46.921875 20.515625 
Q 46.921875 27.09375 42.890625 30.859375 
Q 38.875 34.625 31.78125 34.625 
z
M 21.921875 38.8125 
Q 15.578125 40.375 12.03125 44.71875 
Q 8.5 49.078125 8.5 55.328125 
Q 8.5 64.0625 14.71875 69.140625 
Q 20.953125 74.21875 31.78125 74.21875 
Q 42.671875 74.21875 48.875 69.140625 
Q 55.078125 64.0625 55.078125 55.328125 
Q 55.078125 49.078125 51.53125 44.71875 
Q 48 40.375 41.703125 38.8125 
Q 48.828125 37.15625 52.796875 32.3125 
Q 56.78125 27.484375 56.78125 20.515625 
Q 56.78125 9.90625 50.3125 4.234375 
Q 43.84375 -1.421875 31.78125 -1.421875 
Q 19.734375 -1.421875 13.25 4.234375 
Q 6.78125 9.90625 6.78125 20.515625 
Q 6.78125 27.484375 10.78125 32.3125 
Q 14.796875 37.15625 21.921875 38.8125 
z
M 18.3125 54.390625 
Q 18.3125 48.734375 21.84375 45.5625 
Q 25.390625 42.390625 31.78125 42.390625 
Q 38.140625 42.390625 41.71875 45.5625 
Q 45.3125 48.734375 45.3125 54.390625 
Q 45.3125 60.0625 41.71875 63.234375 
Q 38.140625 66.40625 31.78125 66.40625 
Q 25.390625 66.40625 21.84375 63.234375 
Q 18.3125 60.0625 18.3125 54.390625 
z
" id="DejaVuSans-56"/>
      </defs>
      <use xlink:href="#DejaVuSans-80"/>
      <use x="60.302734" xlink:href="#DejaVuSans-70"/>
      <use x="117.822266" xlink:href="#DejaVuSans-56"/>
     </g>
    </g>
   </g>
  </g>
 </g>
 <defs>
  <clipPath id="p272aa13d1c">
   <rect height="217.44" width="613.8" x="34.240625" y="20.798437"/>
  </clipPath>
 </defs>
</svg>
