<?xml version="1.0" encoding="utf-8" standalone="no"?>
<!DOCTYPE svg PUBLIC "-//W3C//DTD SVG 1.1//EN"
  "http://www.w3.org/Graphics/SVG/1.1/DTD/svg11.dtd">
<!-- Created with matplotlib (https://matplotlib.org/) -->
<svg height="262.116562pt" version="1.1" viewBox="0 0 662.625 262.116562" width="662.625pt" xmlns="http://www.w3.org/2000/svg" xmlns:xlink="http://www.w3.org/1999/xlink">
 <metadata>
  <rdf:RDF xmlns:cc="http://creativecommons.org/ns#" xmlns:dc="http://purl.org/dc/elements/1.1/" xmlns:rdf="http://www.w3.org/1999/02/22-rdf-syntax-ns#">
   <cc:Work>
    <dc:type rdf:resource="http://purl.org/dc/dcmitype/StillImage"/>
    <dc:date>2021-03-25T07:58:13.461955</dc:date>
    <dc:format>image/svg+xml</dc:format>
    <dc:creator>
     <cc:Agent>
      <dc:title>Matplotlib v3.3.4, https://matplotlib.org/</dc:title>
     </cc:Agent>
    </dc:creator>
   </cc:Work>
  </rdf:RDF>
 </metadata>
 <defs>
  <style type="text/css">*{stroke-linecap:butt;stroke-linejoin:round;}</style>
 </defs>
 <g id="figure_1">
  <g id="patch_1">
   <path d="M 0 262.116562 
L 662.625 262.116562 
L 662.625 0 
L 0 0 
z
" style="fill:none;"/>
  </g>
  <g id="axes_1">
   <g id="patch_2">
    <path d="M 41.625 238.238437 
L 655.425 238.238437 
L 655.425 20.798437 
L 41.625 20.798437 
z
" style="fill:#ffffff;"/>
   </g>
   <g id="matplotlib.axis_1">
    <g id="xtick_1">
     <g id="line2d_1">
      <path clip-path="url(#pe05df6428b)" d="M 68.748922 238.238437 
L 68.748922 20.798437 
" style="fill:none;stroke:#b0b0b0;stroke-linecap:square;stroke-width:0.8;"/>
     </g>
     <g id="line2d_2">
      <defs>
       <path d="M 0 0 
L 0 3.5 
" id="m5a67a35f37" style="stroke:#000000;stroke-width:0.8;"/>
      </defs>
      <g>
       <use style="stroke:#000000;stroke-width:0.8;" x="68.748922" xlink:href="#m5a67a35f37" y="238.238437"/>
      </g>
     </g>
     <g id="text_1">
      <!-- 01-Jun -->
      <g transform="translate(52.488766 252.836875)scale(0.1 -0.1)">
       <defs>
        <path d="M 31.78125 66.40625 
Q 24.171875 66.40625 20.328125 58.90625 
Q 16.5 51.421875 16.5 36.375 
Q 16.5 21.390625 20.328125 13.890625 
Q 24.171875 6.390625 31.78125 6.390625 
Q 39.453125 6.390625 43.28125 13.890625 
Q 47.125 21.390625 47.125 36.375 
Q 47.125 51.421875 43.28125 58.90625 
Q 39.453125 66.40625 31.78125 66.40625 
z
M 31.78125 74.21875 
Q 44.046875 74.21875 50.515625 64.515625 
Q 56.984375 54.828125 56.984375 36.375 
Q 56.984375 17.96875 50.515625 8.265625 
Q 44.046875 -1.421875 31.78125 -1.421875 
Q 19.53125 -1.421875 13.0625 8.265625 
Q 6.59375 17.96875 6.59375 36.375 
Q 6.59375 54.828125 13.0625 64.515625 
Q 19.53125 74.21875 31.78125 74.21875 
z
" id="DejaVuSans-48"/>
        <path d="M 12.40625 8.296875 
L 28.515625 8.296875 
L 28.515625 63.921875 
L 10.984375 60.40625 
L 10.984375 69.390625 
L 28.421875 72.90625 
L 38.28125 72.90625 
L 38.28125 8.296875 
L 54.390625 8.296875 
L 54.390625 0 
L 12.40625 0 
z
" id="DejaVuSans-49"/>
        <path d="M 4.890625 31.390625 
L 31.203125 31.390625 
L 31.203125 23.390625 
L 4.890625 23.390625 
z
" id="DejaVuSans-45"/>
        <path d="M 9.8125 72.90625 
L 19.671875 72.90625 
L 19.671875 5.078125 
Q 19.671875 -8.109375 14.671875 -14.0625 
Q 9.671875 -20.015625 -1.421875 -20.015625 
L -5.171875 -20.015625 
L -5.171875 -11.71875 
L -2.09375 -11.71875 
Q 4.4375 -11.71875 7.125 -8.046875 
Q 9.8125 -4.390625 9.8125 5.078125 
z
" id="DejaVuSans-74"/>
        <path d="M 8.5 21.578125 
L 8.5 54.6875 
L 17.484375 54.6875 
L 17.484375 21.921875 
Q 17.484375 14.15625 20.5 10.265625 
Q 23.53125 6.390625 29.59375 6.390625 
Q 36.859375 6.390625 41.078125 11.03125 
Q 45.3125 15.671875 45.3125 23.6875 
L 45.3125 54.6875 
L 54.296875 54.6875 
L 54.296875 0 
L 45.3125 0 
L 45.3125 8.40625 
Q 42.046875 3.421875 37.71875 1 
Q 33.40625 -1.421875 27.6875 -1.421875 
Q 18.265625 -1.421875 13.375 4.4375 
Q 8.5 10.296875 8.5 21.578125 
z
M 31.109375 56 
z
" id="DejaVuSans-117"/>
        <path d="M 54.890625 33.015625 
L 54.890625 0 
L 45.90625 0 
L 45.90625 32.71875 
Q 45.90625 40.484375 42.875 44.328125 
Q 39.84375 48.1875 33.796875 48.1875 
Q 26.515625 48.1875 22.3125 43.546875 
Q 18.109375 38.921875 18.109375 30.90625 
L 18.109375 0 
L 9.078125 0 
L 9.078125 54.6875 
L 18.109375 54.6875 
L 18.109375 46.1875 
Q 21.34375 51.125 25.703125 53.5625 
Q 30.078125 56 35.796875 56 
Q 45.21875 56 50.046875 50.171875 
Q 54.890625 44.34375 54.890625 33.015625 
z
" id="DejaVuSans-110"/>
       </defs>
       <use xlink:href="#DejaVuSans-48"/>
       <use x="63.623047" xlink:href="#DejaVuSans-49"/>
       <use x="127.246094" xlink:href="#DejaVuSans-45"/>
       <use x="168.955078" xlink:href="#DejaVuSans-74"/>
       <use x="198.447266" xlink:href="#DejaVuSans-117"/>
       <use x="261.826172" xlink:href="#DejaVuSans-110"/>
      </g>
     </g>
    </g>
    <g id="xtick_2">
     <g id="line2d_3">
      <path clip-path="url(#pe05df6428b)" d="M 143.252399 238.238437 
L 143.252399 20.798437 
" style="fill:none;stroke:#b0b0b0;stroke-linecap:square;stroke-width:0.8;"/>
     </g>
     <g id="line2d_4">
      <g>
       <use style="stroke:#000000;stroke-width:0.8;" x="143.252399" xlink:href="#m5a67a35f37" y="238.238437"/>
      </g>
     </g>
     <g id="text_2">
      <!-- 05-Jun -->
      <g transform="translate(126.992243 252.836875)scale(0.1 -0.1)">
       <defs>
        <path d="M 10.796875 72.90625 
L 49.515625 72.90625 
L 49.515625 64.59375 
L 19.828125 64.59375 
L 19.828125 46.734375 
Q 21.96875 47.46875 24.109375 47.828125 
Q 26.265625 48.1875 28.421875 48.1875 
Q 40.625 48.1875 47.75 41.5 
Q 54.890625 34.8125 54.890625 23.390625 
Q 54.890625 11.625 47.5625 5.09375 
Q 40.234375 -1.421875 26.90625 -1.421875 
Q 22.3125 -1.421875 17.546875 -0.640625 
Q 12.796875 0.140625 7.71875 1.703125 
L 7.71875 11.625 
Q 12.109375 9.234375 16.796875 8.0625 
Q 21.484375 6.890625 26.703125 6.890625 
Q 35.15625 6.890625 40.078125 11.328125 
Q 45.015625 15.765625 45.015625 23.390625 
Q 45.015625 31 40.078125 35.4375 
Q 35.15625 39.890625 26.703125 39.890625 
Q 22.75 39.890625 18.8125 39.015625 
Q 14.890625 38.140625 10.796875 36.28125 
z
" id="DejaVuSans-53"/>
       </defs>
       <use xlink:href="#DejaVuSans-48"/>
       <use x="63.623047" xlink:href="#DejaVuSans-53"/>
       <use x="127.246094" xlink:href="#DejaVuSans-45"/>
       <use x="168.955078" xlink:href="#DejaVuSans-74"/>
       <use x="198.447266" xlink:href="#DejaVuSans-117"/>
       <use x="261.826172" xlink:href="#DejaVuSans-110"/>
      </g>
     </g>
    </g>
    <g id="xtick_3">
     <g id="line2d_5">
      <path clip-path="url(#pe05df6428b)" d="M 217.755876 238.238437 
L 217.755876 20.798437 
" style="fill:none;stroke:#b0b0b0;stroke-linecap:square;stroke-width:0.8;"/>
     </g>
     <g id="line2d_6">
      <g>
       <use style="stroke:#000000;stroke-width:0.8;" x="217.755876" xlink:href="#m5a67a35f37" y="238.238437"/>
      </g>
     </g>
     <g id="text_3">
      <!-- 09-Jun -->
      <g transform="translate(201.49572 252.836875)scale(0.1 -0.1)">
       <defs>
        <path d="M 10.984375 1.515625 
L 10.984375 10.5 
Q 14.703125 8.734375 18.5 7.8125 
Q 22.3125 6.890625 25.984375 6.890625 
Q 35.75 6.890625 40.890625 13.453125 
Q 46.046875 20.015625 46.78125 33.40625 
Q 43.953125 29.203125 39.59375 26.953125 
Q 35.25 24.703125 29.984375 24.703125 
Q 19.046875 24.703125 12.671875 31.3125 
Q 6.296875 37.9375 6.296875 49.421875 
Q 6.296875 60.640625 12.9375 67.421875 
Q 19.578125 74.21875 30.609375 74.21875 
Q 43.265625 74.21875 49.921875 64.515625 
Q 56.59375 54.828125 56.59375 36.375 
Q 56.59375 19.140625 48.40625 8.859375 
Q 40.234375 -1.421875 26.421875 -1.421875 
Q 22.703125 -1.421875 18.890625 -0.6875 
Q 15.09375 0.046875 10.984375 1.515625 
z
M 30.609375 32.421875 
Q 37.25 32.421875 41.125 36.953125 
Q 45.015625 41.5 45.015625 49.421875 
Q 45.015625 57.28125 41.125 61.84375 
Q 37.25 66.40625 30.609375 66.40625 
Q 23.96875 66.40625 20.09375 61.84375 
Q 16.21875 57.28125 16.21875 49.421875 
Q 16.21875 41.5 20.09375 36.953125 
Q 23.96875 32.421875 30.609375 32.421875 
z
" id="DejaVuSans-57"/>
       </defs>
       <use xlink:href="#DejaVuSans-48"/>
       <use x="63.623047" xlink:href="#DejaVuSans-57"/>
       <use x="127.246094" xlink:href="#DejaVuSans-45"/>
       <use x="168.955078" xlink:href="#DejaVuSans-74"/>
       <use x="198.447266" xlink:href="#DejaVuSans-117"/>
       <use x="261.826172" xlink:href="#DejaVuSans-110"/>
      </g>
     </g>
    </g>
    <g id="xtick_4">
     <g id="line2d_7">
      <path clip-path="url(#pe05df6428b)" d="M 292.259353 238.238437 
L 292.259353 20.798437 
" style="fill:none;stroke:#b0b0b0;stroke-linecap:square;stroke-width:0.8;"/>
     </g>
     <g id="line2d_8">
      <g>
       <use style="stroke:#000000;stroke-width:0.8;" x="292.259353" xlink:href="#m5a67a35f37" y="238.238437"/>
      </g>
     </g>
     <g id="text_4">
      <!-- 13-Jun -->
      <g transform="translate(275.999197 252.836875)scale(0.1 -0.1)">
       <defs>
        <path d="M 40.578125 39.3125 
Q 47.65625 37.796875 51.625 33 
Q 55.609375 28.21875 55.609375 21.1875 
Q 55.609375 10.40625 48.1875 4.484375 
Q 40.765625 -1.421875 27.09375 -1.421875 
Q 22.515625 -1.421875 17.65625 -0.515625 
Q 12.796875 0.390625 7.625 2.203125 
L 7.625 11.71875 
Q 11.71875 9.328125 16.59375 8.109375 
Q 21.484375 6.890625 26.8125 6.890625 
Q 36.078125 6.890625 40.9375 10.546875 
Q 45.796875 14.203125 45.796875 21.1875 
Q 45.796875 27.640625 41.28125 31.265625 
Q 36.765625 34.90625 28.71875 34.90625 
L 20.21875 34.90625 
L 20.21875 43.015625 
L 29.109375 43.015625 
Q 36.375 43.015625 40.234375 45.921875 
Q 44.09375 48.828125 44.09375 54.296875 
Q 44.09375 59.90625 40.109375 62.90625 
Q 36.140625 65.921875 28.71875 65.921875 
Q 24.65625 65.921875 20.015625 65.03125 
Q 15.375 64.15625 9.8125 62.3125 
L 9.8125 71.09375 
Q 15.4375 72.65625 20.34375 73.4375 
Q 25.25 74.21875 29.59375 74.21875 
Q 40.828125 74.21875 47.359375 69.109375 
Q 53.90625 64.015625 53.90625 55.328125 
Q 53.90625 49.265625 50.4375 45.09375 
Q 46.96875 40.921875 40.578125 39.3125 
z
" id="DejaVuSans-51"/>
       </defs>
       <use xlink:href="#DejaVuSans-49"/>
       <use x="63.623047" xlink:href="#DejaVuSans-51"/>
       <use x="127.246094" xlink:href="#DejaVuSans-45"/>
       <use x="168.955078" xlink:href="#DejaVuSans-74"/>
       <use x="198.447266" xlink:href="#DejaVuSans-117"/>
       <use x="261.826172" xlink:href="#DejaVuSans-110"/>
      </g>
     </g>
    </g>
    <g id="xtick_5">
     <g id="line2d_9">
      <path clip-path="url(#pe05df6428b)" d="M 366.76283 238.238437 
L 366.76283 20.798437 
" style="fill:none;stroke:#b0b0b0;stroke-linecap:square;stroke-width:0.8;"/>
     </g>
     <g id="line2d_10">
      <g>
       <use style="stroke:#000000;stroke-width:0.8;" x="366.76283" xlink:href="#m5a67a35f37" y="238.238437"/>
      </g>
     </g>
     <g id="text_5">
      <!-- 17-Jun -->
      <g transform="translate(350.502674 252.836875)scale(0.1 -0.1)">
       <defs>
        <path d="M 8.203125 72.90625 
L 55.078125 72.90625 
L 55.078125 68.703125 
L 28.609375 0 
L 18.3125 0 
L 43.21875 64.59375 
L 8.203125 64.59375 
z
" id="DejaVuSans-55"/>
       </defs>
       <use xlink:href="#DejaVuSans-49"/>
       <use x="63.623047" xlink:href="#DejaVuSans-55"/>
       <use x="127.246094" xlink:href="#DejaVuSans-45"/>
       <use x="168.955078" xlink:href="#DejaVuSans-74"/>
       <use x="198.447266" xlink:href="#DejaVuSans-117"/>
       <use x="261.826172" xlink:href="#DejaVuSans-110"/>
      </g>
     </g>
    </g>
    <g id="xtick_6">
     <g id="line2d_11">
      <path clip-path="url(#pe05df6428b)" d="M 441.266307 238.238437 
L 441.266307 20.798437 
" style="fill:none;stroke:#b0b0b0;stroke-linecap:square;stroke-width:0.8;"/>
     </g>
     <g id="line2d_12">
      <g>
       <use style="stroke:#000000;stroke-width:0.8;" x="441.266307" xlink:href="#m5a67a35f37" y="238.238437"/>
      </g>
     </g>
     <g id="text_6">
      <!-- 21-Jun -->
      <g transform="translate(425.006151 252.836875)scale(0.1 -0.1)">
       <defs>
        <path d="M 19.1875 8.296875 
L 53.609375 8.296875 
L 53.609375 0 
L 7.328125 0 
L 7.328125 8.296875 
Q 12.9375 14.109375 22.625 23.890625 
Q 32.328125 33.6875 34.8125 36.53125 
Q 39.546875 41.84375 41.421875 45.53125 
Q 43.3125 49.21875 43.3125 52.78125 
Q 43.3125 58.59375 39.234375 62.25 
Q 35.15625 65.921875 28.609375 65.921875 
Q 23.96875 65.921875 18.8125 64.3125 
Q 13.671875 62.703125 7.8125 59.421875 
L 7.8125 69.390625 
Q 13.765625 71.78125 18.9375 73 
Q 24.125 74.21875 28.421875 74.21875 
Q 39.75 74.21875 46.484375 68.546875 
Q 53.21875 62.890625 53.21875 53.421875 
Q 53.21875 48.921875 51.53125 44.890625 
Q 49.859375 40.875 45.40625 35.40625 
Q 44.1875 33.984375 37.640625 27.21875 
Q 31.109375 20.453125 19.1875 8.296875 
z
" id="DejaVuSans-50"/>
       </defs>
       <use xlink:href="#DejaVuSans-50"/>
       <use x="63.623047" xlink:href="#DejaVuSans-49"/>
       <use x="127.246094" xlink:href="#DejaVuSans-45"/>
       <use x="168.955078" xlink:href="#DejaVuSans-74"/>
       <use x="198.447266" xlink:href="#DejaVuSans-117"/>
       <use x="261.826172" xlink:href="#DejaVuSans-110"/>
      </g>
     </g>
    </g>
    <g id="xtick_7">
     <g id="line2d_13">
      <path clip-path="url(#pe05df6428b)" d="M 515.769784 238.238437 
L 515.769784 20.798437 
" style="fill:none;stroke:#b0b0b0;stroke-linecap:square;stroke-width:0.8;"/>
     </g>
     <g id="line2d_14">
      <g>
       <use style="stroke:#000000;stroke-width:0.8;" x="515.769784" xlink:href="#m5a67a35f37" y="238.238437"/>
      </g>
     </g>
     <g id="text_7">
      <!-- 25-Jun -->
      <g transform="translate(499.509628 252.836875)scale(0.1 -0.1)">
       <use xlink:href="#DejaVuSans-50"/>
       <use x="63.623047" xlink:href="#DejaVuSans-53"/>
       <use x="127.246094" xlink:href="#DejaVuSans-45"/>
       <use x="168.955078" xlink:href="#DejaVuSans-74"/>
       <use x="198.447266" xlink:href="#DejaVuSans-117"/>
       <use x="261.826172" xlink:href="#DejaVuSans-110"/>
      </g>
     </g>
    </g>
    <g id="xtick_8">
     <g id="line2d_15">
      <path clip-path="url(#pe05df6428b)" d="M 590.273261 238.238437 
L 590.273261 20.798437 
" style="fill:none;stroke:#b0b0b0;stroke-linecap:square;stroke-width:0.8;"/>
     </g>
     <g id="line2d_16">
      <g>
       <use style="stroke:#000000;stroke-width:0.8;" x="590.273261" xlink:href="#m5a67a35f37" y="238.238437"/>
      </g>
     </g>
     <g id="text_8">
      <!-- 29-Jun -->
      <g transform="translate(574.013105 252.836875)scale(0.1 -0.1)">
       <use xlink:href="#DejaVuSans-50"/>
       <use x="63.623047" xlink:href="#DejaVuSans-57"/>
       <use x="127.246094" xlink:href="#DejaVuSans-45"/>
       <use x="168.955078" xlink:href="#DejaVuSans-74"/>
       <use x="198.447266" xlink:href="#DejaVuSans-117"/>
       <use x="261.826172" xlink:href="#DejaVuSans-110"/>
      </g>
     </g>
    </g>
    <g id="xtick_9">
     <g id="line2d_17">
      <path clip-path="url(#pe05df6428b)" d="M 627.525 238.238437 
L 627.525 20.798437 
" style="fill:none;stroke:#b0b0b0;stroke-linecap:square;stroke-width:0.8;"/>
     </g>
     <g id="line2d_18">
      <g>
       <use style="stroke:#000000;stroke-width:0.8;" x="627.525" xlink:href="#m5a67a35f37" y="238.238437"/>
      </g>
     </g>
     <g id="text_9">
      <!-- 01-Jul -->
      <g transform="translate(613.044531 252.836875)scale(0.1 -0.1)">
       <defs>
        <path d="M 9.421875 75.984375 
L 18.40625 75.984375 
L 18.40625 0 
L 9.421875 0 
z
" id="DejaVuSans-108"/>
       </defs>
       <use xlink:href="#DejaVuSans-48"/>
       <use x="63.623047" xlink:href="#DejaVuSans-49"/>
       <use x="127.246094" xlink:href="#DejaVuSans-45"/>
       <use x="168.955078" xlink:href="#DejaVuSans-74"/>
       <use x="198.447266" xlink:href="#DejaVuSans-117"/>
       <use x="261.826172" xlink:href="#DejaVuSans-108"/>
      </g>
     </g>
    </g>
   </g>
   <g id="matplotlib.axis_2">
    <g id="ytick_1">
     <g id="line2d_19">
      <path clip-path="url(#pe05df6428b)" d="M 41.625 231.15867 
L 655.425 231.15867 
" style="fill:none;stroke:#b0b0b0;stroke-linecap:square;stroke-width:0.8;"/>
     </g>
     <g id="line2d_20">
      <defs>
       <path d="M 0 0 
L -3.5 0 
" id="me31b3f8ccb" style="stroke:#000000;stroke-width:0.8;"/>
      </defs>
      <g>
       <use style="stroke:#000000;stroke-width:0.8;" x="41.625" xlink:href="#me31b3f8ccb" y="231.15867"/>
      </g>
     </g>
     <g id="text_10">
      <!-- 6 -->
      <g transform="translate(28.2625 234.957888)scale(0.1 -0.1)">
       <defs>
        <path d="M 33.015625 40.375 
Q 26.375 40.375 22.484375 35.828125 
Q 18.609375 31.296875 18.609375 23.390625 
Q 18.609375 15.53125 22.484375 10.953125 
Q 26.375 6.390625 33.015625 6.390625 
Q 39.65625 6.390625 43.53125 10.953125 
Q 47.40625 15.53125 47.40625 23.390625 
Q 47.40625 31.296875 43.53125 35.828125 
Q 39.65625 40.375 33.015625 40.375 
z
M 52.59375 71.296875 
L 52.59375 62.3125 
Q 48.875 64.0625 45.09375 64.984375 
Q 41.3125 65.921875 37.59375 65.921875 
Q 27.828125 65.921875 22.671875 59.328125 
Q 17.53125 52.734375 16.796875 39.40625 
Q 19.671875 43.65625 24.015625 45.921875 
Q 28.375 48.1875 33.59375 48.1875 
Q 44.578125 48.1875 50.953125 41.515625 
Q 57.328125 34.859375 57.328125 23.390625 
Q 57.328125 12.15625 50.6875 5.359375 
Q 44.046875 -1.421875 33.015625 -1.421875 
Q 20.359375 -1.421875 13.671875 8.265625 
Q 6.984375 17.96875 6.984375 36.375 
Q 6.984375 53.65625 15.1875 63.9375 
Q 23.390625 74.21875 37.203125 74.21875 
Q 40.921875 74.21875 44.703125 73.484375 
Q 48.484375 72.75 52.59375 71.296875 
z
" id="DejaVuSans-54"/>
       </defs>
       <use xlink:href="#DejaVuSans-54"/>
      </g>
     </g>
    </g>
    <g id="ytick_2">
     <g id="line2d_21">
      <path clip-path="url(#pe05df6428b)" d="M 41.625 196.110314 
L 655.425 196.110314 
" style="fill:none;stroke:#b0b0b0;stroke-linecap:square;stroke-width:0.8;"/>
     </g>
     <g id="line2d_22">
      <g>
       <use style="stroke:#000000;stroke-width:0.8;" x="41.625" xlink:href="#me31b3f8ccb" y="196.110314"/>
      </g>
     </g>
     <g id="text_11">
      <!-- 8 -->
      <g transform="translate(28.2625 199.909532)scale(0.1 -0.1)">
       <defs>
        <path d="M 31.78125 34.625 
Q 24.75 34.625 20.71875 30.859375 
Q 16.703125 27.09375 16.703125 20.515625 
Q 16.703125 13.921875 20.71875 10.15625 
Q 24.75 6.390625 31.78125 6.390625 
Q 38.8125 6.390625 42.859375 10.171875 
Q 46.921875 13.96875 46.921875 20.515625 
Q 46.921875 27.09375 42.890625 30.859375 
Q 38.875 34.625 31.78125 34.625 
z
M 21.921875 38.8125 
Q 15.578125 40.375 12.03125 44.71875 
Q 8.5 49.078125 8.5 55.328125 
Q 8.5 64.0625 14.71875 69.140625 
Q 20.953125 74.21875 31.78125 74.21875 
Q 42.671875 74.21875 48.875 69.140625 
Q 55.078125 64.0625 55.078125 55.328125 
Q 55.078125 49.078125 51.53125 44.71875 
Q 48 40.375 41.703125 38.8125 
Q 48.828125 37.15625 52.796875 32.3125 
Q 56.78125 27.484375 56.78125 20.515625 
Q 56.78125 9.90625 50.3125 4.234375 
Q 43.84375 -1.421875 31.78125 -1.421875 
Q 19.734375 -1.421875 13.25 4.234375 
Q 6.78125 9.90625 6.78125 20.515625 
Q 6.78125 27.484375 10.78125 32.3125 
Q 14.796875 37.15625 21.921875 38.8125 
z
M 18.3125 54.390625 
Q 18.3125 48.734375 21.84375 45.5625 
Q 25.390625 42.390625 31.78125 42.390625 
Q 38.140625 42.390625 41.71875 45.5625 
Q 45.3125 48.734375 45.3125 54.390625 
Q 45.3125 60.0625 41.71875 63.234375 
Q 38.140625 66.40625 31.78125 66.40625 
Q 25.390625 66.40625 21.84375 63.234375 
Q 18.3125 60.0625 18.3125 54.390625 
z
" id="DejaVuSans-56"/>
       </defs>
       <use xlink:href="#DejaVuSans-56"/>
      </g>
     </g>
    </g>
    <g id="ytick_3">
     <g id="line2d_23">
      <path clip-path="url(#pe05df6428b)" d="M 41.625 161.061958 
L 655.425 161.061958 
" style="fill:none;stroke:#b0b0b0;stroke-linecap:square;stroke-width:0.8;"/>
     </g>
     <g id="line2d_24">
      <g>
       <use style="stroke:#000000;stroke-width:0.8;" x="41.625" xlink:href="#me31b3f8ccb" y="161.061958"/>
      </g>
     </g>
     <g id="text_12">
      <!-- 10 -->
      <g transform="translate(21.9 164.861177)scale(0.1 -0.1)">
       <use xlink:href="#DejaVuSans-49"/>
       <use x="63.623047" xlink:href="#DejaVuSans-48"/>
      </g>
     </g>
    </g>
    <g id="ytick_4">
     <g id="line2d_25">
      <path clip-path="url(#pe05df6428b)" d="M 41.625 126.013602 
L 655.425 126.013602 
" style="fill:none;stroke:#b0b0b0;stroke-linecap:square;stroke-width:0.8;"/>
     </g>
     <g id="line2d_26">
      <g>
       <use style="stroke:#000000;stroke-width:0.8;" x="41.625" xlink:href="#me31b3f8ccb" y="126.013602"/>
      </g>
     </g>
     <g id="text_13">
      <!-- 12 -->
      <g transform="translate(21.9 129.812821)scale(0.1 -0.1)">
       <use xlink:href="#DejaVuSans-49"/>
       <use x="63.623047" xlink:href="#DejaVuSans-50"/>
      </g>
     </g>
    </g>
    <g id="ytick_5">
     <g id="line2d_27">
      <path clip-path="url(#pe05df6428b)" d="M 41.625 90.965246 
L 655.425 90.965246 
" style="fill:none;stroke:#b0b0b0;stroke-linecap:square;stroke-width:0.8;"/>
     </g>
     <g id="line2d_28">
      <g>
       <use style="stroke:#000000;stroke-width:0.8;" x="41.625" xlink:href="#me31b3f8ccb" y="90.965246"/>
      </g>
     </g>
     <g id="text_14">
      <!-- 14 -->
      <g transform="translate(21.9 94.764465)scale(0.1 -0.1)">
       <defs>
        <path d="M 37.796875 64.3125 
L 12.890625 25.390625 
L 37.796875 25.390625 
z
M 35.203125 72.90625 
L 47.609375 72.90625 
L 47.609375 25.390625 
L 58.015625 25.390625 
L 58.015625 17.1875 
L 47.609375 17.1875 
L 47.609375 0 
L 37.796875 0 
L 37.796875 17.1875 
L 4.890625 17.1875 
L 4.890625 26.703125 
z
" id="DejaVuSans-52"/>
       </defs>
       <use xlink:href="#DejaVuSans-49"/>
       <use x="63.623047" xlink:href="#DejaVuSans-52"/>
      </g>
     </g>
    </g>
    <g id="ytick_6">
     <g id="line2d_29">
      <path clip-path="url(#pe05df6428b)" d="M 41.625 55.91689 
L 655.425 55.91689 
" style="fill:none;stroke:#b0b0b0;stroke-linecap:square;stroke-width:0.8;"/>
     </g>
     <g id="line2d_30">
      <g>
       <use style="stroke:#000000;stroke-width:0.8;" x="41.625" xlink:href="#me31b3f8ccb" y="55.91689"/>
      </g>
     </g>
     <g id="text_15">
      <!-- 16 -->
      <g transform="translate(21.9 59.716109)scale(0.1 -0.1)">
       <use xlink:href="#DejaVuSans-49"/>
       <use x="63.623047" xlink:href="#DejaVuSans-54"/>
      </g>
     </g>
    </g>
    <g id="ytick_7">
     <g id="line2d_31">
      <path clip-path="url(#pe05df6428b)" d="M 41.625 20.868534 
L 655.425 20.868534 
" style="fill:none;stroke:#b0b0b0;stroke-linecap:square;stroke-width:0.8;"/>
     </g>
     <g id="line2d_32">
      <g>
       <use style="stroke:#000000;stroke-width:0.8;" x="41.625" xlink:href="#me31b3f8ccb" y="20.868534"/>
      </g>
     </g>
     <g id="text_16">
      <!-- 18 -->
      <g transform="translate(21.9 24.667753)scale(0.1 -0.1)">
       <use xlink:href="#DejaVuSans-49"/>
       <use x="63.623047" xlink:href="#DejaVuSans-56"/>
      </g>
     </g>
    </g>
    <g id="text_17">
     <!-- $T_p$ (s) -->
     <g transform="translate(14.8 143.068437)rotate(-90)scale(0.1 -0.1)">
      <defs>
       <path d="M 5.90625 72.90625 
L 67.578125 72.90625 
L 66.015625 64.59375 
L 39.984375 64.59375 
L 27.484375 0 
L 17.578125 0 
L 30.078125 64.59375 
L 4.296875 64.59375 
z
" id="DejaVuSans-Oblique-84"/>
       <path d="M 49.609375 33.6875 
Q 49.609375 40.875 46.484375 44.671875 
Q 43.359375 48.484375 37.5 48.484375 
Q 33.5 48.484375 29.859375 46.4375 
Q 26.21875 44.390625 23.390625 40.484375 
Q 20.609375 36.625 18.9375 31.15625 
Q 17.28125 25.6875 17.28125 20.3125 
Q 17.28125 13.484375 20.40625 9.796875 
Q 23.53125 6.109375 29.296875 6.109375 
Q 33.546875 6.109375 37.1875 8.109375 
Q 40.828125 10.109375 43.40625 13.921875 
Q 46.1875 17.921875 47.890625 23.34375 
Q 49.609375 28.765625 49.609375 33.6875 
z
M 21.78125 46.390625 
Q 25.390625 51.125 30.296875 53.5625 
Q 35.203125 56 41.21875 56 
Q 49.609375 56 54.25 50.5 
Q 58.890625 45.015625 58.890625 35.109375 
Q 58.890625 27 56 19.65625 
Q 53.125 12.3125 47.703125 6.5 
Q 44.09375 2.640625 39.546875 0.609375 
Q 35.015625 -1.421875 29.984375 -1.421875 
Q 24.171875 -1.421875 20.21875 1 
Q 16.265625 3.421875 14.3125 8.203125 
L 8.6875 -20.796875 
L -0.296875 -20.796875 
L 14.40625 54.6875 
L 23.390625 54.6875 
z
" id="DejaVuSans-Oblique-112"/>
       <path id="DejaVuSans-32"/>
       <path d="M 31 75.875 
Q 24.46875 64.65625 21.28125 53.65625 
Q 18.109375 42.671875 18.109375 31.390625 
Q 18.109375 20.125 21.3125 9.0625 
Q 24.515625 -2 31 -13.1875 
L 23.1875 -13.1875 
Q 15.875 -1.703125 12.234375 9.375 
Q 8.59375 20.453125 8.59375 31.390625 
Q 8.59375 42.28125 12.203125 53.3125 
Q 15.828125 64.359375 23.1875 75.875 
z
" id="DejaVuSans-40"/>
       <path d="M 44.28125 53.078125 
L 44.28125 44.578125 
Q 40.484375 46.53125 36.375 47.5 
Q 32.28125 48.484375 27.875 48.484375 
Q 21.1875 48.484375 17.84375 46.4375 
Q 14.5 44.390625 14.5 40.28125 
Q 14.5 37.15625 16.890625 35.375 
Q 19.28125 33.59375 26.515625 31.984375 
L 29.59375 31.296875 
Q 39.15625 29.25 43.1875 25.515625 
Q 47.21875 21.78125 47.21875 15.09375 
Q 47.21875 7.46875 41.1875 3.015625 
Q 35.15625 -1.421875 24.609375 -1.421875 
Q 20.21875 -1.421875 15.453125 -0.5625 
Q 10.6875 0.296875 5.421875 2 
L 5.421875 11.28125 
Q 10.40625 8.6875 15.234375 7.390625 
Q 20.0625 6.109375 24.8125 6.109375 
Q 31.15625 6.109375 34.5625 8.28125 
Q 37.984375 10.453125 37.984375 14.40625 
Q 37.984375 18.0625 35.515625 20.015625 
Q 33.0625 21.96875 24.703125 23.78125 
L 21.578125 24.515625 
Q 13.234375 26.265625 9.515625 29.90625 
Q 5.8125 33.546875 5.8125 39.890625 
Q 5.8125 47.609375 11.28125 51.796875 
Q 16.75 56 26.8125 56 
Q 31.78125 56 36.171875 55.265625 
Q 40.578125 54.546875 44.28125 53.078125 
z
" id="DejaVuSans-115"/>
       <path d="M 8.015625 75.875 
L 15.828125 75.875 
Q 23.140625 64.359375 26.78125 53.3125 
Q 30.421875 42.28125 30.421875 31.390625 
Q 30.421875 20.453125 26.78125 9.375 
Q 23.140625 -1.703125 15.828125 -13.1875 
L 8.015625 -13.1875 
Q 14.5 -2 17.703125 9.0625 
Q 20.90625 20.125 20.90625 31.390625 
Q 20.90625 42.671875 17.703125 53.65625 
Q 14.5 64.65625 8.015625 75.875 
z
" id="DejaVuSans-41"/>
      </defs>
      <use transform="translate(0 0.125)" xlink:href="#DejaVuSans-Oblique-84"/>
      <use transform="translate(61.083984 -16.28125)scale(0.7)" xlink:href="#DejaVuSans-Oblique-112"/>
      <use transform="translate(108.251953 0.125)" xlink:href="#DejaVuSans-32"/>
      <use transform="translate(140.039062 0.125)" xlink:href="#DejaVuSans-40"/>
      <use transform="translate(179.052734 0.125)" xlink:href="#DejaVuSans-115"/>
      <use transform="translate(231.152344 0.125)" xlink:href="#DejaVuSans-41"/>
     </g>
    </g>
   </g>
   <g id="line2d_33">
    <path clip-path="url(#pe05df6428b)" d="M 69.525 85.007026 
L 70.301078 94.119598 
L 71.077156 94.119598 
L 72.629312 109.716116 
L 75.733623 109.716116 
L 77.285779 123.560217 
L 81.942246 123.560217 
L 82.718324 135.6519 
L 84.27048 94.119598 
L 85.046558 109.716116 
L 87.374791 109.716116 
L 88.926947 123.560217 
L 89.703025 123.560217 
L 91.255181 94.119598 
L 92.031259 123.560217 
L 93.583414 123.560217 
L 94.359492 94.119598 
L 95.911648 76.069695 
L 96.687726 94.119598 
L 98.239882 109.716116 
L 99.01596 76.069695 
L 100.568115 109.716116 
L 102.896349 109.716116 
L 103.672427 94.119598 
L 105.224583 109.716116 
L 106.000661 123.560217 
L 107.552816 109.716116 
L 108.328894 109.716116 
L 109.88105 123.560217 
L 112.209284 123.560217 
L 112.985362 135.6519 
L 114.537517 146.51689 
L 115.313595 135.6519 
L 116.865751 172.978399 
L 117.641829 135.6519 
L 119.970063 135.6519 
L 121.522218 180.338554 
L 122.298296 165.092519 
L 123.850452 146.51689 
L 126.954764 146.51689 
L 128.506919 165.092519 
L 129.282997 156.33043 
L 130.835153 146.51689 
L 131.611231 165.092519 
L 133.939465 165.092519 
L 135.49162 172.978399 
L 136.267698 156.33043 
L 137.819854 180.338554 
L 138.595932 172.978399 
L 140.148088 172.978399 
L 140.924166 193.131203 
L 142.476321 156.33043 
L 143.252399 165.092519 
L 144.804555 172.978399 
L 145.580633 217.314569 
L 147.132789 180.338554 
L 147.908866 228.354801 
L 149.461022 224.849966 
L 150.2371 213.108766 
L 151.789256 180.338554 
L 152.565334 213.108766 
L 154.11749 208.727722 
L 154.893567 217.314569 
L 156.445723 203.820952 
L 157.221801 76.069695 
L 158.773957 76.069695 
L 159.550035 94.119598 
L 161.102191 208.727722 
L 161.878268 76.069695 
L 163.430424 76.069695 
L 164.206502 94.119598 
L 165.758658 76.069695 
L 166.534736 94.119598 
L 168.086892 94.119598 
L 168.862969 76.069695 
L 170.415125 109.716116 
L 171.191203 94.119598 
L 172.743359 76.069695 
L 173.519437 109.716116 
L 175.071592 94.119598 
L 175.84767 123.560217 
L 177.399826 109.716116 
L 178.175904 123.560217 
L 179.72806 94.119598 
L 182.056293 94.119598 
L 182.832371 109.716116 
L 184.384527 123.560217 
L 185.160605 94.119598 
L 186.712761 109.716116 
L 187.488839 109.716116 
L 189.040994 94.119598 
L 191.369228 94.119598 
L 192.145306 135.6519 
L 193.697462 109.716116 
L 194.47354 109.716116 
L 196.025695 76.069695 
L 196.801773 94.119598 
L 198.353929 94.119598 
L 199.130007 76.069695 
L 201.458241 76.069695 
L 203.010396 165.092519 
L 203.786474 186.997741 
L 205.33863 156.33043 
L 206.114708 180.338554 
L 207.666864 172.978399 
L 208.442942 156.33043 
L 210.771175 156.33043 
L 212.323331 146.51689 
L 213.099409 156.33043 
L 214.651565 156.33043 
L 215.427643 146.51689 
L 216.979798 165.092519 
L 217.755876 146.51689 
L 219.308032 146.51689 
L 220.08411 123.560217 
L 221.636266 156.33043 
L 222.412344 135.6519 
L 224.740577 151.073176 
L 226.292733 123.560217 
L 227.068811 135.6519 
L 229.397045 135.6519 
L 230.9492 146.51689 
L 231.725278 146.51689 
L 233.277434 135.6519 
L 236.381745 135.6519 
L 237.933901 123.560217 
L 238.709979 123.560217 
L 240.262135 146.51689 
L 241.038213 135.6519 
L 242.590369 135.6519 
L 243.366446 146.51689 
L 244.918602 135.6519 
L 245.69468 146.51689 
L 247.246836 156.33043 
L 248.022914 135.6519 
L 249.57507 146.51689 
L 250.351147 146.51689 
L 251.903303 135.6519 
L 252.679381 146.51689 
L 257.335848 146.51689 
L 258.888004 135.6519 
L 259.664082 135.6519 
L 261.216238 156.33043 
L 261.992316 135.6519 
L 263.544471 146.51689 
L 265.872705 146.51689 
L 266.648783 135.6519 
L 268.200939 146.51689 
L 268.977017 156.33043 
L 270.529172 135.6519 
L 271.30525 146.51689 
L 272.857406 135.6519 
L 273.633484 146.51689 
L 275.18564 135.6519 
L 275.961718 156.33043 
L 277.513873 146.51689 
L 278.289951 146.51689 
L 279.842107 135.6519 
L 280.618185 135.6519 
L 282.170341 165.092519 
L 282.946419 165.092519 
L 284.498574 156.33043 
L 285.274652 146.51689 
L 286.826808 165.092519 
L 287.602886 172.978399 
L 289.155042 172.978399 
L 289.93112 193.131203 
L 291.483275 180.338554 
L 292.259353 172.978399 
L 293.811509 172.978399 
L 294.587587 165.092519 
L 296.139743 165.092519 
L 296.915821 180.338554 
L 298.467976 180.338554 
L 299.244054 165.092519 
L 300.79621 94.119598 
L 301.572288 180.338554 
L 303.124444 186.997741 
L 303.900522 165.092519 
L 305.452677 186.997741 
L 306.228755 156.33043 
L 307.780911 208.727722 
L 308.556989 165.092519 
L 310.109145 156.33043 
L 310.885223 146.51689 
L 312.437378 146.51689 
L 313.213456 135.6519 
L 314.765612 135.6519 
L 315.54169 146.51689 
L 317.869924 146.51689 
L 319.422079 156.33043 
L 321.750313 156.33043 
L 322.526391 165.092519 
L 324.078547 156.33043 
L 324.854624 146.51689 
L 326.40678 135.6519 
L 327.182858 146.51689 
L 329.511092 146.51689 
L 331.063248 156.33043 
L 331.839325 165.092519 
L 334.167559 165.092519 
L 335.719715 156.33043 
L 336.495793 146.51689 
L 338.047949 172.978399 
L 338.824026 165.092519 
L 340.376182 172.978399 
L 343.480494 172.978399 
L 345.03265 180.338554 
L 345.808727 186.997741 
L 348.136961 165.092519 
L 349.689117 165.092519 
L 350.465195 186.997741 
L 352.01735 172.978399 
L 352.793428 180.338554 
L 354.345584 156.33043 
L 355.121662 156.33043 
L 356.673818 146.51689 
L 357.449896 156.33043 
L 359.002051 146.51689 
L 359.778129 165.092519 
L 361.330285 146.51689 
L 362.106363 156.33043 
L 363.658519 156.33043 
L 364.434597 146.51689 
L 365.986752 156.33043 
L 366.76283 165.092519 
L 368.314986 186.997741 
L 369.091064 172.978399 
L 370.64322 156.33043 
L 371.419298 165.092519 
L 372.971453 156.33043 
L 373.747531 165.092519 
L 375.299687 172.978399 
L 376.075765 165.092519 
L 377.627921 156.33043 
L 379.956154 156.33043 
L 380.732232 146.51689 
L 382.284388 146.51689 
L 383.060466 156.33043 
L 385.3887 156.33043 
L 386.940855 146.51689 
L 389.269089 146.51689 
L 390.045167 135.6519 
L 391.597323 146.51689 
L 392.373401 156.33043 
L 393.925556 156.33043 
L 394.701634 146.51689 
L 396.25379 135.6519 
L 397.029868 146.51689 
L 398.582024 146.51689 
L 399.358102 186.997741 
L 401.686335 186.997741 
L 403.238491 193.131203 
L 404.014569 146.51689 
L 405.566725 193.131203 
L 406.342803 186.997741 
L 407.894958 193.131203 
L 408.671036 135.6519 
L 410.223192 146.51689 
L 410.99927 156.33043 
L 412.551426 165.092519 
L 413.327503 146.51689 
L 414.879659 180.338554 
L 415.655737 180.338554 
L 417.207893 146.51689 
L 417.983971 146.51689 
L 419.536127 186.997741 
L 420.312204 180.338554 
L 421.86436 198.73894 
L 422.640438 180.338554 
L 424.192594 165.092519 
L 424.968672 186.997741 
L 426.520828 156.33043 
L 427.296905 146.51689 
L 429.625139 146.51689 
L 431.177295 135.6519 
L 431.953373 109.716116 
L 433.505529 123.560217 
L 434.281606 135.6519 
L 438.161996 135.6519 
L 438.938074 123.560217 
L 440.490229 135.6519 
L 441.266307 135.6519 
L 442.818463 146.51689 
L 443.594541 156.33043 
L 445.146697 156.33043 
L 445.922775 146.51689 
L 447.47493 156.33043 
L 448.251008 156.33043 
L 449.803164 165.092519 
L 452.131398 165.092519 
L 452.907476 186.997741 
L 454.459631 172.978399 
L 455.235709 172.978399 
L 456.787865 165.092519 
L 457.563943 156.33043 
L 459.116099 146.51689 
L 459.892177 156.33043 
L 461.444332 123.560217 
L 462.22041 146.51689 
L 463.772566 146.51689 
L 464.548644 123.560217 
L 466.876878 123.560217 
L 468.429033 135.6519 
L 469.205111 123.560217 
L 470.757267 123.560217 
L 471.533345 146.51689 
L 473.085501 146.51689 
L 473.861579 135.6519 
L 475.413734 123.560217 
L 476.189812 123.560217 
L 477.741968 135.6519 
L 478.518046 123.560217 
L 480.070202 123.560217 
L 480.84628 135.6519 
L 483.174513 135.6519 
L 484.726669 123.560217 
L 485.502747 135.6519 
L 487.054903 109.716116 
L 489.383136 109.716116 
L 490.159214 94.119598 
L 492.487448 94.119598 
L 494.039604 76.069695 
L 494.815682 94.119598 
L 496.367837 30.682074 
L 497.143915 76.069695 
L 498.696071 30.682074 
L 499.472149 55.215923 
L 501.024305 76.069695 
L 501.800382 94.119598 
L 503.352538 76.069695 
L 505.680772 76.069695 
L 506.45685 55.215923 
L 508.009006 94.119598 
L 508.785083 94.119598 
L 510.337239 76.069695 
L 514.993707 76.069695 
L 515.769784 94.119598 
L 520.426252 94.119598 
L 521.978408 123.560217 
L 522.754485 94.119598 
L 524.306641 109.716116 
L 525.082719 123.560217 
L 526.634875 123.560217 
L 527.410953 109.716116 
L 528.963108 123.560217 
L 529.739186 123.560217 
L 531.291342 109.716116 
L 532.06742 109.716116 
L 533.619576 135.6519 
L 534.395654 109.716116 
L 535.947809 135.6519 
L 536.723887 135.6519 
L 538.276043 217.314569 
L 539.052121 228.354801 
L 540.604277 213.108766 
L 542.156433 203.820952 
L 543.708588 193.131203 
L 547.588978 193.131203 
L 548.365056 224.849966 
L 549.917211 172.978399 
L 550.693289 172.978399 
L 552.245445 165.092519 
L 553.021523 186.997741 
L 554.573679 172.978399 
L 555.349757 146.51689 
L 556.901912 135.6519 
L 557.67799 30.682074 
L 559.230146 30.682074 
L 560.006224 135.6519 
L 561.55838 55.215923 
L 562.334458 76.069695 
L 563.886613 76.069695 
L 564.662691 135.6519 
L 566.214847 109.716116 
L 566.990925 94.119598 
L 568.543081 123.560217 
L 573.199548 123.560217 
L 573.975626 135.6519 
L 575.527782 123.560217 
L 576.30386 146.51689 
L 577.856015 94.119598 
L 578.632093 109.716116 
L 580.184249 135.6519 
L 580.960327 123.560217 
L 582.512483 94.119598 
L 583.288561 109.716116 
L 584.840716 123.560217 
L 585.616794 123.560217 
L 587.16895 109.716116 
L 587.945028 135.6519 
L 589.497184 123.560217 
L 590.273261 135.6519 
L 591.825417 109.716116 
L 594.153651 109.716116 
L 594.929729 123.560217 
L 598.810118 123.560217 
L 599.586196 135.6519 
L 601.138352 146.51689 
L 601.91443 135.6519 
L 603.466586 146.51689 
L 604.242663 146.51689 
L 605.794819 156.33043 
L 606.570897 180.338554 
L 608.123053 165.092519 
L 608.899131 172.978399 
L 610.451287 180.338554 
L 611.227364 172.978399 
L 612.77952 172.978399 
L 613.555598 165.092519 
L 615.107754 156.33043 
L 615.883832 156.33043 
L 617.435987 172.978399 
L 618.212065 146.51689 
L 619.764221 165.092519 
L 620.540299 165.092519 
L 622.092455 180.338554 
L 622.868533 172.978399 
L 624.420688 172.978399 
L 625.196766 180.338554 
L 626.748922 208.727722 
L 627.525 180.338554 
L 627.525 180.338554 
" style="fill:none;stroke:#000000;stroke-linecap:square;"/>
   </g>
   <g id="patch_3">
    <path d="M 41.625 238.238438 
L 41.625 20.798438 
" style="fill:none;stroke:#000000;stroke-linecap:square;stroke-linejoin:miter;stroke-width:0.8;"/>
   </g>
   <g id="patch_4">
    <path d="M 655.425 238.238438 
L 655.425 20.798438 
" style="fill:none;stroke:#000000;stroke-linecap:square;stroke-linejoin:miter;stroke-width:0.8;"/>
   </g>
   <g id="patch_5">
    <path d="M 41.625 238.238437 
L 655.425 238.238437 
" style="fill:none;stroke:#000000;stroke-linecap:square;stroke-linejoin:miter;stroke-width:0.8;"/>
   </g>
   <g id="patch_6">
    <path d="M 41.625 20.798437 
L 655.425 20.798437 
" style="fill:none;stroke:#000000;stroke-linecap:square;stroke-linejoin:miter;stroke-width:0.8;"/>
   </g>
   <g id="text_18">
    <!-- Narrabeen-Collaroy Wave Period from 2007-6-1 to 2007-7-1 -->
    <g transform="translate(199.0875 14.798437)scale(0.1 -0.1)">
     <defs>
      <path d="M 9.8125 72.90625 
L 23.09375 72.90625 
L 55.421875 11.921875 
L 55.421875 72.90625 
L 64.984375 72.90625 
L 64.984375 0 
L 51.703125 0 
L 19.390625 60.984375 
L 19.390625 0 
L 9.8125 0 
z
" id="DejaVuSans-78"/>
      <path d="M 34.28125 27.484375 
Q 23.390625 27.484375 19.1875 25 
Q 14.984375 22.515625 14.984375 16.5 
Q 14.984375 11.71875 18.140625 8.90625 
Q 21.296875 6.109375 26.703125 6.109375 
Q 34.1875 6.109375 38.703125 11.40625 
Q 43.21875 16.703125 43.21875 25.484375 
L 43.21875 27.484375 
z
M 52.203125 31.203125 
L 52.203125 0 
L 43.21875 0 
L 43.21875 8.296875 
Q 40.140625 3.328125 35.546875 0.953125 
Q 30.953125 -1.421875 24.3125 -1.421875 
Q 15.921875 -1.421875 10.953125 3.296875 
Q 6 8.015625 6 15.921875 
Q 6 25.140625 12.171875 29.828125 
Q 18.359375 34.515625 30.609375 34.515625 
L 43.21875 34.515625 
L 43.21875 35.40625 
Q 43.21875 41.609375 39.140625 45 
Q 35.0625 48.390625 27.6875 48.390625 
Q 23 48.390625 18.546875 47.265625 
Q 14.109375 46.140625 10.015625 43.890625 
L 10.015625 52.203125 
Q 14.9375 54.109375 19.578125 55.046875 
Q 24.21875 56 28.609375 56 
Q 40.484375 56 46.34375 49.84375 
Q 52.203125 43.703125 52.203125 31.203125 
z
" id="DejaVuSans-97"/>
      <path d="M 41.109375 46.296875 
Q 39.59375 47.171875 37.8125 47.578125 
Q 36.03125 48 33.890625 48 
Q 26.265625 48 22.1875 43.046875 
Q 18.109375 38.09375 18.109375 28.8125 
L 18.109375 0 
L 9.078125 0 
L 9.078125 54.6875 
L 18.109375 54.6875 
L 18.109375 46.1875 
Q 20.953125 51.171875 25.484375 53.578125 
Q 30.03125 56 36.53125 56 
Q 37.453125 56 38.578125 55.875 
Q 39.703125 55.765625 41.0625 55.515625 
z
" id="DejaVuSans-114"/>
      <path d="M 48.6875 27.296875 
Q 48.6875 37.203125 44.609375 42.84375 
Q 40.53125 48.484375 33.40625 48.484375 
Q 26.265625 48.484375 22.1875 42.84375 
Q 18.109375 37.203125 18.109375 27.296875 
Q 18.109375 17.390625 22.1875 11.75 
Q 26.265625 6.109375 33.40625 6.109375 
Q 40.53125 6.109375 44.609375 11.75 
Q 48.6875 17.390625 48.6875 27.296875 
z
M 18.109375 46.390625 
Q 20.953125 51.265625 25.265625 53.625 
Q 29.59375 56 35.59375 56 
Q 45.5625 56 51.78125 48.09375 
Q 58.015625 40.1875 58.015625 27.296875 
Q 58.015625 14.40625 51.78125 6.484375 
Q 45.5625 -1.421875 35.59375 -1.421875 
Q 29.59375 -1.421875 25.265625 0.953125 
Q 20.953125 3.328125 18.109375 8.203125 
L 18.109375 0 
L 9.078125 0 
L 9.078125 75.984375 
L 18.109375 75.984375 
z
" id="DejaVuSans-98"/>
      <path d="M 56.203125 29.59375 
L 56.203125 25.203125 
L 14.890625 25.203125 
Q 15.484375 15.921875 20.484375 11.0625 
Q 25.484375 6.203125 34.421875 6.203125 
Q 39.59375 6.203125 44.453125 7.46875 
Q 49.3125 8.734375 54.109375 11.28125 
L 54.109375 2.78125 
Q 49.265625 0.734375 44.1875 -0.34375 
Q 39.109375 -1.421875 33.890625 -1.421875 
Q 20.796875 -1.421875 13.15625 6.1875 
Q 5.515625 13.8125 5.515625 26.8125 
Q 5.515625 40.234375 12.765625 48.109375 
Q 20.015625 56 32.328125 56 
Q 43.359375 56 49.78125 48.890625 
Q 56.203125 41.796875 56.203125 29.59375 
z
M 47.21875 32.234375 
Q 47.125 39.59375 43.09375 43.984375 
Q 39.0625 48.390625 32.421875 48.390625 
Q 24.90625 48.390625 20.390625 44.140625 
Q 15.875 39.890625 15.1875 32.171875 
z
" id="DejaVuSans-101"/>
      <path d="M 64.40625 67.28125 
L 64.40625 56.890625 
Q 59.421875 61.53125 53.78125 63.8125 
Q 48.140625 66.109375 41.796875 66.109375 
Q 29.296875 66.109375 22.65625 58.46875 
Q 16.015625 50.828125 16.015625 36.375 
Q 16.015625 21.96875 22.65625 14.328125 
Q 29.296875 6.6875 41.796875 6.6875 
Q 48.140625 6.6875 53.78125 8.984375 
Q 59.421875 11.28125 64.40625 15.921875 
L 64.40625 5.609375 
Q 59.234375 2.09375 53.4375 0.328125 
Q 47.65625 -1.421875 41.21875 -1.421875 
Q 24.65625 -1.421875 15.125 8.703125 
Q 5.609375 18.84375 5.609375 36.375 
Q 5.609375 53.953125 15.125 64.078125 
Q 24.65625 74.21875 41.21875 74.21875 
Q 47.75 74.21875 53.53125 72.484375 
Q 59.328125 70.75 64.40625 67.28125 
z
" id="DejaVuSans-67"/>
      <path d="M 30.609375 48.390625 
Q 23.390625 48.390625 19.1875 42.75 
Q 14.984375 37.109375 14.984375 27.296875 
Q 14.984375 17.484375 19.15625 11.84375 
Q 23.34375 6.203125 30.609375 6.203125 
Q 37.796875 6.203125 41.984375 11.859375 
Q 46.1875 17.53125 46.1875 27.296875 
Q 46.1875 37.015625 41.984375 42.703125 
Q 37.796875 48.390625 30.609375 48.390625 
z
M 30.609375 56 
Q 42.328125 56 49.015625 48.375 
Q 55.71875 40.765625 55.71875 27.296875 
Q 55.71875 13.875 49.015625 6.21875 
Q 42.328125 -1.421875 30.609375 -1.421875 
Q 18.84375 -1.421875 12.171875 6.21875 
Q 5.515625 13.875 5.515625 27.296875 
Q 5.515625 40.765625 12.171875 48.375 
Q 18.84375 56 30.609375 56 
z
" id="DejaVuSans-111"/>
      <path d="M 32.171875 -5.078125 
Q 28.375 -14.84375 24.75 -17.8125 
Q 21.140625 -20.796875 15.09375 -20.796875 
L 7.90625 -20.796875 
L 7.90625 -13.28125 
L 13.1875 -13.28125 
Q 16.890625 -13.28125 18.9375 -11.515625 
Q 21 -9.765625 23.484375 -3.21875 
L 25.09375 0.875 
L 2.984375 54.6875 
L 12.5 54.6875 
L 29.59375 11.921875 
L 46.6875 54.6875 
L 56.203125 54.6875 
z
" id="DejaVuSans-121"/>
      <path d="M 3.328125 72.90625 
L 13.28125 72.90625 
L 28.609375 11.28125 
L 43.890625 72.90625 
L 54.984375 72.90625 
L 70.3125 11.28125 
L 85.59375 72.90625 
L 95.609375 72.90625 
L 77.296875 0 
L 64.890625 0 
L 49.515625 63.28125 
L 33.984375 0 
L 21.578125 0 
z
" id="DejaVuSans-87"/>
      <path d="M 2.984375 54.6875 
L 12.5 54.6875 
L 29.59375 8.796875 
L 46.6875 54.6875 
L 56.203125 54.6875 
L 35.6875 0 
L 23.484375 0 
z
" id="DejaVuSans-118"/>
      <path d="M 19.671875 64.796875 
L 19.671875 37.40625 
L 32.078125 37.40625 
Q 38.96875 37.40625 42.71875 40.96875 
Q 46.484375 44.53125 46.484375 51.125 
Q 46.484375 57.671875 42.71875 61.234375 
Q 38.96875 64.796875 32.078125 64.796875 
z
M 9.8125 72.90625 
L 32.078125 72.90625 
Q 44.34375 72.90625 50.609375 67.359375 
Q 56.890625 61.8125 56.890625 51.125 
Q 56.890625 40.328125 50.609375 34.8125 
Q 44.34375 29.296875 32.078125 29.296875 
L 19.671875 29.296875 
L 19.671875 0 
L 9.8125 0 
z
" id="DejaVuSans-80"/>
      <path d="M 9.421875 54.6875 
L 18.40625 54.6875 
L 18.40625 0 
L 9.421875 0 
z
M 9.421875 75.984375 
L 18.40625 75.984375 
L 18.40625 64.59375 
L 9.421875 64.59375 
z
" id="DejaVuSans-105"/>
      <path d="M 45.40625 46.390625 
L 45.40625 75.984375 
L 54.390625 75.984375 
L 54.390625 0 
L 45.40625 0 
L 45.40625 8.203125 
Q 42.578125 3.328125 38.25 0.953125 
Q 33.9375 -1.421875 27.875 -1.421875 
Q 17.96875 -1.421875 11.734375 6.484375 
Q 5.515625 14.40625 5.515625 27.296875 
Q 5.515625 40.1875 11.734375 48.09375 
Q 17.96875 56 27.875 56 
Q 33.9375 56 38.25 53.625 
Q 42.578125 51.265625 45.40625 46.390625 
z
M 14.796875 27.296875 
Q 14.796875 17.390625 18.875 11.75 
Q 22.953125 6.109375 30.078125 6.109375 
Q 37.203125 6.109375 41.296875 11.75 
Q 45.40625 17.390625 45.40625 27.296875 
Q 45.40625 37.203125 41.296875 42.84375 
Q 37.203125 48.484375 30.078125 48.484375 
Q 22.953125 48.484375 18.875 42.84375 
Q 14.796875 37.203125 14.796875 27.296875 
z
" id="DejaVuSans-100"/>
      <path d="M 37.109375 75.984375 
L 37.109375 68.5 
L 28.515625 68.5 
Q 23.6875 68.5 21.796875 66.546875 
Q 19.921875 64.59375 19.921875 59.515625 
L 19.921875 54.6875 
L 34.71875 54.6875 
L 34.71875 47.703125 
L 19.921875 47.703125 
L 19.921875 0 
L 10.890625 0 
L 10.890625 47.703125 
L 2.296875 47.703125 
L 2.296875 54.6875 
L 10.890625 54.6875 
L 10.890625 58.5 
Q 10.890625 67.625 15.140625 71.796875 
Q 19.390625 75.984375 28.609375 75.984375 
z
" id="DejaVuSans-102"/>
      <path d="M 52 44.1875 
Q 55.375 50.25 60.0625 53.125 
Q 64.75 56 71.09375 56 
Q 79.640625 56 84.28125 50.015625 
Q 88.921875 44.046875 88.921875 33.015625 
L 88.921875 0 
L 79.890625 0 
L 79.890625 32.71875 
Q 79.890625 40.578125 77.09375 44.375 
Q 74.3125 48.1875 68.609375 48.1875 
Q 61.625 48.1875 57.5625 43.546875 
Q 53.515625 38.921875 53.515625 30.90625 
L 53.515625 0 
L 44.484375 0 
L 44.484375 32.71875 
Q 44.484375 40.625 41.703125 44.40625 
Q 38.921875 48.1875 33.109375 48.1875 
Q 26.21875 48.1875 22.15625 43.53125 
Q 18.109375 38.875 18.109375 30.90625 
L 18.109375 0 
L 9.078125 0 
L 9.078125 54.6875 
L 18.109375 54.6875 
L 18.109375 46.1875 
Q 21.1875 51.21875 25.484375 53.609375 
Q 29.78125 56 35.6875 56 
Q 41.65625 56 45.828125 52.96875 
Q 50 49.953125 52 44.1875 
z
" id="DejaVuSans-109"/>
      <path d="M 18.3125 70.21875 
L 18.3125 54.6875 
L 36.8125 54.6875 
L 36.8125 47.703125 
L 18.3125 47.703125 
L 18.3125 18.015625 
Q 18.3125 11.328125 20.140625 9.421875 
Q 21.96875 7.515625 27.59375 7.515625 
L 36.8125 7.515625 
L 36.8125 0 
L 27.59375 0 
Q 17.1875 0 13.234375 3.875 
Q 9.28125 7.765625 9.28125 18.015625 
L 9.28125 47.703125 
L 2.6875 47.703125 
L 2.6875 54.6875 
L 9.28125 54.6875 
L 9.28125 70.21875 
z
" id="DejaVuSans-116"/>
     </defs>
     <use xlink:href="#DejaVuSans-78"/>
     <use x="74.804688" xlink:href="#DejaVuSans-97"/>
     <use x="136.083984" xlink:href="#DejaVuSans-114"/>
     <use x="175.447266" xlink:href="#DejaVuSans-114"/>
     <use x="216.560547" xlink:href="#DejaVuSans-97"/>
     <use x="277.839844" xlink:href="#DejaVuSans-98"/>
     <use x="341.316406" xlink:href="#DejaVuSans-101"/>
     <use x="402.839844" xlink:href="#DejaVuSans-101"/>
     <use x="464.363281" xlink:href="#DejaVuSans-110"/>
     <use x="527.742188" xlink:href="#DejaVuSans-45"/>
     <use x="563.826172" xlink:href="#DejaVuSans-67"/>
     <use x="633.650391" xlink:href="#DejaVuSans-111"/>
     <use x="694.832031" xlink:href="#DejaVuSans-108"/>
     <use x="722.615234" xlink:href="#DejaVuSans-108"/>
     <use x="750.398438" xlink:href="#DejaVuSans-97"/>
     <use x="811.677734" xlink:href="#DejaVuSans-114"/>
     <use x="850.541016" xlink:href="#DejaVuSans-111"/>
     <use x="911.722656" xlink:href="#DejaVuSans-121"/>
     <use x="970.902344" xlink:href="#DejaVuSans-32"/>
     <use x="1002.689453" xlink:href="#DejaVuSans-87"/>
     <use x="1095.191406" xlink:href="#DejaVuSans-97"/>
     <use x="1156.470703" xlink:href="#DejaVuSans-118"/>
     <use x="1215.650391" xlink:href="#DejaVuSans-101"/>
     <use x="1277.173828" xlink:href="#DejaVuSans-32"/>
     <use x="1308.960938" xlink:href="#DejaVuSans-80"/>
     <use x="1365.638672" xlink:href="#DejaVuSans-101"/>
     <use x="1427.162109" xlink:href="#DejaVuSans-114"/>
     <use x="1468.275391" xlink:href="#DejaVuSans-105"/>
     <use x="1496.058594" xlink:href="#DejaVuSans-111"/>
     <use x="1557.240234" xlink:href="#DejaVuSans-100"/>
     <use x="1620.716797" xlink:href="#DejaVuSans-32"/>
     <use x="1652.503906" xlink:href="#DejaVuSans-102"/>
     <use x="1687.708984" xlink:href="#DejaVuSans-114"/>
     <use x="1726.572266" xlink:href="#DejaVuSans-111"/>
     <use x="1787.753906" xlink:href="#DejaVuSans-109"/>
     <use x="1885.166016" xlink:href="#DejaVuSans-32"/>
     <use x="1916.953125" xlink:href="#DejaVuSans-50"/>
     <use x="1980.576172" xlink:href="#DejaVuSans-48"/>
     <use x="2044.199219" xlink:href="#DejaVuSans-48"/>
     <use x="2107.822266" xlink:href="#DejaVuSans-55"/>
     <use x="2171.445312" xlink:href="#DejaVuSans-45"/>
     <use x="2207.529297" xlink:href="#DejaVuSans-54"/>
     <use x="2271.152344" xlink:href="#DejaVuSans-45"/>
     <use x="2307.236328" xlink:href="#DejaVuSans-49"/>
     <use x="2370.859375" xlink:href="#DejaVuSans-32"/>
     <use x="2402.646484" xlink:href="#DejaVuSans-116"/>
     <use x="2441.855469" xlink:href="#DejaVuSans-111"/>
     <use x="2503.037109" xlink:href="#DejaVuSans-32"/>
     <use x="2534.824219" xlink:href="#DejaVuSans-50"/>
     <use x="2598.447266" xlink:href="#DejaVuSans-48"/>
     <use x="2662.070312" xlink:href="#DejaVuSans-48"/>
     <use x="2725.693359" xlink:href="#DejaVuSans-55"/>
     <use x="2789.316406" xlink:href="#DejaVuSans-45"/>
     <use x="2825.400391" xlink:href="#DejaVuSans-55"/>
     <use x="2889.023438" xlink:href="#DejaVuSans-45"/>
     <use x="2925.107422" xlink:href="#DejaVuSans-49"/>
    </g>
   </g>
   <g id="legend_1">
    <g id="patch_7">
     <path d="M 598.28125 43.476562 
L 648.425 43.476562 
Q 650.425 43.476562 650.425 41.476562 
L 650.425 27.798437 
Q 650.425 25.798437 648.425 25.798437 
L 598.28125 25.798437 
Q 596.28125 25.798437 596.28125 27.798437 
L 596.28125 41.476562 
Q 596.28125 43.476562 598.28125 43.476562 
z
" style="fill:#ffffff;opacity:0.8;stroke:#cccccc;stroke-linejoin:miter;"/>
    </g>
    <g id="line2d_34">
     <path d="M 600.28125 33.896875 
L 620.28125 33.896875 
" style="fill:none;stroke:#000000;stroke-linecap:square;"/>
    </g>
    <g id="line2d_35"/>
    <g id="text_19">
     <!-- PF1 -->
     <g transform="translate(628.28125 37.396875)scale(0.1 -0.1)">
      <defs>
       <path d="M 9.8125 72.90625 
L 51.703125 72.90625 
L 51.703125 64.59375 
L 19.671875 64.59375 
L 19.671875 43.109375 
L 48.578125 43.109375 
L 48.578125 34.8125 
L 19.671875 34.8125 
L 19.671875 0 
L 9.8125 0 
z
" id="DejaVuSans-70"/>
      </defs>
      <use xlink:href="#DejaVuSans-80"/>
      <use x="60.302734" xlink:href="#DejaVuSans-70"/>
      <use x="117.822266" xlink:href="#DejaVuSans-49"/>
     </g>
    </g>
   </g>
  </g>
 </g>
 <defs>
  <clipPath id="pe05df6428b">
   <rect height="217.44" width="613.8" x="41.625" y="20.798437"/>
  </clipPath>
 </defs>
</svg>
