<?xml version="1.0" encoding="utf-8" standalone="no"?>
<!DOCTYPE svg PUBLIC "-//W3C//DTD SVG 1.1//EN"
  "http://www.w3.org/Graphics/SVG/1.1/DTD/svg11.dtd">
<!-- Created with matplotlib (https://matplotlib.org/) -->
<svg height="365.141828pt" version="1.1" viewBox="0 0 743.252627 365.141828" width="743.252627pt" xmlns="http://www.w3.org/2000/svg" xmlns:xlink="http://www.w3.org/1999/xlink">
 <metadata>
  <rdf:RDF xmlns:cc="http://creativecommons.org/ns#" xmlns:dc="http://purl.org/dc/elements/1.1/" xmlns:rdf="http://www.w3.org/1999/02/22-rdf-syntax-ns#">
   <cc:Work>
    <dc:type rdf:resource="http://purl.org/dc/dcmitype/StillImage"/>
    <dc:date>2021-03-24T09:30:00.394406</dc:date>
    <dc:format>image/svg+xml</dc:format>
    <dc:creator>
     <cc:Agent>
      <dc:title>Matplotlib v3.3.4, https://matplotlib.org/</dc:title>
     </cc:Agent>
    </dc:creator>
   </cc:Work>
  </rdf:RDF>
 </metadata>
 <defs>
  <style type="text/css">*{stroke-linecap:butt;stroke-linejoin:round;}</style>
 </defs>
 <g id="figure_1">
  <g id="patch_1">
   <path d="M -0 365.141828 
L 743.252627 365.141828 
L 743.252627 0 
L -0 0 
z
" style="fill:none;"/>
  </g>
  <g id="axes_1">
   <g id="patch_2">
    <path d="M 64.032627 239.758125 
L 616.452627 239.758125 
L 616.452627 22.318125 
L 64.032627 22.318125 
z
" style="fill:#ffffff;"/>
   </g>
   <g id="matplotlib.axis_1">
    <g id="xtick_1">
     <g id="line2d_1">
      <path clip-path="url(#pa54e70a969)" d="M 89.142627 239.758125 
L 89.142627 22.318125 
" style="fill:none;stroke:#b0b0b0;stroke-linecap:square;stroke-width:0.8;"/>
     </g>
     <g id="line2d_2">
      <defs>
       <path d="M 0 0 
L 0 3.5 
" id="md2a97f59ca" style="stroke:#000000;stroke-width:0.8;"/>
      </defs>
      <g>
       <use style="stroke:#000000;stroke-width:0.8;" x="89.142627" xlink:href="#md2a97f59ca" y="239.758125"/>
      </g>
     </g>
     <g id="text_1">
      <!-- 2021-03-20 00:00:00 -->
      <g transform="translate(12.572907 327.230191)rotate(-45)scale(0.1 -0.1)">
       <defs>
        <path d="M 19.1875 8.296875 
L 53.609375 8.296875 
L 53.609375 0 
L 7.328125 0 
L 7.328125 8.296875 
Q 12.9375 14.109375 22.625 23.890625 
Q 32.328125 33.6875 34.8125 36.53125 
Q 39.546875 41.84375 41.421875 45.53125 
Q 43.3125 49.21875 43.3125 52.78125 
Q 43.3125 58.59375 39.234375 62.25 
Q 35.15625 65.921875 28.609375 65.921875 
Q 23.96875 65.921875 18.8125 64.3125 
Q 13.671875 62.703125 7.8125 59.421875 
L 7.8125 69.390625 
Q 13.765625 71.78125 18.9375 73 
Q 24.125 74.21875 28.421875 74.21875 
Q 39.75 74.21875 46.484375 68.546875 
Q 53.21875 62.890625 53.21875 53.421875 
Q 53.21875 48.921875 51.53125 44.890625 
Q 49.859375 40.875 45.40625 35.40625 
Q 44.1875 33.984375 37.640625 27.21875 
Q 31.109375 20.453125 19.1875 8.296875 
z
" id="DejaVuSans-50"/>
        <path d="M 31.78125 66.40625 
Q 24.171875 66.40625 20.328125 58.90625 
Q 16.5 51.421875 16.5 36.375 
Q 16.5 21.390625 20.328125 13.890625 
Q 24.171875 6.390625 31.78125 6.390625 
Q 39.453125 6.390625 43.28125 13.890625 
Q 47.125 21.390625 47.125 36.375 
Q 47.125 51.421875 43.28125 58.90625 
Q 39.453125 66.40625 31.78125 66.40625 
z
M 31.78125 74.21875 
Q 44.046875 74.21875 50.515625 64.515625 
Q 56.984375 54.828125 56.984375 36.375 
Q 56.984375 17.96875 50.515625 8.265625 
Q 44.046875 -1.421875 31.78125 -1.421875 
Q 19.53125 -1.421875 13.0625 8.265625 
Q 6.59375 17.96875 6.59375 36.375 
Q 6.59375 54.828125 13.0625 64.515625 
Q 19.53125 74.21875 31.78125 74.21875 
z
" id="DejaVuSans-48"/>
        <path d="M 12.40625 8.296875 
L 28.515625 8.296875 
L 28.515625 63.921875 
L 10.984375 60.40625 
L 10.984375 69.390625 
L 28.421875 72.90625 
L 38.28125 72.90625 
L 38.28125 8.296875 
L 54.390625 8.296875 
L 54.390625 0 
L 12.40625 0 
z
" id="DejaVuSans-49"/>
        <path d="M 4.890625 31.390625 
L 31.203125 31.390625 
L 31.203125 23.390625 
L 4.890625 23.390625 
z
" id="DejaVuSans-45"/>
        <path d="M 40.578125 39.3125 
Q 47.65625 37.796875 51.625 33 
Q 55.609375 28.21875 55.609375 21.1875 
Q 55.609375 10.40625 48.1875 4.484375 
Q 40.765625 -1.421875 27.09375 -1.421875 
Q 22.515625 -1.421875 17.65625 -0.515625 
Q 12.796875 0.390625 7.625 2.203125 
L 7.625 11.71875 
Q 11.71875 9.328125 16.59375 8.109375 
Q 21.484375 6.890625 26.8125 6.890625 
Q 36.078125 6.890625 40.9375 10.546875 
Q 45.796875 14.203125 45.796875 21.1875 
Q 45.796875 27.640625 41.28125 31.265625 
Q 36.765625 34.90625 28.71875 34.90625 
L 20.21875 34.90625 
L 20.21875 43.015625 
L 29.109375 43.015625 
Q 36.375 43.015625 40.234375 45.921875 
Q 44.09375 48.828125 44.09375 54.296875 
Q 44.09375 59.90625 40.109375 62.90625 
Q 36.140625 65.921875 28.71875 65.921875 
Q 24.65625 65.921875 20.015625 65.03125 
Q 15.375 64.15625 9.8125 62.3125 
L 9.8125 71.09375 
Q 15.4375 72.65625 20.34375 73.4375 
Q 25.25 74.21875 29.59375 74.21875 
Q 40.828125 74.21875 47.359375 69.109375 
Q 53.90625 64.015625 53.90625 55.328125 
Q 53.90625 49.265625 50.4375 45.09375 
Q 46.96875 40.921875 40.578125 39.3125 
z
" id="DejaVuSans-51"/>
        <path id="DejaVuSans-32"/>
        <path d="M 11.71875 12.40625 
L 22.015625 12.40625 
L 22.015625 0 
L 11.71875 0 
z
M 11.71875 51.703125 
L 22.015625 51.703125 
L 22.015625 39.3125 
L 11.71875 39.3125 
z
" id="DejaVuSans-58"/>
       </defs>
       <use xlink:href="#DejaVuSans-50"/>
       <use x="63.623047" xlink:href="#DejaVuSans-48"/>
       <use x="127.246094" xlink:href="#DejaVuSans-50"/>
       <use x="190.869141" xlink:href="#DejaVuSans-49"/>
       <use x="254.492188" xlink:href="#DejaVuSans-45"/>
       <use x="290.576172" xlink:href="#DejaVuSans-48"/>
       <use x="354.199219" xlink:href="#DejaVuSans-51"/>
       <use x="417.822266" xlink:href="#DejaVuSans-45"/>
       <use x="453.90625" xlink:href="#DejaVuSans-50"/>
       <use x="517.529297" xlink:href="#DejaVuSans-48"/>
       <use x="581.152344" xlink:href="#DejaVuSans-32"/>
       <use x="612.939453" xlink:href="#DejaVuSans-48"/>
       <use x="676.5625" xlink:href="#DejaVuSans-48"/>
       <use x="740.185547" xlink:href="#DejaVuSans-58"/>
       <use x="773.876953" xlink:href="#DejaVuSans-48"/>
       <use x="837.5" xlink:href="#DejaVuSans-48"/>
       <use x="901.123047" xlink:href="#DejaVuSans-58"/>
       <use x="934.814453" xlink:href="#DejaVuSans-48"/>
       <use x="998.4375" xlink:href="#DejaVuSans-48"/>
      </g>
     </g>
    </g>
    <g id="xtick_2">
     <g id="line2d_3">
      <path clip-path="url(#pa54e70a969)" d="M 158.892627 239.758125 
L 158.892627 22.318125 
" style="fill:none;stroke:#b0b0b0;stroke-linecap:square;stroke-width:0.8;"/>
     </g>
     <g id="line2d_4">
      <g>
       <use style="stroke:#000000;stroke-width:0.8;" x="158.892627" xlink:href="#md2a97f59ca" y="239.758125"/>
      </g>
     </g>
     <g id="text_2">
      <!-- 2021-03-20 19:58:07.500000 -->
      <g transform="translate(53.081832 356.471266)rotate(-45)scale(0.1 -0.1)">
       <defs>
        <path d="M 10.984375 1.515625 
L 10.984375 10.5 
Q 14.703125 8.734375 18.5 7.8125 
Q 22.3125 6.890625 25.984375 6.890625 
Q 35.75 6.890625 40.890625 13.453125 
Q 46.046875 20.015625 46.78125 33.40625 
Q 43.953125 29.203125 39.59375 26.953125 
Q 35.25 24.703125 29.984375 24.703125 
Q 19.046875 24.703125 12.671875 31.3125 
Q 6.296875 37.9375 6.296875 49.421875 
Q 6.296875 60.640625 12.9375 67.421875 
Q 19.578125 74.21875 30.609375 74.21875 
Q 43.265625 74.21875 49.921875 64.515625 
Q 56.59375 54.828125 56.59375 36.375 
Q 56.59375 19.140625 48.40625 8.859375 
Q 40.234375 -1.421875 26.421875 -1.421875 
Q 22.703125 -1.421875 18.890625 -0.6875 
Q 15.09375 0.046875 10.984375 1.515625 
z
M 30.609375 32.421875 
Q 37.25 32.421875 41.125 36.953125 
Q 45.015625 41.5 45.015625 49.421875 
Q 45.015625 57.28125 41.125 61.84375 
Q 37.25 66.40625 30.609375 66.40625 
Q 23.96875 66.40625 20.09375 61.84375 
Q 16.21875 57.28125 16.21875 49.421875 
Q 16.21875 41.5 20.09375 36.953125 
Q 23.96875 32.421875 30.609375 32.421875 
z
" id="DejaVuSans-57"/>
        <path d="M 10.796875 72.90625 
L 49.515625 72.90625 
L 49.515625 64.59375 
L 19.828125 64.59375 
L 19.828125 46.734375 
Q 21.96875 47.46875 24.109375 47.828125 
Q 26.265625 48.1875 28.421875 48.1875 
Q 40.625 48.1875 47.75 41.5 
Q 54.890625 34.8125 54.890625 23.390625 
Q 54.890625 11.625 47.5625 5.09375 
Q 40.234375 -1.421875 26.90625 -1.421875 
Q 22.3125 -1.421875 17.546875 -0.640625 
Q 12.796875 0.140625 7.71875 1.703125 
L 7.71875 11.625 
Q 12.109375 9.234375 16.796875 8.0625 
Q 21.484375 6.890625 26.703125 6.890625 
Q 35.15625 6.890625 40.078125 11.328125 
Q 45.015625 15.765625 45.015625 23.390625 
Q 45.015625 31 40.078125 35.4375 
Q 35.15625 39.890625 26.703125 39.890625 
Q 22.75 39.890625 18.8125 39.015625 
Q 14.890625 38.140625 10.796875 36.28125 
z
" id="DejaVuSans-53"/>
        <path d="M 31.78125 34.625 
Q 24.75 34.625 20.71875 30.859375 
Q 16.703125 27.09375 16.703125 20.515625 
Q 16.703125 13.921875 20.71875 10.15625 
Q 24.75 6.390625 31.78125 6.390625 
Q 38.8125 6.390625 42.859375 10.171875 
Q 46.921875 13.96875 46.921875 20.515625 
Q 46.921875 27.09375 42.890625 30.859375 
Q 38.875 34.625 31.78125 34.625 
z
M 21.921875 38.8125 
Q 15.578125 40.375 12.03125 44.71875 
Q 8.5 49.078125 8.5 55.328125 
Q 8.5 64.0625 14.71875 69.140625 
Q 20.953125 74.21875 31.78125 74.21875 
Q 42.671875 74.21875 48.875 69.140625 
Q 55.078125 64.0625 55.078125 55.328125 
Q 55.078125 49.078125 51.53125 44.71875 
Q 48 40.375 41.703125 38.8125 
Q 48.828125 37.15625 52.796875 32.3125 
Q 56.78125 27.484375 56.78125 20.515625 
Q 56.78125 9.90625 50.3125 4.234375 
Q 43.84375 -1.421875 31.78125 -1.421875 
Q 19.734375 -1.421875 13.25 4.234375 
Q 6.78125 9.90625 6.78125 20.515625 
Q 6.78125 27.484375 10.78125 32.3125 
Q 14.796875 37.15625 21.921875 38.8125 
z
M 18.3125 54.390625 
Q 18.3125 48.734375 21.84375 45.5625 
Q 25.390625 42.390625 31.78125 42.390625 
Q 38.140625 42.390625 41.71875 45.5625 
Q 45.3125 48.734375 45.3125 54.390625 
Q 45.3125 60.0625 41.71875 63.234375 
Q 38.140625 66.40625 31.78125 66.40625 
Q 25.390625 66.40625 21.84375 63.234375 
Q 18.3125 60.0625 18.3125 54.390625 
z
" id="DejaVuSans-56"/>
        <path d="M 8.203125 72.90625 
L 55.078125 72.90625 
L 55.078125 68.703125 
L 28.609375 0 
L 18.3125 0 
L 43.21875 64.59375 
L 8.203125 64.59375 
z
" id="DejaVuSans-55"/>
        <path d="M 10.6875 12.40625 
L 21 12.40625 
L 21 0 
L 10.6875 0 
z
" id="DejaVuSans-46"/>
       </defs>
       <use xlink:href="#DejaVuSans-50"/>
       <use x="63.623047" xlink:href="#DejaVuSans-48"/>
       <use x="127.246094" xlink:href="#DejaVuSans-50"/>
       <use x="190.869141" xlink:href="#DejaVuSans-49"/>
       <use x="254.492188" xlink:href="#DejaVuSans-45"/>
       <use x="290.576172" xlink:href="#DejaVuSans-48"/>
       <use x="354.199219" xlink:href="#DejaVuSans-51"/>
       <use x="417.822266" xlink:href="#DejaVuSans-45"/>
       <use x="453.90625" xlink:href="#DejaVuSans-50"/>
       <use x="517.529297" xlink:href="#DejaVuSans-48"/>
       <use x="581.152344" xlink:href="#DejaVuSans-32"/>
       <use x="612.939453" xlink:href="#DejaVuSans-49"/>
       <use x="676.5625" xlink:href="#DejaVuSans-57"/>
       <use x="740.185547" xlink:href="#DejaVuSans-58"/>
       <use x="773.876953" xlink:href="#DejaVuSans-53"/>
       <use x="837.5" xlink:href="#DejaVuSans-56"/>
       <use x="901.123047" xlink:href="#DejaVuSans-58"/>
       <use x="934.814453" xlink:href="#DejaVuSans-48"/>
       <use x="998.4375" xlink:href="#DejaVuSans-55"/>
       <use x="1062.060547" xlink:href="#DejaVuSans-46"/>
       <use x="1093.847656" xlink:href="#DejaVuSans-53"/>
       <use x="1157.470703" xlink:href="#DejaVuSans-48"/>
       <use x="1221.09375" xlink:href="#DejaVuSans-48"/>
       <use x="1284.716797" xlink:href="#DejaVuSans-48"/>
       <use x="1348.339844" xlink:href="#DejaVuSans-48"/>
       <use x="1411.962891" xlink:href="#DejaVuSans-48"/>
      </g>
     </g>
    </g>
    <g id="xtick_3">
     <g id="line2d_5">
      <path clip-path="url(#pa54e70a969)" d="M 228.642627 239.758125 
L 228.642627 22.318125 
" style="fill:none;stroke:#b0b0b0;stroke-linecap:square;stroke-width:0.8;"/>
     </g>
     <g id="line2d_6">
      <g>
       <use style="stroke:#000000;stroke-width:0.8;" x="228.642627" xlink:href="#md2a97f59ca" y="239.758125"/>
      </g>
     </g>
     <g id="text_3">
      <!-- 2021-03-21 16:01:52.500000 -->
      <g transform="translate(122.831832 356.471266)rotate(-45)scale(0.1 -0.1)">
       <defs>
        <path d="M 33.015625 40.375 
Q 26.375 40.375 22.484375 35.828125 
Q 18.609375 31.296875 18.609375 23.390625 
Q 18.609375 15.53125 22.484375 10.953125 
Q 26.375 6.390625 33.015625 6.390625 
Q 39.65625 6.390625 43.53125 10.953125 
Q 47.40625 15.53125 47.40625 23.390625 
Q 47.40625 31.296875 43.53125 35.828125 
Q 39.65625 40.375 33.015625 40.375 
z
M 52.59375 71.296875 
L 52.59375 62.3125 
Q 48.875 64.0625 45.09375 64.984375 
Q 41.3125 65.921875 37.59375 65.921875 
Q 27.828125 65.921875 22.671875 59.328125 
Q 17.53125 52.734375 16.796875 39.40625 
Q 19.671875 43.65625 24.015625 45.921875 
Q 28.375 48.1875 33.59375 48.1875 
Q 44.578125 48.1875 50.953125 41.515625 
Q 57.328125 34.859375 57.328125 23.390625 
Q 57.328125 12.15625 50.6875 5.359375 
Q 44.046875 -1.421875 33.015625 -1.421875 
Q 20.359375 -1.421875 13.671875 8.265625 
Q 6.984375 17.96875 6.984375 36.375 
Q 6.984375 53.65625 15.1875 63.9375 
Q 23.390625 74.21875 37.203125 74.21875 
Q 40.921875 74.21875 44.703125 73.484375 
Q 48.484375 72.75 52.59375 71.296875 
z
" id="DejaVuSans-54"/>
       </defs>
       <use xlink:href="#DejaVuSans-50"/>
       <use x="63.623047" xlink:href="#DejaVuSans-48"/>
       <use x="127.246094" xlink:href="#DejaVuSans-50"/>
       <use x="190.869141" xlink:href="#DejaVuSans-49"/>
       <use x="254.492188" xlink:href="#DejaVuSans-45"/>
       <use x="290.576172" xlink:href="#DejaVuSans-48"/>
       <use x="354.199219" xlink:href="#DejaVuSans-51"/>
       <use x="417.822266" xlink:href="#DejaVuSans-45"/>
       <use x="453.90625" xlink:href="#DejaVuSans-50"/>
       <use x="517.529297" xlink:href="#DejaVuSans-49"/>
       <use x="581.152344" xlink:href="#DejaVuSans-32"/>
       <use x="612.939453" xlink:href="#DejaVuSans-49"/>
       <use x="676.5625" xlink:href="#DejaVuSans-54"/>
       <use x="740.185547" xlink:href="#DejaVuSans-58"/>
       <use x="773.876953" xlink:href="#DejaVuSans-48"/>
       <use x="837.5" xlink:href="#DejaVuSans-49"/>
       <use x="901.123047" xlink:href="#DejaVuSans-58"/>
       <use x="934.814453" xlink:href="#DejaVuSans-53"/>
       <use x="998.4375" xlink:href="#DejaVuSans-50"/>
       <use x="1062.060547" xlink:href="#DejaVuSans-46"/>
       <use x="1093.847656" xlink:href="#DejaVuSans-53"/>
       <use x="1157.470703" xlink:href="#DejaVuSans-48"/>
       <use x="1221.09375" xlink:href="#DejaVuSans-48"/>
       <use x="1284.716797" xlink:href="#DejaVuSans-48"/>
       <use x="1348.339844" xlink:href="#DejaVuSans-48"/>
       <use x="1411.962891" xlink:href="#DejaVuSans-48"/>
      </g>
     </g>
    </g>
    <g id="xtick_4">
     <g id="line2d_7">
      <path clip-path="url(#pa54e70a969)" d="M 298.392627 239.758125 
L 298.392627 22.318125 
" style="fill:none;stroke:#b0b0b0;stroke-linecap:square;stroke-width:0.8;"/>
     </g>
     <g id="line2d_8">
      <g>
       <use style="stroke:#000000;stroke-width:0.8;" x="298.392627" xlink:href="#md2a97f59ca" y="239.758125"/>
      </g>
     </g>
     <g id="text_4">
      <!-- 2021-03-22 12:00:00 -->
      <g transform="translate(221.822907 327.230191)rotate(-45)scale(0.1 -0.1)">
       <use xlink:href="#DejaVuSans-50"/>
       <use x="63.623047" xlink:href="#DejaVuSans-48"/>
       <use x="127.246094" xlink:href="#DejaVuSans-50"/>
       <use x="190.869141" xlink:href="#DejaVuSans-49"/>
       <use x="254.492188" xlink:href="#DejaVuSans-45"/>
       <use x="290.576172" xlink:href="#DejaVuSans-48"/>
       <use x="354.199219" xlink:href="#DejaVuSans-51"/>
       <use x="417.822266" xlink:href="#DejaVuSans-45"/>
       <use x="453.90625" xlink:href="#DejaVuSans-50"/>
       <use x="517.529297" xlink:href="#DejaVuSans-50"/>
       <use x="581.152344" xlink:href="#DejaVuSans-32"/>
       <use x="612.939453" xlink:href="#DejaVuSans-49"/>
       <use x="676.5625" xlink:href="#DejaVuSans-50"/>
       <use x="740.185547" xlink:href="#DejaVuSans-58"/>
       <use x="773.876953" xlink:href="#DejaVuSans-48"/>
       <use x="837.5" xlink:href="#DejaVuSans-48"/>
       <use x="901.123047" xlink:href="#DejaVuSans-58"/>
       <use x="934.814453" xlink:href="#DejaVuSans-48"/>
       <use x="998.4375" xlink:href="#DejaVuSans-48"/>
      </g>
     </g>
    </g>
    <g id="xtick_5">
     <g id="line2d_9">
      <path clip-path="url(#pa54e70a969)" d="M 368.142627 239.758125 
L 368.142627 22.318125 
" style="fill:none;stroke:#b0b0b0;stroke-linecap:square;stroke-width:0.8;"/>
     </g>
     <g id="line2d_10">
      <g>
       <use style="stroke:#000000;stroke-width:0.8;" x="368.142627" xlink:href="#md2a97f59ca" y="239.758125"/>
      </g>
     </g>
     <g id="text_5">
      <!-- 2021-03-23 07:58:07.500000 -->
      <g transform="translate(262.331832 356.471266)rotate(-45)scale(0.1 -0.1)">
       <use xlink:href="#DejaVuSans-50"/>
       <use x="63.623047" xlink:href="#DejaVuSans-48"/>
       <use x="127.246094" xlink:href="#DejaVuSans-50"/>
       <use x="190.869141" xlink:href="#DejaVuSans-49"/>
       <use x="254.492188" xlink:href="#DejaVuSans-45"/>
       <use x="290.576172" xlink:href="#DejaVuSans-48"/>
       <use x="354.199219" xlink:href="#DejaVuSans-51"/>
       <use x="417.822266" xlink:href="#DejaVuSans-45"/>
       <use x="453.90625" xlink:href="#DejaVuSans-50"/>
       <use x="517.529297" xlink:href="#DejaVuSans-51"/>
       <use x="581.152344" xlink:href="#DejaVuSans-32"/>
       <use x="612.939453" xlink:href="#DejaVuSans-48"/>
       <use x="676.5625" xlink:href="#DejaVuSans-55"/>
       <use x="740.185547" xlink:href="#DejaVuSans-58"/>
       <use x="773.876953" xlink:href="#DejaVuSans-53"/>
       <use x="837.5" xlink:href="#DejaVuSans-56"/>
       <use x="901.123047" xlink:href="#DejaVuSans-58"/>
       <use x="934.814453" xlink:href="#DejaVuSans-48"/>
       <use x="998.4375" xlink:href="#DejaVuSans-55"/>
       <use x="1062.060547" xlink:href="#DejaVuSans-46"/>
       <use x="1093.847656" xlink:href="#DejaVuSans-53"/>
       <use x="1157.470703" xlink:href="#DejaVuSans-48"/>
       <use x="1221.09375" xlink:href="#DejaVuSans-48"/>
       <use x="1284.716797" xlink:href="#DejaVuSans-48"/>
       <use x="1348.339844" xlink:href="#DejaVuSans-48"/>
       <use x="1411.962891" xlink:href="#DejaVuSans-48"/>
      </g>
     </g>
    </g>
    <g id="xtick_6">
     <g id="line2d_11">
      <path clip-path="url(#pa54e70a969)" d="M 437.892627 239.758125 
L 437.892627 22.318125 
" style="fill:none;stroke:#b0b0b0;stroke-linecap:square;stroke-width:0.8;"/>
     </g>
     <g id="line2d_12">
      <g>
       <use style="stroke:#000000;stroke-width:0.8;" x="437.892627" xlink:href="#md2a97f59ca" y="239.758125"/>
      </g>
     </g>
     <g id="text_6">
      <!-- 2021-03-24 04:01:52.500000 -->
      <g transform="translate(332.081832 356.471266)rotate(-45)scale(0.1 -0.1)">
       <defs>
        <path d="M 37.796875 64.3125 
L 12.890625 25.390625 
L 37.796875 25.390625 
z
M 35.203125 72.90625 
L 47.609375 72.90625 
L 47.609375 25.390625 
L 58.015625 25.390625 
L 58.015625 17.1875 
L 47.609375 17.1875 
L 47.609375 0 
L 37.796875 0 
L 37.796875 17.1875 
L 4.890625 17.1875 
L 4.890625 26.703125 
z
" id="DejaVuSans-52"/>
       </defs>
       <use xlink:href="#DejaVuSans-50"/>
       <use x="63.623047" xlink:href="#DejaVuSans-48"/>
       <use x="127.246094" xlink:href="#DejaVuSans-50"/>
       <use x="190.869141" xlink:href="#DejaVuSans-49"/>
       <use x="254.492188" xlink:href="#DejaVuSans-45"/>
       <use x="290.576172" xlink:href="#DejaVuSans-48"/>
       <use x="354.199219" xlink:href="#DejaVuSans-51"/>
       <use x="417.822266" xlink:href="#DejaVuSans-45"/>
       <use x="453.90625" xlink:href="#DejaVuSans-50"/>
       <use x="517.529297" xlink:href="#DejaVuSans-52"/>
       <use x="581.152344" xlink:href="#DejaVuSans-32"/>
       <use x="612.939453" xlink:href="#DejaVuSans-48"/>
       <use x="676.5625" xlink:href="#DejaVuSans-52"/>
       <use x="740.185547" xlink:href="#DejaVuSans-58"/>
       <use x="773.876953" xlink:href="#DejaVuSans-48"/>
       <use x="837.5" xlink:href="#DejaVuSans-49"/>
       <use x="901.123047" xlink:href="#DejaVuSans-58"/>
       <use x="934.814453" xlink:href="#DejaVuSans-53"/>
       <use x="998.4375" xlink:href="#DejaVuSans-50"/>
       <use x="1062.060547" xlink:href="#DejaVuSans-46"/>
       <use x="1093.847656" xlink:href="#DejaVuSans-53"/>
       <use x="1157.470703" xlink:href="#DejaVuSans-48"/>
       <use x="1221.09375" xlink:href="#DejaVuSans-48"/>
       <use x="1284.716797" xlink:href="#DejaVuSans-48"/>
       <use x="1348.339844" xlink:href="#DejaVuSans-48"/>
       <use x="1411.962891" xlink:href="#DejaVuSans-48"/>
      </g>
     </g>
    </g>
    <g id="xtick_7">
     <g id="line2d_13">
      <path clip-path="url(#pa54e70a969)" d="M 507.642627 239.758125 
L 507.642627 22.318125 
" style="fill:none;stroke:#b0b0b0;stroke-linecap:square;stroke-width:0.8;"/>
     </g>
     <g id="line2d_14">
      <g>
       <use style="stroke:#000000;stroke-width:0.8;" x="507.642627" xlink:href="#md2a97f59ca" y="239.758125"/>
      </g>
     </g>
     <g id="text_7">
      <!-- 2021-03-25 00:00:00 -->
      <g transform="translate(431.072907 327.230191)rotate(-45)scale(0.1 -0.1)">
       <use xlink:href="#DejaVuSans-50"/>
       <use x="63.623047" xlink:href="#DejaVuSans-48"/>
       <use x="127.246094" xlink:href="#DejaVuSans-50"/>
       <use x="190.869141" xlink:href="#DejaVuSans-49"/>
       <use x="254.492188" xlink:href="#DejaVuSans-45"/>
       <use x="290.576172" xlink:href="#DejaVuSans-48"/>
       <use x="354.199219" xlink:href="#DejaVuSans-51"/>
       <use x="417.822266" xlink:href="#DejaVuSans-45"/>
       <use x="453.90625" xlink:href="#DejaVuSans-50"/>
       <use x="517.529297" xlink:href="#DejaVuSans-53"/>
       <use x="581.152344" xlink:href="#DejaVuSans-32"/>
       <use x="612.939453" xlink:href="#DejaVuSans-48"/>
       <use x="676.5625" xlink:href="#DejaVuSans-48"/>
       <use x="740.185547" xlink:href="#DejaVuSans-58"/>
       <use x="773.876953" xlink:href="#DejaVuSans-48"/>
       <use x="837.5" xlink:href="#DejaVuSans-48"/>
       <use x="901.123047" xlink:href="#DejaVuSans-58"/>
       <use x="934.814453" xlink:href="#DejaVuSans-48"/>
       <use x="998.4375" xlink:href="#DejaVuSans-48"/>
      </g>
     </g>
    </g>
    <g id="xtick_8">
     <g id="line2d_15">
      <path clip-path="url(#pa54e70a969)" d="M 577.392627 239.758125 
L 577.392627 22.318125 
" style="fill:none;stroke:#b0b0b0;stroke-linecap:square;stroke-width:0.8;"/>
     </g>
     <g id="line2d_16">
      <g>
       <use style="stroke:#000000;stroke-width:0.8;" x="577.392627" xlink:href="#md2a97f59ca" y="239.758125"/>
      </g>
     </g>
     <g id="text_8">
      <!-- 2021-03-25 19:58:07.500000 -->
      <g transform="translate(471.581832 356.471266)rotate(-45)scale(0.1 -0.1)">
       <use xlink:href="#DejaVuSans-50"/>
       <use x="63.623047" xlink:href="#DejaVuSans-48"/>
       <use x="127.246094" xlink:href="#DejaVuSans-50"/>
       <use x="190.869141" xlink:href="#DejaVuSans-49"/>
       <use x="254.492188" xlink:href="#DejaVuSans-45"/>
       <use x="290.576172" xlink:href="#DejaVuSans-48"/>
       <use x="354.199219" xlink:href="#DejaVuSans-51"/>
       <use x="417.822266" xlink:href="#DejaVuSans-45"/>
       <use x="453.90625" xlink:href="#DejaVuSans-50"/>
       <use x="517.529297" xlink:href="#DejaVuSans-53"/>
       <use x="581.152344" xlink:href="#DejaVuSans-32"/>
       <use x="612.939453" xlink:href="#DejaVuSans-49"/>
       <use x="676.5625" xlink:href="#DejaVuSans-57"/>
       <use x="740.185547" xlink:href="#DejaVuSans-58"/>
       <use x="773.876953" xlink:href="#DejaVuSans-53"/>
       <use x="837.5" xlink:href="#DejaVuSans-56"/>
       <use x="901.123047" xlink:href="#DejaVuSans-58"/>
       <use x="934.814453" xlink:href="#DejaVuSans-48"/>
       <use x="998.4375" xlink:href="#DejaVuSans-55"/>
       <use x="1062.060547" xlink:href="#DejaVuSans-46"/>
       <use x="1093.847656" xlink:href="#DejaVuSans-53"/>
       <use x="1157.470703" xlink:href="#DejaVuSans-48"/>
       <use x="1221.09375" xlink:href="#DejaVuSans-48"/>
       <use x="1284.716797" xlink:href="#DejaVuSans-48"/>
       <use x="1348.339844" xlink:href="#DejaVuSans-48"/>
       <use x="1411.962891" xlink:href="#DejaVuSans-48"/>
      </g>
     </g>
    </g>
   </g>
   <g id="matplotlib.axis_2">
    <g id="ytick_1">
     <g id="line2d_17">
      <path clip-path="url(#pa54e70a969)" d="M 64.032627 211.924368 
L 616.452627 211.924368 
" style="fill:none;stroke:#b0b0b0;stroke-linecap:square;stroke-width:0.8;"/>
     </g>
     <g id="line2d_18">
      <defs>
       <path d="M 0 0 
L -3.5 0 
" id="ma416e04890" style="stroke:#000000;stroke-width:0.8;"/>
      </defs>
      <g>
       <use style="stroke:#000000;stroke-width:0.8;" x="64.032627" xlink:href="#ma416e04890" y="211.924368"/>
      </g>
     </g>
     <g id="text_9">
      <!-- −1.0 -->
      <g transform="translate(32.749815 215.723586)scale(0.1 -0.1)">
       <defs>
        <path d="M 10.59375 35.5 
L 73.1875 35.5 
L 73.1875 27.203125 
L 10.59375 27.203125 
z
" id="DejaVuSans-8722"/>
       </defs>
       <use xlink:href="#DejaVuSans-8722"/>
       <use x="83.789062" xlink:href="#DejaVuSans-49"/>
       <use x="147.412109" xlink:href="#DejaVuSans-46"/>
       <use x="179.199219" xlink:href="#DejaVuSans-48"/>
      </g>
     </g>
    </g>
    <g id="ytick_2">
     <g id="line2d_19">
      <path clip-path="url(#pa54e70a969)" d="M 64.032627 177.142553 
L 616.452627 177.142553 
" style="fill:none;stroke:#b0b0b0;stroke-linecap:square;stroke-width:0.8;"/>
     </g>
     <g id="line2d_20">
      <g>
       <use style="stroke:#000000;stroke-width:0.8;" x="64.032627" xlink:href="#ma416e04890" y="177.142553"/>
      </g>
     </g>
     <g id="text_10">
      <!-- −0.5 -->
      <g transform="translate(32.749815 180.941772)scale(0.1 -0.1)">
       <use xlink:href="#DejaVuSans-8722"/>
       <use x="83.789062" xlink:href="#DejaVuSans-48"/>
       <use x="147.412109" xlink:href="#DejaVuSans-46"/>
       <use x="179.199219" xlink:href="#DejaVuSans-53"/>
      </g>
     </g>
    </g>
    <g id="ytick_3">
     <g id="line2d_21">
      <path clip-path="url(#pa54e70a969)" d="M 64.032627 142.360738 
L 616.452627 142.360738 
" style="fill:none;stroke:#b0b0b0;stroke-linecap:square;stroke-width:0.8;"/>
     </g>
     <g id="line2d_22">
      <g>
       <use style="stroke:#000000;stroke-width:0.8;" x="64.032627" xlink:href="#ma416e04890" y="142.360738"/>
      </g>
     </g>
     <g id="text_11">
      <!-- 0.0 -->
      <g transform="translate(41.129502 146.159957)scale(0.1 -0.1)">
       <use xlink:href="#DejaVuSans-48"/>
       <use x="63.623047" xlink:href="#DejaVuSans-46"/>
       <use x="95.410156" xlink:href="#DejaVuSans-48"/>
      </g>
     </g>
    </g>
    <g id="ytick_4">
     <g id="line2d_23">
      <path clip-path="url(#pa54e70a969)" d="M 64.032627 107.578923 
L 616.452627 107.578923 
" style="fill:none;stroke:#b0b0b0;stroke-linecap:square;stroke-width:0.8;"/>
     </g>
     <g id="line2d_24">
      <g>
       <use style="stroke:#000000;stroke-width:0.8;" x="64.032627" xlink:href="#ma416e04890" y="107.578923"/>
      </g>
     </g>
     <g id="text_12">
      <!-- 0.5 -->
      <g transform="translate(41.129502 111.378142)scale(0.1 -0.1)">
       <use xlink:href="#DejaVuSans-48"/>
       <use x="63.623047" xlink:href="#DejaVuSans-46"/>
       <use x="95.410156" xlink:href="#DejaVuSans-53"/>
      </g>
     </g>
    </g>
    <g id="ytick_5">
     <g id="line2d_25">
      <path clip-path="url(#pa54e70a969)" d="M 64.032627 72.797108 
L 616.452627 72.797108 
" style="fill:none;stroke:#b0b0b0;stroke-linecap:square;stroke-width:0.8;"/>
     </g>
     <g id="line2d_26">
      <g>
       <use style="stroke:#000000;stroke-width:0.8;" x="64.032627" xlink:href="#ma416e04890" y="72.797108"/>
      </g>
     </g>
     <g id="text_13">
      <!-- 1.0 -->
      <g transform="translate(41.129502 76.596327)scale(0.1 -0.1)">
       <use xlink:href="#DejaVuSans-49"/>
       <use x="63.623047" xlink:href="#DejaVuSans-46"/>
       <use x="95.410156" xlink:href="#DejaVuSans-48"/>
      </g>
     </g>
    </g>
    <g id="ytick_6">
     <g id="line2d_27">
      <path clip-path="url(#pa54e70a969)" d="M 64.032627 38.015294 
L 616.452627 38.015294 
" style="fill:none;stroke:#b0b0b0;stroke-linecap:square;stroke-width:0.8;"/>
     </g>
     <g id="line2d_28">
      <g>
       <use style="stroke:#000000;stroke-width:0.8;" x="64.032627" xlink:href="#ma416e04890" y="38.015294"/>
      </g>
     </g>
     <g id="text_14">
      <!-- 1.5 -->
      <g transform="translate(41.129502 41.814512)scale(0.1 -0.1)">
       <use xlink:href="#DejaVuSans-49"/>
       <use x="63.623047" xlink:href="#DejaVuSans-46"/>
       <use x="95.410156" xlink:href="#DejaVuSans-53"/>
      </g>
     </g>
    </g>
    <g id="text_15">
     <!-- meters -->
     <g transform="translate(26.670127 148.681875)rotate(-90)scale(0.1 -0.1)">
      <defs>
       <path d="M 52 44.1875 
Q 55.375 50.25 60.0625 53.125 
Q 64.75 56 71.09375 56 
Q 79.640625 56 84.28125 50.015625 
Q 88.921875 44.046875 88.921875 33.015625 
L 88.921875 0 
L 79.890625 0 
L 79.890625 32.71875 
Q 79.890625 40.578125 77.09375 44.375 
Q 74.3125 48.1875 68.609375 48.1875 
Q 61.625 48.1875 57.5625 43.546875 
Q 53.515625 38.921875 53.515625 30.90625 
L 53.515625 0 
L 44.484375 0 
L 44.484375 32.71875 
Q 44.484375 40.625 41.703125 44.40625 
Q 38.921875 48.1875 33.109375 48.1875 
Q 26.21875 48.1875 22.15625 43.53125 
Q 18.109375 38.875 18.109375 30.90625 
L 18.109375 0 
L 9.078125 0 
L 9.078125 54.6875 
L 18.109375 54.6875 
L 18.109375 46.1875 
Q 21.1875 51.21875 25.484375 53.609375 
Q 29.78125 56 35.6875 56 
Q 41.65625 56 45.828125 52.96875 
Q 50 49.953125 52 44.1875 
z
" id="DejaVuSans-109"/>
       <path d="M 56.203125 29.59375 
L 56.203125 25.203125 
L 14.890625 25.203125 
Q 15.484375 15.921875 20.484375 11.0625 
Q 25.484375 6.203125 34.421875 6.203125 
Q 39.59375 6.203125 44.453125 7.46875 
Q 49.3125 8.734375 54.109375 11.28125 
L 54.109375 2.78125 
Q 49.265625 0.734375 44.1875 -0.34375 
Q 39.109375 -1.421875 33.890625 -1.421875 
Q 20.796875 -1.421875 13.15625 6.1875 
Q 5.515625 13.8125 5.515625 26.8125 
Q 5.515625 40.234375 12.765625 48.109375 
Q 20.015625 56 32.328125 56 
Q 43.359375 56 49.78125 48.890625 
Q 56.203125 41.796875 56.203125 29.59375 
z
M 47.21875 32.234375 
Q 47.125 39.59375 43.09375 43.984375 
Q 39.0625 48.390625 32.421875 48.390625 
Q 24.90625 48.390625 20.390625 44.140625 
Q 15.875 39.890625 15.1875 32.171875 
z
" id="DejaVuSans-101"/>
       <path d="M 18.3125 70.21875 
L 18.3125 54.6875 
L 36.8125 54.6875 
L 36.8125 47.703125 
L 18.3125 47.703125 
L 18.3125 18.015625 
Q 18.3125 11.328125 20.140625 9.421875 
Q 21.96875 7.515625 27.59375 7.515625 
L 36.8125 7.515625 
L 36.8125 0 
L 27.59375 0 
Q 17.1875 0 13.234375 3.875 
Q 9.28125 7.765625 9.28125 18.015625 
L 9.28125 47.703125 
L 2.6875 47.703125 
L 2.6875 54.6875 
L 9.28125 54.6875 
L 9.28125 70.21875 
z
" id="DejaVuSans-116"/>
       <path d="M 41.109375 46.296875 
Q 39.59375 47.171875 37.8125 47.578125 
Q 36.03125 48 33.890625 48 
Q 26.265625 48 22.1875 43.046875 
Q 18.109375 38.09375 18.109375 28.8125 
L 18.109375 0 
L 9.078125 0 
L 9.078125 54.6875 
L 18.109375 54.6875 
L 18.109375 46.1875 
Q 20.953125 51.171875 25.484375 53.578125 
Q 30.03125 56 36.53125 56 
Q 37.453125 56 38.578125 55.875 
Q 39.703125 55.765625 41.0625 55.515625 
z
" id="DejaVuSans-114"/>
       <path d="M 44.28125 53.078125 
L 44.28125 44.578125 
Q 40.484375 46.53125 36.375 47.5 
Q 32.28125 48.484375 27.875 48.484375 
Q 21.1875 48.484375 17.84375 46.4375 
Q 14.5 44.390625 14.5 40.28125 
Q 14.5 37.15625 16.890625 35.375 
Q 19.28125 33.59375 26.515625 31.984375 
L 29.59375 31.296875 
Q 39.15625 29.25 43.1875 25.515625 
Q 47.21875 21.78125 47.21875 15.09375 
Q 47.21875 7.46875 41.1875 3.015625 
Q 35.15625 -1.421875 24.609375 -1.421875 
Q 20.21875 -1.421875 15.453125 -0.5625 
Q 10.6875 0.296875 5.421875 2 
L 5.421875 11.28125 
Q 10.40625 8.6875 15.234375 7.390625 
Q 20.0625 6.109375 24.8125 6.109375 
Q 31.15625 6.109375 34.5625 8.28125 
Q 37.984375 10.453125 37.984375 14.40625 
Q 37.984375 18.0625 35.515625 20.015625 
Q 33.0625 21.96875 24.703125 23.78125 
L 21.578125 24.515625 
Q 13.234375 26.265625 9.515625 29.90625 
Q 5.8125 33.546875 5.8125 39.890625 
Q 5.8125 47.609375 11.28125 51.796875 
Q 16.75 56 26.8125 56 
Q 31.78125 56 36.171875 55.265625 
Q 40.578125 54.546875 44.28125 53.078125 
z
" id="DejaVuSans-115"/>
      </defs>
      <use xlink:href="#DejaVuSans-109"/>
      <use x="97.412109" xlink:href="#DejaVuSans-101"/>
      <use x="158.935547" xlink:href="#DejaVuSans-116"/>
      <use x="198.144531" xlink:href="#DejaVuSans-101"/>
      <use x="259.667969" xlink:href="#DejaVuSans-114"/>
      <use x="300.78125" xlink:href="#DejaVuSans-115"/>
     </g>
    </g>
   </g>
   <g id="line2d_29">
    <path clip-path="url(#pa54e70a969)" d="M 89.142627 137.408767 
L 92.630127 161.187629 
L 96.117627 196.82289 
L 99.605127 175.116054 
L 103.092627 173.568278 
L 106.580127 128.160986 
L 110.067627 104.454874 
L 113.555127 74.904448 
L 117.042627 52.413838 
L 120.530127 54.234237 
L 124.017627 70.155997 
L 127.505127 103.683344 
L 130.992627 133.450718 
L 134.480127 168.397799 
L 137.967627 198.800226 
L 141.455127 217.972175 
L 144.942627 203.832091 
L 148.430127 182.247185 
L 151.917627 156.258321 
L 155.405127 124.266891 
L 158.892627 98.766042 
L 162.380127 79.823363 
L 165.867627 88.616969 
L 172.842627 130.235866 
L 176.330127 158.696613 
L 179.817627 198.094527 
L 183.305127 189.779697 
L 186.792627 200.114409 
L 190.280127 158.888734 
L 193.767627 141.954683 
L 197.255127 110.446046 
L 200.742627 73.613522 
L 204.230127 63.027253 
L 207.717627 61.281754 
L 211.205127 87.605803 
L 214.692627 106.734746 
L 218.180127 140.151848 
L 221.667627 177.644846 
L 225.155127 202.320771 
L 228.642627 211.010578 
L 232.130127 196.196908 
L 235.617627 176.137745 
L 239.105127 153.748435 
L 242.592627 115.241128 
L 246.080127 90.315453 
L 249.567627 79.196764 
L 253.055127 85.730528 
L 256.542627 106.106351 
L 260.030127 125.624618 
L 263.517627 192.942581 
L 267.005127 170.198866 
L 270.492627 208.047347 
L 273.980127 174.242454 
L 277.467627 165.562601 
L 280.955127 137.662284 
L 284.442627 81.90063 
L 287.930127 70.523534 
L 291.417627 52.867503 
L 294.905127 65.16744 
L 298.392627 75.223648 
L 301.880127 108.605439 
L 305.367627 152.548638 
L 308.855127 185.375663 
L 312.342627 204.771534 
L 315.830127 215.36299 
L 319.317627 200.435537 
L 322.805127 181.474905 
L 326.292627 144.542223 
L 329.780127 110.079019 
L 333.267627 91.310672 
L 336.755127 74.106585 
L 340.242627 82.004259 
L 343.730127 102.767199 
L 347.217627 167.462899 
L 350.705127 149.530296 
L 354.192627 201.344144 
L 357.680127 183.013897 
L 361.167627 202.815116 
L 364.655127 166.459043 
L 368.142627 112.546696 
L 371.630127 90.075481 
L 375.117627 64.970581 
L 378.605127 56.722316 
L 382.092627 44.866292 
L 385.580127 77.251632 
L 389.067627 117.67102 
L 392.555127 152.490734 
L 396.042627 177.800548 
L 399.530127 210.517668 
L 403.017627 218.723703 
L 406.505127 205.396649 
L 409.992627 170.501393 
L 413.480127 137.966658 
L 416.967627 112.873847 
L 420.455127 81.264216 
L 423.942627 62.496235 
L 427.430127 73.461344 
L 430.917627 106.236661 
L 437.892627 161.243081 
L 441.380127 180.901233 
L 444.867627 202.92484 
L 448.355127 189.531362 
L 451.842627 152.856219 
L 458.817627 87.199161 
L 465.792627 38.447273 
L 469.280127 46.607031 
L 472.767627 79.981073 
L 476.255127 115.129283 
L 479.742627 153.142916 
L 486.717627 216.173163 
L 490.205127 225.513319 
L 493.692627 197.419213 
L 497.180127 167.448693 
L 500.667627 135.706167 
L 504.155127 99.958887 
L 507.642627 67.966104 
L 511.130127 50.446337 
L 514.617627 72.749617 
L 518.105127 102.045135 
L 521.592627 133.099514 
L 525.080127 167.295953 
L 528.567627 190.376186 
L 532.055127 209.366365 
L 535.542627 191.700623 
L 539.030127 154.665724 
L 542.517627 121.613817 
L 546.005127 81.109783 
L 549.492627 50.671938 
L 552.980127 32.201761 
L 556.467627 44.250282 
L 559.955127 79.22182 
L 563.442627 118.434705 
L 566.930127 159.760782 
L 570.417627 197.61455 
L 573.905127 223.836151 
L 577.392627 229.874489 
L 580.880127 196.865796 
L 584.367627 164.976082 
L 587.855127 125.062859 
L 591.342627 83.168544 
L 591.342627 83.168544 
" style="fill:none;stroke:#1f77b4;stroke-linecap:square;stroke-width:2;"/>
   </g>
   <g id="line2d_30">
    <path clip-path="url(#pa54e70a969)" d="M 89.142627 108.552379 
L 106.580127 108.552379 
L 110.067627 104.47857 
L 113.555127 76.693368 
L 117.042627 60.654209 
L 120.530127 56.870099 
L 124.017627 78.449494 
L 127.505127 103.25352 
L 130.992627 108.552814 
L 155.405127 108.552814 
L 158.892627 100.603879 
L 162.380127 87.496211 
L 165.867627 92.466541 
L 169.355127 108.552289 
L 197.255127 108.529139 
L 200.742627 81.160463 
L 204.230127 63.869735 
L 207.717627 71.376009 
L 211.205127 86.18826 
L 214.692627 108.552814 
L 242.592627 108.552814 
L 246.080127 94.149853 
L 249.567627 84.488101 
L 253.055127 90.746952 
L 256.542627 106.597055 
L 260.030127 108.552814 
L 280.955127 108.552814 
L 284.442627 95.932201 
L 287.930127 68.357234 
L 294.905127 64.943597 
L 298.392627 85.467432 
L 301.880127 108.552352 
L 329.780127 108.552352 
L 333.267627 92.027815 
L 336.755127 82.546879 
L 340.242627 85.827228 
L 343.730127 108.552814 
L 368.142627 108.552814 
L 371.630127 86.23756 
L 375.117627 71.031276 
L 378.605127 52.320745 
L 382.092627 55.875207 
L 385.580127 80.126957 
L 389.067627 108.552814 
L 416.967627 108.552814 
L 420.455127 84.908637 
L 423.942627 69.791237 
L 427.430127 80.415271 
L 430.917627 107.478761 
L 434.405127 108.552814 
L 455.330127 108.552814 
L 458.817627 90.352579 
L 462.305127 63.141385 
L 465.792627 46.970282 
L 469.280127 54.188436 
L 472.767627 82.663971 
L 476.255127 108.552781 
L 500.667627 108.552781 
L 504.155127 101.511068 
L 507.642627 71.887183 
L 511.130127 61.95767 
L 514.617627 76.338908 
L 518.105127 104.307617 
L 521.592627 108.552814 
L 542.517627 108.552814 
L 546.005127 84.153468 
L 549.492627 53.763315 
L 552.980127 39.543418 
L 556.467627 51.169745 
L 559.955127 83.561101 
L 563.442627 108.552814 
L 587.855127 108.552814 
L 591.342627 85.843614 
L 591.342627 85.843614 
" style="fill:none;stroke:#ff7f0e;stroke-linecap:square;stroke-width:2;"/>
   </g>
   <g id="line2d_31">
    <path clip-path="url(#pa54e70a969)" d="M 89.142627 136.94114 
L 92.630127 176.465567 
L 96.117627 186.38787 
L 99.605127 184.448075 
L 103.092627 165.799662 
L 106.580127 131.742218 
L 110.067627 102.521555 
L 113.555127 75.577283 
L 117.042627 58.830079 
L 120.530127 56.826936 
L 124.017627 76.443432 
L 127.505127 104.367714 
L 134.480127 169.214769 
L 137.967627 186.880776 
L 144.942627 186.880776 
L 148.430127 181.645746 
L 151.917627 154.374264 
L 155.405127 125.241392 
L 158.892627 100.336521 
L 162.380127 87.662313 
L 165.867627 92.413592 
L 169.355127 110.62899 
L 172.842627 133.752475 
L 176.330127 172.032341 
L 179.817627 186.88146 
L 186.792627 186.88139 
L 190.280127 163.720951 
L 193.767627 137.632086 
L 197.255127 107.908785 
L 200.742627 81.119427 
L 204.230127 64.70253 
L 207.717627 70.50476 
L 211.205127 86.299784 
L 214.692627 111.605004 
L 221.667627 175.033656 
L 225.155127 186.88146 
L 232.130127 186.88146 
L 235.617627 177.157633 
L 242.592627 118.726784 
L 246.080127 94.337752 
L 249.567627 84.130465 
L 253.055127 90.689451 
L 256.542627 106.517599 
L 260.030127 159.598838 
L 263.517627 186.410401 
L 267.005127 186.88146 
L 270.492627 186.88146 
L 273.980127 178.509145 
L 277.467627 163.849513 
L 280.955127 126.869385 
L 284.442627 95.154609 
L 287.930127 69.366555 
L 291.417627 63.991238 
L 294.905127 64.505348 
L 298.392627 82.700355 
L 301.880127 113.506819 
L 305.367627 152.505013 
L 308.855127 182.577149 
L 312.342627 186.88146 
L 319.317627 186.88146 
L 322.805127 177.425746 
L 326.292627 145.144007 
L 329.780127 114.977194 
L 333.267627 92.522275 
L 336.755127 82.334463 
L 340.242627 86.00899 
L 343.730127 150.438712 
L 347.217627 151.661044 
L 350.705127 178.711975 
L 354.192627 185.271218 
L 357.680127 186.88146 
L 361.167627 185.235887 
L 364.655127 151.352097 
L 368.142627 115.151281 
L 371.630127 85.227095 
L 375.117627 70.124982 
L 378.605127 52.486308 
L 382.092627 55.316947 
L 385.580127 81.584507 
L 389.067627 117.340067 
L 392.555127 151.613075 
L 396.042627 180.219774 
L 399.530127 186.88146 
L 406.505127 186.88146 
L 409.992627 169.98446 
L 416.967627 110.968476 
L 420.455127 85.319814 
L 423.942627 70.745437 
L 427.430127 81.313495 
L 430.917627 107.496482 
L 434.405127 136.072356 
L 437.892627 161.268405 
L 441.380127 183.776782 
L 444.867627 186.88146 
L 448.355127 183.085338 
L 451.842627 152.397079 
L 455.330127 119.309132 
L 458.817627 90.40821 
L 462.305127 63.012434 
L 465.792627 46.882413 
L 469.280127 54.299724 
L 472.767627 83.141498 
L 476.255127 119.720162 
L 483.230127 186.880851 
L 493.692627 186.880851 
L 497.180127 166.813119 
L 500.667627 134.814506 
L 504.155127 101.399881 
L 507.642627 71.734184 
L 511.130127 62.14 
L 514.617627 76.672064 
L 518.105127 104.651583 
L 521.592627 136.524699 
L 525.080127 166.738326 
L 528.567627 186.88146 
L 532.055127 186.88146 
L 535.542627 186.455596 
L 539.030127 154.362659 
L 542.517627 118.110181 
L 546.005127 83.724246 
L 549.492627 53.655875 
L 552.980127 39.4996 
L 556.467627 51.349587 
L 559.955127 83.726099 
L 566.930127 162.246081 
L 570.417627 186.88146 
L 580.880127 186.88146 
L 584.367627 162.054329 
L 587.855127 122.563933 
L 591.342627 85.68127 
L 591.342627 85.68127 
" style="fill:none;stroke:#2ca02c;stroke-linecap:square;stroke-width:2;"/>
   </g>
   <g id="patch_3">
    <path d="M 64.032627 239.758125 
L 64.032627 22.318125 
" style="fill:none;stroke:#000000;stroke-linecap:square;stroke-linejoin:miter;stroke-width:0.8;"/>
   </g>
   <g id="patch_4">
    <path d="M 616.452627 239.758125 
L 616.452627 22.318125 
" style="fill:none;stroke:#000000;stroke-linecap:square;stroke-linejoin:miter;stroke-width:0.8;"/>
   </g>
   <g id="patch_5">
    <path d="M 64.032627 239.758125 
L 616.452627 239.758125 
" style="fill:none;stroke:#000000;stroke-linecap:square;stroke-linejoin:miter;stroke-width:0.8;"/>
   </g>
   <g id="patch_6">
    <path d="M 64.032627 22.318125 
L 616.452627 22.318125 
" style="fill:none;stroke:#000000;stroke-linecap:square;stroke-linejoin:miter;stroke-width:0.8;"/>
   </g>
   <g id="text_16">
    <!-- NECOFS Forecast Water Level from Massbay Forecast -->
    <g transform="translate(180.010752 16.318125)scale(0.12 -0.12)">
     <defs>
      <path d="M 9.8125 72.90625 
L 23.09375 72.90625 
L 55.421875 11.921875 
L 55.421875 72.90625 
L 64.984375 72.90625 
L 64.984375 0 
L 51.703125 0 
L 19.390625 60.984375 
L 19.390625 0 
L 9.8125 0 
z
" id="DejaVuSans-78"/>
      <path d="M 9.8125 72.90625 
L 55.90625 72.90625 
L 55.90625 64.59375 
L 19.671875 64.59375 
L 19.671875 43.015625 
L 54.390625 43.015625 
L 54.390625 34.71875 
L 19.671875 34.71875 
L 19.671875 8.296875 
L 56.78125 8.296875 
L 56.78125 0 
L 9.8125 0 
z
" id="DejaVuSans-69"/>
      <path d="M 64.40625 67.28125 
L 64.40625 56.890625 
Q 59.421875 61.53125 53.78125 63.8125 
Q 48.140625 66.109375 41.796875 66.109375 
Q 29.296875 66.109375 22.65625 58.46875 
Q 16.015625 50.828125 16.015625 36.375 
Q 16.015625 21.96875 22.65625 14.328125 
Q 29.296875 6.6875 41.796875 6.6875 
Q 48.140625 6.6875 53.78125 8.984375 
Q 59.421875 11.28125 64.40625 15.921875 
L 64.40625 5.609375 
Q 59.234375 2.09375 53.4375 0.328125 
Q 47.65625 -1.421875 41.21875 -1.421875 
Q 24.65625 -1.421875 15.125 8.703125 
Q 5.609375 18.84375 5.609375 36.375 
Q 5.609375 53.953125 15.125 64.078125 
Q 24.65625 74.21875 41.21875 74.21875 
Q 47.75 74.21875 53.53125 72.484375 
Q 59.328125 70.75 64.40625 67.28125 
z
" id="DejaVuSans-67"/>
      <path d="M 39.40625 66.21875 
Q 28.65625 66.21875 22.328125 58.203125 
Q 16.015625 50.203125 16.015625 36.375 
Q 16.015625 22.609375 22.328125 14.59375 
Q 28.65625 6.59375 39.40625 6.59375 
Q 50.140625 6.59375 56.421875 14.59375 
Q 62.703125 22.609375 62.703125 36.375 
Q 62.703125 50.203125 56.421875 58.203125 
Q 50.140625 66.21875 39.40625 66.21875 
z
M 39.40625 74.21875 
Q 54.734375 74.21875 63.90625 63.9375 
Q 73.09375 53.65625 73.09375 36.375 
Q 73.09375 19.140625 63.90625 8.859375 
Q 54.734375 -1.421875 39.40625 -1.421875 
Q 24.03125 -1.421875 14.8125 8.828125 
Q 5.609375 19.09375 5.609375 36.375 
Q 5.609375 53.65625 14.8125 63.9375 
Q 24.03125 74.21875 39.40625 74.21875 
z
" id="DejaVuSans-79"/>
      <path d="M 9.8125 72.90625 
L 51.703125 72.90625 
L 51.703125 64.59375 
L 19.671875 64.59375 
L 19.671875 43.109375 
L 48.578125 43.109375 
L 48.578125 34.8125 
L 19.671875 34.8125 
L 19.671875 0 
L 9.8125 0 
z
" id="DejaVuSans-70"/>
      <path d="M 53.515625 70.515625 
L 53.515625 60.890625 
Q 47.90625 63.578125 42.921875 64.890625 
Q 37.9375 66.21875 33.296875 66.21875 
Q 25.25 66.21875 20.875 63.09375 
Q 16.5 59.96875 16.5 54.203125 
Q 16.5 49.359375 19.40625 46.890625 
Q 22.3125 44.4375 30.421875 42.921875 
L 36.375 41.703125 
Q 47.40625 39.59375 52.65625 34.296875 
Q 57.90625 29 57.90625 20.125 
Q 57.90625 9.515625 50.796875 4.046875 
Q 43.703125 -1.421875 29.984375 -1.421875 
Q 24.8125 -1.421875 18.96875 -0.25 
Q 13.140625 0.921875 6.890625 3.21875 
L 6.890625 13.375 
Q 12.890625 10.015625 18.65625 8.296875 
Q 24.421875 6.59375 29.984375 6.59375 
Q 38.421875 6.59375 43.015625 9.90625 
Q 47.609375 13.234375 47.609375 19.390625 
Q 47.609375 24.75 44.3125 27.78125 
Q 41.015625 30.8125 33.5 32.328125 
L 27.484375 33.5 
Q 16.453125 35.6875 11.515625 40.375 
Q 6.59375 45.0625 6.59375 53.421875 
Q 6.59375 63.09375 13.40625 68.65625 
Q 20.21875 74.21875 32.171875 74.21875 
Q 37.3125 74.21875 42.625 73.28125 
Q 47.953125 72.359375 53.515625 70.515625 
z
" id="DejaVuSans-83"/>
      <path d="M 30.609375 48.390625 
Q 23.390625 48.390625 19.1875 42.75 
Q 14.984375 37.109375 14.984375 27.296875 
Q 14.984375 17.484375 19.15625 11.84375 
Q 23.34375 6.203125 30.609375 6.203125 
Q 37.796875 6.203125 41.984375 11.859375 
Q 46.1875 17.53125 46.1875 27.296875 
Q 46.1875 37.015625 41.984375 42.703125 
Q 37.796875 48.390625 30.609375 48.390625 
z
M 30.609375 56 
Q 42.328125 56 49.015625 48.375 
Q 55.71875 40.765625 55.71875 27.296875 
Q 55.71875 13.875 49.015625 6.21875 
Q 42.328125 -1.421875 30.609375 -1.421875 
Q 18.84375 -1.421875 12.171875 6.21875 
Q 5.515625 13.875 5.515625 27.296875 
Q 5.515625 40.765625 12.171875 48.375 
Q 18.84375 56 30.609375 56 
z
" id="DejaVuSans-111"/>
      <path d="M 48.78125 52.59375 
L 48.78125 44.1875 
Q 44.96875 46.296875 41.140625 47.34375 
Q 37.3125 48.390625 33.40625 48.390625 
Q 24.65625 48.390625 19.8125 42.84375 
Q 14.984375 37.3125 14.984375 27.296875 
Q 14.984375 17.28125 19.8125 11.734375 
Q 24.65625 6.203125 33.40625 6.203125 
Q 37.3125 6.203125 41.140625 7.25 
Q 44.96875 8.296875 48.78125 10.40625 
L 48.78125 2.09375 
Q 45.015625 0.34375 40.984375 -0.53125 
Q 36.96875 -1.421875 32.421875 -1.421875 
Q 20.0625 -1.421875 12.78125 6.34375 
Q 5.515625 14.109375 5.515625 27.296875 
Q 5.515625 40.671875 12.859375 48.328125 
Q 20.21875 56 33.015625 56 
Q 37.15625 56 41.109375 55.140625 
Q 45.0625 54.296875 48.78125 52.59375 
z
" id="DejaVuSans-99"/>
      <path d="M 34.28125 27.484375 
Q 23.390625 27.484375 19.1875 25 
Q 14.984375 22.515625 14.984375 16.5 
Q 14.984375 11.71875 18.140625 8.90625 
Q 21.296875 6.109375 26.703125 6.109375 
Q 34.1875 6.109375 38.703125 11.40625 
Q 43.21875 16.703125 43.21875 25.484375 
L 43.21875 27.484375 
z
M 52.203125 31.203125 
L 52.203125 0 
L 43.21875 0 
L 43.21875 8.296875 
Q 40.140625 3.328125 35.546875 0.953125 
Q 30.953125 -1.421875 24.3125 -1.421875 
Q 15.921875 -1.421875 10.953125 3.296875 
Q 6 8.015625 6 15.921875 
Q 6 25.140625 12.171875 29.828125 
Q 18.359375 34.515625 30.609375 34.515625 
L 43.21875 34.515625 
L 43.21875 35.40625 
Q 43.21875 41.609375 39.140625 45 
Q 35.0625 48.390625 27.6875 48.390625 
Q 23 48.390625 18.546875 47.265625 
Q 14.109375 46.140625 10.015625 43.890625 
L 10.015625 52.203125 
Q 14.9375 54.109375 19.578125 55.046875 
Q 24.21875 56 28.609375 56 
Q 40.484375 56 46.34375 49.84375 
Q 52.203125 43.703125 52.203125 31.203125 
z
" id="DejaVuSans-97"/>
      <path d="M 3.328125 72.90625 
L 13.28125 72.90625 
L 28.609375 11.28125 
L 43.890625 72.90625 
L 54.984375 72.90625 
L 70.3125 11.28125 
L 85.59375 72.90625 
L 95.609375 72.90625 
L 77.296875 0 
L 64.890625 0 
L 49.515625 63.28125 
L 33.984375 0 
L 21.578125 0 
z
" id="DejaVuSans-87"/>
      <path d="M 9.8125 72.90625 
L 19.671875 72.90625 
L 19.671875 8.296875 
L 55.171875 8.296875 
L 55.171875 0 
L 9.8125 0 
z
" id="DejaVuSans-76"/>
      <path d="M 2.984375 54.6875 
L 12.5 54.6875 
L 29.59375 8.796875 
L 46.6875 54.6875 
L 56.203125 54.6875 
L 35.6875 0 
L 23.484375 0 
z
" id="DejaVuSans-118"/>
      <path d="M 9.421875 75.984375 
L 18.40625 75.984375 
L 18.40625 0 
L 9.421875 0 
z
" id="DejaVuSans-108"/>
      <path d="M 37.109375 75.984375 
L 37.109375 68.5 
L 28.515625 68.5 
Q 23.6875 68.5 21.796875 66.546875 
Q 19.921875 64.59375 19.921875 59.515625 
L 19.921875 54.6875 
L 34.71875 54.6875 
L 34.71875 47.703125 
L 19.921875 47.703125 
L 19.921875 0 
L 10.890625 0 
L 10.890625 47.703125 
L 2.296875 47.703125 
L 2.296875 54.6875 
L 10.890625 54.6875 
L 10.890625 58.5 
Q 10.890625 67.625 15.140625 71.796875 
Q 19.390625 75.984375 28.609375 75.984375 
z
" id="DejaVuSans-102"/>
      <path d="M 9.8125 72.90625 
L 24.515625 72.90625 
L 43.109375 23.296875 
L 61.8125 72.90625 
L 76.515625 72.90625 
L 76.515625 0 
L 66.890625 0 
L 66.890625 64.015625 
L 48.09375 14.015625 
L 38.1875 14.015625 
L 19.390625 64.015625 
L 19.390625 0 
L 9.8125 0 
z
" id="DejaVuSans-77"/>
      <path d="M 48.6875 27.296875 
Q 48.6875 37.203125 44.609375 42.84375 
Q 40.53125 48.484375 33.40625 48.484375 
Q 26.265625 48.484375 22.1875 42.84375 
Q 18.109375 37.203125 18.109375 27.296875 
Q 18.109375 17.390625 22.1875 11.75 
Q 26.265625 6.109375 33.40625 6.109375 
Q 40.53125 6.109375 44.609375 11.75 
Q 48.6875 17.390625 48.6875 27.296875 
z
M 18.109375 46.390625 
Q 20.953125 51.265625 25.265625 53.625 
Q 29.59375 56 35.59375 56 
Q 45.5625 56 51.78125 48.09375 
Q 58.015625 40.1875 58.015625 27.296875 
Q 58.015625 14.40625 51.78125 6.484375 
Q 45.5625 -1.421875 35.59375 -1.421875 
Q 29.59375 -1.421875 25.265625 0.953125 
Q 20.953125 3.328125 18.109375 8.203125 
L 18.109375 0 
L 9.078125 0 
L 9.078125 75.984375 
L 18.109375 75.984375 
z
" id="DejaVuSans-98"/>
      <path d="M 32.171875 -5.078125 
Q 28.375 -14.84375 24.75 -17.8125 
Q 21.140625 -20.796875 15.09375 -20.796875 
L 7.90625 -20.796875 
L 7.90625 -13.28125 
L 13.1875 -13.28125 
Q 16.890625 -13.28125 18.9375 -11.515625 
Q 21 -9.765625 23.484375 -3.21875 
L 25.09375 0.875 
L 2.984375 54.6875 
L 12.5 54.6875 
L 29.59375 11.921875 
L 46.6875 54.6875 
L 56.203125 54.6875 
z
" id="DejaVuSans-121"/>
     </defs>
     <use xlink:href="#DejaVuSans-78"/>
     <use x="74.804688" xlink:href="#DejaVuSans-69"/>
     <use x="137.988281" xlink:href="#DejaVuSans-67"/>
     <use x="207.8125" xlink:href="#DejaVuSans-79"/>
     <use x="286.523438" xlink:href="#DejaVuSans-70"/>
     <use x="342.292969" xlink:href="#DejaVuSans-83"/>
     <use x="405.769531" xlink:href="#DejaVuSans-32"/>
     <use x="437.556641" xlink:href="#DejaVuSans-70"/>
     <use x="491.451172" xlink:href="#DejaVuSans-111"/>
     <use x="552.632812" xlink:href="#DejaVuSans-114"/>
     <use x="591.496094" xlink:href="#DejaVuSans-101"/>
     <use x="653.019531" xlink:href="#DejaVuSans-99"/>
     <use x="708" xlink:href="#DejaVuSans-97"/>
     <use x="769.279297" xlink:href="#DejaVuSans-115"/>
     <use x="821.378906" xlink:href="#DejaVuSans-116"/>
     <use x="860.587891" xlink:href="#DejaVuSans-32"/>
     <use x="892.375" xlink:href="#DejaVuSans-87"/>
     <use x="984.876953" xlink:href="#DejaVuSans-97"/>
     <use x="1046.15625" xlink:href="#DejaVuSans-116"/>
     <use x="1085.365234" xlink:href="#DejaVuSans-101"/>
     <use x="1146.888672" xlink:href="#DejaVuSans-114"/>
     <use x="1188.001953" xlink:href="#DejaVuSans-32"/>
     <use x="1219.789062" xlink:href="#DejaVuSans-76"/>
     <use x="1273.751953" xlink:href="#DejaVuSans-101"/>
     <use x="1335.275391" xlink:href="#DejaVuSans-118"/>
     <use x="1394.455078" xlink:href="#DejaVuSans-101"/>
     <use x="1455.978516" xlink:href="#DejaVuSans-108"/>
     <use x="1483.761719" xlink:href="#DejaVuSans-32"/>
     <use x="1515.548828" xlink:href="#DejaVuSans-102"/>
     <use x="1550.753906" xlink:href="#DejaVuSans-114"/>
     <use x="1589.617188" xlink:href="#DejaVuSans-111"/>
     <use x="1650.798828" xlink:href="#DejaVuSans-109"/>
     <use x="1748.210938" xlink:href="#DejaVuSans-32"/>
     <use x="1779.998047" xlink:href="#DejaVuSans-77"/>
     <use x="1866.277344" xlink:href="#DejaVuSans-97"/>
     <use x="1927.556641" xlink:href="#DejaVuSans-115"/>
     <use x="1979.65625" xlink:href="#DejaVuSans-115"/>
     <use x="2031.755859" xlink:href="#DejaVuSans-98"/>
     <use x="2095.232422" xlink:href="#DejaVuSans-97"/>
     <use x="2156.511719" xlink:href="#DejaVuSans-121"/>
     <use x="2215.691406" xlink:href="#DejaVuSans-32"/>
     <use x="2247.478516" xlink:href="#DejaVuSans-70"/>
     <use x="2301.373047" xlink:href="#DejaVuSans-111"/>
     <use x="2362.554688" xlink:href="#DejaVuSans-114"/>
     <use x="2401.417969" xlink:href="#DejaVuSans-101"/>
     <use x="2462.941406" xlink:href="#DejaVuSans-99"/>
     <use x="2517.921875" xlink:href="#DejaVuSans-97"/>
     <use x="2579.201172" xlink:href="#DejaVuSans-115"/>
     <use x="2631.300781" xlink:href="#DejaVuSans-116"/>
    </g>
   </g>
   <g id="legend_1">
    <g id="patch_7">
     <path d="M 623.452627 154.555312 
L 734.052627 154.555312 
Q 736.052627 154.555312 736.052627 152.555312 
L 736.052627 109.520938 
Q 736.052627 107.520938 734.052627 107.520938 
L 623.452627 107.520938 
Q 621.452627 107.520938 621.452627 109.520938 
L 621.452627 152.555312 
Q 621.452627 154.555312 623.452627 154.555312 
z
" style="fill:#ffffff;opacity:0.8;stroke:#cccccc;stroke-linejoin:miter;"/>
    </g>
    <g id="line2d_32">
     <path d="M 625.452627 115.619375 
L 645.452627 115.619375 
" style="fill:none;stroke:#1f77b4;stroke-linecap:square;stroke-width:2;"/>
    </g>
    <g id="line2d_33"/>
    <g id="text_17">
     <!-- Boston -->
     <g transform="translate(653.452627 119.119375)scale(0.1 -0.1)">
      <defs>
       <path d="M 19.671875 34.8125 
L 19.671875 8.109375 
L 35.5 8.109375 
Q 43.453125 8.109375 47.28125 11.40625 
Q 51.125 14.703125 51.125 21.484375 
Q 51.125 28.328125 47.28125 31.5625 
Q 43.453125 34.8125 35.5 34.8125 
z
M 19.671875 64.796875 
L 19.671875 42.828125 
L 34.28125 42.828125 
Q 41.5 42.828125 45.03125 45.53125 
Q 48.578125 48.25 48.578125 53.8125 
Q 48.578125 59.328125 45.03125 62.0625 
Q 41.5 64.796875 34.28125 64.796875 
z
M 9.8125 72.90625 
L 35.015625 72.90625 
Q 46.296875 72.90625 52.390625 68.21875 
Q 58.5 63.53125 58.5 54.890625 
Q 58.5 48.1875 55.375 44.234375 
Q 52.25 40.28125 46.1875 39.3125 
Q 53.46875 37.75 57.5 32.78125 
Q 61.53125 27.828125 61.53125 20.40625 
Q 61.53125 10.640625 54.890625 5.3125 
Q 48.25 0 35.984375 0 
L 9.8125 0 
z
" id="DejaVuSans-66"/>
       <path d="M 54.890625 33.015625 
L 54.890625 0 
L 45.90625 0 
L 45.90625 32.71875 
Q 45.90625 40.484375 42.875 44.328125 
Q 39.84375 48.1875 33.796875 48.1875 
Q 26.515625 48.1875 22.3125 43.546875 
Q 18.109375 38.921875 18.109375 30.90625 
L 18.109375 0 
L 9.078125 0 
L 9.078125 54.6875 
L 18.109375 54.6875 
L 18.109375 46.1875 
Q 21.34375 51.125 25.703125 53.5625 
Q 30.078125 56 35.796875 56 
Q 45.21875 56 50.046875 50.171875 
Q 54.890625 44.34375 54.890625 33.015625 
z
" id="DejaVuSans-110"/>
      </defs>
      <use xlink:href="#DejaVuSans-66"/>
      <use x="68.603516" xlink:href="#DejaVuSans-111"/>
      <use x="129.785156" xlink:href="#DejaVuSans-115"/>
      <use x="181.884766" xlink:href="#DejaVuSans-116"/>
      <use x="221.09375" xlink:href="#DejaVuSans-111"/>
      <use x="282.275391" xlink:href="#DejaVuSans-110"/>
     </g>
    </g>
    <g id="line2d_34">
     <path d="M 625.452627 130.2975 
L 645.452627 130.2975 
" style="fill:none;stroke:#ff7f0e;stroke-linecap:square;stroke-width:2;"/>
    </g>
    <g id="line2d_35"/>
    <g id="text_18">
     <!-- Scituate Harbor -->
     <g transform="translate(653.452627 133.7975)scale(0.1 -0.1)">
      <defs>
       <path d="M 9.421875 54.6875 
L 18.40625 54.6875 
L 18.40625 0 
L 9.421875 0 
z
M 9.421875 75.984375 
L 18.40625 75.984375 
L 18.40625 64.59375 
L 9.421875 64.59375 
z
" id="DejaVuSans-105"/>
       <path d="M 8.5 21.578125 
L 8.5 54.6875 
L 17.484375 54.6875 
L 17.484375 21.921875 
Q 17.484375 14.15625 20.5 10.265625 
Q 23.53125 6.390625 29.59375 6.390625 
Q 36.859375 6.390625 41.078125 11.03125 
Q 45.3125 15.671875 45.3125 23.6875 
L 45.3125 54.6875 
L 54.296875 54.6875 
L 54.296875 0 
L 45.3125 0 
L 45.3125 8.40625 
Q 42.046875 3.421875 37.71875 1 
Q 33.40625 -1.421875 27.6875 -1.421875 
Q 18.265625 -1.421875 13.375 4.4375 
Q 8.5 10.296875 8.5 21.578125 
z
M 31.109375 56 
z
" id="DejaVuSans-117"/>
       <path d="M 9.8125 72.90625 
L 19.671875 72.90625 
L 19.671875 43.015625 
L 55.515625 43.015625 
L 55.515625 72.90625 
L 65.375 72.90625 
L 65.375 0 
L 55.515625 0 
L 55.515625 34.71875 
L 19.671875 34.71875 
L 19.671875 0 
L 9.8125 0 
z
" id="DejaVuSans-72"/>
      </defs>
      <use xlink:href="#DejaVuSans-83"/>
      <use x="63.476562" xlink:href="#DejaVuSans-99"/>
      <use x="118.457031" xlink:href="#DejaVuSans-105"/>
      <use x="146.240234" xlink:href="#DejaVuSans-116"/>
      <use x="185.449219" xlink:href="#DejaVuSans-117"/>
      <use x="248.828125" xlink:href="#DejaVuSans-97"/>
      <use x="310.107422" xlink:href="#DejaVuSans-116"/>
      <use x="349.316406" xlink:href="#DejaVuSans-101"/>
      <use x="410.839844" xlink:href="#DejaVuSans-32"/>
      <use x="442.626953" xlink:href="#DejaVuSans-72"/>
      <use x="517.822266" xlink:href="#DejaVuSans-97"/>
      <use x="579.101562" xlink:href="#DejaVuSans-114"/>
      <use x="620.214844" xlink:href="#DejaVuSans-98"/>
      <use x="683.691406" xlink:href="#DejaVuSans-111"/>
      <use x="744.873047" xlink:href="#DejaVuSans-114"/>
     </g>
    </g>
    <g id="line2d_36">
     <path d="M 625.452627 144.975625 
L 645.452627 144.975625 
" style="fill:none;stroke:#2ca02c;stroke-linecap:square;stroke-width:2;"/>
    </g>
    <g id="line2d_37"/>
    <g id="text_19">
     <!-- Scituate Beach -->
     <g transform="translate(653.452627 148.475625)scale(0.1 -0.1)">
      <defs>
       <path d="M 54.890625 33.015625 
L 54.890625 0 
L 45.90625 0 
L 45.90625 32.71875 
Q 45.90625 40.484375 42.875 44.328125 
Q 39.84375 48.1875 33.796875 48.1875 
Q 26.515625 48.1875 22.3125 43.546875 
Q 18.109375 38.921875 18.109375 30.90625 
L 18.109375 0 
L 9.078125 0 
L 9.078125 75.984375 
L 18.109375 75.984375 
L 18.109375 46.1875 
Q 21.34375 51.125 25.703125 53.5625 
Q 30.078125 56 35.796875 56 
Q 45.21875 56 50.046875 50.171875 
Q 54.890625 44.34375 54.890625 33.015625 
z
" id="DejaVuSans-104"/>
      </defs>
      <use xlink:href="#DejaVuSans-83"/>
      <use x="63.476562" xlink:href="#DejaVuSans-99"/>
      <use x="118.457031" xlink:href="#DejaVuSans-105"/>
      <use x="146.240234" xlink:href="#DejaVuSans-116"/>
      <use x="185.449219" xlink:href="#DejaVuSans-117"/>
      <use x="248.828125" xlink:href="#DejaVuSans-97"/>
      <use x="310.107422" xlink:href="#DejaVuSans-116"/>
      <use x="349.316406" xlink:href="#DejaVuSans-101"/>
      <use x="410.839844" xlink:href="#DejaVuSans-32"/>
      <use x="442.626953" xlink:href="#DejaVuSans-66"/>
      <use x="511.230469" xlink:href="#DejaVuSans-101"/>
      <use x="572.753906" xlink:href="#DejaVuSans-97"/>
      <use x="634.033203" xlink:href="#DejaVuSans-99"/>
      <use x="689.013672" xlink:href="#DejaVuSans-104"/>
     </g>
    </g>
   </g>
  </g>
 </g>
 <defs>
  <clipPath id="pa54e70a969">
   <rect height="217.44" width="552.42" x="64.032627" y="22.318125"/>
  </clipPath>
 </defs>
</svg>
