<?xml version="1.0" encoding="utf-8" standalone="no"?>
<!DOCTYPE svg PUBLIC "-//W3C//DTD SVG 1.1//EN"
  "http://www.w3.org/Graphics/SVG/1.1/DTD/svg11.dtd">
<!-- Created with matplotlib (https://matplotlib.org/) -->
<svg height="276.554531pt" version="1.1" viewBox="0 0 617.364062 276.554531" width="617.364062pt" xmlns="http://www.w3.org/2000/svg" xmlns:xlink="http://www.w3.org/1999/xlink">
 <metadata>
  <rdf:RDF xmlns:cc="http://creativecommons.org/ns#" xmlns:dc="http://purl.org/dc/elements/1.1/" xmlns:rdf="http://www.w3.org/1999/02/22-rdf-syntax-ns#">
   <cc:Work>
    <dc:type rdf:resource="http://purl.org/dc/dcmitype/StillImage"/>
    <dc:date>2021-03-25T04:00:25.273388</dc:date>
    <dc:format>image/svg+xml</dc:format>
    <dc:creator>
     <cc:Agent>
      <dc:title>Matplotlib v3.3.4, https://matplotlib.org/</dc:title>
     </cc:Agent>
    </dc:creator>
   </cc:Work>
  </rdf:RDF>
 </metadata>
 <defs>
  <style type="text/css">*{stroke-linecap:butt;stroke-linejoin:round;}</style>
 </defs>
 <g id="figure_1">
  <g id="patch_1">
   <path d="M 0 276.554531 
L 617.364062 276.554531 
L 617.364062 0 
L 0 0 
z
" style="fill:none;"/>
  </g>
  <g id="axes_1">
   <g id="patch_2">
    <path d="M 42.620312 238.998281 
L 600.620312 238.998281 
L 600.620312 21.558281 
L 42.620312 21.558281 
z
" style="fill:#ffffff;"/>
   </g>
   <g id="PolyCollection_1">
    <defs>
     <path d="M 433.220313 -37.55625 
L 433.220313 -68.619107 
L 600.620312 -68.619107 
L 600.620312 -37.55625 
L 600.620312 -37.55625 
L 433.220313 -37.55625 
z
" id="mc5ac233d7a" style="stroke:#87cefa;stroke-opacity:0.5;"/>
    </defs>
    <g clip-path="url(#p8e7fd30fce)">
     <use style="fill:#87cefa;fill-opacity:0.5;stroke:#87cefa;stroke-opacity:0.5;" x="0" xlink:href="#mc5ac233d7a" y="276.554531"/>
    </g>
   </g>
   <g id="PolyCollection_2">
    <defs>
     <path d="M 42.620312 -37.55625 
L 42.620312 -192.870536 
L 45.410312 -193.667019 
L 48.200312 -194.463503 
L 50.990313 -195.259986 
L 53.780312 -196.05647 
L 56.570312 -196.852953 
L 59.360312 -197.649437 
L 62.150312 -198.44592 
L 64.940313 -199.242404 
L 67.730312 -200.038887 
L 70.520312 -200.835371 
L 73.310312 -201.631854 
L 76.100313 -202.428338 
L 78.890312 -203.224821 
L 81.680312 -204.021305 
L 84.470313 -204.817788 
L 87.260312 -205.614272 
L 90.050312 -206.410755 
L 92.840312 -207.207239 
L 95.630313 -208.003723 
L 98.420312 -208.800206 
L 101.210313 -209.59669 
L 104.000313 -210.393173 
L 106.790312 -211.189657 
L 109.580313 -211.98614 
L 112.370312 -212.782624 
L 115.160313 -213.579107 
L 117.950312 -214.375591 
L 120.740313 -215.172074 
L 123.530312 -215.968558 
L 126.320312 -216.765041 
L 129.110312 -217.561525 
L 131.900312 -218.358008 
L 134.690313 -219.154492 
L 137.480312 -219.950975 
L 140.270312 -220.747459 
L 143.060313 -221.543942 
L 145.850313 -222.340426 
L 148.640312 -223.136909 
L 151.430313 -223.933393 
L 154.220312 -223.933393 
L 157.010312 -213.579107 
L 159.800313 -203.224821 
L 162.590312 -192.870536 
L 165.380313 -182.51625 
L 168.170312 -172.161964 
L 170.960312 -161.807679 
L 173.750313 -151.453393 
L 176.540313 -141.099107 
L 179.330312 -130.744821 
L 182.120313 -130.054536 
L 184.910312 -129.36425 
L 187.700312 -128.673964 
L 190.490313 -127.983679 
L 193.280312 -127.293393 
L 196.070312 -126.603107 
L 198.860313 -125.912821 
L 201.650312 -125.222536 
L 204.440313 -124.53225 
L 207.230313 -123.841964 
L 210.020312 -123.151679 
L 212.810313 -122.461393 
L 215.600312 -121.771107 
L 218.390312 -121.080821 
L 221.180313 -120.390536 
L 223.970312 -119.70025 
L 226.760312 -119.009964 
L 229.550313 -118.319679 
L 232.340312 -117.629393 
L 235.130313 -116.939107 
L 237.920313 -116.248821 
L 240.710312 -115.558536 
L 243.500313 -114.86825 
L 246.290313 -114.177964 
L 249.080312 -113.487679 
L 251.870313 -112.797393 
L 254.660312 -112.107107 
L 257.450312 -111.416821 
L 260.240313 -110.726536 
L 263.030312 -110.03625 
L 265.820312 -109.345964 
L 268.610313 -108.655679 
L 271.400312 -107.965393 
L 274.190313 -107.275107 
L 276.980313 -106.584821 
L 279.770312 -105.894536 
L 282.560313 -105.20425 
L 285.350312 -104.513964 
L 288.140312 -103.823679 
L 290.930313 -103.133393 
L 293.720312 -102.443107 
L 296.510312 -101.752821 
L 299.300313 -101.062536 
L 302.090313 -100.37225 
L 304.880313 -99.681964 
L 307.670313 -98.991679 
L 310.460313 -98.301393 
L 313.250313 -97.611107 
L 316.040313 -96.920821 
L 318.830312 -96.230536 
L 321.620313 -95.54025 
L 324.410313 -94.849964 
L 327.200312 -94.159679 
L 329.990313 -93.469393 
L 332.780313 -92.779107 
L 335.570312 -92.088821 
L 338.360313 -91.398536 
L 341.150313 -90.70825 
L 343.940313 -90.017964 
L 346.730313 -89.327679 
L 349.520312 -88.637393 
L 352.310313 -87.947107 
L 355.100313 -87.256821 
L 357.890312 -86.566536 
L 360.680313 -85.87625 
L 363.470313 -85.185964 
L 366.260312 -84.495679 
L 369.050313 -83.805393 
L 371.840313 -83.115107 
L 374.630313 -82.424821 
L 377.420313 -81.734536 
L 380.210313 -81.04425 
L 383.000313 -80.353964 
L 385.790313 -79.663679 
L 388.580312 -78.973393 
L 391.370313 -78.283107 
L 394.160313 -77.592821 
L 396.950312 -76.902536 
L 399.740313 -76.21225 
L 402.530313 -75.521964 
L 405.320312 -74.831679 
L 408.110313 -74.141393 
L 410.900313 -73.451107 
L 413.690313 -72.760821 
L 416.480313 -72.070536 
L 419.270312 -71.38025 
L 422.060313 -70.689964 
L 424.850313 -69.999679 
L 427.640312 -69.309393 
L 430.430313 -68.619107 
L 433.220313 -68.619107 
L 436.010312 -66.98422 
L 438.800313 -65.349333 
L 441.590313 -63.714445 
L 444.380313 -62.079558 
L 447.170313 -60.444671 
L 449.960313 -58.809784 
L 452.750313 -57.174897 
L 455.540313 -55.540009 
L 458.330312 -53.905122 
L 461.120313 -52.270235 
L 463.910313 -50.635348 
L 466.700312 -49.000461 
L 469.490313 -47.365573 
L 472.280313 -45.730686 
L 475.070312 -44.095799 
L 477.860313 -42.460912 
L 480.650313 -40.826024 
L 483.440313 -39.191137 
L 486.230313 -37.55625 
L 486.230313 -37.55625 
L 486.230313 -37.55625 
L 483.440313 -37.55625 
L 480.650313 -37.55625 
L 477.860313 -37.55625 
L 475.070312 -37.55625 
L 472.280313 -37.55625 
L 469.490313 -37.55625 
L 466.700312 -37.55625 
L 463.910313 -37.55625 
L 461.120313 -37.55625 
L 458.330312 -37.55625 
L 455.540313 -37.55625 
L 452.750313 -37.55625 
L 449.960313 -37.55625 
L 447.170313 -37.55625 
L 444.380313 -37.55625 
L 441.590313 -37.55625 
L 438.800313 -37.55625 
L 436.010312 -37.55625 
L 433.220313 -37.55625 
L 430.430313 -37.55625 
L 427.640312 -37.55625 
L 424.850313 -37.55625 
L 422.060313 -37.55625 
L 419.270312 -37.55625 
L 416.480313 -37.55625 
L 413.690313 -37.55625 
L 410.900313 -37.55625 
L 408.110313 -37.55625 
L 405.320312 -37.55625 
L 402.530313 -37.55625 
L 399.740313 -37.55625 
L 396.950312 -37.55625 
L 394.160313 -37.55625 
L 391.370313 -37.55625 
L 388.580312 -37.55625 
L 385.790313 -37.55625 
L 383.000313 -37.55625 
L 380.210313 -37.55625 
L 377.420313 -37.55625 
L 374.630313 -37.55625 
L 371.840313 -37.55625 
L 369.050313 -37.55625 
L 366.260312 -37.55625 
L 363.470313 -37.55625 
L 360.680313 -37.55625 
L 357.890312 -37.55625 
L 355.100313 -37.55625 
L 352.310313 -37.55625 
L 349.520312 -37.55625 
L 346.730313 -37.55625 
L 343.940313 -37.55625 
L 341.150313 -37.55625 
L 338.360313 -37.55625 
L 335.570312 -37.55625 
L 332.780313 -37.55625 
L 329.990313 -37.55625 
L 327.200312 -37.55625 
L 324.410313 -37.55625 
L 321.620313 -37.55625 
L 318.830312 -37.55625 
L 316.040313 -37.55625 
L 313.250313 -37.55625 
L 310.460313 -37.55625 
L 307.670313 -37.55625 
L 304.880313 -37.55625 
L 302.090313 -37.55625 
L 299.300313 -37.55625 
L 296.510312 -37.55625 
L 293.720312 -37.55625 
L 290.930313 -37.55625 
L 288.140312 -37.55625 
L 285.350312 -37.55625 
L 282.560313 -37.55625 
L 279.770312 -37.55625 
L 276.980313 -37.55625 
L 274.190313 -37.55625 
L 271.400312 -37.55625 
L 268.610313 -37.55625 
L 265.820312 -37.55625 
L 263.030312 -37.55625 
L 260.240313 -37.55625 
L 257.450312 -37.55625 
L 254.660312 -37.55625 
L 251.870313 -37.55625 
L 249.080312 -37.55625 
L 246.290313 -37.55625 
L 243.500313 -37.55625 
L 240.710312 -37.55625 
L 237.920313 -37.55625 
L 235.130313 -37.55625 
L 232.340312 -37.55625 
L 229.550313 -37.55625 
L 226.760312 -37.55625 
L 223.970312 -37.55625 
L 221.180313 -37.55625 
L 218.390312 -37.55625 
L 215.600312 -37.55625 
L 212.810313 -37.55625 
L 210.020312 -37.55625 
L 207.230313 -37.55625 
L 204.440313 -37.55625 
L 201.650312 -37.55625 
L 198.860313 -37.55625 
L 196.070312 -37.55625 
L 193.280312 -37.55625 
L 190.490313 -37.55625 
L 187.700312 -37.55625 
L 184.910312 -37.55625 
L 182.120313 -37.55625 
L 179.330312 -37.55625 
L 176.540313 -37.55625 
L 173.750313 -37.55625 
L 170.960312 -37.55625 
L 168.170312 -37.55625 
L 165.380313 -37.55625 
L 162.590312 -37.55625 
L 159.800313 -37.55625 
L 157.010312 -37.55625 
L 154.220312 -37.55625 
L 151.430313 -37.55625 
L 148.640312 -37.55625 
L 145.850313 -37.55625 
L 143.060313 -37.55625 
L 140.270312 -37.55625 
L 137.480312 -37.55625 
L 134.690313 -37.55625 
L 131.900312 -37.55625 
L 129.110312 -37.55625 
L 126.320312 -37.55625 
L 123.530312 -37.55625 
L 120.740313 -37.55625 
L 117.950312 -37.55625 
L 115.160313 -37.55625 
L 112.370312 -37.55625 
L 109.580313 -37.55625 
L 106.790312 -37.55625 
L 104.000313 -37.55625 
L 101.210313 -37.55625 
L 98.420312 -37.55625 
L 95.630313 -37.55625 
L 92.840312 -37.55625 
L 90.050312 -37.55625 
L 87.260312 -37.55625 
L 84.470313 -37.55625 
L 81.680312 -37.55625 
L 78.890312 -37.55625 
L 76.100313 -37.55625 
L 73.310312 -37.55625 
L 70.520312 -37.55625 
L 67.730312 -37.55625 
L 64.940313 -37.55625 
L 62.150312 -37.55625 
L 59.360312 -37.55625 
L 56.570312 -37.55625 
L 53.780312 -37.55625 
L 50.990313 -37.55625 
L 48.200312 -37.55625 
L 45.410312 -37.55625 
L 42.620312 -37.55625 
z
" id="m5ac650e955" style="stroke:#fff8dc;"/>
    </defs>
    <g clip-path="url(#p8e7fd30fce)">
     <use style="fill:#fff8dc;stroke:#fff8dc;" x="0" xlink:href="#m5ac650e955" y="276.554531"/>
    </g>
   </g>
   <g id="patch_3">
    <path clip-path="url(#p8e7fd30fce)" d="M -13.179688 238.998281 
L -13.179688 21.558281 
L -7.599688 21.558281 
L -7.599688 238.998281 
z
" style="fill:#ff6347;opacity:0.6;stroke:#ff6347;stroke-linejoin:miter;"/>
   </g>
   <g id="matplotlib.axis_1">
    <g id="xtick_1">
     <g id="line2d_1">
      <path clip-path="url(#p8e7fd30fce)" d="M 42.620312 238.998281 
L 42.620312 21.558281 
" style="fill:none;stroke:#b0b0b0;stroke-linecap:square;stroke-width:0.8;"/>
     </g>
     <g id="line2d_2">
      <defs>
       <path d="M 0 0 
L 0 3.5 
" id="m79b7a1a70d" style="stroke:#000000;stroke-width:0.8;"/>
      </defs>
      <g>
       <use style="stroke:#000000;stroke-width:0.8;" x="42.620312" xlink:href="#m79b7a1a70d" y="238.998281"/>
      </g>
     </g>
     <g id="text_1">
      <!-- 0 -->
      <g transform="translate(39.439062 253.596719)scale(0.1 -0.1)">
       <defs>
        <path d="M 31.78125 66.40625 
Q 24.171875 66.40625 20.328125 58.90625 
Q 16.5 51.421875 16.5 36.375 
Q 16.5 21.390625 20.328125 13.890625 
Q 24.171875 6.390625 31.78125 6.390625 
Q 39.453125 6.390625 43.28125 13.890625 
Q 47.125 21.390625 47.125 36.375 
Q 47.125 51.421875 43.28125 58.90625 
Q 39.453125 66.40625 31.78125 66.40625 
z
M 31.78125 74.21875 
Q 44.046875 74.21875 50.515625 64.515625 
Q 56.984375 54.828125 56.984375 36.375 
Q 56.984375 17.96875 50.515625 8.265625 
Q 44.046875 -1.421875 31.78125 -1.421875 
Q 19.53125 -1.421875 13.0625 8.265625 
Q 6.59375 17.96875 6.59375 36.375 
Q 6.59375 54.828125 13.0625 64.515625 
Q 19.53125 74.21875 31.78125 74.21875 
z
" id="DejaVuSans-48"/>
       </defs>
       <use xlink:href="#DejaVuSans-48"/>
      </g>
     </g>
    </g>
    <g id="xtick_2">
     <g id="line2d_3">
      <path clip-path="url(#p8e7fd30fce)" d="M 154.220312 238.998281 
L 154.220312 21.558281 
" style="fill:none;stroke:#b0b0b0;stroke-linecap:square;stroke-width:0.8;"/>
     </g>
     <g id="line2d_4">
      <g>
       <use style="stroke:#000000;stroke-width:0.8;" x="154.220312" xlink:href="#m79b7a1a70d" y="238.998281"/>
      </g>
     </g>
     <g id="text_2">
      <!-- 20 -->
      <g transform="translate(147.857812 253.596719)scale(0.1 -0.1)">
       <defs>
        <path d="M 19.1875 8.296875 
L 53.609375 8.296875 
L 53.609375 0 
L 7.328125 0 
L 7.328125 8.296875 
Q 12.9375 14.109375 22.625 23.890625 
Q 32.328125 33.6875 34.8125 36.53125 
Q 39.546875 41.84375 41.421875 45.53125 
Q 43.3125 49.21875 43.3125 52.78125 
Q 43.3125 58.59375 39.234375 62.25 
Q 35.15625 65.921875 28.609375 65.921875 
Q 23.96875 65.921875 18.8125 64.3125 
Q 13.671875 62.703125 7.8125 59.421875 
L 7.8125 69.390625 
Q 13.765625 71.78125 18.9375 73 
Q 24.125 74.21875 28.421875 74.21875 
Q 39.75 74.21875 46.484375 68.546875 
Q 53.21875 62.890625 53.21875 53.421875 
Q 53.21875 48.921875 51.53125 44.890625 
Q 49.859375 40.875 45.40625 35.40625 
Q 44.1875 33.984375 37.640625 27.21875 
Q 31.109375 20.453125 19.1875 8.296875 
z
" id="DejaVuSans-50"/>
       </defs>
       <use xlink:href="#DejaVuSans-50"/>
       <use x="63.623047" xlink:href="#DejaVuSans-48"/>
      </g>
     </g>
    </g>
    <g id="xtick_3">
     <g id="line2d_5">
      <path clip-path="url(#p8e7fd30fce)" d="M 265.820312 238.998281 
L 265.820312 21.558281 
" style="fill:none;stroke:#b0b0b0;stroke-linecap:square;stroke-width:0.8;"/>
     </g>
     <g id="line2d_6">
      <g>
       <use style="stroke:#000000;stroke-width:0.8;" x="265.820312" xlink:href="#m79b7a1a70d" y="238.998281"/>
      </g>
     </g>
     <g id="text_3">
      <!-- 40 -->
      <g transform="translate(259.457812 253.596719)scale(0.1 -0.1)">
       <defs>
        <path d="M 37.796875 64.3125 
L 12.890625 25.390625 
L 37.796875 25.390625 
z
M 35.203125 72.90625 
L 47.609375 72.90625 
L 47.609375 25.390625 
L 58.015625 25.390625 
L 58.015625 17.1875 
L 47.609375 17.1875 
L 47.609375 0 
L 37.796875 0 
L 37.796875 17.1875 
L 4.890625 17.1875 
L 4.890625 26.703125 
z
" id="DejaVuSans-52"/>
       </defs>
       <use xlink:href="#DejaVuSans-52"/>
       <use x="63.623047" xlink:href="#DejaVuSans-48"/>
      </g>
     </g>
    </g>
    <g id="xtick_4">
     <g id="line2d_7">
      <path clip-path="url(#p8e7fd30fce)" d="M 377.420313 238.998281 
L 377.420313 21.558281 
" style="fill:none;stroke:#b0b0b0;stroke-linecap:square;stroke-width:0.8;"/>
     </g>
     <g id="line2d_8">
      <g>
       <use style="stroke:#000000;stroke-width:0.8;" x="377.420313" xlink:href="#m79b7a1a70d" y="238.998281"/>
      </g>
     </g>
     <g id="text_4">
      <!-- 60 -->
      <g transform="translate(371.057813 253.596719)scale(0.1 -0.1)">
       <defs>
        <path d="M 33.015625 40.375 
Q 26.375 40.375 22.484375 35.828125 
Q 18.609375 31.296875 18.609375 23.390625 
Q 18.609375 15.53125 22.484375 10.953125 
Q 26.375 6.390625 33.015625 6.390625 
Q 39.65625 6.390625 43.53125 10.953125 
Q 47.40625 15.53125 47.40625 23.390625 
Q 47.40625 31.296875 43.53125 35.828125 
Q 39.65625 40.375 33.015625 40.375 
z
M 52.59375 71.296875 
L 52.59375 62.3125 
Q 48.875 64.0625 45.09375 64.984375 
Q 41.3125 65.921875 37.59375 65.921875 
Q 27.828125 65.921875 22.671875 59.328125 
Q 17.53125 52.734375 16.796875 39.40625 
Q 19.671875 43.65625 24.015625 45.921875 
Q 28.375 48.1875 33.59375 48.1875 
Q 44.578125 48.1875 50.953125 41.515625 
Q 57.328125 34.859375 57.328125 23.390625 
Q 57.328125 12.15625 50.6875 5.359375 
Q 44.046875 -1.421875 33.015625 -1.421875 
Q 20.359375 -1.421875 13.671875 8.265625 
Q 6.984375 17.96875 6.984375 36.375 
Q 6.984375 53.65625 15.1875 63.9375 
Q 23.390625 74.21875 37.203125 74.21875 
Q 40.921875 74.21875 44.703125 73.484375 
Q 48.484375 72.75 52.59375 71.296875 
z
" id="DejaVuSans-54"/>
       </defs>
       <use xlink:href="#DejaVuSans-54"/>
       <use x="63.623047" xlink:href="#DejaVuSans-48"/>
      </g>
     </g>
    </g>
    <g id="xtick_5">
     <g id="line2d_9">
      <path clip-path="url(#p8e7fd30fce)" d="M 489.020312 238.998281 
L 489.020312 21.558281 
" style="fill:none;stroke:#b0b0b0;stroke-linecap:square;stroke-width:0.8;"/>
     </g>
     <g id="line2d_10">
      <g>
       <use style="stroke:#000000;stroke-width:0.8;" x="489.020312" xlink:href="#m79b7a1a70d" y="238.998281"/>
      </g>
     </g>
     <g id="text_5">
      <!-- 80 -->
      <g transform="translate(482.657812 253.596719)scale(0.1 -0.1)">
       <defs>
        <path d="M 31.78125 34.625 
Q 24.75 34.625 20.71875 30.859375 
Q 16.703125 27.09375 16.703125 20.515625 
Q 16.703125 13.921875 20.71875 10.15625 
Q 24.75 6.390625 31.78125 6.390625 
Q 38.8125 6.390625 42.859375 10.171875 
Q 46.921875 13.96875 46.921875 20.515625 
Q 46.921875 27.09375 42.890625 30.859375 
Q 38.875 34.625 31.78125 34.625 
z
M 21.921875 38.8125 
Q 15.578125 40.375 12.03125 44.71875 
Q 8.5 49.078125 8.5 55.328125 
Q 8.5 64.0625 14.71875 69.140625 
Q 20.953125 74.21875 31.78125 74.21875 
Q 42.671875 74.21875 48.875 69.140625 
Q 55.078125 64.0625 55.078125 55.328125 
Q 55.078125 49.078125 51.53125 44.71875 
Q 48 40.375 41.703125 38.8125 
Q 48.828125 37.15625 52.796875 32.3125 
Q 56.78125 27.484375 56.78125 20.515625 
Q 56.78125 9.90625 50.3125 4.234375 
Q 43.84375 -1.421875 31.78125 -1.421875 
Q 19.734375 -1.421875 13.25 4.234375 
Q 6.78125 9.90625 6.78125 20.515625 
Q 6.78125 27.484375 10.78125 32.3125 
Q 14.796875 37.15625 21.921875 38.8125 
z
M 18.3125 54.390625 
Q 18.3125 48.734375 21.84375 45.5625 
Q 25.390625 42.390625 31.78125 42.390625 
Q 38.140625 42.390625 41.71875 45.5625 
Q 45.3125 48.734375 45.3125 54.390625 
Q 45.3125 60.0625 41.71875 63.234375 
Q 38.140625 66.40625 31.78125 66.40625 
Q 25.390625 66.40625 21.84375 63.234375 
Q 18.3125 60.0625 18.3125 54.390625 
z
" id="DejaVuSans-56"/>
       </defs>
       <use xlink:href="#DejaVuSans-56"/>
       <use x="63.623047" xlink:href="#DejaVuSans-48"/>
      </g>
     </g>
    </g>
    <g id="xtick_6">
     <g id="line2d_11">
      <path clip-path="url(#p8e7fd30fce)" d="M 600.620312 238.998281 
L 600.620312 21.558281 
" style="fill:none;stroke:#b0b0b0;stroke-linecap:square;stroke-width:0.8;"/>
     </g>
     <g id="line2d_12">
      <g>
       <use style="stroke:#000000;stroke-width:0.8;" x="600.620312" xlink:href="#m79b7a1a70d" y="238.998281"/>
      </g>
     </g>
     <g id="text_6">
      <!-- 100 -->
      <g transform="translate(591.076562 253.596719)scale(0.1 -0.1)">
       <defs>
        <path d="M 12.40625 8.296875 
L 28.515625 8.296875 
L 28.515625 63.921875 
L 10.984375 60.40625 
L 10.984375 69.390625 
L 28.421875 72.90625 
L 38.28125 72.90625 
L 38.28125 8.296875 
L 54.390625 8.296875 
L 54.390625 0 
L 12.40625 0 
z
" id="DejaVuSans-49"/>
       </defs>
       <use xlink:href="#DejaVuSans-49"/>
       <use x="63.623047" xlink:href="#DejaVuSans-48"/>
       <use x="127.246094" xlink:href="#DejaVuSans-48"/>
      </g>
     </g>
    </g>
    <g id="text_7">
     <!-- Cross-shore distance (m) -->
     <g transform="translate(259.124219 267.274844)scale(0.1 -0.1)">
      <defs>
       <path d="M 64.40625 67.28125 
L 64.40625 56.890625 
Q 59.421875 61.53125 53.78125 63.8125 
Q 48.140625 66.109375 41.796875 66.109375 
Q 29.296875 66.109375 22.65625 58.46875 
Q 16.015625 50.828125 16.015625 36.375 
Q 16.015625 21.96875 22.65625 14.328125 
Q 29.296875 6.6875 41.796875 6.6875 
Q 48.140625 6.6875 53.78125 8.984375 
Q 59.421875 11.28125 64.40625 15.921875 
L 64.40625 5.609375 
Q 59.234375 2.09375 53.4375 0.328125 
Q 47.65625 -1.421875 41.21875 -1.421875 
Q 24.65625 -1.421875 15.125 8.703125 
Q 5.609375 18.84375 5.609375 36.375 
Q 5.609375 53.953125 15.125 64.078125 
Q 24.65625 74.21875 41.21875 74.21875 
Q 47.75 74.21875 53.53125 72.484375 
Q 59.328125 70.75 64.40625 67.28125 
z
" id="DejaVuSans-67"/>
       <path d="M 41.109375 46.296875 
Q 39.59375 47.171875 37.8125 47.578125 
Q 36.03125 48 33.890625 48 
Q 26.265625 48 22.1875 43.046875 
Q 18.109375 38.09375 18.109375 28.8125 
L 18.109375 0 
L 9.078125 0 
L 9.078125 54.6875 
L 18.109375 54.6875 
L 18.109375 46.1875 
Q 20.953125 51.171875 25.484375 53.578125 
Q 30.03125 56 36.53125 56 
Q 37.453125 56 38.578125 55.875 
Q 39.703125 55.765625 41.0625 55.515625 
z
" id="DejaVuSans-114"/>
       <path d="M 30.609375 48.390625 
Q 23.390625 48.390625 19.1875 42.75 
Q 14.984375 37.109375 14.984375 27.296875 
Q 14.984375 17.484375 19.15625 11.84375 
Q 23.34375 6.203125 30.609375 6.203125 
Q 37.796875 6.203125 41.984375 11.859375 
Q 46.1875 17.53125 46.1875 27.296875 
Q 46.1875 37.015625 41.984375 42.703125 
Q 37.796875 48.390625 30.609375 48.390625 
z
M 30.609375 56 
Q 42.328125 56 49.015625 48.375 
Q 55.71875 40.765625 55.71875 27.296875 
Q 55.71875 13.875 49.015625 6.21875 
Q 42.328125 -1.421875 30.609375 -1.421875 
Q 18.84375 -1.421875 12.171875 6.21875 
Q 5.515625 13.875 5.515625 27.296875 
Q 5.515625 40.765625 12.171875 48.375 
Q 18.84375 56 30.609375 56 
z
" id="DejaVuSans-111"/>
       <path d="M 44.28125 53.078125 
L 44.28125 44.578125 
Q 40.484375 46.53125 36.375 47.5 
Q 32.28125 48.484375 27.875 48.484375 
Q 21.1875 48.484375 17.84375 46.4375 
Q 14.5 44.390625 14.5 40.28125 
Q 14.5 37.15625 16.890625 35.375 
Q 19.28125 33.59375 26.515625 31.984375 
L 29.59375 31.296875 
Q 39.15625 29.25 43.1875 25.515625 
Q 47.21875 21.78125 47.21875 15.09375 
Q 47.21875 7.46875 41.1875 3.015625 
Q 35.15625 -1.421875 24.609375 -1.421875 
Q 20.21875 -1.421875 15.453125 -0.5625 
Q 10.6875 0.296875 5.421875 2 
L 5.421875 11.28125 
Q 10.40625 8.6875 15.234375 7.390625 
Q 20.0625 6.109375 24.8125 6.109375 
Q 31.15625 6.109375 34.5625 8.28125 
Q 37.984375 10.453125 37.984375 14.40625 
Q 37.984375 18.0625 35.515625 20.015625 
Q 33.0625 21.96875 24.703125 23.78125 
L 21.578125 24.515625 
Q 13.234375 26.265625 9.515625 29.90625 
Q 5.8125 33.546875 5.8125 39.890625 
Q 5.8125 47.609375 11.28125 51.796875 
Q 16.75 56 26.8125 56 
Q 31.78125 56 36.171875 55.265625 
Q 40.578125 54.546875 44.28125 53.078125 
z
" id="DejaVuSans-115"/>
       <path d="M 4.890625 31.390625 
L 31.203125 31.390625 
L 31.203125 23.390625 
L 4.890625 23.390625 
z
" id="DejaVuSans-45"/>
       <path d="M 54.890625 33.015625 
L 54.890625 0 
L 45.90625 0 
L 45.90625 32.71875 
Q 45.90625 40.484375 42.875 44.328125 
Q 39.84375 48.1875 33.796875 48.1875 
Q 26.515625 48.1875 22.3125 43.546875 
Q 18.109375 38.921875 18.109375 30.90625 
L 18.109375 0 
L 9.078125 0 
L 9.078125 75.984375 
L 18.109375 75.984375 
L 18.109375 46.1875 
Q 21.34375 51.125 25.703125 53.5625 
Q 30.078125 56 35.796875 56 
Q 45.21875 56 50.046875 50.171875 
Q 54.890625 44.34375 54.890625 33.015625 
z
" id="DejaVuSans-104"/>
       <path d="M 56.203125 29.59375 
L 56.203125 25.203125 
L 14.890625 25.203125 
Q 15.484375 15.921875 20.484375 11.0625 
Q 25.484375 6.203125 34.421875 6.203125 
Q 39.59375 6.203125 44.453125 7.46875 
Q 49.3125 8.734375 54.109375 11.28125 
L 54.109375 2.78125 
Q 49.265625 0.734375 44.1875 -0.34375 
Q 39.109375 -1.421875 33.890625 -1.421875 
Q 20.796875 -1.421875 13.15625 6.1875 
Q 5.515625 13.8125 5.515625 26.8125 
Q 5.515625 40.234375 12.765625 48.109375 
Q 20.015625 56 32.328125 56 
Q 43.359375 56 49.78125 48.890625 
Q 56.203125 41.796875 56.203125 29.59375 
z
M 47.21875 32.234375 
Q 47.125 39.59375 43.09375 43.984375 
Q 39.0625 48.390625 32.421875 48.390625 
Q 24.90625 48.390625 20.390625 44.140625 
Q 15.875 39.890625 15.1875 32.171875 
z
" id="DejaVuSans-101"/>
       <path id="DejaVuSans-32"/>
       <path d="M 45.40625 46.390625 
L 45.40625 75.984375 
L 54.390625 75.984375 
L 54.390625 0 
L 45.40625 0 
L 45.40625 8.203125 
Q 42.578125 3.328125 38.25 0.953125 
Q 33.9375 -1.421875 27.875 -1.421875 
Q 17.96875 -1.421875 11.734375 6.484375 
Q 5.515625 14.40625 5.515625 27.296875 
Q 5.515625 40.1875 11.734375 48.09375 
Q 17.96875 56 27.875 56 
Q 33.9375 56 38.25 53.625 
Q 42.578125 51.265625 45.40625 46.390625 
z
M 14.796875 27.296875 
Q 14.796875 17.390625 18.875 11.75 
Q 22.953125 6.109375 30.078125 6.109375 
Q 37.203125 6.109375 41.296875 11.75 
Q 45.40625 17.390625 45.40625 27.296875 
Q 45.40625 37.203125 41.296875 42.84375 
Q 37.203125 48.484375 30.078125 48.484375 
Q 22.953125 48.484375 18.875 42.84375 
Q 14.796875 37.203125 14.796875 27.296875 
z
" id="DejaVuSans-100"/>
       <path d="M 9.421875 54.6875 
L 18.40625 54.6875 
L 18.40625 0 
L 9.421875 0 
z
M 9.421875 75.984375 
L 18.40625 75.984375 
L 18.40625 64.59375 
L 9.421875 64.59375 
z
" id="DejaVuSans-105"/>
       <path d="M 18.3125 70.21875 
L 18.3125 54.6875 
L 36.8125 54.6875 
L 36.8125 47.703125 
L 18.3125 47.703125 
L 18.3125 18.015625 
Q 18.3125 11.328125 20.140625 9.421875 
Q 21.96875 7.515625 27.59375 7.515625 
L 36.8125 7.515625 
L 36.8125 0 
L 27.59375 0 
Q 17.1875 0 13.234375 3.875 
Q 9.28125 7.765625 9.28125 18.015625 
L 9.28125 47.703125 
L 2.6875 47.703125 
L 2.6875 54.6875 
L 9.28125 54.6875 
L 9.28125 70.21875 
z
" id="DejaVuSans-116"/>
       <path d="M 34.28125 27.484375 
Q 23.390625 27.484375 19.1875 25 
Q 14.984375 22.515625 14.984375 16.5 
Q 14.984375 11.71875 18.140625 8.90625 
Q 21.296875 6.109375 26.703125 6.109375 
Q 34.1875 6.109375 38.703125 11.40625 
Q 43.21875 16.703125 43.21875 25.484375 
L 43.21875 27.484375 
z
M 52.203125 31.203125 
L 52.203125 0 
L 43.21875 0 
L 43.21875 8.296875 
Q 40.140625 3.328125 35.546875 0.953125 
Q 30.953125 -1.421875 24.3125 -1.421875 
Q 15.921875 -1.421875 10.953125 3.296875 
Q 6 8.015625 6 15.921875 
Q 6 25.140625 12.171875 29.828125 
Q 18.359375 34.515625 30.609375 34.515625 
L 43.21875 34.515625 
L 43.21875 35.40625 
Q 43.21875 41.609375 39.140625 45 
Q 35.0625 48.390625 27.6875 48.390625 
Q 23 48.390625 18.546875 47.265625 
Q 14.109375 46.140625 10.015625 43.890625 
L 10.015625 52.203125 
Q 14.9375 54.109375 19.578125 55.046875 
Q 24.21875 56 28.609375 56 
Q 40.484375 56 46.34375 49.84375 
Q 52.203125 43.703125 52.203125 31.203125 
z
" id="DejaVuSans-97"/>
       <path d="M 54.890625 33.015625 
L 54.890625 0 
L 45.90625 0 
L 45.90625 32.71875 
Q 45.90625 40.484375 42.875 44.328125 
Q 39.84375 48.1875 33.796875 48.1875 
Q 26.515625 48.1875 22.3125 43.546875 
Q 18.109375 38.921875 18.109375 30.90625 
L 18.109375 0 
L 9.078125 0 
L 9.078125 54.6875 
L 18.109375 54.6875 
L 18.109375 46.1875 
Q 21.34375 51.125 25.703125 53.5625 
Q 30.078125 56 35.796875 56 
Q 45.21875 56 50.046875 50.171875 
Q 54.890625 44.34375 54.890625 33.015625 
z
" id="DejaVuSans-110"/>
       <path d="M 48.78125 52.59375 
L 48.78125 44.1875 
Q 44.96875 46.296875 41.140625 47.34375 
Q 37.3125 48.390625 33.40625 48.390625 
Q 24.65625 48.390625 19.8125 42.84375 
Q 14.984375 37.3125 14.984375 27.296875 
Q 14.984375 17.28125 19.8125 11.734375 
Q 24.65625 6.203125 33.40625 6.203125 
Q 37.3125 6.203125 41.140625 7.25 
Q 44.96875 8.296875 48.78125 10.40625 
L 48.78125 2.09375 
Q 45.015625 0.34375 40.984375 -0.53125 
Q 36.96875 -1.421875 32.421875 -1.421875 
Q 20.0625 -1.421875 12.78125 6.34375 
Q 5.515625 14.109375 5.515625 27.296875 
Q 5.515625 40.671875 12.859375 48.328125 
Q 20.21875 56 33.015625 56 
Q 37.15625 56 41.109375 55.140625 
Q 45.0625 54.296875 48.78125 52.59375 
z
" id="DejaVuSans-99"/>
       <path d="M 31 75.875 
Q 24.46875 64.65625 21.28125 53.65625 
Q 18.109375 42.671875 18.109375 31.390625 
Q 18.109375 20.125 21.3125 9.0625 
Q 24.515625 -2 31 -13.1875 
L 23.1875 -13.1875 
Q 15.875 -1.703125 12.234375 9.375 
Q 8.59375 20.453125 8.59375 31.390625 
Q 8.59375 42.28125 12.203125 53.3125 
Q 15.828125 64.359375 23.1875 75.875 
z
" id="DejaVuSans-40"/>
       <path d="M 52 44.1875 
Q 55.375 50.25 60.0625 53.125 
Q 64.75 56 71.09375 56 
Q 79.640625 56 84.28125 50.015625 
Q 88.921875 44.046875 88.921875 33.015625 
L 88.921875 0 
L 79.890625 0 
L 79.890625 32.71875 
Q 79.890625 40.578125 77.09375 44.375 
Q 74.3125 48.1875 68.609375 48.1875 
Q 61.625 48.1875 57.5625 43.546875 
Q 53.515625 38.921875 53.515625 30.90625 
L 53.515625 0 
L 44.484375 0 
L 44.484375 32.71875 
Q 44.484375 40.625 41.703125 44.40625 
Q 38.921875 48.1875 33.109375 48.1875 
Q 26.21875 48.1875 22.15625 43.53125 
Q 18.109375 38.875 18.109375 30.90625 
L 18.109375 0 
L 9.078125 0 
L 9.078125 54.6875 
L 18.109375 54.6875 
L 18.109375 46.1875 
Q 21.1875 51.21875 25.484375 53.609375 
Q 29.78125 56 35.6875 56 
Q 41.65625 56 45.828125 52.96875 
Q 50 49.953125 52 44.1875 
z
" id="DejaVuSans-109"/>
       <path d="M 8.015625 75.875 
L 15.828125 75.875 
Q 23.140625 64.359375 26.78125 53.3125 
Q 30.421875 42.28125 30.421875 31.390625 
Q 30.421875 20.453125 26.78125 9.375 
Q 23.140625 -1.703125 15.828125 -13.1875 
L 8.015625 -13.1875 
Q 14.5 -2 17.703125 9.0625 
Q 20.90625 20.125 20.90625 31.390625 
Q 20.90625 42.671875 17.703125 53.65625 
Q 14.5 64.65625 8.015625 75.875 
z
" id="DejaVuSans-41"/>
      </defs>
      <use xlink:href="#DejaVuSans-67"/>
      <use x="69.824219" xlink:href="#DejaVuSans-114"/>
      <use x="108.6875" xlink:href="#DejaVuSans-111"/>
      <use x="169.869141" xlink:href="#DejaVuSans-115"/>
      <use x="221.96875" xlink:href="#DejaVuSans-115"/>
      <use x="274.068359" xlink:href="#DejaVuSans-45"/>
      <use x="310.152344" xlink:href="#DejaVuSans-115"/>
      <use x="362.251953" xlink:href="#DejaVuSans-104"/>
      <use x="425.630859" xlink:href="#DejaVuSans-111"/>
      <use x="486.8125" xlink:href="#DejaVuSans-114"/>
      <use x="525.675781" xlink:href="#DejaVuSans-101"/>
      <use x="587.199219" xlink:href="#DejaVuSans-32"/>
      <use x="618.986328" xlink:href="#DejaVuSans-100"/>
      <use x="682.462891" xlink:href="#DejaVuSans-105"/>
      <use x="710.246094" xlink:href="#DejaVuSans-115"/>
      <use x="762.345703" xlink:href="#DejaVuSans-116"/>
      <use x="801.554688" xlink:href="#DejaVuSans-97"/>
      <use x="862.833984" xlink:href="#DejaVuSans-110"/>
      <use x="926.212891" xlink:href="#DejaVuSans-99"/>
      <use x="981.193359" xlink:href="#DejaVuSans-101"/>
      <use x="1042.716797" xlink:href="#DejaVuSans-32"/>
      <use x="1074.503906" xlink:href="#DejaVuSans-40"/>
      <use x="1113.517578" xlink:href="#DejaVuSans-109"/>
      <use x="1210.929688" xlink:href="#DejaVuSans-41"/>
     </g>
    </g>
   </g>
   <g id="matplotlib.axis_2">
    <g id="ytick_1">
     <g id="line2d_13">
      <path clip-path="url(#p8e7fd30fce)" d="M 42.620312 238.998281 
L 600.620312 238.998281 
" style="fill:none;stroke:#b0b0b0;stroke-linecap:square;stroke-width:0.8;"/>
     </g>
     <g id="line2d_14">
      <defs>
       <path d="M 0 0 
L -3.5 0 
" id="m237d9c5591" style="stroke:#000000;stroke-width:0.8;"/>
      </defs>
      <g>
       <use style="stroke:#000000;stroke-width:0.8;" x="42.620312" xlink:href="#m237d9c5591" y="238.998281"/>
      </g>
     </g>
     <g id="text_8">
      <!-- −1 -->
      <g transform="translate(20.878125 242.7975)scale(0.1 -0.1)">
       <defs>
        <path d="M 10.59375 35.5 
L 73.1875 35.5 
L 73.1875 27.203125 
L 10.59375 27.203125 
z
" id="DejaVuSans-8722"/>
       </defs>
       <use xlink:href="#DejaVuSans-8722"/>
       <use x="83.789062" xlink:href="#DejaVuSans-49"/>
      </g>
     </g>
    </g>
    <g id="ytick_2">
     <g id="line2d_15">
      <path clip-path="url(#p8e7fd30fce)" d="M 42.620312 207.935424 
L 600.620312 207.935424 
" style="fill:none;stroke:#b0b0b0;stroke-linecap:square;stroke-width:0.8;"/>
     </g>
     <g id="line2d_16">
      <g>
       <use style="stroke:#000000;stroke-width:0.8;" x="42.620312" xlink:href="#m237d9c5591" y="207.935424"/>
      </g>
     </g>
     <g id="text_9">
      <!-- 0 -->
      <g transform="translate(29.257812 211.734643)scale(0.1 -0.1)">
       <use xlink:href="#DejaVuSans-48"/>
      </g>
     </g>
    </g>
    <g id="ytick_3">
     <g id="line2d_17">
      <path clip-path="url(#p8e7fd30fce)" d="M 42.620312 176.872567 
L 600.620312 176.872567 
" style="fill:none;stroke:#b0b0b0;stroke-linecap:square;stroke-width:0.8;"/>
     </g>
     <g id="line2d_18">
      <g>
       <use style="stroke:#000000;stroke-width:0.8;" x="42.620312" xlink:href="#m237d9c5591" y="176.872567"/>
      </g>
     </g>
     <g id="text_10">
      <!-- 1 -->
      <g transform="translate(29.257812 180.671786)scale(0.1 -0.1)">
       <use xlink:href="#DejaVuSans-49"/>
      </g>
     </g>
    </g>
    <g id="ytick_4">
     <g id="line2d_19">
      <path clip-path="url(#p8e7fd30fce)" d="M 42.620312 145.80971 
L 600.620312 145.80971 
" style="fill:none;stroke:#b0b0b0;stroke-linecap:square;stroke-width:0.8;"/>
     </g>
     <g id="line2d_20">
      <g>
       <use style="stroke:#000000;stroke-width:0.8;" x="42.620312" xlink:href="#m237d9c5591" y="145.80971"/>
      </g>
     </g>
     <g id="text_11">
      <!-- 2 -->
      <g transform="translate(29.257812 149.608929)scale(0.1 -0.1)">
       <use xlink:href="#DejaVuSans-50"/>
      </g>
     </g>
    </g>
    <g id="ytick_5">
     <g id="line2d_21">
      <path clip-path="url(#p8e7fd30fce)" d="M 42.620312 114.746853 
L 600.620312 114.746853 
" style="fill:none;stroke:#b0b0b0;stroke-linecap:square;stroke-width:0.8;"/>
     </g>
     <g id="line2d_22">
      <g>
       <use style="stroke:#000000;stroke-width:0.8;" x="42.620312" xlink:href="#m237d9c5591" y="114.746853"/>
      </g>
     </g>
     <g id="text_12">
      <!-- 3 -->
      <g transform="translate(29.257812 118.546071)scale(0.1 -0.1)">
       <defs>
        <path d="M 40.578125 39.3125 
Q 47.65625 37.796875 51.625 33 
Q 55.609375 28.21875 55.609375 21.1875 
Q 55.609375 10.40625 48.1875 4.484375 
Q 40.765625 -1.421875 27.09375 -1.421875 
Q 22.515625 -1.421875 17.65625 -0.515625 
Q 12.796875 0.390625 7.625 2.203125 
L 7.625 11.71875 
Q 11.71875 9.328125 16.59375 8.109375 
Q 21.484375 6.890625 26.8125 6.890625 
Q 36.078125 6.890625 40.9375 10.546875 
Q 45.796875 14.203125 45.796875 21.1875 
Q 45.796875 27.640625 41.28125 31.265625 
Q 36.765625 34.90625 28.71875 34.90625 
L 20.21875 34.90625 
L 20.21875 43.015625 
L 29.109375 43.015625 
Q 36.375 43.015625 40.234375 45.921875 
Q 44.09375 48.828125 44.09375 54.296875 
Q 44.09375 59.90625 40.109375 62.90625 
Q 36.140625 65.921875 28.71875 65.921875 
Q 24.65625 65.921875 20.015625 65.03125 
Q 15.375 64.15625 9.8125 62.3125 
L 9.8125 71.09375 
Q 15.4375 72.65625 20.34375 73.4375 
Q 25.25 74.21875 29.59375 74.21875 
Q 40.828125 74.21875 47.359375 69.109375 
Q 53.90625 64.015625 53.90625 55.328125 
Q 53.90625 49.265625 50.4375 45.09375 
Q 46.96875 40.921875 40.578125 39.3125 
z
" id="DejaVuSans-51"/>
       </defs>
       <use xlink:href="#DejaVuSans-51"/>
      </g>
     </g>
    </g>
    <g id="ytick_6">
     <g id="line2d_23">
      <path clip-path="url(#p8e7fd30fce)" d="M 42.620312 83.683996 
L 600.620312 83.683996 
" style="fill:none;stroke:#b0b0b0;stroke-linecap:square;stroke-width:0.8;"/>
     </g>
     <g id="line2d_24">
      <g>
       <use style="stroke:#000000;stroke-width:0.8;" x="42.620312" xlink:href="#m237d9c5591" y="83.683996"/>
      </g>
     </g>
     <g id="text_13">
      <!-- 4 -->
      <g transform="translate(29.257812 87.483214)scale(0.1 -0.1)">
       <use xlink:href="#DejaVuSans-52"/>
      </g>
     </g>
    </g>
    <g id="ytick_7">
     <g id="line2d_25">
      <path clip-path="url(#p8e7fd30fce)" d="M 42.620312 52.621138 
L 600.620312 52.621138 
" style="fill:none;stroke:#b0b0b0;stroke-linecap:square;stroke-width:0.8;"/>
     </g>
     <g id="line2d_26">
      <g>
       <use style="stroke:#000000;stroke-width:0.8;" x="42.620312" xlink:href="#m237d9c5591" y="52.621138"/>
      </g>
     </g>
     <g id="text_14">
      <!-- 5 -->
      <g transform="translate(29.257812 56.420357)scale(0.1 -0.1)">
       <defs>
        <path d="M 10.796875 72.90625 
L 49.515625 72.90625 
L 49.515625 64.59375 
L 19.828125 64.59375 
L 19.828125 46.734375 
Q 21.96875 47.46875 24.109375 47.828125 
Q 26.265625 48.1875 28.421875 48.1875 
Q 40.625 48.1875 47.75 41.5 
Q 54.890625 34.8125 54.890625 23.390625 
Q 54.890625 11.625 47.5625 5.09375 
Q 40.234375 -1.421875 26.90625 -1.421875 
Q 22.3125 -1.421875 17.546875 -0.640625 
Q 12.796875 0.140625 7.71875 1.703125 
L 7.71875 11.625 
Q 12.109375 9.234375 16.796875 8.0625 
Q 21.484375 6.890625 26.703125 6.890625 
Q 35.15625 6.890625 40.078125 11.328125 
Q 45.015625 15.765625 45.015625 23.390625 
Q 45.015625 31 40.078125 35.4375 
Q 35.15625 39.890625 26.703125 39.890625 
Q 22.75 39.890625 18.8125 39.015625 
Q 14.890625 38.140625 10.796875 36.28125 
z
" id="DejaVuSans-53"/>
       </defs>
       <use xlink:href="#DejaVuSans-53"/>
      </g>
     </g>
    </g>
    <g id="ytick_8">
     <g id="line2d_27">
      <path clip-path="url(#p8e7fd30fce)" d="M 42.620312 21.558281 
L 600.620312 21.558281 
" style="fill:none;stroke:#b0b0b0;stroke-linecap:square;stroke-width:0.8;"/>
     </g>
     <g id="line2d_28">
      <g>
       <use style="stroke:#000000;stroke-width:0.8;" x="42.620312" xlink:href="#m237d9c5591" y="21.558281"/>
      </g>
     </g>
     <g id="text_15">
      <!-- 6 -->
      <g transform="translate(29.257812 25.3575)scale(0.1 -0.1)">
       <use xlink:href="#DejaVuSans-54"/>
      </g>
     </g>
    </g>
    <g id="text_16">
     <!-- Elevation (m) -->
     <g transform="translate(14.798437 163.865)rotate(-90)scale(0.1 -0.1)">
      <defs>
       <path d="M 9.8125 72.90625 
L 55.90625 72.90625 
L 55.90625 64.59375 
L 19.671875 64.59375 
L 19.671875 43.015625 
L 54.390625 43.015625 
L 54.390625 34.71875 
L 19.671875 34.71875 
L 19.671875 8.296875 
L 56.78125 8.296875 
L 56.78125 0 
L 9.8125 0 
z
" id="DejaVuSans-69"/>
       <path d="M 9.421875 75.984375 
L 18.40625 75.984375 
L 18.40625 0 
L 9.421875 0 
z
" id="DejaVuSans-108"/>
       <path d="M 2.984375 54.6875 
L 12.5 54.6875 
L 29.59375 8.796875 
L 46.6875 54.6875 
L 56.203125 54.6875 
L 35.6875 0 
L 23.484375 0 
z
" id="DejaVuSans-118"/>
      </defs>
      <use xlink:href="#DejaVuSans-69"/>
      <use x="63.183594" xlink:href="#DejaVuSans-108"/>
      <use x="90.966797" xlink:href="#DejaVuSans-101"/>
      <use x="152.490234" xlink:href="#DejaVuSans-118"/>
      <use x="211.669922" xlink:href="#DejaVuSans-97"/>
      <use x="272.949219" xlink:href="#DejaVuSans-116"/>
      <use x="312.158203" xlink:href="#DejaVuSans-105"/>
      <use x="339.941406" xlink:href="#DejaVuSans-111"/>
      <use x="401.123047" xlink:href="#DejaVuSans-110"/>
      <use x="464.501953" xlink:href="#DejaVuSans-32"/>
      <use x="496.289062" xlink:href="#DejaVuSans-40"/>
      <use x="535.302734" xlink:href="#DejaVuSans-109"/>
      <use x="632.714844" xlink:href="#DejaVuSans-41"/>
     </g>
    </g>
   </g>
   <g id="line2d_29">
    <path clip-path="url(#p8e7fd30fce)" d="M 42.620312 83.683996 
L 151.430313 52.621138 
L 154.220312 52.621138 
L 179.330312 145.80971 
L 430.430313 207.935424 
L 433.220313 207.935424 
L 486.230313 238.998281 
L 486.230313 238.998281 
" style="fill:none;stroke:#000000;stroke-linecap:square;stroke-width:1.5;"/>
   </g>
   <g id="line2d_30">
    <defs>
     <path d="M 0 6 
C 1.591219 6 3.117479 5.367802 4.242641 4.242641 
C 5.367802 3.117479 6 1.591219 6 0 
C 6 -1.591219 5.367802 -3.117479 4.242641 -4.242641 
C 3.117479 -5.367802 1.591219 -6 0 -6 
C -1.591219 -6 -3.117479 -5.367802 -4.242641 -4.242641 
C -5.367802 -3.117479 -6 -1.591219 -6 0 
C -6 1.591219 -5.367802 3.117479 -4.242641 4.242641 
C -3.117479 5.367802 -1.591219 6 0 6 
z
" id="m53b4b6a5d5" style="stroke:#000000;"/>
    </defs>
    <g clip-path="url(#p8e7fd30fce)">
     <use style="fill:#ff6347;stroke:#000000;" x="176.540313" xlink:href="#m53b4b6a5d5" y="135.455424"/>
    </g>
   </g>
   <g id="line2d_31">
    <defs>
     <path d="M 0 6 
C 1.591219 6 3.117479 5.367802 4.242641 4.242641 
C 5.367802 3.117479 6 1.591219 6 0 
C 6 -1.591219 5.367802 -3.117479 4.242641 -4.242641 
C 3.117479 -5.367802 1.591219 -6 0 -6 
C -1.591219 -6 -3.117479 -5.367802 -4.242641 -4.242641 
C -5.367802 -3.117479 -6 -1.591219 -6 0 
C -6 1.591219 -5.367802 3.117479 -4.242641 4.242641 
C -3.117479 5.367802 -1.591219 6 0 6 
z
" id="m38f3dbb3ba" style="stroke:#000000;"/>
    </defs>
    <g clip-path="url(#p8e7fd30fce)">
     <use style="fill:#6495ed;stroke:#000000;" x="179.330312" xlink:href="#m38f3dbb3ba" y="145.80971"/>
    </g>
   </g>
   <g id="line2d_32">
    <defs>
     <path d="M 0 6 
C 1.591219 6 3.117479 5.367802 4.242641 4.242641 
C 5.367802 3.117479 6 1.591219 6 0 
C 6 -1.591219 5.367802 -3.117479 4.242641 -4.242641 
C 3.117479 -5.367802 1.591219 -6 0 -6 
C -1.591219 -6 -3.117479 -5.367802 -4.242641 -4.242641 
C -5.367802 -3.117479 -6 -1.591219 -6 0 
C -6 1.591219 -5.367802 3.117479 -4.242641 4.242641 
C -3.117479 5.367802 -1.591219 6 0 6 
z
" id="m61e9a456ec" style="stroke:#000000;"/>
    </defs>
    <g clip-path="url(#p8e7fd30fce)">
     <use style="fill:#ffd700;stroke:#000000;" x="198.860313" xlink:href="#m61e9a456ec" y="150.64171"/>
    </g>
   </g>
   <g id="line2d_33">
    <defs>
     <path d="M 0 6 
C 1.591219 6 3.117479 5.367802 4.242641 4.242641 
C 5.367802 3.117479 6 1.591219 6 0 
C 6 -1.591219 5.367802 -3.117479 4.242641 -4.242641 
C 3.117479 -5.367802 1.591219 -6 0 -6 
C -1.591219 -6 -3.117479 -5.367802 -4.242641 -4.242641 
C -5.367802 -3.117479 -6 -1.591219 -6 0 
C -6 1.591219 -5.367802 3.117479 -4.242641 4.242641 
C -3.117479 5.367802 -1.591219 6 0 6 
z
" id="mfca41041be" style="stroke:#000000;"/>
    </defs>
    <g clip-path="url(#p8e7fd30fce)">
     <use style="fill:#32cd32;stroke:#000000;" x="179.330312" xlink:href="#mfca41041be" y="145.80971"/>
    </g>
   </g>
   <g id="line2d_34">
    <defs>
     <path d="M -0 6 
L 6 -6 
L -6 -6 
z
" id="m207d20f737" style="stroke:#000000;stroke-linejoin:miter;"/>
    </defs>
    <g clip-path="url(#p8e7fd30fce)">
     <use style="stroke:#000000;stroke-linejoin:miter;" x="148.640312" xlink:href="#m207d20f737" y="53.417622"/>
    </g>
   </g>
   <g id="line2d_35">
    <defs>
     <path d="M 0 -6 
L -6 6 
L 6 6 
z
" id="m97a805b992" style="stroke:#000000;stroke-linejoin:miter;"/>
    </defs>
    <g clip-path="url(#p8e7fd30fce)">
     <use style="stroke:#000000;stroke-linejoin:miter;" x="430.430313" xlink:href="#m97a805b992" y="207.935424"/>
    </g>
   </g>
   <g id="patch_4">
    <path d="M 42.620312 238.998281 
L 42.620312 21.558281 
" style="fill:none;stroke:#000000;stroke-linecap:square;stroke-linejoin:miter;stroke-width:0.8;"/>
   </g>
   <g id="patch_5">
    <path d="M 600.620312 238.998281 
L 600.620312 21.558281 
" style="fill:none;stroke:#000000;stroke-linecap:square;stroke-linejoin:miter;stroke-width:0.8;"/>
   </g>
   <g id="patch_6">
    <path d="M 42.620312 238.998281 
L 600.620312 238.998281 
" style="fill:none;stroke:#000000;stroke-linecap:square;stroke-linejoin:miter;stroke-width:0.8;"/>
   </g>
   <g id="patch_7">
    <path d="M 42.620312 21.558281 
L 600.620312 21.558281 
" style="fill:none;stroke:#000000;stroke-linecap:square;stroke-linejoin:miter;stroke-width:0.8;"/>
   </g>
   <g id="text_17">
    <!-- Example profile -->
    <g transform="translate(278.639531 15.558281)scale(0.11 -0.11)">
     <defs>
      <path d="M 54.890625 54.6875 
L 35.109375 28.078125 
L 55.90625 0 
L 45.3125 0 
L 29.390625 21.484375 
L 13.484375 0 
L 2.875 0 
L 24.125 28.609375 
L 4.6875 54.6875 
L 15.28125 54.6875 
L 29.78125 35.203125 
L 44.28125 54.6875 
z
" id="DejaVuSans-120"/>
      <path d="M 18.109375 8.203125 
L 18.109375 -20.796875 
L 9.078125 -20.796875 
L 9.078125 54.6875 
L 18.109375 54.6875 
L 18.109375 46.390625 
Q 20.953125 51.265625 25.265625 53.625 
Q 29.59375 56 35.59375 56 
Q 45.5625 56 51.78125 48.09375 
Q 58.015625 40.1875 58.015625 27.296875 
Q 58.015625 14.40625 51.78125 6.484375 
Q 45.5625 -1.421875 35.59375 -1.421875 
Q 29.59375 -1.421875 25.265625 0.953125 
Q 20.953125 3.328125 18.109375 8.203125 
z
M 48.6875 27.296875 
Q 48.6875 37.203125 44.609375 42.84375 
Q 40.53125 48.484375 33.40625 48.484375 
Q 26.265625 48.484375 22.1875 42.84375 
Q 18.109375 37.203125 18.109375 27.296875 
Q 18.109375 17.390625 22.1875 11.75 
Q 26.265625 6.109375 33.40625 6.109375 
Q 40.53125 6.109375 44.609375 11.75 
Q 48.6875 17.390625 48.6875 27.296875 
z
" id="DejaVuSans-112"/>
      <path d="M 37.109375 75.984375 
L 37.109375 68.5 
L 28.515625 68.5 
Q 23.6875 68.5 21.796875 66.546875 
Q 19.921875 64.59375 19.921875 59.515625 
L 19.921875 54.6875 
L 34.71875 54.6875 
L 34.71875 47.703125 
L 19.921875 47.703125 
L 19.921875 0 
L 10.890625 0 
L 10.890625 47.703125 
L 2.296875 47.703125 
L 2.296875 54.6875 
L 10.890625 54.6875 
L 10.890625 58.5 
Q 10.890625 67.625 15.140625 71.796875 
Q 19.390625 75.984375 28.609375 75.984375 
z
" id="DejaVuSans-102"/>
     </defs>
     <use xlink:href="#DejaVuSans-69"/>
     <use x="63.183594" xlink:href="#DejaVuSans-120"/>
     <use x="122.363281" xlink:href="#DejaVuSans-97"/>
     <use x="183.642578" xlink:href="#DejaVuSans-109"/>
     <use x="281.054688" xlink:href="#DejaVuSans-112"/>
     <use x="344.53125" xlink:href="#DejaVuSans-108"/>
     <use x="372.314453" xlink:href="#DejaVuSans-101"/>
     <use x="433.837891" xlink:href="#DejaVuSans-32"/>
     <use x="465.625" xlink:href="#DejaVuSans-112"/>
     <use x="529.101562" xlink:href="#DejaVuSans-114"/>
     <use x="567.964844" xlink:href="#DejaVuSans-111"/>
     <use x="629.146484" xlink:href="#DejaVuSans-102"/>
     <use x="664.351562" xlink:href="#DejaVuSans-105"/>
     <use x="692.134766" xlink:href="#DejaVuSans-108"/>
     <use x="719.917969" xlink:href="#DejaVuSans-101"/>
    </g>
   </g>
   <g id="legend_1">
    <g id="patch_8">
     <path d="M 447.31875 132.305156 
L 593.620312 132.305156 
Q 595.620312 132.305156 595.620312 130.305156 
L 595.620312 28.558281 
Q 595.620312 26.558281 593.620312 26.558281 
L 447.31875 26.558281 
Q 445.31875 26.558281 445.31875 28.558281 
L 445.31875 130.305156 
Q 445.31875 132.305156 447.31875 132.305156 
z
" style="fill:#ffffff;stroke:#cccccc;stroke-linejoin:miter;"/>
    </g>
    <g id="line2d_36"/>
    <g id="line2d_37">
     <g>
      <use style="fill:#ff6347;stroke:#000000;" x="459.31875" xlink:href="#m53b4b6a5d5" y="34.656719"/>
     </g>
    </g>
    <g id="text_18">
     <!-- Machine learning -->
     <g transform="translate(477.31875 38.156719)scale(0.1 -0.1)">
      <defs>
       <path d="M 9.8125 72.90625 
L 24.515625 72.90625 
L 43.109375 23.296875 
L 61.8125 72.90625 
L 76.515625 72.90625 
L 76.515625 0 
L 66.890625 0 
L 66.890625 64.015625 
L 48.09375 14.015625 
L 38.1875 14.015625 
L 19.390625 64.015625 
L 19.390625 0 
L 9.8125 0 
z
" id="DejaVuSans-77"/>
       <path d="M 45.40625 27.984375 
Q 45.40625 37.75 41.375 43.109375 
Q 37.359375 48.484375 30.078125 48.484375 
Q 22.859375 48.484375 18.828125 43.109375 
Q 14.796875 37.75 14.796875 27.984375 
Q 14.796875 18.265625 18.828125 12.890625 
Q 22.859375 7.515625 30.078125 7.515625 
Q 37.359375 7.515625 41.375 12.890625 
Q 45.40625 18.265625 45.40625 27.984375 
z
M 54.390625 6.78125 
Q 54.390625 -7.171875 48.1875 -13.984375 
Q 42 -20.796875 29.203125 -20.796875 
Q 24.46875 -20.796875 20.265625 -20.09375 
Q 16.0625 -19.390625 12.109375 -17.921875 
L 12.109375 -9.1875 
Q 16.0625 -11.328125 19.921875 -12.34375 
Q 23.78125 -13.375 27.78125 -13.375 
Q 36.625 -13.375 41.015625 -8.765625 
Q 45.40625 -4.15625 45.40625 5.171875 
L 45.40625 9.625 
Q 42.625 4.78125 38.28125 2.390625 
Q 33.9375 0 27.875 0 
Q 17.828125 0 11.671875 7.65625 
Q 5.515625 15.328125 5.515625 27.984375 
Q 5.515625 40.671875 11.671875 48.328125 
Q 17.828125 56 27.875 56 
Q 33.9375 56 38.28125 53.609375 
Q 42.625 51.21875 45.40625 46.390625 
L 45.40625 54.6875 
L 54.390625 54.6875 
z
" id="DejaVuSans-103"/>
      </defs>
      <use xlink:href="#DejaVuSans-77"/>
      <use x="86.279297" xlink:href="#DejaVuSans-97"/>
      <use x="147.558594" xlink:href="#DejaVuSans-99"/>
      <use x="202.539062" xlink:href="#DejaVuSans-104"/>
      <use x="265.917969" xlink:href="#DejaVuSans-105"/>
      <use x="293.701172" xlink:href="#DejaVuSans-110"/>
      <use x="357.080078" xlink:href="#DejaVuSans-101"/>
      <use x="418.603516" xlink:href="#DejaVuSans-32"/>
      <use x="450.390625" xlink:href="#DejaVuSans-108"/>
      <use x="478.173828" xlink:href="#DejaVuSans-101"/>
      <use x="539.697266" xlink:href="#DejaVuSans-97"/>
      <use x="600.976562" xlink:href="#DejaVuSans-114"/>
      <use x="640.339844" xlink:href="#DejaVuSans-110"/>
      <use x="703.71875" xlink:href="#DejaVuSans-105"/>
      <use x="731.501953" xlink:href="#DejaVuSans-110"/>
      <use x="794.880859" xlink:href="#DejaVuSans-103"/>
     </g>
    </g>
    <g id="line2d_38"/>
    <g id="line2d_39">
     <g>
      <use style="fill:#6495ed;stroke:#000000;" x="459.31875" xlink:href="#m38f3dbb3ba" y="49.334844"/>
     </g>
    </g>
    <g id="text_19">
     <!-- Maximum curvature -->
     <g transform="translate(477.31875 52.834844)scale(0.1 -0.1)">
      <defs>
       <path d="M 8.5 21.578125 
L 8.5 54.6875 
L 17.484375 54.6875 
L 17.484375 21.921875 
Q 17.484375 14.15625 20.5 10.265625 
Q 23.53125 6.390625 29.59375 6.390625 
Q 36.859375 6.390625 41.078125 11.03125 
Q 45.3125 15.671875 45.3125 23.6875 
L 45.3125 54.6875 
L 54.296875 54.6875 
L 54.296875 0 
L 45.3125 0 
L 45.3125 8.40625 
Q 42.046875 3.421875 37.71875 1 
Q 33.40625 -1.421875 27.6875 -1.421875 
Q 18.265625 -1.421875 13.375 4.4375 
Q 8.5 10.296875 8.5 21.578125 
z
M 31.109375 56 
z
" id="DejaVuSans-117"/>
      </defs>
      <use xlink:href="#DejaVuSans-77"/>
      <use x="86.279297" xlink:href="#DejaVuSans-97"/>
      <use x="147.558594" xlink:href="#DejaVuSans-120"/>
      <use x="206.738281" xlink:href="#DejaVuSans-105"/>
      <use x="234.521484" xlink:href="#DejaVuSans-109"/>
      <use x="331.933594" xlink:href="#DejaVuSans-117"/>
      <use x="395.3125" xlink:href="#DejaVuSans-109"/>
      <use x="492.724609" xlink:href="#DejaVuSans-32"/>
      <use x="524.511719" xlink:href="#DejaVuSans-99"/>
      <use x="579.492188" xlink:href="#DejaVuSans-117"/>
      <use x="642.871094" xlink:href="#DejaVuSans-114"/>
      <use x="683.984375" xlink:href="#DejaVuSans-118"/>
      <use x="743.164062" xlink:href="#DejaVuSans-97"/>
      <use x="804.443359" xlink:href="#DejaVuSans-116"/>
      <use x="843.652344" xlink:href="#DejaVuSans-117"/>
      <use x="907.03125" xlink:href="#DejaVuSans-114"/>
      <use x="945.894531" xlink:href="#DejaVuSans-101"/>
     </g>
    </g>
    <g id="line2d_40"/>
    <g id="line2d_41">
     <g>
      <use style="fill:#ffd700;stroke:#000000;" x="459.31875" xlink:href="#m61e9a456ec" y="64.012969"/>
     </g>
    </g>
    <g id="text_20">
     <!-- Relative relief -->
     <g transform="translate(477.31875 67.512969)scale(0.1 -0.1)">
      <defs>
       <path d="M 44.390625 34.1875 
Q 47.5625 33.109375 50.5625 29.59375 
Q 53.5625 26.078125 56.59375 19.921875 
L 66.609375 0 
L 56 0 
L 46.6875 18.703125 
Q 43.0625 26.03125 39.671875 28.421875 
Q 36.28125 30.8125 30.421875 30.8125 
L 19.671875 30.8125 
L 19.671875 0 
L 9.8125 0 
L 9.8125 72.90625 
L 32.078125 72.90625 
Q 44.578125 72.90625 50.734375 67.671875 
Q 56.890625 62.453125 56.890625 51.90625 
Q 56.890625 45.015625 53.6875 40.46875 
Q 50.484375 35.9375 44.390625 34.1875 
z
M 19.671875 64.796875 
L 19.671875 38.921875 
L 32.078125 38.921875 
Q 39.203125 38.921875 42.84375 42.21875 
Q 46.484375 45.515625 46.484375 51.90625 
Q 46.484375 58.296875 42.84375 61.546875 
Q 39.203125 64.796875 32.078125 64.796875 
z
" id="DejaVuSans-82"/>
      </defs>
      <use xlink:href="#DejaVuSans-82"/>
      <use x="64.982422" xlink:href="#DejaVuSans-101"/>
      <use x="126.505859" xlink:href="#DejaVuSans-108"/>
      <use x="154.289062" xlink:href="#DejaVuSans-97"/>
      <use x="215.568359" xlink:href="#DejaVuSans-116"/>
      <use x="254.777344" xlink:href="#DejaVuSans-105"/>
      <use x="282.560547" xlink:href="#DejaVuSans-118"/>
      <use x="341.740234" xlink:href="#DejaVuSans-101"/>
      <use x="403.263672" xlink:href="#DejaVuSans-32"/>
      <use x="435.050781" xlink:href="#DejaVuSans-114"/>
      <use x="473.914062" xlink:href="#DejaVuSans-101"/>
      <use x="535.4375" xlink:href="#DejaVuSans-108"/>
      <use x="563.220703" xlink:href="#DejaVuSans-105"/>
      <use x="591.003906" xlink:href="#DejaVuSans-101"/>
      <use x="652.527344" xlink:href="#DejaVuSans-102"/>
     </g>
    </g>
    <g id="line2d_42"/>
    <g id="line2d_43">
     <g>
      <use style="fill:#32cd32;stroke:#000000;" x="459.31875" xlink:href="#mfca41041be" y="78.691094"/>
     </g>
    </g>
    <g id="text_21">
     <!-- Perpendicular distance -->
     <g transform="translate(477.31875 82.191094)scale(0.1 -0.1)">
      <defs>
       <path d="M 19.671875 64.796875 
L 19.671875 37.40625 
L 32.078125 37.40625 
Q 38.96875 37.40625 42.71875 40.96875 
Q 46.484375 44.53125 46.484375 51.125 
Q 46.484375 57.671875 42.71875 61.234375 
Q 38.96875 64.796875 32.078125 64.796875 
z
M 9.8125 72.90625 
L 32.078125 72.90625 
Q 44.34375 72.90625 50.609375 67.359375 
Q 56.890625 61.8125 56.890625 51.125 
Q 56.890625 40.328125 50.609375 34.8125 
Q 44.34375 29.296875 32.078125 29.296875 
L 19.671875 29.296875 
L 19.671875 0 
L 9.8125 0 
z
" id="DejaVuSans-80"/>
      </defs>
      <use xlink:href="#DejaVuSans-80"/>
      <use x="56.677734" xlink:href="#DejaVuSans-101"/>
      <use x="118.201172" xlink:href="#DejaVuSans-114"/>
      <use x="159.314453" xlink:href="#DejaVuSans-112"/>
      <use x="222.791016" xlink:href="#DejaVuSans-101"/>
      <use x="284.314453" xlink:href="#DejaVuSans-110"/>
      <use x="347.693359" xlink:href="#DejaVuSans-100"/>
      <use x="411.169922" xlink:href="#DejaVuSans-105"/>
      <use x="438.953125" xlink:href="#DejaVuSans-99"/>
      <use x="493.933594" xlink:href="#DejaVuSans-117"/>
      <use x="557.3125" xlink:href="#DejaVuSans-108"/>
      <use x="585.095703" xlink:href="#DejaVuSans-97"/>
      <use x="646.375" xlink:href="#DejaVuSans-114"/>
      <use x="687.488281" xlink:href="#DejaVuSans-32"/>
      <use x="719.275391" xlink:href="#DejaVuSans-100"/>
      <use x="782.751953" xlink:href="#DejaVuSans-105"/>
      <use x="810.535156" xlink:href="#DejaVuSans-115"/>
      <use x="862.634766" xlink:href="#DejaVuSans-116"/>
      <use x="901.84375" xlink:href="#DejaVuSans-97"/>
      <use x="963.123047" xlink:href="#DejaVuSans-110"/>
      <use x="1026.501953" xlink:href="#DejaVuSans-99"/>
      <use x="1081.482422" xlink:href="#DejaVuSans-101"/>
     </g>
    </g>
    <g id="line2d_44"/>
    <g id="line2d_45">
     <g>
      <use style="stroke:#000000;stroke-linejoin:miter;" x="459.31875" xlink:href="#m207d20f737" y="93.369219"/>
     </g>
    </g>
    <g id="text_22">
     <!-- Crest -->
     <g transform="translate(477.31875 96.869219)scale(0.1 -0.1)">
      <use xlink:href="#DejaVuSans-67"/>
      <use x="69.824219" xlink:href="#DejaVuSans-114"/>
      <use x="108.6875" xlink:href="#DejaVuSans-101"/>
      <use x="170.210938" xlink:href="#DejaVuSans-115"/>
      <use x="222.310547" xlink:href="#DejaVuSans-116"/>
     </g>
    </g>
    <g id="line2d_46"/>
    <g id="line2d_47">
     <g>
      <use style="stroke:#000000;stroke-linejoin:miter;" x="459.31875" xlink:href="#m97a805b992" y="108.047344"/>
     </g>
    </g>
    <g id="text_23">
     <!-- Shoreline -->
     <g transform="translate(477.31875 111.547344)scale(0.1 -0.1)">
      <defs>
       <path d="M 53.515625 70.515625 
L 53.515625 60.890625 
Q 47.90625 63.578125 42.921875 64.890625 
Q 37.9375 66.21875 33.296875 66.21875 
Q 25.25 66.21875 20.875 63.09375 
Q 16.5 59.96875 16.5 54.203125 
Q 16.5 49.359375 19.40625 46.890625 
Q 22.3125 44.4375 30.421875 42.921875 
L 36.375 41.703125 
Q 47.40625 39.59375 52.65625 34.296875 
Q 57.90625 29 57.90625 20.125 
Q 57.90625 9.515625 50.796875 4.046875 
Q 43.703125 -1.421875 29.984375 -1.421875 
Q 24.8125 -1.421875 18.96875 -0.25 
Q 13.140625 0.921875 6.890625 3.21875 
L 6.890625 13.375 
Q 12.890625 10.015625 18.65625 8.296875 
Q 24.421875 6.59375 29.984375 6.59375 
Q 38.421875 6.59375 43.015625 9.90625 
Q 47.609375 13.234375 47.609375 19.390625 
Q 47.609375 24.75 44.3125 27.78125 
Q 41.015625 30.8125 33.5 32.328125 
L 27.484375 33.5 
Q 16.453125 35.6875 11.515625 40.375 
Q 6.59375 45.0625 6.59375 53.421875 
Q 6.59375 63.09375 13.40625 68.65625 
Q 20.21875 74.21875 32.171875 74.21875 
Q 37.3125 74.21875 42.625 73.28125 
Q 47.953125 72.359375 53.515625 70.515625 
z
" id="DejaVuSans-83"/>
      </defs>
      <use xlink:href="#DejaVuSans-83"/>
      <use x="63.476562" xlink:href="#DejaVuSans-104"/>
      <use x="126.855469" xlink:href="#DejaVuSans-111"/>
      <use x="188.037109" xlink:href="#DejaVuSans-114"/>
      <use x="226.900391" xlink:href="#DejaVuSans-101"/>
      <use x="288.423828" xlink:href="#DejaVuSans-108"/>
      <use x="316.207031" xlink:href="#DejaVuSans-105"/>
      <use x="343.990234" xlink:href="#DejaVuSans-110"/>
      <use x="407.369141" xlink:href="#DejaVuSans-101"/>
     </g>
    </g>
    <g id="patch_9">
     <path d="M 449.31875 126.225469 
L 469.31875 126.225469 
L 469.31875 119.225469 
L 449.31875 119.225469 
z
" style="fill:#ff6347;opacity:0.6;stroke:#ff6347;stroke-linejoin:miter;"/>
    </g>
    <g id="text_24">
     <!-- ML Toe probability -->
     <g transform="translate(477.31875 126.225469)scale(0.1 -0.1)">
      <defs>
       <path d="M 9.8125 72.90625 
L 19.671875 72.90625 
L 19.671875 8.296875 
L 55.171875 8.296875 
L 55.171875 0 
L 9.8125 0 
z
" id="DejaVuSans-76"/>
       <path d="M -0.296875 72.90625 
L 61.375 72.90625 
L 61.375 64.59375 
L 35.5 64.59375 
L 35.5 0 
L 25.59375 0 
L 25.59375 64.59375 
L -0.296875 64.59375 
z
" id="DejaVuSans-84"/>
       <path d="M 48.6875 27.296875 
Q 48.6875 37.203125 44.609375 42.84375 
Q 40.53125 48.484375 33.40625 48.484375 
Q 26.265625 48.484375 22.1875 42.84375 
Q 18.109375 37.203125 18.109375 27.296875 
Q 18.109375 17.390625 22.1875 11.75 
Q 26.265625 6.109375 33.40625 6.109375 
Q 40.53125 6.109375 44.609375 11.75 
Q 48.6875 17.390625 48.6875 27.296875 
z
M 18.109375 46.390625 
Q 20.953125 51.265625 25.265625 53.625 
Q 29.59375 56 35.59375 56 
Q 45.5625 56 51.78125 48.09375 
Q 58.015625 40.1875 58.015625 27.296875 
Q 58.015625 14.40625 51.78125 6.484375 
Q 45.5625 -1.421875 35.59375 -1.421875 
Q 29.59375 -1.421875 25.265625 0.953125 
Q 20.953125 3.328125 18.109375 8.203125 
L 18.109375 0 
L 9.078125 0 
L 9.078125 75.984375 
L 18.109375 75.984375 
z
" id="DejaVuSans-98"/>
       <path d="M 32.171875 -5.078125 
Q 28.375 -14.84375 24.75 -17.8125 
Q 21.140625 -20.796875 15.09375 -20.796875 
L 7.90625 -20.796875 
L 7.90625 -13.28125 
L 13.1875 -13.28125 
Q 16.890625 -13.28125 18.9375 -11.515625 
Q 21 -9.765625 23.484375 -3.21875 
L 25.09375 0.875 
L 2.984375 54.6875 
L 12.5 54.6875 
L 29.59375 11.921875 
L 46.6875 54.6875 
L 56.203125 54.6875 
z
" id="DejaVuSans-121"/>
      </defs>
      <use xlink:href="#DejaVuSans-77"/>
      <use x="86.279297" xlink:href="#DejaVuSans-76"/>
      <use x="141.992188" xlink:href="#DejaVuSans-32"/>
      <use x="173.779297" xlink:href="#DejaVuSans-84"/>
      <use x="217.863281" xlink:href="#DejaVuSans-111"/>
      <use x="279.044922" xlink:href="#DejaVuSans-101"/>
      <use x="340.568359" xlink:href="#DejaVuSans-32"/>
      <use x="372.355469" xlink:href="#DejaVuSans-112"/>
      <use x="435.832031" xlink:href="#DejaVuSans-114"/>
      <use x="474.695312" xlink:href="#DejaVuSans-111"/>
      <use x="535.876953" xlink:href="#DejaVuSans-98"/>
      <use x="599.353516" xlink:href="#DejaVuSans-97"/>
      <use x="660.632812" xlink:href="#DejaVuSans-98"/>
      <use x="724.109375" xlink:href="#DejaVuSans-105"/>
      <use x="751.892578" xlink:href="#DejaVuSans-108"/>
      <use x="779.675781" xlink:href="#DejaVuSans-105"/>
      <use x="807.458984" xlink:href="#DejaVuSans-116"/>
      <use x="846.667969" xlink:href="#DejaVuSans-121"/>
     </g>
    </g>
   </g>
  </g>
 </g>
 <defs>
  <clipPath id="p8e7fd30fce">
   <rect height="217.44" width="558" x="42.620312" y="21.558281"/>
  </clipPath>
 </defs>
</svg>
