<?xml version="1.0" encoding="utf-8" standalone="no"?>
<!DOCTYPE svg PUBLIC "-//W3C//DTD SVG 1.1//EN"
  "http://www.w3.org/Graphics/SVG/1.1/DTD/svg11.dtd">
<!-- Created with matplotlib (https://matplotlib.org/) -->
<svg height="276.554531pt" version="1.1" viewBox="0 0 778.000625 276.554531" width="778.000625pt" xmlns="http://www.w3.org/2000/svg" xmlns:xlink="http://www.w3.org/1999/xlink">
 <metadata>
  <rdf:RDF xmlns:cc="http://creativecommons.org/ns#" xmlns:dc="http://purl.org/dc/elements/1.1/" xmlns:rdf="http://www.w3.org/1999/02/22-rdf-syntax-ns#">
   <cc:Work>
    <dc:type rdf:resource="http://purl.org/dc/dcmitype/StillImage"/>
    <dc:date>2021-03-25T07:58:28.711695</dc:date>
    <dc:format>image/svg+xml</dc:format>
    <dc:creator>
     <cc:Agent>
      <dc:title>Matplotlib v3.3.4, https://matplotlib.org/</dc:title>
     </cc:Agent>
    </dc:creator>
   </cc:Work>
  </rdf:RDF>
 </metadata>
 <defs>
  <style type="text/css">*{stroke-linecap:butt;stroke-linejoin:round;}</style>
 </defs>
 <g id="figure_1">
  <g id="patch_1">
   <path d="M 0 276.554531 
L 778.000625 276.554531 
L 778.000625 0 
L 0 0 
z
" style="fill:none;"/>
  </g>
  <g id="axes_1">
   <g id="patch_2">
    <path d="M 34.240625 238.998281 
L 703.840625 238.998281 
L 703.840625 21.558281 
L 34.240625 21.558281 
z
" style="fill:#ffffff;"/>
   </g>
   <g id="PolyCollection_1">
    <defs>
     <path d="M 151.420625 5.93175 
L 151.420625 -37.55625 
L 201.640625 -37.55625 
L 201.640625 5.93175 
L 201.640625 5.93175 
L 151.420625 5.93175 
z
" id="m529e6a7220" style="stroke:#87cefa;stroke-opacity:0.5;"/>
    </defs>
    <g clip-path="url(#p758f051cdb)">
     <use style="fill:#87cefa;fill-opacity:0.5;stroke:#87cefa;stroke-opacity:0.5;" x="0" xlink:href="#m529e6a7220" y="276.554531"/>
    </g>
   </g>
   <g id="PolyCollection_2">
    <path clip-path="url(#p758f051cdb)" d="M 34.240625 282.486281 
L 34.240625 200.735976 
L 38.425625 200.735976 
L 42.610625 202.235618 
L 46.795625 206.331931 
L 50.980625 212.000401 
L 55.165625 214.712512 
L 59.350625 214.712512 
L 63.535625 209.280313 
L 67.720625 197.166732 
L 71.905625 184.10597 
L 76.090625 184.10597 
L 80.275625 187.697363 
L 84.460625 199.584464 
L 88.645625 212.331443 
L 92.830625 219.669896 
L 97.015625 219.669896 
L 101.200625 215.72658 
L 105.385625 211.430813 
L 109.570625 211.301448 
L 113.755625 210.982532 
L 117.940625 207.794449 
L 122.125625 202.725749 
L 126.310625 201.92106 
L 130.495625 200.772949 
L 134.680625 198.570499 
L 138.865625 191.099463 
L 143.050625 190.249439 
L 147.235625 190.249439 
L 151.420625 200.079839 
L 155.605625 204.208712 
L 159.790625 204.208712 
L 163.975625 204.02517 
L 168.160625 200.516394 
L 172.345625 197.36212 
L 176.530625 196.276155 
L 180.715625 195.462625 
L 184.900625 190.46905 
L 189.085625 188.789511 
L 193.270625 188.789511 
L 197.455625 195.39051 
L 201.640625 195.39051 
L 205.825625 193.640151 
L 210.010625 192.061428 
L 214.195625 190.531079 
L 218.380625 190.531079 
L 222.565625 190.537914 
L 226.750625 190.537914 
L 230.935625 189.865231 
L 235.120625 180.073574 
L 239.305625 166.268759 
L 243.490625 166.268759 
L 247.675625 170.008568 
L 251.860625 180.507562 
L 256.045625 180.507562 
L 260.230625 176.108732 
L 264.415625 168.565182 
L 268.600625 168.565182 
L 272.785625 170.262923 
L 276.970625 177.258075 
L 281.155625 177.258075 
L 285.340625 171.166629 
L 289.525625 166.096985 
L 293.710625 159.568859 
L 297.895625 159.310784 
L 302.080625 159.310784 
L 306.265625 159.310784 
L 310.450625 158.625991 
L 314.635625 157.149967 
L 318.820625 157.149967 
L 323.005625 158.855721 
L 327.190625 165.692471 
L 331.375625 173.03558 
L 335.560625 176.319893 
L 339.745625 177.582736 
L 343.930625 178.347177 
L 348.115625 178.347177 
L 352.300625 169.376444 
L 356.485625 169.247229 
L 360.670625 169.247229 
L 364.855625 167.551455 
L 369.040625 164.735702 
L 373.225625 161.288298 
L 377.410625 153.088553 
L 381.595625 138.689586 
L 385.780625 133.154495 
L 389.965625 133.154495 
L 394.150625 135.913257 
L 398.335625 135.918076 
L 402.520625 138.816689 
L 406.705625 145.575896 
L 410.890625 150.554952 
L 415.075625 153.872216 
L 419.260625 159.653485 
L 423.445625 169.067415 
L 427.630625 174.082418 
L 431.815625 174.082418 
L 436.000625 161.501702 
L 440.185625 147.637448 
L 444.370625 140.815975 
L 448.555625 140.815975 
L 452.740625 143.623941 
L 456.925625 147.081633 
L 461.110625 150.25128 
L 465.295625 153.135021 
L 469.480625 158.309925 
L 473.665625 162.927901 
L 477.850625 165.696765 
L 482.035625 167.373822 
L 486.220625 170.070229 
L 490.405625 174.617031 
L 494.590625 178.364297 
L 498.775625 180.676669 
L 502.960625 183.350099 
L 507.145625 186.913088 
L 511.330625 190.734447 
L 515.515625 193.189168 
L 519.700625 194.554448 
L 523.885625 197.518439 
L 528.070625 203.872954 
L 532.255625 217.260068 
L 536.440625 232.534647 
L 540.625625 238.998281 
L 544.810625 238.998281 
L 548.995625 238.998281 
L 553.180625 238.998281 
L 557.365625 238.998281 
L 561.550625 238.998281 
L 565.735625 238.998281 
L 569.920625 238.998281 
L 574.105625 238.998281 
L 578.290625 238.998281 
L 582.475625 238.998281 
L 586.660625 238.998281 
L 590.845625 238.998281 
L 595.030625 238.998281 
L 599.215625 238.998281 
L 603.400625 238.998281 
L 607.585625 238.998281 
L 611.770625 238.998281 
L 615.955625 238.998281 
L 620.140625 238.998281 
L 624.325625 238.998281 
L 628.510625 238.998281 
L 632.695625 238.998281 
L 636.880625 238.998281 
L 641.065625 238.998281 
L 645.250625 238.998281 
L 649.435625 238.998281 
L 653.620625 238.998281 
L 657.805625 238.998281 
L 661.990625 238.998281 
L 666.175625 238.998281 
L 670.360625 238.998281 
L 674.545625 238.998281 
L 678.730625 238.998281 
L 682.915625 238.998281 
L 687.100625 238.998281 
L 691.285625 238.998281 
L 695.470625 238.998281 
L 699.655625 238.998281 
L 703.840625 238.998281 
L 708.025625 238.998281 
L 712.210625 238.998281 
L 716.395625 238.998281 
L 720.580625 238.998281 
L 724.765625 238.998281 
L 728.950625 238.998281 
L 733.135625 238.998281 
L 737.320625 238.998281 
L 741.505625 238.998281 
L 745.690625 238.998281 
L 749.875625 238.998281 
L 754.060625 238.998281 
L 758.245625 238.998281 
L 762.430625 238.998281 
L 766.615625 238.998281 
L 770.800625 238.998281 
L 774.985625 238.998281 
L 779.170625 238.998281 
L 783.355625 238.998281 
L 787.540625 238.998281 
L 791.725625 238.998281 
L 795.910625 238.998281 
L 800.095625 238.998281 
L 804.280625 238.998281 
L 808.465625 238.998281 
L 812.650625 238.998281 
L 816.835625 238.998281 
L 821.020625 238.998281 
L 825.205625 238.998281 
L 829.390625 238.998281 
L 833.575625 238.998281 
L 837.760625 238.998281 
L 841.945625 238.998281 
L 846.130625 238.998281 
L 850.315625 238.998281 
L 854.500625 238.998281 
L 858.685625 238.998281 
L 862.870625 238.998281 
L 867.055625 238.998281 
L 871.240625 238.998281 
L 875.425625 238.998281 
L 879.610625 238.998281 
L 883.795625 238.998281 
L 887.980625 238.998281 
L 892.165625 238.998281 
L 896.350625 238.998281 
L 900.535625 238.998281 
L 904.720625 238.998281 
L 908.905625 238.998281 
L 913.090625 238.998281 
L 917.275625 238.998281 
L 921.460625 238.998281 
L 925.645625 238.998281 
L 929.830625 238.998281 
L 934.015625 238.998281 
L 938.200625 238.998281 
L 942.385625 238.998281 
L 946.570625 238.998281 
L 950.755625 238.998281 
L 954.940625 238.998281 
L 959.125625 238.998281 
L 963.310625 238.998281 
L 967.495625 238.998281 
L 971.680625 238.998281 
L 975.865625 238.998281 
L 980.050625 238.998281 
L 984.235625 238.998281 
L 988.420625 238.998281 
L 992.605625 238.998281 
L 996.790625 238.998281 
L 1000.975625 238.998281 
L 1005.160625 238.998281 
L 1009.345625 238.998281 
L 1013.530625 238.998281 
L 1017.715625 238.998281 
L 1021.900625 238.998281 
L 1026.085625 238.998281 
L 1030.270625 238.998281 
L 1034.455625 238.998281 
L 1038.640625 238.998281 
L 1042.825625 238.998281 
L 1047.010625 238.998281 
L 1051.195625 238.998281 
L 1055.380625 238.998281 
L 1059.565625 238.998281 
L 1063.750625 238.998281 
L 1067.935625 238.998281 
L 1072.120625 238.998281 
L 1076.305625 238.998281 
L 1080.490625 238.998281 
L 1084.675625 238.998281 
L 1088.860625 238.998281 
L 1093.045625 238.998281 
L 1097.230625 238.998281 
L 1101.415625 238.998281 
L 1105.600625 238.998281 
L 1109.785625 238.998281 
L 1113.970625 238.998281 
L 1118.155625 238.998281 
L 1122.340625 238.998281 
L 1126.525625 238.998281 
L 1130.710625 238.998281 
L 1134.895625 238.998281 
L 1139.080625 238.998281 
L 1143.265625 238.998281 
L 1147.450625 238.998281 
L 1151.635625 238.998281 
L 1155.820625 238.998281 
L 1160.005625 238.998281 
L 1164.190625 238.998281 
L 1168.375625 238.998281 
L 1172.560625 238.998281 
L 1176.745625 238.998281 
L 1180.930625 238.998281 
L 1185.115625 238.998281 
L 1189.300625 238.998281 
L 1193.485625 238.998281 
L 1197.670625 238.998281 
L 1201.855625 238.998281 
L 1206.040625 238.998281 
L 1210.225625 238.998281 
L 1214.410625 238.998281 
L 1218.595625 238.998281 
L 1222.780625 238.998281 
L 1226.965625 238.998281 
L 1231.150625 238.998281 
L 1235.335625 238.998281 
L 1239.520625 238.998281 
L 1243.705625 238.998281 
L 1247.890625 238.998281 
L 1252.075625 238.998281 
L 1256.260625 238.998281 
L 1260.445625 238.998281 
L 1264.630625 238.998281 
L 1268.815625 238.998281 
L 1273.000625 238.998281 
L 1277.185625 238.998281 
L 1281.370625 238.998281 
L 1285.555625 238.998281 
L 1289.740625 238.998281 
L 1293.925625 238.998281 
L 1298.110625 238.998281 
L 1302.295625 238.998281 
L 1306.480625 238.998281 
L 1310.665625 238.998281 
L 1314.850625 238.998281 
L 1319.035625 238.998281 
L 1323.220625 238.998281 
L 1327.405625 238.998281 
L 1331.590625 238.998281 
L 1335.775625 238.998281 
L 1339.960625 238.998281 
L 1344.145625 238.998281 
L 1348.330625 238.998281 
L 1352.515625 238.998281 
L 1356.700625 238.998281 
L 1360.885625 238.998281 
L 1365.070625 238.998281 
L 1369.255625 238.998281 
L 1373.440625 238.998281 
L 1377.625625 238.998281 
L 1381.810625 238.998281 
L 1385.995625 238.998281 
L 1390.180625 238.998281 
L 1394.365625 238.998281 
L 1398.550625 238.998281 
L 1402.735625 238.998281 
L 1406.920625 238.998281 
L 1411.105625 238.998281 
L 1415.290625 238.998281 
L 1419.475625 238.998281 
L 1423.660625 238.998281 
L 1427.845625 238.998281 
L 1432.030625 238.998281 
L 1436.215625 238.998281 
L 1440.400625 238.998281 
L 1444.585625 238.998281 
L 1448.770625 238.998281 
L 1452.955625 238.998281 
L 1457.140625 238.998281 
L 1461.325625 238.998281 
L 1465.510625 238.998281 
L 1469.695625 238.998281 
L 1473.880625 238.998281 
L 1478.065625 238.998281 
L 1482.250625 238.998281 
L 1486.435625 238.998281 
L 1490.620625 238.998281 
L 1494.805625 238.998281 
L 1498.990625 238.998281 
L 1503.175625 238.998281 
L 1507.360625 238.998281 
L 1511.545625 238.998281 
L 1515.730625 238.998281 
L 1519.915625 238.998281 
L 1524.100625 238.998281 
L 1528.285625 238.998281 
L 1532.470625 238.998281 
L 1536.655625 238.998281 
L 1540.840625 238.998281 
L 1540.840625 282.486281 
L 1540.840625 282.486281 
L 1536.655625 282.486281 
L 1532.470625 282.486281 
L 1528.285625 282.486281 
L 1524.100625 282.486281 
L 1519.915625 282.486281 
L 1515.730625 282.486281 
L 1511.545625 282.486281 
L 1507.360625 282.486281 
L 1503.175625 282.486281 
L 1498.990625 282.486281 
L 1494.805625 282.486281 
L 1490.620625 282.486281 
L 1486.435625 282.486281 
L 1482.250625 282.486281 
L 1478.065625 282.486281 
L 1473.880625 282.486281 
L 1469.695625 282.486281 
L 1465.510625 282.486281 
L 1461.325625 282.486281 
L 1457.140625 282.486281 
L 1452.955625 282.486281 
L 1448.770625 282.486281 
L 1444.585625 282.486281 
L 1440.400625 282.486281 
L 1436.215625 282.486281 
L 1432.030625 282.486281 
L 1427.845625 282.486281 
L 1423.660625 282.486281 
L 1419.475625 282.486281 
L 1415.290625 282.486281 
L 1411.105625 282.486281 
L 1406.920625 282.486281 
L 1402.735625 282.486281 
L 1398.550625 282.486281 
L 1394.365625 282.486281 
L 1390.180625 282.486281 
L 1385.995625 282.486281 
L 1381.810625 282.486281 
L 1377.625625 282.486281 
L 1373.440625 282.486281 
L 1369.255625 282.486281 
L 1365.070625 282.486281 
L 1360.885625 282.486281 
L 1356.700625 282.486281 
L 1352.515625 282.486281 
L 1348.330625 282.486281 
L 1344.145625 282.486281 
L 1339.960625 282.486281 
L 1335.775625 282.486281 
L 1331.590625 282.486281 
L 1327.405625 282.486281 
L 1323.220625 282.486281 
L 1319.035625 282.486281 
L 1314.850625 282.486281 
L 1310.665625 282.486281 
L 1306.480625 282.486281 
L 1302.295625 282.486281 
L 1298.110625 282.486281 
L 1293.925625 282.486281 
L 1289.740625 282.486281 
L 1285.555625 282.486281 
L 1281.370625 282.486281 
L 1277.185625 282.486281 
L 1273.000625 282.486281 
L 1268.815625 282.486281 
L 1264.630625 282.486281 
L 1260.445625 282.486281 
L 1256.260625 282.486281 
L 1252.075625 282.486281 
L 1247.890625 282.486281 
L 1243.705625 282.486281 
L 1239.520625 282.486281 
L 1235.335625 282.486281 
L 1231.150625 282.486281 
L 1226.965625 282.486281 
L 1222.780625 282.486281 
L 1218.595625 282.486281 
L 1214.410625 282.486281 
L 1210.225625 282.486281 
L 1206.040625 282.486281 
L 1201.855625 282.486281 
L 1197.670625 282.486281 
L 1193.485625 282.486281 
L 1189.300625 282.486281 
L 1185.115625 282.486281 
L 1180.930625 282.486281 
L 1176.745625 282.486281 
L 1172.560625 282.486281 
L 1168.375625 282.486281 
L 1164.190625 282.486281 
L 1160.005625 282.486281 
L 1155.820625 282.486281 
L 1151.635625 282.486281 
L 1147.450625 282.486281 
L 1143.265625 282.486281 
L 1139.080625 282.486281 
L 1134.895625 282.486281 
L 1130.710625 282.486281 
L 1126.525625 282.486281 
L 1122.340625 282.486281 
L 1118.155625 282.486281 
L 1113.970625 282.486281 
L 1109.785625 282.486281 
L 1105.600625 282.486281 
L 1101.415625 282.486281 
L 1097.230625 282.486281 
L 1093.045625 282.486281 
L 1088.860625 282.486281 
L 1084.675625 282.486281 
L 1080.490625 282.486281 
L 1076.305625 282.486281 
L 1072.120625 282.486281 
L 1067.935625 282.486281 
L 1063.750625 282.486281 
L 1059.565625 282.486281 
L 1055.380625 282.486281 
L 1051.195625 282.486281 
L 1047.010625 282.486281 
L 1042.825625 282.486281 
L 1038.640625 282.486281 
L 1034.455625 282.486281 
L 1030.270625 282.486281 
L 1026.085625 282.486281 
L 1021.900625 282.486281 
L 1017.715625 282.486281 
L 1013.530625 282.486281 
L 1009.345625 282.486281 
L 1005.160625 282.486281 
L 1000.975625 282.486281 
L 996.790625 282.486281 
L 992.605625 282.486281 
L 988.420625 282.486281 
L 984.235625 282.486281 
L 980.050625 282.486281 
L 975.865625 282.486281 
L 971.680625 282.486281 
L 967.495625 282.486281 
L 963.310625 282.486281 
L 959.125625 282.486281 
L 954.940625 282.486281 
L 950.755625 282.486281 
L 946.570625 282.486281 
L 942.385625 282.486281 
L 938.200625 282.486281 
L 934.015625 282.486281 
L 929.830625 282.486281 
L 925.645625 282.486281 
L 921.460625 282.486281 
L 917.275625 282.486281 
L 913.090625 282.486281 
L 908.905625 282.486281 
L 904.720625 282.486281 
L 900.535625 282.486281 
L 896.350625 282.486281 
L 892.165625 282.486281 
L 887.980625 282.486281 
L 883.795625 282.486281 
L 879.610625 282.486281 
L 875.425625 282.486281 
L 871.240625 282.486281 
L 867.055625 282.486281 
L 862.870625 282.486281 
L 858.685625 282.486281 
L 854.500625 282.486281 
L 850.315625 282.486281 
L 846.130625 282.486281 
L 841.945625 282.486281 
L 837.760625 282.486281 
L 833.575625 282.486281 
L 829.390625 282.486281 
L 825.205625 282.486281 
L 821.020625 282.486281 
L 816.835625 282.486281 
L 812.650625 282.486281 
L 808.465625 282.486281 
L 804.280625 282.486281 
L 800.095625 282.486281 
L 795.910625 282.486281 
L 791.725625 282.486281 
L 787.540625 282.486281 
L 783.355625 282.486281 
L 779.170625 282.486281 
L 774.985625 282.486281 
L 770.800625 282.486281 
L 766.615625 282.486281 
L 762.430625 282.486281 
L 758.245625 282.486281 
L 754.060625 282.486281 
L 749.875625 282.486281 
L 745.690625 282.486281 
L 741.505625 282.486281 
L 737.320625 282.486281 
L 733.135625 282.486281 
L 728.950625 282.486281 
L 724.765625 282.486281 
L 720.580625 282.486281 
L 716.395625 282.486281 
L 712.210625 282.486281 
L 708.025625 282.486281 
L 703.840625 282.486281 
L 699.655625 282.486281 
L 695.470625 282.486281 
L 691.285625 282.486281 
L 687.100625 282.486281 
L 682.915625 282.486281 
L 678.730625 282.486281 
L 674.545625 282.486281 
L 670.360625 282.486281 
L 666.175625 282.486281 
L 661.990625 282.486281 
L 657.805625 282.486281 
L 653.620625 282.486281 
L 649.435625 282.486281 
L 645.250625 282.486281 
L 641.065625 282.486281 
L 636.880625 282.486281 
L 632.695625 282.486281 
L 628.510625 282.486281 
L 624.325625 282.486281 
L 620.140625 282.486281 
L 615.955625 282.486281 
L 611.770625 282.486281 
L 607.585625 282.486281 
L 603.400625 282.486281 
L 599.215625 282.486281 
L 595.030625 282.486281 
L 590.845625 282.486281 
L 586.660625 282.486281 
L 582.475625 282.486281 
L 578.290625 282.486281 
L 574.105625 282.486281 
L 569.920625 282.486281 
L 565.735625 282.486281 
L 561.550625 282.486281 
L 557.365625 282.486281 
L 553.180625 282.486281 
L 548.995625 282.486281 
L 544.810625 282.486281 
L 540.625625 282.486281 
L 536.440625 282.486281 
L 532.255625 282.486281 
L 528.070625 282.486281 
L 523.885625 282.486281 
L 519.700625 282.486281 
L 515.515625 282.486281 
L 511.330625 282.486281 
L 507.145625 282.486281 
L 502.960625 282.486281 
L 498.775625 282.486281 
L 494.590625 282.486281 
L 490.405625 282.486281 
L 486.220625 282.486281 
L 482.035625 282.486281 
L 477.850625 282.486281 
L 473.665625 282.486281 
L 469.480625 282.486281 
L 465.295625 282.486281 
L 461.110625 282.486281 
L 456.925625 282.486281 
L 452.740625 282.486281 
L 448.555625 282.486281 
L 444.370625 282.486281 
L 440.185625 282.486281 
L 436.000625 282.486281 
L 431.815625 282.486281 
L 427.630625 282.486281 
L 423.445625 282.486281 
L 419.260625 282.486281 
L 415.075625 282.486281 
L 410.890625 282.486281 
L 406.705625 282.486281 
L 402.520625 282.486281 
L 398.335625 282.486281 
L 394.150625 282.486281 
L 389.965625 282.486281 
L 385.780625 282.486281 
L 381.595625 282.486281 
L 377.410625 282.486281 
L 373.225625 282.486281 
L 369.040625 282.486281 
L 364.855625 282.486281 
L 360.670625 282.486281 
L 356.485625 282.486281 
L 352.300625 282.486281 
L 348.115625 282.486281 
L 343.930625 282.486281 
L 339.745625 282.486281 
L 335.560625 282.486281 
L 331.375625 282.486281 
L 327.190625 282.486281 
L 323.005625 282.486281 
L 318.820625 282.486281 
L 314.635625 282.486281 
L 310.450625 282.486281 
L 306.265625 282.486281 
L 302.080625 282.486281 
L 297.895625 282.486281 
L 293.710625 282.486281 
L 289.525625 282.486281 
L 285.340625 282.486281 
L 281.155625 282.486281 
L 276.970625 282.486281 
L 272.785625 282.486281 
L 268.600625 282.486281 
L 264.415625 282.486281 
L 260.230625 282.486281 
L 256.045625 282.486281 
L 251.860625 282.486281 
L 247.675625 282.486281 
L 243.490625 282.486281 
L 239.305625 282.486281 
L 235.120625 282.486281 
L 230.935625 282.486281 
L 226.750625 282.486281 
L 222.565625 282.486281 
L 218.380625 282.486281 
L 214.195625 282.486281 
L 210.010625 282.486281 
L 205.825625 282.486281 
L 201.640625 282.486281 
L 197.455625 282.486281 
L 193.270625 282.486281 
L 189.085625 282.486281 
L 184.900625 282.486281 
L 180.715625 282.486281 
L 176.530625 282.486281 
L 172.345625 282.486281 
L 168.160625 282.486281 
L 163.975625 282.486281 
L 159.790625 282.486281 
L 155.605625 282.486281 
L 151.420625 282.486281 
L 147.235625 282.486281 
L 143.050625 282.486281 
L 138.865625 282.486281 
L 134.680625 282.486281 
L 130.495625 282.486281 
L 126.310625 282.486281 
L 122.125625 282.486281 
L 117.940625 282.486281 
L 113.755625 282.486281 
L 109.570625 282.486281 
L 105.385625 282.486281 
L 101.200625 282.486281 
L 97.015625 282.486281 
L 92.830625 282.486281 
L 88.645625 282.486281 
L 84.460625 282.486281 
L 80.275625 282.486281 
L 76.090625 282.486281 
L 71.905625 282.486281 
L 67.720625 282.486281 
L 63.535625 282.486281 
L 59.350625 282.486281 
L 55.165625 282.486281 
L 50.980625 282.486281 
L 46.795625 282.486281 
L 42.610625 282.486281 
L 38.425625 282.486281 
L 34.240625 282.486281 
z
" style="fill:#fff8dc;stroke:#fff8dc;"/>
   </g>
   <g id="patch_3">
    <path clip-path="url(#p758f051cdb)" d="M 17.500625 238.998281 
L 17.500625 21.558281 
L 19.174625 21.558281 
L 19.174625 238.998281 
z
" style="fill:#ff6347;opacity:0.6;stroke:#ff6347;stroke-linejoin:miter;"/>
   </g>
   <g id="matplotlib.axis_1">
    <g id="xtick_1">
     <g id="line2d_1">
      <path clip-path="url(#p758f051cdb)" d="M 34.240625 238.998281 
L 34.240625 21.558281 
" style="fill:none;stroke:#b0b0b0;stroke-linecap:square;stroke-width:0.8;"/>
     </g>
     <g id="line2d_2">
      <defs>
       <path d="M 0 0 
L 0 3.5 
" id="me20f071e43" style="stroke:#000000;stroke-width:0.8;"/>
      </defs>
      <g>
       <use style="stroke:#000000;stroke-width:0.8;" x="34.240625" xlink:href="#me20f071e43" y="238.998281"/>
      </g>
     </g>
     <g id="text_1">
      <!-- 0 -->
      <g transform="translate(31.059375 253.596719)scale(0.1 -0.1)">
       <defs>
        <path d="M 31.78125 66.40625 
Q 24.171875 66.40625 20.328125 58.90625 
Q 16.5 51.421875 16.5 36.375 
Q 16.5 21.390625 20.328125 13.890625 
Q 24.171875 6.390625 31.78125 6.390625 
Q 39.453125 6.390625 43.28125 13.890625 
Q 47.125 21.390625 47.125 36.375 
Q 47.125 51.421875 43.28125 58.90625 
Q 39.453125 66.40625 31.78125 66.40625 
z
M 31.78125 74.21875 
Q 44.046875 74.21875 50.515625 64.515625 
Q 56.984375 54.828125 56.984375 36.375 
Q 56.984375 17.96875 50.515625 8.265625 
Q 44.046875 -1.421875 31.78125 -1.421875 
Q 19.53125 -1.421875 13.0625 8.265625 
Q 6.59375 17.96875 6.59375 36.375 
Q 6.59375 54.828125 13.0625 64.515625 
Q 19.53125 74.21875 31.78125 74.21875 
z
" id="DejaVuSans-48"/>
       </defs>
       <use xlink:href="#DejaVuSans-48"/>
      </g>
     </g>
    </g>
    <g id="xtick_2">
     <g id="line2d_3">
      <path clip-path="url(#p758f051cdb)" d="M 117.940625 238.998281 
L 117.940625 21.558281 
" style="fill:none;stroke:#b0b0b0;stroke-linecap:square;stroke-width:0.8;"/>
     </g>
     <g id="line2d_4">
      <g>
       <use style="stroke:#000000;stroke-width:0.8;" x="117.940625" xlink:href="#me20f071e43" y="238.998281"/>
      </g>
     </g>
     <g id="text_2">
      <!-- 50 -->
      <g transform="translate(111.578125 253.596719)scale(0.1 -0.1)">
       <defs>
        <path d="M 10.796875 72.90625 
L 49.515625 72.90625 
L 49.515625 64.59375 
L 19.828125 64.59375 
L 19.828125 46.734375 
Q 21.96875 47.46875 24.109375 47.828125 
Q 26.265625 48.1875 28.421875 48.1875 
Q 40.625 48.1875 47.75 41.5 
Q 54.890625 34.8125 54.890625 23.390625 
Q 54.890625 11.625 47.5625 5.09375 
Q 40.234375 -1.421875 26.90625 -1.421875 
Q 22.3125 -1.421875 17.546875 -0.640625 
Q 12.796875 0.140625 7.71875 1.703125 
L 7.71875 11.625 
Q 12.109375 9.234375 16.796875 8.0625 
Q 21.484375 6.890625 26.703125 6.890625 
Q 35.15625 6.890625 40.078125 11.328125 
Q 45.015625 15.765625 45.015625 23.390625 
Q 45.015625 31 40.078125 35.4375 
Q 35.15625 39.890625 26.703125 39.890625 
Q 22.75 39.890625 18.8125 39.015625 
Q 14.890625 38.140625 10.796875 36.28125 
z
" id="DejaVuSans-53"/>
       </defs>
       <use xlink:href="#DejaVuSans-53"/>
       <use x="63.623047" xlink:href="#DejaVuSans-48"/>
      </g>
     </g>
    </g>
    <g id="xtick_3">
     <g id="line2d_5">
      <path clip-path="url(#p758f051cdb)" d="M 201.640625 238.998281 
L 201.640625 21.558281 
" style="fill:none;stroke:#b0b0b0;stroke-linecap:square;stroke-width:0.8;"/>
     </g>
     <g id="line2d_6">
      <g>
       <use style="stroke:#000000;stroke-width:0.8;" x="201.640625" xlink:href="#me20f071e43" y="238.998281"/>
      </g>
     </g>
     <g id="text_3">
      <!-- 100 -->
      <g transform="translate(192.096875 253.596719)scale(0.1 -0.1)">
       <defs>
        <path d="M 12.40625 8.296875 
L 28.515625 8.296875 
L 28.515625 63.921875 
L 10.984375 60.40625 
L 10.984375 69.390625 
L 28.421875 72.90625 
L 38.28125 72.90625 
L 38.28125 8.296875 
L 54.390625 8.296875 
L 54.390625 0 
L 12.40625 0 
z
" id="DejaVuSans-49"/>
       </defs>
       <use xlink:href="#DejaVuSans-49"/>
       <use x="63.623047" xlink:href="#DejaVuSans-48"/>
       <use x="127.246094" xlink:href="#DejaVuSans-48"/>
      </g>
     </g>
    </g>
    <g id="xtick_4">
     <g id="line2d_7">
      <path clip-path="url(#p758f051cdb)" d="M 285.340625 238.998281 
L 285.340625 21.558281 
" style="fill:none;stroke:#b0b0b0;stroke-linecap:square;stroke-width:0.8;"/>
     </g>
     <g id="line2d_8">
      <g>
       <use style="stroke:#000000;stroke-width:0.8;" x="285.340625" xlink:href="#me20f071e43" y="238.998281"/>
      </g>
     </g>
     <g id="text_4">
      <!-- 150 -->
      <g transform="translate(275.796875 253.596719)scale(0.1 -0.1)">
       <use xlink:href="#DejaVuSans-49"/>
       <use x="63.623047" xlink:href="#DejaVuSans-53"/>
       <use x="127.246094" xlink:href="#DejaVuSans-48"/>
      </g>
     </g>
    </g>
    <g id="xtick_5">
     <g id="line2d_9">
      <path clip-path="url(#p758f051cdb)" d="M 369.040625 238.998281 
L 369.040625 21.558281 
" style="fill:none;stroke:#b0b0b0;stroke-linecap:square;stroke-width:0.8;"/>
     </g>
     <g id="line2d_10">
      <g>
       <use style="stroke:#000000;stroke-width:0.8;" x="369.040625" xlink:href="#me20f071e43" y="238.998281"/>
      </g>
     </g>
     <g id="text_5">
      <!-- 200 -->
      <g transform="translate(359.496875 253.596719)scale(0.1 -0.1)">
       <defs>
        <path d="M 19.1875 8.296875 
L 53.609375 8.296875 
L 53.609375 0 
L 7.328125 0 
L 7.328125 8.296875 
Q 12.9375 14.109375 22.625 23.890625 
Q 32.328125 33.6875 34.8125 36.53125 
Q 39.546875 41.84375 41.421875 45.53125 
Q 43.3125 49.21875 43.3125 52.78125 
Q 43.3125 58.59375 39.234375 62.25 
Q 35.15625 65.921875 28.609375 65.921875 
Q 23.96875 65.921875 18.8125 64.3125 
Q 13.671875 62.703125 7.8125 59.421875 
L 7.8125 69.390625 
Q 13.765625 71.78125 18.9375 73 
Q 24.125 74.21875 28.421875 74.21875 
Q 39.75 74.21875 46.484375 68.546875 
Q 53.21875 62.890625 53.21875 53.421875 
Q 53.21875 48.921875 51.53125 44.890625 
Q 49.859375 40.875 45.40625 35.40625 
Q 44.1875 33.984375 37.640625 27.21875 
Q 31.109375 20.453125 19.1875 8.296875 
z
" id="DejaVuSans-50"/>
       </defs>
       <use xlink:href="#DejaVuSans-50"/>
       <use x="63.623047" xlink:href="#DejaVuSans-48"/>
       <use x="127.246094" xlink:href="#DejaVuSans-48"/>
      </g>
     </g>
    </g>
    <g id="xtick_6">
     <g id="line2d_11">
      <path clip-path="url(#p758f051cdb)" d="M 452.740625 238.998281 
L 452.740625 21.558281 
" style="fill:none;stroke:#b0b0b0;stroke-linecap:square;stroke-width:0.8;"/>
     </g>
     <g id="line2d_12">
      <g>
       <use style="stroke:#000000;stroke-width:0.8;" x="452.740625" xlink:href="#me20f071e43" y="238.998281"/>
      </g>
     </g>
     <g id="text_6">
      <!-- 250 -->
      <g transform="translate(443.196875 253.596719)scale(0.1 -0.1)">
       <use xlink:href="#DejaVuSans-50"/>
       <use x="63.623047" xlink:href="#DejaVuSans-53"/>
       <use x="127.246094" xlink:href="#DejaVuSans-48"/>
      </g>
     </g>
    </g>
    <g id="xtick_7">
     <g id="line2d_13">
      <path clip-path="url(#p758f051cdb)" d="M 536.440625 238.998281 
L 536.440625 21.558281 
" style="fill:none;stroke:#b0b0b0;stroke-linecap:square;stroke-width:0.8;"/>
     </g>
     <g id="line2d_14">
      <g>
       <use style="stroke:#000000;stroke-width:0.8;" x="536.440625" xlink:href="#me20f071e43" y="238.998281"/>
      </g>
     </g>
     <g id="text_7">
      <!-- 300 -->
      <g transform="translate(526.896875 253.596719)scale(0.1 -0.1)">
       <defs>
        <path d="M 40.578125 39.3125 
Q 47.65625 37.796875 51.625 33 
Q 55.609375 28.21875 55.609375 21.1875 
Q 55.609375 10.40625 48.1875 4.484375 
Q 40.765625 -1.421875 27.09375 -1.421875 
Q 22.515625 -1.421875 17.65625 -0.515625 
Q 12.796875 0.390625 7.625 2.203125 
L 7.625 11.71875 
Q 11.71875 9.328125 16.59375 8.109375 
Q 21.484375 6.890625 26.8125 6.890625 
Q 36.078125 6.890625 40.9375 10.546875 
Q 45.796875 14.203125 45.796875 21.1875 
Q 45.796875 27.640625 41.28125 31.265625 
Q 36.765625 34.90625 28.71875 34.90625 
L 20.21875 34.90625 
L 20.21875 43.015625 
L 29.109375 43.015625 
Q 36.375 43.015625 40.234375 45.921875 
Q 44.09375 48.828125 44.09375 54.296875 
Q 44.09375 59.90625 40.109375 62.90625 
Q 36.140625 65.921875 28.71875 65.921875 
Q 24.65625 65.921875 20.015625 65.03125 
Q 15.375 64.15625 9.8125 62.3125 
L 9.8125 71.09375 
Q 15.4375 72.65625 20.34375 73.4375 
Q 25.25 74.21875 29.59375 74.21875 
Q 40.828125 74.21875 47.359375 69.109375 
Q 53.90625 64.015625 53.90625 55.328125 
Q 53.90625 49.265625 50.4375 45.09375 
Q 46.96875 40.921875 40.578125 39.3125 
z
" id="DejaVuSans-51"/>
       </defs>
       <use xlink:href="#DejaVuSans-51"/>
       <use x="63.623047" xlink:href="#DejaVuSans-48"/>
       <use x="127.246094" xlink:href="#DejaVuSans-48"/>
      </g>
     </g>
    </g>
    <g id="xtick_8">
     <g id="line2d_15">
      <path clip-path="url(#p758f051cdb)" d="M 620.140625 238.998281 
L 620.140625 21.558281 
" style="fill:none;stroke:#b0b0b0;stroke-linecap:square;stroke-width:0.8;"/>
     </g>
     <g id="line2d_16">
      <g>
       <use style="stroke:#000000;stroke-width:0.8;" x="620.140625" xlink:href="#me20f071e43" y="238.998281"/>
      </g>
     </g>
     <g id="text_8">
      <!-- 350 -->
      <g transform="translate(610.596875 253.596719)scale(0.1 -0.1)">
       <use xlink:href="#DejaVuSans-51"/>
       <use x="63.623047" xlink:href="#DejaVuSans-53"/>
       <use x="127.246094" xlink:href="#DejaVuSans-48"/>
      </g>
     </g>
    </g>
    <g id="xtick_9">
     <g id="line2d_17">
      <path clip-path="url(#p758f051cdb)" d="M 703.840625 238.998281 
L 703.840625 21.558281 
" style="fill:none;stroke:#b0b0b0;stroke-linecap:square;stroke-width:0.8;"/>
     </g>
     <g id="line2d_18">
      <g>
       <use style="stroke:#000000;stroke-width:0.8;" x="703.840625" xlink:href="#me20f071e43" y="238.998281"/>
      </g>
     </g>
     <g id="text_9">
      <!-- 400 -->
      <g transform="translate(694.296875 253.596719)scale(0.1 -0.1)">
       <defs>
        <path d="M 37.796875 64.3125 
L 12.890625 25.390625 
L 37.796875 25.390625 
z
M 35.203125 72.90625 
L 47.609375 72.90625 
L 47.609375 25.390625 
L 58.015625 25.390625 
L 58.015625 17.1875 
L 47.609375 17.1875 
L 47.609375 0 
L 37.796875 0 
L 37.796875 17.1875 
L 4.890625 17.1875 
L 4.890625 26.703125 
z
" id="DejaVuSans-52"/>
       </defs>
       <use xlink:href="#DejaVuSans-52"/>
       <use x="63.623047" xlink:href="#DejaVuSans-48"/>
       <use x="127.246094" xlink:href="#DejaVuSans-48"/>
      </g>
     </g>
    </g>
    <g id="text_10">
     <!-- Cross-shore distance (m) -->
     <g transform="translate(306.544531 267.274844)scale(0.1 -0.1)">
      <defs>
       <path d="M 64.40625 67.28125 
L 64.40625 56.890625 
Q 59.421875 61.53125 53.78125 63.8125 
Q 48.140625 66.109375 41.796875 66.109375 
Q 29.296875 66.109375 22.65625 58.46875 
Q 16.015625 50.828125 16.015625 36.375 
Q 16.015625 21.96875 22.65625 14.328125 
Q 29.296875 6.6875 41.796875 6.6875 
Q 48.140625 6.6875 53.78125 8.984375 
Q 59.421875 11.28125 64.40625 15.921875 
L 64.40625 5.609375 
Q 59.234375 2.09375 53.4375 0.328125 
Q 47.65625 -1.421875 41.21875 -1.421875 
Q 24.65625 -1.421875 15.125 8.703125 
Q 5.609375 18.84375 5.609375 36.375 
Q 5.609375 53.953125 15.125 64.078125 
Q 24.65625 74.21875 41.21875 74.21875 
Q 47.75 74.21875 53.53125 72.484375 
Q 59.328125 70.75 64.40625 67.28125 
z
" id="DejaVuSans-67"/>
       <path d="M 41.109375 46.296875 
Q 39.59375 47.171875 37.8125 47.578125 
Q 36.03125 48 33.890625 48 
Q 26.265625 48 22.1875 43.046875 
Q 18.109375 38.09375 18.109375 28.8125 
L 18.109375 0 
L 9.078125 0 
L 9.078125 54.6875 
L 18.109375 54.6875 
L 18.109375 46.1875 
Q 20.953125 51.171875 25.484375 53.578125 
Q 30.03125 56 36.53125 56 
Q 37.453125 56 38.578125 55.875 
Q 39.703125 55.765625 41.0625 55.515625 
z
" id="DejaVuSans-114"/>
       <path d="M 30.609375 48.390625 
Q 23.390625 48.390625 19.1875 42.75 
Q 14.984375 37.109375 14.984375 27.296875 
Q 14.984375 17.484375 19.15625 11.84375 
Q 23.34375 6.203125 30.609375 6.203125 
Q 37.796875 6.203125 41.984375 11.859375 
Q 46.1875 17.53125 46.1875 27.296875 
Q 46.1875 37.015625 41.984375 42.703125 
Q 37.796875 48.390625 30.609375 48.390625 
z
M 30.609375 56 
Q 42.328125 56 49.015625 48.375 
Q 55.71875 40.765625 55.71875 27.296875 
Q 55.71875 13.875 49.015625 6.21875 
Q 42.328125 -1.421875 30.609375 -1.421875 
Q 18.84375 -1.421875 12.171875 6.21875 
Q 5.515625 13.875 5.515625 27.296875 
Q 5.515625 40.765625 12.171875 48.375 
Q 18.84375 56 30.609375 56 
z
" id="DejaVuSans-111"/>
       <path d="M 44.28125 53.078125 
L 44.28125 44.578125 
Q 40.484375 46.53125 36.375 47.5 
Q 32.28125 48.484375 27.875 48.484375 
Q 21.1875 48.484375 17.84375 46.4375 
Q 14.5 44.390625 14.5 40.28125 
Q 14.5 37.15625 16.890625 35.375 
Q 19.28125 33.59375 26.515625 31.984375 
L 29.59375 31.296875 
Q 39.15625 29.25 43.1875 25.515625 
Q 47.21875 21.78125 47.21875 15.09375 
Q 47.21875 7.46875 41.1875 3.015625 
Q 35.15625 -1.421875 24.609375 -1.421875 
Q 20.21875 -1.421875 15.453125 -0.5625 
Q 10.6875 0.296875 5.421875 2 
L 5.421875 11.28125 
Q 10.40625 8.6875 15.234375 7.390625 
Q 20.0625 6.109375 24.8125 6.109375 
Q 31.15625 6.109375 34.5625 8.28125 
Q 37.984375 10.453125 37.984375 14.40625 
Q 37.984375 18.0625 35.515625 20.015625 
Q 33.0625 21.96875 24.703125 23.78125 
L 21.578125 24.515625 
Q 13.234375 26.265625 9.515625 29.90625 
Q 5.8125 33.546875 5.8125 39.890625 
Q 5.8125 47.609375 11.28125 51.796875 
Q 16.75 56 26.8125 56 
Q 31.78125 56 36.171875 55.265625 
Q 40.578125 54.546875 44.28125 53.078125 
z
" id="DejaVuSans-115"/>
       <path d="M 4.890625 31.390625 
L 31.203125 31.390625 
L 31.203125 23.390625 
L 4.890625 23.390625 
z
" id="DejaVuSans-45"/>
       <path d="M 54.890625 33.015625 
L 54.890625 0 
L 45.90625 0 
L 45.90625 32.71875 
Q 45.90625 40.484375 42.875 44.328125 
Q 39.84375 48.1875 33.796875 48.1875 
Q 26.515625 48.1875 22.3125 43.546875 
Q 18.109375 38.921875 18.109375 30.90625 
L 18.109375 0 
L 9.078125 0 
L 9.078125 75.984375 
L 18.109375 75.984375 
L 18.109375 46.1875 
Q 21.34375 51.125 25.703125 53.5625 
Q 30.078125 56 35.796875 56 
Q 45.21875 56 50.046875 50.171875 
Q 54.890625 44.34375 54.890625 33.015625 
z
" id="DejaVuSans-104"/>
       <path d="M 56.203125 29.59375 
L 56.203125 25.203125 
L 14.890625 25.203125 
Q 15.484375 15.921875 20.484375 11.0625 
Q 25.484375 6.203125 34.421875 6.203125 
Q 39.59375 6.203125 44.453125 7.46875 
Q 49.3125 8.734375 54.109375 11.28125 
L 54.109375 2.78125 
Q 49.265625 0.734375 44.1875 -0.34375 
Q 39.109375 -1.421875 33.890625 -1.421875 
Q 20.796875 -1.421875 13.15625 6.1875 
Q 5.515625 13.8125 5.515625 26.8125 
Q 5.515625 40.234375 12.765625 48.109375 
Q 20.015625 56 32.328125 56 
Q 43.359375 56 49.78125 48.890625 
Q 56.203125 41.796875 56.203125 29.59375 
z
M 47.21875 32.234375 
Q 47.125 39.59375 43.09375 43.984375 
Q 39.0625 48.390625 32.421875 48.390625 
Q 24.90625 48.390625 20.390625 44.140625 
Q 15.875 39.890625 15.1875 32.171875 
z
" id="DejaVuSans-101"/>
       <path id="DejaVuSans-32"/>
       <path d="M 45.40625 46.390625 
L 45.40625 75.984375 
L 54.390625 75.984375 
L 54.390625 0 
L 45.40625 0 
L 45.40625 8.203125 
Q 42.578125 3.328125 38.25 0.953125 
Q 33.9375 -1.421875 27.875 -1.421875 
Q 17.96875 -1.421875 11.734375 6.484375 
Q 5.515625 14.40625 5.515625 27.296875 
Q 5.515625 40.1875 11.734375 48.09375 
Q 17.96875 56 27.875 56 
Q 33.9375 56 38.25 53.625 
Q 42.578125 51.265625 45.40625 46.390625 
z
M 14.796875 27.296875 
Q 14.796875 17.390625 18.875 11.75 
Q 22.953125 6.109375 30.078125 6.109375 
Q 37.203125 6.109375 41.296875 11.75 
Q 45.40625 17.390625 45.40625 27.296875 
Q 45.40625 37.203125 41.296875 42.84375 
Q 37.203125 48.484375 30.078125 48.484375 
Q 22.953125 48.484375 18.875 42.84375 
Q 14.796875 37.203125 14.796875 27.296875 
z
" id="DejaVuSans-100"/>
       <path d="M 9.421875 54.6875 
L 18.40625 54.6875 
L 18.40625 0 
L 9.421875 0 
z
M 9.421875 75.984375 
L 18.40625 75.984375 
L 18.40625 64.59375 
L 9.421875 64.59375 
z
" id="DejaVuSans-105"/>
       <path d="M 18.3125 70.21875 
L 18.3125 54.6875 
L 36.8125 54.6875 
L 36.8125 47.703125 
L 18.3125 47.703125 
L 18.3125 18.015625 
Q 18.3125 11.328125 20.140625 9.421875 
Q 21.96875 7.515625 27.59375 7.515625 
L 36.8125 7.515625 
L 36.8125 0 
L 27.59375 0 
Q 17.1875 0 13.234375 3.875 
Q 9.28125 7.765625 9.28125 18.015625 
L 9.28125 47.703125 
L 2.6875 47.703125 
L 2.6875 54.6875 
L 9.28125 54.6875 
L 9.28125 70.21875 
z
" id="DejaVuSans-116"/>
       <path d="M 34.28125 27.484375 
Q 23.390625 27.484375 19.1875 25 
Q 14.984375 22.515625 14.984375 16.5 
Q 14.984375 11.71875 18.140625 8.90625 
Q 21.296875 6.109375 26.703125 6.109375 
Q 34.1875 6.109375 38.703125 11.40625 
Q 43.21875 16.703125 43.21875 25.484375 
L 43.21875 27.484375 
z
M 52.203125 31.203125 
L 52.203125 0 
L 43.21875 0 
L 43.21875 8.296875 
Q 40.140625 3.328125 35.546875 0.953125 
Q 30.953125 -1.421875 24.3125 -1.421875 
Q 15.921875 -1.421875 10.953125 3.296875 
Q 6 8.015625 6 15.921875 
Q 6 25.140625 12.171875 29.828125 
Q 18.359375 34.515625 30.609375 34.515625 
L 43.21875 34.515625 
L 43.21875 35.40625 
Q 43.21875 41.609375 39.140625 45 
Q 35.0625 48.390625 27.6875 48.390625 
Q 23 48.390625 18.546875 47.265625 
Q 14.109375 46.140625 10.015625 43.890625 
L 10.015625 52.203125 
Q 14.9375 54.109375 19.578125 55.046875 
Q 24.21875 56 28.609375 56 
Q 40.484375 56 46.34375 49.84375 
Q 52.203125 43.703125 52.203125 31.203125 
z
" id="DejaVuSans-97"/>
       <path d="M 54.890625 33.015625 
L 54.890625 0 
L 45.90625 0 
L 45.90625 32.71875 
Q 45.90625 40.484375 42.875 44.328125 
Q 39.84375 48.1875 33.796875 48.1875 
Q 26.515625 48.1875 22.3125 43.546875 
Q 18.109375 38.921875 18.109375 30.90625 
L 18.109375 0 
L 9.078125 0 
L 9.078125 54.6875 
L 18.109375 54.6875 
L 18.109375 46.1875 
Q 21.34375 51.125 25.703125 53.5625 
Q 30.078125 56 35.796875 56 
Q 45.21875 56 50.046875 50.171875 
Q 54.890625 44.34375 54.890625 33.015625 
z
" id="DejaVuSans-110"/>
       <path d="M 48.78125 52.59375 
L 48.78125 44.1875 
Q 44.96875 46.296875 41.140625 47.34375 
Q 37.3125 48.390625 33.40625 48.390625 
Q 24.65625 48.390625 19.8125 42.84375 
Q 14.984375 37.3125 14.984375 27.296875 
Q 14.984375 17.28125 19.8125 11.734375 
Q 24.65625 6.203125 33.40625 6.203125 
Q 37.3125 6.203125 41.140625 7.25 
Q 44.96875 8.296875 48.78125 10.40625 
L 48.78125 2.09375 
Q 45.015625 0.34375 40.984375 -0.53125 
Q 36.96875 -1.421875 32.421875 -1.421875 
Q 20.0625 -1.421875 12.78125 6.34375 
Q 5.515625 14.109375 5.515625 27.296875 
Q 5.515625 40.671875 12.859375 48.328125 
Q 20.21875 56 33.015625 56 
Q 37.15625 56 41.109375 55.140625 
Q 45.0625 54.296875 48.78125 52.59375 
z
" id="DejaVuSans-99"/>
       <path d="M 31 75.875 
Q 24.46875 64.65625 21.28125 53.65625 
Q 18.109375 42.671875 18.109375 31.390625 
Q 18.109375 20.125 21.3125 9.0625 
Q 24.515625 -2 31 -13.1875 
L 23.1875 -13.1875 
Q 15.875 -1.703125 12.234375 9.375 
Q 8.59375 20.453125 8.59375 31.390625 
Q 8.59375 42.28125 12.203125 53.3125 
Q 15.828125 64.359375 23.1875 75.875 
z
" id="DejaVuSans-40"/>
       <path d="M 52 44.1875 
Q 55.375 50.25 60.0625 53.125 
Q 64.75 56 71.09375 56 
Q 79.640625 56 84.28125 50.015625 
Q 88.921875 44.046875 88.921875 33.015625 
L 88.921875 0 
L 79.890625 0 
L 79.890625 32.71875 
Q 79.890625 40.578125 77.09375 44.375 
Q 74.3125 48.1875 68.609375 48.1875 
Q 61.625 48.1875 57.5625 43.546875 
Q 53.515625 38.921875 53.515625 30.90625 
L 53.515625 0 
L 44.484375 0 
L 44.484375 32.71875 
Q 44.484375 40.625 41.703125 44.40625 
Q 38.921875 48.1875 33.109375 48.1875 
Q 26.21875 48.1875 22.15625 43.53125 
Q 18.109375 38.875 18.109375 30.90625 
L 18.109375 0 
L 9.078125 0 
L 9.078125 54.6875 
L 18.109375 54.6875 
L 18.109375 46.1875 
Q 21.1875 51.21875 25.484375 53.609375 
Q 29.78125 56 35.6875 56 
Q 41.65625 56 45.828125 52.96875 
Q 50 49.953125 52 44.1875 
z
" id="DejaVuSans-109"/>
       <path d="M 8.015625 75.875 
L 15.828125 75.875 
Q 23.140625 64.359375 26.78125 53.3125 
Q 30.421875 42.28125 30.421875 31.390625 
Q 30.421875 20.453125 26.78125 9.375 
Q 23.140625 -1.703125 15.828125 -13.1875 
L 8.015625 -13.1875 
Q 14.5 -2 17.703125 9.0625 
Q 20.90625 20.125 20.90625 31.390625 
Q 20.90625 42.671875 17.703125 53.65625 
Q 14.5 64.65625 8.015625 75.875 
z
" id="DejaVuSans-41"/>
      </defs>
      <use xlink:href="#DejaVuSans-67"/>
      <use x="69.824219" xlink:href="#DejaVuSans-114"/>
      <use x="108.6875" xlink:href="#DejaVuSans-111"/>
      <use x="169.869141" xlink:href="#DejaVuSans-115"/>
      <use x="221.96875" xlink:href="#DejaVuSans-115"/>
      <use x="274.068359" xlink:href="#DejaVuSans-45"/>
      <use x="310.152344" xlink:href="#DejaVuSans-115"/>
      <use x="362.251953" xlink:href="#DejaVuSans-104"/>
      <use x="425.630859" xlink:href="#DejaVuSans-111"/>
      <use x="486.8125" xlink:href="#DejaVuSans-114"/>
      <use x="525.675781" xlink:href="#DejaVuSans-101"/>
      <use x="587.199219" xlink:href="#DejaVuSans-32"/>
      <use x="618.986328" xlink:href="#DejaVuSans-100"/>
      <use x="682.462891" xlink:href="#DejaVuSans-105"/>
      <use x="710.246094" xlink:href="#DejaVuSans-115"/>
      <use x="762.345703" xlink:href="#DejaVuSans-116"/>
      <use x="801.554688" xlink:href="#DejaVuSans-97"/>
      <use x="862.833984" xlink:href="#DejaVuSans-110"/>
      <use x="926.212891" xlink:href="#DejaVuSans-99"/>
      <use x="981.193359" xlink:href="#DejaVuSans-101"/>
      <use x="1042.716797" xlink:href="#DejaVuSans-32"/>
      <use x="1074.503906" xlink:href="#DejaVuSans-40"/>
      <use x="1113.517578" xlink:href="#DejaVuSans-109"/>
      <use x="1210.929688" xlink:href="#DejaVuSans-41"/>
     </g>
    </g>
   </g>
   <g id="matplotlib.axis_2">
    <g id="ytick_1">
     <g id="line2d_19">
      <path clip-path="url(#p758f051cdb)" d="M 34.240625 238.998281 
L 703.840625 238.998281 
" style="fill:none;stroke:#b0b0b0;stroke-linecap:square;stroke-width:0.8;"/>
     </g>
     <g id="line2d_20">
      <defs>
       <path d="M 0 0 
L -3.5 0 
" id="m9097ad88db" style="stroke:#000000;stroke-width:0.8;"/>
      </defs>
      <g>
       <use style="stroke:#000000;stroke-width:0.8;" x="34.240625" xlink:href="#m9097ad88db" y="238.998281"/>
      </g>
     </g>
     <g id="text_11">
      <!-- 0 -->
      <g transform="translate(20.878125 242.7975)scale(0.1 -0.1)">
       <use xlink:href="#DejaVuSans-48"/>
      </g>
     </g>
    </g>
    <g id="ytick_2">
     <g id="line2d_21">
      <path clip-path="url(#p758f051cdb)" d="M 34.240625 195.510281 
L 703.840625 195.510281 
" style="fill:none;stroke:#b0b0b0;stroke-linecap:square;stroke-width:0.8;"/>
     </g>
     <g id="line2d_22">
      <g>
       <use style="stroke:#000000;stroke-width:0.8;" x="34.240625" xlink:href="#m9097ad88db" y="195.510281"/>
      </g>
     </g>
     <g id="text_12">
      <!-- 1 -->
      <g transform="translate(20.878125 199.3095)scale(0.1 -0.1)">
       <use xlink:href="#DejaVuSans-49"/>
      </g>
     </g>
    </g>
    <g id="ytick_3">
     <g id="line2d_23">
      <path clip-path="url(#p758f051cdb)" d="M 34.240625 152.022281 
L 703.840625 152.022281 
" style="fill:none;stroke:#b0b0b0;stroke-linecap:square;stroke-width:0.8;"/>
     </g>
     <g id="line2d_24">
      <g>
       <use style="stroke:#000000;stroke-width:0.8;" x="34.240625" xlink:href="#m9097ad88db" y="152.022281"/>
      </g>
     </g>
     <g id="text_13">
      <!-- 2 -->
      <g transform="translate(20.878125 155.8215)scale(0.1 -0.1)">
       <use xlink:href="#DejaVuSans-50"/>
      </g>
     </g>
    </g>
    <g id="ytick_4">
     <g id="line2d_25">
      <path clip-path="url(#p758f051cdb)" d="M 34.240625 108.534281 
L 703.840625 108.534281 
" style="fill:none;stroke:#b0b0b0;stroke-linecap:square;stroke-width:0.8;"/>
     </g>
     <g id="line2d_26">
      <g>
       <use style="stroke:#000000;stroke-width:0.8;" x="34.240625" xlink:href="#m9097ad88db" y="108.534281"/>
      </g>
     </g>
     <g id="text_14">
      <!-- 3 -->
      <g transform="translate(20.878125 112.3335)scale(0.1 -0.1)">
       <use xlink:href="#DejaVuSans-51"/>
      </g>
     </g>
    </g>
    <g id="ytick_5">
     <g id="line2d_27">
      <path clip-path="url(#p758f051cdb)" d="M 34.240625 65.046281 
L 703.840625 65.046281 
" style="fill:none;stroke:#b0b0b0;stroke-linecap:square;stroke-width:0.8;"/>
     </g>
     <g id="line2d_28">
      <g>
       <use style="stroke:#000000;stroke-width:0.8;" x="34.240625" xlink:href="#m9097ad88db" y="65.046281"/>
      </g>
     </g>
     <g id="text_15">
      <!-- 4 -->
      <g transform="translate(20.878125 68.8455)scale(0.1 -0.1)">
       <use xlink:href="#DejaVuSans-52"/>
      </g>
     </g>
    </g>
    <g id="ytick_6">
     <g id="line2d_29">
      <path clip-path="url(#p758f051cdb)" d="M 34.240625 21.558281 
L 703.840625 21.558281 
" style="fill:none;stroke:#b0b0b0;stroke-linecap:square;stroke-width:0.8;"/>
     </g>
     <g id="line2d_30">
      <g>
       <use style="stroke:#000000;stroke-width:0.8;" x="34.240625" xlink:href="#m9097ad88db" y="21.558281"/>
      </g>
     </g>
     <g id="text_16">
      <!-- 5 -->
      <g transform="translate(20.878125 25.3575)scale(0.1 -0.1)">
       <use xlink:href="#DejaVuSans-53"/>
      </g>
     </g>
    </g>
    <g id="text_17">
     <!-- Elevation (m) -->
     <g transform="translate(14.798438 163.865)rotate(-90)scale(0.1 -0.1)">
      <defs>
       <path d="M 9.8125 72.90625 
L 55.90625 72.90625 
L 55.90625 64.59375 
L 19.671875 64.59375 
L 19.671875 43.015625 
L 54.390625 43.015625 
L 54.390625 34.71875 
L 19.671875 34.71875 
L 19.671875 8.296875 
L 56.78125 8.296875 
L 56.78125 0 
L 9.8125 0 
z
" id="DejaVuSans-69"/>
       <path d="M 9.421875 75.984375 
L 18.40625 75.984375 
L 18.40625 0 
L 9.421875 0 
z
" id="DejaVuSans-108"/>
       <path d="M 2.984375 54.6875 
L 12.5 54.6875 
L 29.59375 8.796875 
L 46.6875 54.6875 
L 56.203125 54.6875 
L 35.6875 0 
L 23.484375 0 
z
" id="DejaVuSans-118"/>
      </defs>
      <use xlink:href="#DejaVuSans-69"/>
      <use x="63.183594" xlink:href="#DejaVuSans-108"/>
      <use x="90.966797" xlink:href="#DejaVuSans-101"/>
      <use x="152.490234" xlink:href="#DejaVuSans-118"/>
      <use x="211.669922" xlink:href="#DejaVuSans-97"/>
      <use x="272.949219" xlink:href="#DejaVuSans-116"/>
      <use x="312.158203" xlink:href="#DejaVuSans-105"/>
      <use x="339.941406" xlink:href="#DejaVuSans-111"/>
      <use x="401.123047" xlink:href="#DejaVuSans-110"/>
      <use x="464.501953" xlink:href="#DejaVuSans-32"/>
      <use x="496.289062" xlink:href="#DejaVuSans-40"/>
      <use x="535.302734" xlink:href="#DejaVuSans-109"/>
      <use x="632.714844" xlink:href="#DejaVuSans-41"/>
     </g>
    </g>
   </g>
   <g id="line2d_31">
    <path clip-path="url(#p758f051cdb)" d="M 34.240625 200.735976 
L 38.425625 200.735976 
L 42.610625 202.235618 
L 46.795625 206.331931 
L 50.980625 212.000401 
L 55.165625 214.712512 
L 59.350625 214.712512 
L 63.535625 209.280313 
L 67.720625 197.166732 
L 71.905625 184.10597 
L 76.090625 184.10597 
L 80.275625 187.697363 
L 84.460625 199.584464 
L 88.645625 212.331443 
L 92.830625 219.669896 
L 97.015625 219.669896 
L 101.200625 215.72658 
L 105.385625 211.430813 
L 109.570625 211.301448 
L 113.755625 210.982532 
L 117.940625 207.794449 
L 122.125625 202.725749 
L 126.310625 201.92106 
L 130.495625 200.772949 
L 134.680625 198.570499 
L 138.865625 191.099463 
L 143.050625 190.249439 
L 147.235625 190.249439 
L 151.420625 200.079839 
L 155.605625 204.208712 
L 159.790625 204.208712 
L 163.975625 204.02517 
L 168.160625 200.516394 
L 172.345625 197.36212 
L 176.530625 196.276155 
L 180.715625 195.462625 
L 184.900625 190.46905 
L 189.085625 188.789511 
L 193.270625 188.789511 
L 197.455625 195.39051 
L 201.640625 195.39051 
L 205.825625 193.640151 
L 214.195625 190.531079 
L 226.750625 190.537914 
L 230.935625 189.865231 
L 235.120625 180.073574 
L 239.305625 166.268759 
L 243.490625 166.268759 
L 247.675625 170.008568 
L 251.860625 180.507562 
L 256.045625 180.507562 
L 260.230625 176.108732 
L 264.415625 168.565182 
L 268.600625 168.565182 
L 272.785625 170.262923 
L 276.970625 177.258075 
L 281.155625 177.258075 
L 285.340625 171.166629 
L 289.525625 166.096985 
L 293.710625 159.568859 
L 297.895625 159.310784 
L 306.265625 159.310784 
L 310.450625 158.625991 
L 314.635625 157.149967 
L 318.820625 157.149967 
L 323.005625 158.855721 
L 327.190625 165.692471 
L 331.375625 173.03558 
L 335.560625 176.319893 
L 339.745625 177.582736 
L 343.930625 178.347177 
L 348.115625 178.347177 
L 352.300625 169.376444 
L 356.485625 169.247229 
L 360.670625 169.247229 
L 364.855625 167.551455 
L 369.040625 164.735702 
L 373.225625 161.288298 
L 377.410625 153.088553 
L 381.595625 138.689586 
L 385.780625 133.154495 
L 389.965625 133.154495 
L 394.150625 135.913257 
L 398.335625 135.918076 
L 402.520625 138.816689 
L 406.705625 145.575896 
L 410.890625 150.554952 
L 415.075625 153.872216 
L 419.260625 159.653485 
L 423.445625 169.067415 
L 427.630625 174.082418 
L 431.815625 174.082418 
L 436.000625 161.501702 
L 440.185625 147.637448 
L 444.370625 140.815975 
L 448.555625 140.815975 
L 452.740625 143.623941 
L 456.925625 147.081633 
L 461.110625 150.25128 
L 465.295625 153.135021 
L 469.480625 158.309925 
L 473.665625 162.927901 
L 477.850625 165.696765 
L 482.035625 167.373822 
L 486.220625 170.070229 
L 490.405625 174.617031 
L 494.590625 178.364297 
L 498.775625 180.676669 
L 502.960625 183.350099 
L 507.145625 186.913088 
L 511.330625 190.734447 
L 515.515625 193.189168 
L 519.700625 194.554448 
L 523.885625 197.518439 
L 528.070625 203.872954 
L 532.255625 217.260068 
L 536.440625 232.534647 
L 540.625625 238.998281 
L 779.000625 238.998281 
L 779.000625 238.998281 
" style="fill:none;stroke:#000000;stroke-linecap:square;stroke-width:1.5;"/>
   </g>
   <g id="line2d_32">
    <defs>
     <path d="M 0 6 
C 1.591219 6 3.117479 5.367802 4.242641 4.242641 
C 5.367802 3.117479 6 1.591219 6 0 
C 6 -1.591219 5.367802 -3.117479 4.242641 -4.242641 
C 3.117479 -5.367802 1.591219 -6 0 -6 
C -1.591219 -6 -3.117479 -5.367802 -4.242641 -4.242641 
C -5.367802 -3.117479 -6 -1.591219 -6 0 
C -6 1.591219 -5.367802 3.117479 -4.242641 4.242641 
C -3.117479 5.367802 -1.591219 6 0 6 
z
" id="m9df195cb4c" style="stroke:#000000;"/>
    </defs>
    <g clip-path="url(#p758f051cdb)">
     <use style="stroke:#000000;" x="482.035625" xlink:href="#m9df195cb4c" y="167.373822"/>
    </g>
   </g>
   <g id="line2d_33">
    <defs>
     <path d="M 0 6 
C 1.591219 6 3.117479 5.367802 4.242641 4.242641 
C 5.367802 3.117479 6 1.591219 6 0 
C 6 -1.591219 5.367802 -3.117479 4.242641 -4.242641 
C 3.117479 -5.367802 1.591219 -6 0 -6 
C -1.591219 -6 -3.117479 -5.367802 -4.242641 -4.242641 
C -5.367802 -3.117479 -6 -1.591219 -6 0 
C -6 1.591219 -5.367802 3.117479 -4.242641 4.242641 
C -3.117479 5.367802 -1.591219 6 0 6 
z
" id="m2604370ce2" style="stroke:#000000;"/>
    </defs>
    <g clip-path="url(#p758f051cdb)">
     <use style="fill:#ff6347;stroke:#000000;" x="477.850625" xlink:href="#m2604370ce2" y="165.696765"/>
    </g>
   </g>
   <g id="line2d_34">
    <defs>
     <path d="M 0 6 
C 1.591219 6 3.117479 5.367802 4.242641 4.242641 
C 5.367802 3.117479 6 1.591219 6 0 
C 6 -1.591219 5.367802 -3.117479 4.242641 -4.242641 
C 3.117479 -5.367802 1.591219 -6 0 -6 
C -1.591219 -6 -3.117479 -5.367802 -4.242641 -4.242641 
C -5.367802 -3.117479 -6 -1.591219 -6 0 
C -6 1.591219 -5.367802 3.117479 -4.242641 4.242641 
C -3.117479 5.367802 -1.591219 6 0 6 
z
" id="ma793d07b99" style="stroke:#000000;"/>
    </defs>
    <g clip-path="url(#p758f051cdb)">
     <use style="fill:#6495ed;stroke:#000000;" x="473.665625" xlink:href="#ma793d07b99" y="162.927901"/>
    </g>
   </g>
   <g id="line2d_35">
    <defs>
     <path d="M 0 6 
C 1.591219 6 3.117479 5.367802 4.242641 4.242641 
C 5.367802 3.117479 6 1.591219 6 0 
C 6 -1.591219 5.367802 -3.117479 4.242641 -4.242641 
C 3.117479 -5.367802 1.591219 -6 0 -6 
C -1.591219 -6 -3.117479 -5.367802 -4.242641 -4.242641 
C -5.367802 -3.117479 -6 -1.591219 -6 0 
C -6 1.591219 -5.367802 3.117479 -4.242641 4.242641 
C -3.117479 5.367802 -1.591219 6 0 6 
z
" id="maa585d8b2d" style="stroke:#000000;"/>
    </defs>
    <g clip-path="url(#p758f051cdb)">
     <use style="fill:#ffd700;stroke:#000000;" x="473.665625" xlink:href="#maa585d8b2d" y="162.927901"/>
    </g>
   </g>
   <g id="line2d_36">
    <defs>
     <path d="M 0 6 
C 1.591219 6 3.117479 5.367802 4.242641 4.242641 
C 5.367802 3.117479 6 1.591219 6 0 
C 6 -1.591219 5.367802 -3.117479 4.242641 -4.242641 
C 3.117479 -5.367802 1.591219 -6 0 -6 
C -1.591219 -6 -3.117479 -5.367802 -4.242641 -4.242641 
C -5.367802 -3.117479 -6 -1.591219 -6 0 
C -6 1.591219 -5.367802 3.117479 -4.242641 4.242641 
C -3.117479 5.367802 -1.591219 6 0 6 
z
" id="m48499c8113" style="stroke:#000000;"/>
    </defs>
    <g clip-path="url(#p758f051cdb)">
     <use style="fill:#32cd32;stroke:#000000;" x="448.555625" xlink:href="#m48499c8113" y="140.815975"/>
    </g>
   </g>
   <g id="line2d_37">
    <defs>
     <path d="M -0 6 
L 6 -6 
L -6 -6 
z
" id="mc2adfb18f4" style="stroke:#000000;stroke-linejoin:miter;"/>
    </defs>
    <g clip-path="url(#p758f051cdb)">
     <use style="stroke:#000000;stroke-linejoin:miter;" x="385.780625" xlink:href="#mc2adfb18f4" y="133.154495"/>
    </g>
   </g>
   <g id="line2d_38">
    <defs>
     <path d="M 0 -6 
L -6 6 
L 6 6 
z
" id="m809a6c282e" style="stroke:#000000;stroke-linejoin:miter;"/>
    </defs>
    <g clip-path="url(#p758f051cdb)">
     <use style="stroke:#000000;stroke-linejoin:miter;" x="540.625625" xlink:href="#m809a6c282e" y="238.998281"/>
    </g>
   </g>
   <g id="patch_4">
    <path d="M 34.240625 238.998281 
L 34.240625 21.558281 
" style="fill:none;stroke:#000000;stroke-linecap:square;stroke-linejoin:miter;stroke-width:0.8;"/>
   </g>
   <g id="patch_5">
    <path d="M 703.840625 238.998281 
L 703.840625 21.558281 
" style="fill:none;stroke:#000000;stroke-linecap:square;stroke-linejoin:miter;stroke-width:0.8;"/>
   </g>
   <g id="patch_6">
    <path d="M 34.240625 238.998281 
L 703.840625 238.998281 
" style="fill:none;stroke:#000000;stroke-linecap:square;stroke-linejoin:miter;stroke-width:0.8;"/>
   </g>
   <g id="patch_7">
    <path d="M 34.240625 21.558281 
L 703.840625 21.558281 
" style="fill:none;stroke:#000000;stroke-linecap:square;stroke-linejoin:miter;stroke-width:0.8;"/>
   </g>
   <g id="text_18">
    <!-- Example profile -->
    <g transform="translate(326.059844 15.558281)scale(0.11 -0.11)">
     <defs>
      <path d="M 54.890625 54.6875 
L 35.109375 28.078125 
L 55.90625 0 
L 45.3125 0 
L 29.390625 21.484375 
L 13.484375 0 
L 2.875 0 
L 24.125 28.609375 
L 4.6875 54.6875 
L 15.28125 54.6875 
L 29.78125 35.203125 
L 44.28125 54.6875 
z
" id="DejaVuSans-120"/>
      <path d="M 18.109375 8.203125 
L 18.109375 -20.796875 
L 9.078125 -20.796875 
L 9.078125 54.6875 
L 18.109375 54.6875 
L 18.109375 46.390625 
Q 20.953125 51.265625 25.265625 53.625 
Q 29.59375 56 35.59375 56 
Q 45.5625 56 51.78125 48.09375 
Q 58.015625 40.1875 58.015625 27.296875 
Q 58.015625 14.40625 51.78125 6.484375 
Q 45.5625 -1.421875 35.59375 -1.421875 
Q 29.59375 -1.421875 25.265625 0.953125 
Q 20.953125 3.328125 18.109375 8.203125 
z
M 48.6875 27.296875 
Q 48.6875 37.203125 44.609375 42.84375 
Q 40.53125 48.484375 33.40625 48.484375 
Q 26.265625 48.484375 22.1875 42.84375 
Q 18.109375 37.203125 18.109375 27.296875 
Q 18.109375 17.390625 22.1875 11.75 
Q 26.265625 6.109375 33.40625 6.109375 
Q 40.53125 6.109375 44.609375 11.75 
Q 48.6875 17.390625 48.6875 27.296875 
z
" id="DejaVuSans-112"/>
      <path d="M 37.109375 75.984375 
L 37.109375 68.5 
L 28.515625 68.5 
Q 23.6875 68.5 21.796875 66.546875 
Q 19.921875 64.59375 19.921875 59.515625 
L 19.921875 54.6875 
L 34.71875 54.6875 
L 34.71875 47.703125 
L 19.921875 47.703125 
L 19.921875 0 
L 10.890625 0 
L 10.890625 47.703125 
L 2.296875 47.703125 
L 2.296875 54.6875 
L 10.890625 54.6875 
L 10.890625 58.5 
Q 10.890625 67.625 15.140625 71.796875 
Q 19.390625 75.984375 28.609375 75.984375 
z
" id="DejaVuSans-102"/>
     </defs>
     <use xlink:href="#DejaVuSans-69"/>
     <use x="63.183594" xlink:href="#DejaVuSans-120"/>
     <use x="122.363281" xlink:href="#DejaVuSans-97"/>
     <use x="183.642578" xlink:href="#DejaVuSans-109"/>
     <use x="281.054688" xlink:href="#DejaVuSans-112"/>
     <use x="344.53125" xlink:href="#DejaVuSans-108"/>
     <use x="372.314453" xlink:href="#DejaVuSans-101"/>
     <use x="433.837891" xlink:href="#DejaVuSans-32"/>
     <use x="465.625" xlink:href="#DejaVuSans-112"/>
     <use x="529.101562" xlink:href="#DejaVuSans-114"/>
     <use x="567.964844" xlink:href="#DejaVuSans-111"/>
     <use x="629.146484" xlink:href="#DejaVuSans-102"/>
     <use x="664.351562" xlink:href="#DejaVuSans-105"/>
     <use x="692.134766" xlink:href="#DejaVuSans-108"/>
     <use x="719.917969" xlink:href="#DejaVuSans-101"/>
    </g>
   </g>
   <g id="legend_1">
    <g id="patch_8">
     <path d="M 550.539062 146.983281 
L 696.840625 146.983281 
Q 698.840625 146.983281 698.840625 144.983281 
L 698.840625 28.558281 
Q 698.840625 26.558281 696.840625 26.558281 
L 550.539062 26.558281 
Q 548.539062 26.558281 548.539062 28.558281 
L 548.539062 144.983281 
Q 548.539062 146.983281 550.539062 146.983281 
z
" style="fill:#ffffff;stroke:#cccccc;stroke-linejoin:miter;"/>
    </g>
    <g id="line2d_39"/>
    <g id="line2d_40">
     <g>
      <use style="stroke:#000000;" x="562.539062" xlink:href="#m9df195cb4c" y="34.656719"/>
     </g>
    </g>
    <g id="text_19">
     <!-- True toe -->
     <g transform="translate(580.539062 38.156719)scale(0.1 -0.1)">
      <defs>
       <path d="M -0.296875 72.90625 
L 61.375 72.90625 
L 61.375 64.59375 
L 35.5 64.59375 
L 35.5 0 
L 25.59375 0 
L 25.59375 64.59375 
L -0.296875 64.59375 
z
" id="DejaVuSans-84"/>
       <path d="M 8.5 21.578125 
L 8.5 54.6875 
L 17.484375 54.6875 
L 17.484375 21.921875 
Q 17.484375 14.15625 20.5 10.265625 
Q 23.53125 6.390625 29.59375 6.390625 
Q 36.859375 6.390625 41.078125 11.03125 
Q 45.3125 15.671875 45.3125 23.6875 
L 45.3125 54.6875 
L 54.296875 54.6875 
L 54.296875 0 
L 45.3125 0 
L 45.3125 8.40625 
Q 42.046875 3.421875 37.71875 1 
Q 33.40625 -1.421875 27.6875 -1.421875 
Q 18.265625 -1.421875 13.375 4.4375 
Q 8.5 10.296875 8.5 21.578125 
z
M 31.109375 56 
z
" id="DejaVuSans-117"/>
      </defs>
      <use xlink:href="#DejaVuSans-84"/>
      <use x="46.333984" xlink:href="#DejaVuSans-114"/>
      <use x="87.447266" xlink:href="#DejaVuSans-117"/>
      <use x="150.826172" xlink:href="#DejaVuSans-101"/>
      <use x="212.349609" xlink:href="#DejaVuSans-32"/>
      <use x="244.136719" xlink:href="#DejaVuSans-116"/>
      <use x="283.345703" xlink:href="#DejaVuSans-111"/>
      <use x="344.527344" xlink:href="#DejaVuSans-101"/>
     </g>
    </g>
    <g id="line2d_41"/>
    <g id="line2d_42">
     <g>
      <use style="fill:#ff6347;stroke:#000000;" x="562.539062" xlink:href="#m2604370ce2" y="49.334844"/>
     </g>
    </g>
    <g id="text_20">
     <!-- Machine learning -->
     <g transform="translate(580.539062 52.834844)scale(0.1 -0.1)">
      <defs>
       <path d="M 9.8125 72.90625 
L 24.515625 72.90625 
L 43.109375 23.296875 
L 61.8125 72.90625 
L 76.515625 72.90625 
L 76.515625 0 
L 66.890625 0 
L 66.890625 64.015625 
L 48.09375 14.015625 
L 38.1875 14.015625 
L 19.390625 64.015625 
L 19.390625 0 
L 9.8125 0 
z
" id="DejaVuSans-77"/>
       <path d="M 45.40625 27.984375 
Q 45.40625 37.75 41.375 43.109375 
Q 37.359375 48.484375 30.078125 48.484375 
Q 22.859375 48.484375 18.828125 43.109375 
Q 14.796875 37.75 14.796875 27.984375 
Q 14.796875 18.265625 18.828125 12.890625 
Q 22.859375 7.515625 30.078125 7.515625 
Q 37.359375 7.515625 41.375 12.890625 
Q 45.40625 18.265625 45.40625 27.984375 
z
M 54.390625 6.78125 
Q 54.390625 -7.171875 48.1875 -13.984375 
Q 42 -20.796875 29.203125 -20.796875 
Q 24.46875 -20.796875 20.265625 -20.09375 
Q 16.0625 -19.390625 12.109375 -17.921875 
L 12.109375 -9.1875 
Q 16.0625 -11.328125 19.921875 -12.34375 
Q 23.78125 -13.375 27.78125 -13.375 
Q 36.625 -13.375 41.015625 -8.765625 
Q 45.40625 -4.15625 45.40625 5.171875 
L 45.40625 9.625 
Q 42.625 4.78125 38.28125 2.390625 
Q 33.9375 0 27.875 0 
Q 17.828125 0 11.671875 7.65625 
Q 5.515625 15.328125 5.515625 27.984375 
Q 5.515625 40.671875 11.671875 48.328125 
Q 17.828125 56 27.875 56 
Q 33.9375 56 38.28125 53.609375 
Q 42.625 51.21875 45.40625 46.390625 
L 45.40625 54.6875 
L 54.390625 54.6875 
z
" id="DejaVuSans-103"/>
      </defs>
      <use xlink:href="#DejaVuSans-77"/>
      <use x="86.279297" xlink:href="#DejaVuSans-97"/>
      <use x="147.558594" xlink:href="#DejaVuSans-99"/>
      <use x="202.539062" xlink:href="#DejaVuSans-104"/>
      <use x="265.917969" xlink:href="#DejaVuSans-105"/>
      <use x="293.701172" xlink:href="#DejaVuSans-110"/>
      <use x="357.080078" xlink:href="#DejaVuSans-101"/>
      <use x="418.603516" xlink:href="#DejaVuSans-32"/>
      <use x="450.390625" xlink:href="#DejaVuSans-108"/>
      <use x="478.173828" xlink:href="#DejaVuSans-101"/>
      <use x="539.697266" xlink:href="#DejaVuSans-97"/>
      <use x="600.976562" xlink:href="#DejaVuSans-114"/>
      <use x="640.339844" xlink:href="#DejaVuSans-110"/>
      <use x="703.71875" xlink:href="#DejaVuSans-105"/>
      <use x="731.501953" xlink:href="#DejaVuSans-110"/>
      <use x="794.880859" xlink:href="#DejaVuSans-103"/>
     </g>
    </g>
    <g id="line2d_43"/>
    <g id="line2d_44">
     <g>
      <use style="fill:#6495ed;stroke:#000000;" x="562.539062" xlink:href="#ma793d07b99" y="64.012969"/>
     </g>
    </g>
    <g id="text_21">
     <!-- Maximum curvature -->
     <g transform="translate(580.539062 67.512969)scale(0.1 -0.1)">
      <use xlink:href="#DejaVuSans-77"/>
      <use x="86.279297" xlink:href="#DejaVuSans-97"/>
      <use x="147.558594" xlink:href="#DejaVuSans-120"/>
      <use x="206.738281" xlink:href="#DejaVuSans-105"/>
      <use x="234.521484" xlink:href="#DejaVuSans-109"/>
      <use x="331.933594" xlink:href="#DejaVuSans-117"/>
      <use x="395.3125" xlink:href="#DejaVuSans-109"/>
      <use x="492.724609" xlink:href="#DejaVuSans-32"/>
      <use x="524.511719" xlink:href="#DejaVuSans-99"/>
      <use x="579.492188" xlink:href="#DejaVuSans-117"/>
      <use x="642.871094" xlink:href="#DejaVuSans-114"/>
      <use x="683.984375" xlink:href="#DejaVuSans-118"/>
      <use x="743.164062" xlink:href="#DejaVuSans-97"/>
      <use x="804.443359" xlink:href="#DejaVuSans-116"/>
      <use x="843.652344" xlink:href="#DejaVuSans-117"/>
      <use x="907.03125" xlink:href="#DejaVuSans-114"/>
      <use x="945.894531" xlink:href="#DejaVuSans-101"/>
     </g>
    </g>
    <g id="line2d_45"/>
    <g id="line2d_46">
     <g>
      <use style="fill:#ffd700;stroke:#000000;" x="562.539062" xlink:href="#maa585d8b2d" y="78.691094"/>
     </g>
    </g>
    <g id="text_22">
     <!-- Relative relief -->
     <g transform="translate(580.539062 82.191094)scale(0.1 -0.1)">
      <defs>
       <path d="M 44.390625 34.1875 
Q 47.5625 33.109375 50.5625 29.59375 
Q 53.5625 26.078125 56.59375 19.921875 
L 66.609375 0 
L 56 0 
L 46.6875 18.703125 
Q 43.0625 26.03125 39.671875 28.421875 
Q 36.28125 30.8125 30.421875 30.8125 
L 19.671875 30.8125 
L 19.671875 0 
L 9.8125 0 
L 9.8125 72.90625 
L 32.078125 72.90625 
Q 44.578125 72.90625 50.734375 67.671875 
Q 56.890625 62.453125 56.890625 51.90625 
Q 56.890625 45.015625 53.6875 40.46875 
Q 50.484375 35.9375 44.390625 34.1875 
z
M 19.671875 64.796875 
L 19.671875 38.921875 
L 32.078125 38.921875 
Q 39.203125 38.921875 42.84375 42.21875 
Q 46.484375 45.515625 46.484375 51.90625 
Q 46.484375 58.296875 42.84375 61.546875 
Q 39.203125 64.796875 32.078125 64.796875 
z
" id="DejaVuSans-82"/>
      </defs>
      <use xlink:href="#DejaVuSans-82"/>
      <use x="64.982422" xlink:href="#DejaVuSans-101"/>
      <use x="126.505859" xlink:href="#DejaVuSans-108"/>
      <use x="154.289062" xlink:href="#DejaVuSans-97"/>
      <use x="215.568359" xlink:href="#DejaVuSans-116"/>
      <use x="254.777344" xlink:href="#DejaVuSans-105"/>
      <use x="282.560547" xlink:href="#DejaVuSans-118"/>
      <use x="341.740234" xlink:href="#DejaVuSans-101"/>
      <use x="403.263672" xlink:href="#DejaVuSans-32"/>
      <use x="435.050781" xlink:href="#DejaVuSans-114"/>
      <use x="473.914062" xlink:href="#DejaVuSans-101"/>
      <use x="535.4375" xlink:href="#DejaVuSans-108"/>
      <use x="563.220703" xlink:href="#DejaVuSans-105"/>
      <use x="591.003906" xlink:href="#DejaVuSans-101"/>
      <use x="652.527344" xlink:href="#DejaVuSans-102"/>
     </g>
    </g>
    <g id="line2d_47"/>
    <g id="line2d_48">
     <g>
      <use style="fill:#32cd32;stroke:#000000;" x="562.539062" xlink:href="#m48499c8113" y="93.369219"/>
     </g>
    </g>
    <g id="text_23">
     <!-- Perpendicular distance -->
     <g transform="translate(580.539062 96.869219)scale(0.1 -0.1)">
      <defs>
       <path d="M 19.671875 64.796875 
L 19.671875 37.40625 
L 32.078125 37.40625 
Q 38.96875 37.40625 42.71875 40.96875 
Q 46.484375 44.53125 46.484375 51.125 
Q 46.484375 57.671875 42.71875 61.234375 
Q 38.96875 64.796875 32.078125 64.796875 
z
M 9.8125 72.90625 
L 32.078125 72.90625 
Q 44.34375 72.90625 50.609375 67.359375 
Q 56.890625 61.8125 56.890625 51.125 
Q 56.890625 40.328125 50.609375 34.8125 
Q 44.34375 29.296875 32.078125 29.296875 
L 19.671875 29.296875 
L 19.671875 0 
L 9.8125 0 
z
" id="DejaVuSans-80"/>
      </defs>
      <use xlink:href="#DejaVuSans-80"/>
      <use x="56.677734" xlink:href="#DejaVuSans-101"/>
      <use x="118.201172" xlink:href="#DejaVuSans-114"/>
      <use x="159.314453" xlink:href="#DejaVuSans-112"/>
      <use x="222.791016" xlink:href="#DejaVuSans-101"/>
      <use x="284.314453" xlink:href="#DejaVuSans-110"/>
      <use x="347.693359" xlink:href="#DejaVuSans-100"/>
      <use x="411.169922" xlink:href="#DejaVuSans-105"/>
      <use x="438.953125" xlink:href="#DejaVuSans-99"/>
      <use x="493.933594" xlink:href="#DejaVuSans-117"/>
      <use x="557.3125" xlink:href="#DejaVuSans-108"/>
      <use x="585.095703" xlink:href="#DejaVuSans-97"/>
      <use x="646.375" xlink:href="#DejaVuSans-114"/>
      <use x="687.488281" xlink:href="#DejaVuSans-32"/>
      <use x="719.275391" xlink:href="#DejaVuSans-100"/>
      <use x="782.751953" xlink:href="#DejaVuSans-105"/>
      <use x="810.535156" xlink:href="#DejaVuSans-115"/>
      <use x="862.634766" xlink:href="#DejaVuSans-116"/>
      <use x="901.84375" xlink:href="#DejaVuSans-97"/>
      <use x="963.123047" xlink:href="#DejaVuSans-110"/>
      <use x="1026.501953" xlink:href="#DejaVuSans-99"/>
      <use x="1081.482422" xlink:href="#DejaVuSans-101"/>
     </g>
    </g>
    <g id="line2d_49"/>
    <g id="line2d_50">
     <g>
      <use style="stroke:#000000;stroke-linejoin:miter;" x="562.539062" xlink:href="#mc2adfb18f4" y="108.047344"/>
     </g>
    </g>
    <g id="text_24">
     <!-- Crest -->
     <g transform="translate(580.539062 111.547344)scale(0.1 -0.1)">
      <use xlink:href="#DejaVuSans-67"/>
      <use x="69.824219" xlink:href="#DejaVuSans-114"/>
      <use x="108.6875" xlink:href="#DejaVuSans-101"/>
      <use x="170.210938" xlink:href="#DejaVuSans-115"/>
      <use x="222.310547" xlink:href="#DejaVuSans-116"/>
     </g>
    </g>
    <g id="line2d_51"/>
    <g id="line2d_52">
     <g>
      <use style="stroke:#000000;stroke-linejoin:miter;" x="562.539062" xlink:href="#m809a6c282e" y="122.725469"/>
     </g>
    </g>
    <g id="text_25">
     <!-- Shoreline -->
     <g transform="translate(580.539062 126.225469)scale(0.1 -0.1)">
      <defs>
       <path d="M 53.515625 70.515625 
L 53.515625 60.890625 
Q 47.90625 63.578125 42.921875 64.890625 
Q 37.9375 66.21875 33.296875 66.21875 
Q 25.25 66.21875 20.875 63.09375 
Q 16.5 59.96875 16.5 54.203125 
Q 16.5 49.359375 19.40625 46.890625 
Q 22.3125 44.4375 30.421875 42.921875 
L 36.375 41.703125 
Q 47.40625 39.59375 52.65625 34.296875 
Q 57.90625 29 57.90625 20.125 
Q 57.90625 9.515625 50.796875 4.046875 
Q 43.703125 -1.421875 29.984375 -1.421875 
Q 24.8125 -1.421875 18.96875 -0.25 
Q 13.140625 0.921875 6.890625 3.21875 
L 6.890625 13.375 
Q 12.890625 10.015625 18.65625 8.296875 
Q 24.421875 6.59375 29.984375 6.59375 
Q 38.421875 6.59375 43.015625 9.90625 
Q 47.609375 13.234375 47.609375 19.390625 
Q 47.609375 24.75 44.3125 27.78125 
Q 41.015625 30.8125 33.5 32.328125 
L 27.484375 33.5 
Q 16.453125 35.6875 11.515625 40.375 
Q 6.59375 45.0625 6.59375 53.421875 
Q 6.59375 63.09375 13.40625 68.65625 
Q 20.21875 74.21875 32.171875 74.21875 
Q 37.3125 74.21875 42.625 73.28125 
Q 47.953125 72.359375 53.515625 70.515625 
z
" id="DejaVuSans-83"/>
      </defs>
      <use xlink:href="#DejaVuSans-83"/>
      <use x="63.476562" xlink:href="#DejaVuSans-104"/>
      <use x="126.855469" xlink:href="#DejaVuSans-111"/>
      <use x="188.037109" xlink:href="#DejaVuSans-114"/>
      <use x="226.900391" xlink:href="#DejaVuSans-101"/>
      <use x="288.423828" xlink:href="#DejaVuSans-108"/>
      <use x="316.207031" xlink:href="#DejaVuSans-105"/>
      <use x="343.990234" xlink:href="#DejaVuSans-110"/>
      <use x="407.369141" xlink:href="#DejaVuSans-101"/>
     </g>
    </g>
    <g id="patch_9">
     <path d="M 552.539062 140.903594 
L 572.539062 140.903594 
L 572.539062 133.903594 
L 552.539062 133.903594 
z
" style="fill:#ff6347;opacity:0.6;stroke:#ff6347;stroke-linejoin:miter;"/>
    </g>
    <g id="text_26">
     <!-- ML Toe probability -->
     <g transform="translate(580.539062 140.903594)scale(0.1 -0.1)">
      <defs>
       <path d="M 9.8125 72.90625 
L 19.671875 72.90625 
L 19.671875 8.296875 
L 55.171875 8.296875 
L 55.171875 0 
L 9.8125 0 
z
" id="DejaVuSans-76"/>
       <path d="M 48.6875 27.296875 
Q 48.6875 37.203125 44.609375 42.84375 
Q 40.53125 48.484375 33.40625 48.484375 
Q 26.265625 48.484375 22.1875 42.84375 
Q 18.109375 37.203125 18.109375 27.296875 
Q 18.109375 17.390625 22.1875 11.75 
Q 26.265625 6.109375 33.40625 6.109375 
Q 40.53125 6.109375 44.609375 11.75 
Q 48.6875 17.390625 48.6875 27.296875 
z
M 18.109375 46.390625 
Q 20.953125 51.265625 25.265625 53.625 
Q 29.59375 56 35.59375 56 
Q 45.5625 56 51.78125 48.09375 
Q 58.015625 40.1875 58.015625 27.296875 
Q 58.015625 14.40625 51.78125 6.484375 
Q 45.5625 -1.421875 35.59375 -1.421875 
Q 29.59375 -1.421875 25.265625 0.953125 
Q 20.953125 3.328125 18.109375 8.203125 
L 18.109375 0 
L 9.078125 0 
L 9.078125 75.984375 
L 18.109375 75.984375 
z
" id="DejaVuSans-98"/>
       <path d="M 32.171875 -5.078125 
Q 28.375 -14.84375 24.75 -17.8125 
Q 21.140625 -20.796875 15.09375 -20.796875 
L 7.90625 -20.796875 
L 7.90625 -13.28125 
L 13.1875 -13.28125 
Q 16.890625 -13.28125 18.9375 -11.515625 
Q 21 -9.765625 23.484375 -3.21875 
L 25.09375 0.875 
L 2.984375 54.6875 
L 12.5 54.6875 
L 29.59375 11.921875 
L 46.6875 54.6875 
L 56.203125 54.6875 
z
" id="DejaVuSans-121"/>
      </defs>
      <use xlink:href="#DejaVuSans-77"/>
      <use x="86.279297" xlink:href="#DejaVuSans-76"/>
      <use x="141.992188" xlink:href="#DejaVuSans-32"/>
      <use x="173.779297" xlink:href="#DejaVuSans-84"/>
      <use x="217.863281" xlink:href="#DejaVuSans-111"/>
      <use x="279.044922" xlink:href="#DejaVuSans-101"/>
      <use x="340.568359" xlink:href="#DejaVuSans-32"/>
      <use x="372.355469" xlink:href="#DejaVuSans-112"/>
      <use x="435.832031" xlink:href="#DejaVuSans-114"/>
      <use x="474.695312" xlink:href="#DejaVuSans-111"/>
      <use x="535.876953" xlink:href="#DejaVuSans-98"/>
      <use x="599.353516" xlink:href="#DejaVuSans-97"/>
      <use x="660.632812" xlink:href="#DejaVuSans-98"/>
      <use x="724.109375" xlink:href="#DejaVuSans-105"/>
      <use x="751.892578" xlink:href="#DejaVuSans-108"/>
      <use x="779.675781" xlink:href="#DejaVuSans-105"/>
      <use x="807.458984" xlink:href="#DejaVuSans-116"/>
      <use x="846.667969" xlink:href="#DejaVuSans-121"/>
     </g>
    </g>
   </g>
  </g>
  <g id="axes_2">
   <g id="PolyCollection_3">
    <path clip-path="url(#p758f051cdb)" d="M 34.240625 238.998281 
L 34.240625 238.998281 
L 38.425625 238.998281 
L 42.610625 238.998281 
L 46.795625 238.273481 
L 50.980625 237.186281 
L 55.165625 235.374281 
L 59.350625 237.186281 
L 63.535625 236.461481 
L 67.720625 236.461481 
L 71.905625 236.823881 
L 76.090625 238.998281 
L 80.275625 238.635881 
L 84.460625 238.998281 
L 88.645625 235.736681 
L 92.830625 225.951881 
L 97.015625 232.112681 
L 101.200625 232.112681 
L 105.385625 238.635881 
L 109.570625 238.998281 
L 113.755625 238.998281 
L 117.940625 238.998281 
L 122.125625 238.998281 
L 126.310625 238.998281 
L 130.495625 238.998281 
L 134.680625 238.998281 
L 138.865625 238.998281 
L 143.050625 238.998281 
L 147.235625 238.635881 
L 151.420625 238.273481 
L 155.605625 238.273481 
L 159.790625 235.011881 
L 163.975625 237.548681 
L 168.160625 238.635881 
L 172.345625 238.998281 
L 176.530625 238.273481 
L 180.715625 238.635881 
L 184.900625 238.635881 
L 189.085625 238.998281 
L 193.270625 238.998281 
L 197.455625 238.635881 
L 201.640625 238.635881 
L 205.825625 236.461481 
L 210.010625 238.998281 
L 214.195625 238.998281 
L 218.380625 238.998281 
L 222.565625 238.998281 
L 226.750625 238.998281 
L 230.935625 238.998281 
L 235.120625 238.998281 
L 239.305625 238.998281 
L 243.490625 238.998281 
L 247.675625 238.998281 
L 251.860625 238.635881 
L 256.045625 235.374281 
L 260.230625 229.938281 
L 264.415625 235.011881 
L 268.600625 238.273481 
L 272.785625 237.186281 
L 276.970625 238.635881 
L 281.155625 236.099081 
L 285.340625 235.736681 
L 289.525625 238.273481 
L 293.710625 238.635881 
L 297.895625 238.998281 
L 302.080625 238.635881 
L 306.265625 238.998281 
L 310.450625 238.998281 
L 314.635625 238.635881 
L 318.820625 238.998281 
L 323.005625 238.998281 
L 327.190625 238.635881 
L 331.375625 237.911081 
L 335.560625 229.575881 
L 339.745625 229.575881 
L 343.930625 237.911081 
L 348.115625 238.273481 
L 352.300625 238.635881 
L 356.485625 238.635881 
L 360.670625 238.273481 
L 364.855625 238.998281 
L 369.040625 238.998281 
L 373.225625 238.998281 
L 377.410625 238.998281 
L 381.595625 238.998281 
L 385.780625 238.998281 
L 389.965625 238.273481 
L 394.150625 238.635881 
L 398.335625 238.998281 
L 402.520625 234.649481 
L 406.705625 236.099081 
L 410.890625 236.461481 
L 415.075625 231.750281 
L 419.260625 234.287081 
L 423.445625 231.387881 
L 427.630625 231.750281 
L 431.815625 236.461481 
L 436.000625 231.750281 
L 440.185625 235.011881 
L 444.370625 237.186281 
L 448.555625 236.461481 
L 452.740625 238.998281 
L 456.925625 238.635881 
L 461.110625 233.199881 
L 465.295625 233.199881 
L 469.480625 230.663081 
L 473.665625 224.864681 
L 477.850625 208.919081 
L 482.035625 212.180681 
L 486.220625 228.488681 
L 490.405625 227.039081 
L 494.590625 226.676681 
L 498.775625 220.878281 
L 502.960625 228.851081 
L 507.145625 232.112681 
L 511.330625 229.575881 
L 515.515625 233.199881 
L 519.700625 231.387881 
L 523.885625 238.635881 
L 528.070625 238.273481 
L 532.255625 238.635881 
L 536.440625 238.635881 
L 540.625625 234.649481 
L 544.810625 238.998281 
L 548.995625 238.635881 
L 553.180625 238.998281 
L 557.365625 238.635881 
L 561.550625 238.998281 
L 565.735625 238.998281 
L 569.920625 238.998281 
L 574.105625 238.998281 
L 578.290625 238.998281 
L 582.475625 238.998281 
L 586.660625 238.998281 
L 590.845625 238.998281 
L 595.030625 238.998281 
L 599.215625 238.998281 
L 603.400625 238.998281 
L 607.585625 238.998281 
L 611.770625 238.998281 
L 615.955625 238.998281 
L 620.140625 238.998281 
L 624.325625 238.998281 
L 628.510625 238.998281 
L 632.695625 238.998281 
L 636.880625 238.998281 
L 641.065625 238.998281 
L 645.250625 238.998281 
L 649.435625 238.998281 
L 653.620625 238.998281 
L 657.805625 238.998281 
L 661.990625 238.998281 
L 666.175625 238.998281 
L 670.360625 238.998281 
L 674.545625 238.998281 
L 678.730625 238.998281 
L 682.915625 238.998281 
L 687.100625 238.998281 
L 691.285625 238.998281 
L 695.470625 238.998281 
L 699.655625 238.998281 
L 703.840625 238.998281 
L 708.025625 238.998281 
L 712.210625 238.998281 
L 716.395625 238.998281 
L 720.580625 238.998281 
L 724.765625 238.998281 
L 728.950625 238.998281 
L 733.135625 238.998281 
L 737.320625 238.998281 
L 741.505625 238.998281 
L 745.690625 238.998281 
L 749.875625 238.998281 
L 754.060625 238.998281 
L 758.245625 238.998281 
L 762.430625 238.998281 
L 766.615625 238.998281 
L 770.800625 238.998281 
L 774.985625 238.998281 
L 779.170625 238.998281 
L 783.355625 238.998281 
L 787.540625 238.998281 
L 791.725625 238.998281 
L 795.910625 238.998281 
L 800.095625 238.998281 
L 804.280625 238.998281 
L 808.465625 238.998281 
L 812.650625 238.998281 
L 816.835625 238.998281 
L 821.020625 238.998281 
L 825.205625 238.998281 
L 829.390625 238.998281 
L 833.575625 238.998281 
L 837.760625 238.998281 
L 841.945625 238.998281 
L 846.130625 238.998281 
L 850.315625 238.998281 
L 854.500625 238.998281 
L 858.685625 238.998281 
L 862.870625 238.998281 
L 867.055625 238.998281 
L 871.240625 238.998281 
L 875.425625 238.998281 
L 879.610625 238.998281 
L 883.795625 238.998281 
L 887.980625 238.998281 
L 892.165625 238.998281 
L 896.350625 238.998281 
L 900.535625 238.998281 
L 904.720625 238.998281 
L 908.905625 238.998281 
L 913.090625 238.998281 
L 917.275625 238.998281 
L 921.460625 238.998281 
L 925.645625 238.998281 
L 929.830625 238.998281 
L 934.015625 238.998281 
L 938.200625 238.998281 
L 942.385625 238.998281 
L 946.570625 238.998281 
L 950.755625 238.998281 
L 954.940625 238.998281 
L 959.125625 238.998281 
L 963.310625 238.998281 
L 967.495625 238.998281 
L 971.680625 238.998281 
L 975.865625 238.998281 
L 980.050625 238.998281 
L 984.235625 238.998281 
L 988.420625 238.998281 
L 992.605625 238.998281 
L 996.790625 238.998281 
L 1000.975625 238.998281 
L 1005.160625 238.998281 
L 1009.345625 238.998281 
L 1013.530625 238.998281 
L 1017.715625 238.998281 
L 1021.900625 238.998281 
L 1026.085625 238.998281 
L 1030.270625 238.998281 
L 1034.455625 238.998281 
L 1038.640625 238.998281 
L 1042.825625 238.998281 
L 1047.010625 238.998281 
L 1051.195625 238.998281 
L 1055.380625 238.998281 
L 1059.565625 238.998281 
L 1063.750625 238.998281 
L 1067.935625 238.998281 
L 1072.120625 238.998281 
L 1076.305625 238.998281 
L 1080.490625 238.998281 
L 1084.675625 238.998281 
L 1088.860625 238.998281 
L 1093.045625 238.998281 
L 1097.230625 238.998281 
L 1101.415625 238.998281 
L 1105.600625 238.998281 
L 1109.785625 238.998281 
L 1113.970625 238.998281 
L 1118.155625 238.998281 
L 1122.340625 238.998281 
L 1126.525625 238.998281 
L 1130.710625 238.998281 
L 1134.895625 238.998281 
L 1139.080625 238.998281 
L 1143.265625 238.998281 
L 1147.450625 238.998281 
L 1151.635625 238.998281 
L 1155.820625 238.998281 
L 1160.005625 238.998281 
L 1164.190625 238.998281 
L 1168.375625 238.998281 
L 1172.560625 238.998281 
L 1176.745625 238.998281 
L 1180.930625 238.998281 
L 1185.115625 238.998281 
L 1189.300625 238.998281 
L 1193.485625 238.998281 
L 1197.670625 238.998281 
L 1201.855625 238.998281 
L 1206.040625 238.998281 
L 1210.225625 238.998281 
L 1214.410625 238.998281 
L 1218.595625 238.998281 
L 1222.780625 238.998281 
L 1226.965625 238.998281 
L 1231.150625 238.998281 
L 1235.335625 238.998281 
L 1239.520625 238.998281 
L 1243.705625 238.998281 
L 1247.890625 238.998281 
L 1252.075625 238.998281 
L 1256.260625 238.998281 
L 1260.445625 238.998281 
L 1264.630625 238.998281 
L 1268.815625 238.998281 
L 1273.000625 238.998281 
L 1277.185625 238.998281 
L 1281.370625 238.998281 
L 1285.555625 238.998281 
L 1289.740625 238.998281 
L 1293.925625 238.998281 
L 1298.110625 238.998281 
L 1302.295625 238.998281 
L 1306.480625 238.998281 
L 1310.665625 238.998281 
L 1314.850625 238.998281 
L 1319.035625 238.998281 
L 1323.220625 238.998281 
L 1327.405625 238.998281 
L 1331.590625 238.998281 
L 1335.775625 238.998281 
L 1339.960625 238.998281 
L 1344.145625 238.998281 
L 1348.330625 238.998281 
L 1352.515625 238.998281 
L 1356.700625 238.998281 
L 1360.885625 238.998281 
L 1365.070625 238.998281 
L 1369.255625 238.998281 
L 1373.440625 238.998281 
L 1377.625625 238.998281 
L 1381.810625 238.998281 
L 1385.995625 238.998281 
L 1390.180625 238.998281 
L 1394.365625 238.998281 
L 1398.550625 238.998281 
L 1402.735625 238.998281 
L 1406.920625 238.998281 
L 1411.105625 238.998281 
L 1415.290625 238.998281 
L 1419.475625 238.998281 
L 1423.660625 238.998281 
L 1427.845625 238.998281 
L 1432.030625 238.998281 
L 1436.215625 238.998281 
L 1440.400625 238.998281 
L 1444.585625 238.998281 
L 1448.770625 238.998281 
L 1452.955625 238.998281 
L 1457.140625 238.998281 
L 1461.325625 238.998281 
L 1465.510625 238.998281 
L 1469.695625 238.998281 
L 1473.880625 238.998281 
L 1478.065625 238.998281 
L 1482.250625 238.998281 
L 1486.435625 238.998281 
L 1490.620625 238.998281 
L 1494.805625 238.998281 
L 1498.990625 238.998281 
L 1503.175625 238.998281 
L 1507.360625 238.998281 
L 1511.545625 238.998281 
L 1515.730625 238.998281 
L 1519.915625 238.998281 
L 1524.100625 238.998281 
L 1528.285625 238.998281 
L 1532.470625 238.998281 
L 1536.655625 238.998281 
L 1540.840625 238.998281 
L 1540.840625 238.998281 
L 1540.840625 238.998281 
L 1536.655625 238.998281 
L 1532.470625 238.998281 
L 1528.285625 238.998281 
L 1524.100625 238.998281 
L 1519.915625 238.998281 
L 1515.730625 238.998281 
L 1511.545625 238.998281 
L 1507.360625 238.998281 
L 1503.175625 238.998281 
L 1498.990625 238.998281 
L 1494.805625 238.998281 
L 1490.620625 238.998281 
L 1486.435625 238.998281 
L 1482.250625 238.998281 
L 1478.065625 238.998281 
L 1473.880625 238.998281 
L 1469.695625 238.998281 
L 1465.510625 238.998281 
L 1461.325625 238.998281 
L 1457.140625 238.998281 
L 1452.955625 238.998281 
L 1448.770625 238.998281 
L 1444.585625 238.998281 
L 1440.400625 238.998281 
L 1436.215625 238.998281 
L 1432.030625 238.998281 
L 1427.845625 238.998281 
L 1423.660625 238.998281 
L 1419.475625 238.998281 
L 1415.290625 238.998281 
L 1411.105625 238.998281 
L 1406.920625 238.998281 
L 1402.735625 238.998281 
L 1398.550625 238.998281 
L 1394.365625 238.998281 
L 1390.180625 238.998281 
L 1385.995625 238.998281 
L 1381.810625 238.998281 
L 1377.625625 238.998281 
L 1373.440625 238.998281 
L 1369.255625 238.998281 
L 1365.070625 238.998281 
L 1360.885625 238.998281 
L 1356.700625 238.998281 
L 1352.515625 238.998281 
L 1348.330625 238.998281 
L 1344.145625 238.998281 
L 1339.960625 238.998281 
L 1335.775625 238.998281 
L 1331.590625 238.998281 
L 1327.405625 238.998281 
L 1323.220625 238.998281 
L 1319.035625 238.998281 
L 1314.850625 238.998281 
L 1310.665625 238.998281 
L 1306.480625 238.998281 
L 1302.295625 238.998281 
L 1298.110625 238.998281 
L 1293.925625 238.998281 
L 1289.740625 238.998281 
L 1285.555625 238.998281 
L 1281.370625 238.998281 
L 1277.185625 238.998281 
L 1273.000625 238.998281 
L 1268.815625 238.998281 
L 1264.630625 238.998281 
L 1260.445625 238.998281 
L 1256.260625 238.998281 
L 1252.075625 238.998281 
L 1247.890625 238.998281 
L 1243.705625 238.998281 
L 1239.520625 238.998281 
L 1235.335625 238.998281 
L 1231.150625 238.998281 
L 1226.965625 238.998281 
L 1222.780625 238.998281 
L 1218.595625 238.998281 
L 1214.410625 238.998281 
L 1210.225625 238.998281 
L 1206.040625 238.998281 
L 1201.855625 238.998281 
L 1197.670625 238.998281 
L 1193.485625 238.998281 
L 1189.300625 238.998281 
L 1185.115625 238.998281 
L 1180.930625 238.998281 
L 1176.745625 238.998281 
L 1172.560625 238.998281 
L 1168.375625 238.998281 
L 1164.190625 238.998281 
L 1160.005625 238.998281 
L 1155.820625 238.998281 
L 1151.635625 238.998281 
L 1147.450625 238.998281 
L 1143.265625 238.998281 
L 1139.080625 238.998281 
L 1134.895625 238.998281 
L 1130.710625 238.998281 
L 1126.525625 238.998281 
L 1122.340625 238.998281 
L 1118.155625 238.998281 
L 1113.970625 238.998281 
L 1109.785625 238.998281 
L 1105.600625 238.998281 
L 1101.415625 238.998281 
L 1097.230625 238.998281 
L 1093.045625 238.998281 
L 1088.860625 238.998281 
L 1084.675625 238.998281 
L 1080.490625 238.998281 
L 1076.305625 238.998281 
L 1072.120625 238.998281 
L 1067.935625 238.998281 
L 1063.750625 238.998281 
L 1059.565625 238.998281 
L 1055.380625 238.998281 
L 1051.195625 238.998281 
L 1047.010625 238.998281 
L 1042.825625 238.998281 
L 1038.640625 238.998281 
L 1034.455625 238.998281 
L 1030.270625 238.998281 
L 1026.085625 238.998281 
L 1021.900625 238.998281 
L 1017.715625 238.998281 
L 1013.530625 238.998281 
L 1009.345625 238.998281 
L 1005.160625 238.998281 
L 1000.975625 238.998281 
L 996.790625 238.998281 
L 992.605625 238.998281 
L 988.420625 238.998281 
L 984.235625 238.998281 
L 980.050625 238.998281 
L 975.865625 238.998281 
L 971.680625 238.998281 
L 967.495625 238.998281 
L 963.310625 238.998281 
L 959.125625 238.998281 
L 954.940625 238.998281 
L 950.755625 238.998281 
L 946.570625 238.998281 
L 942.385625 238.998281 
L 938.200625 238.998281 
L 934.015625 238.998281 
L 929.830625 238.998281 
L 925.645625 238.998281 
L 921.460625 238.998281 
L 917.275625 238.998281 
L 913.090625 238.998281 
L 908.905625 238.998281 
L 904.720625 238.998281 
L 900.535625 238.998281 
L 896.350625 238.998281 
L 892.165625 238.998281 
L 887.980625 238.998281 
L 883.795625 238.998281 
L 879.610625 238.998281 
L 875.425625 238.998281 
L 871.240625 238.998281 
L 867.055625 238.998281 
L 862.870625 238.998281 
L 858.685625 238.998281 
L 854.500625 238.998281 
L 850.315625 238.998281 
L 846.130625 238.998281 
L 841.945625 238.998281 
L 837.760625 238.998281 
L 833.575625 238.998281 
L 829.390625 238.998281 
L 825.205625 238.998281 
L 821.020625 238.998281 
L 816.835625 238.998281 
L 812.650625 238.998281 
L 808.465625 238.998281 
L 804.280625 238.998281 
L 800.095625 238.998281 
L 795.910625 238.998281 
L 791.725625 238.998281 
L 787.540625 238.998281 
L 783.355625 238.998281 
L 779.170625 238.998281 
L 774.985625 238.998281 
L 770.800625 238.998281 
L 766.615625 238.998281 
L 762.430625 238.998281 
L 758.245625 238.998281 
L 754.060625 238.998281 
L 749.875625 238.998281 
L 745.690625 238.998281 
L 741.505625 238.998281 
L 737.320625 238.998281 
L 733.135625 238.998281 
L 728.950625 238.998281 
L 724.765625 238.998281 
L 720.580625 238.998281 
L 716.395625 238.998281 
L 712.210625 238.998281 
L 708.025625 238.998281 
L 703.840625 238.998281 
L 699.655625 238.998281 
L 695.470625 238.998281 
L 691.285625 238.998281 
L 687.100625 238.998281 
L 682.915625 238.998281 
L 678.730625 238.998281 
L 674.545625 238.998281 
L 670.360625 238.998281 
L 666.175625 238.998281 
L 661.990625 238.998281 
L 657.805625 238.998281 
L 653.620625 238.998281 
L 649.435625 238.998281 
L 645.250625 238.998281 
L 641.065625 238.998281 
L 636.880625 238.998281 
L 632.695625 238.998281 
L 628.510625 238.998281 
L 624.325625 238.998281 
L 620.140625 238.998281 
L 615.955625 238.998281 
L 611.770625 238.998281 
L 607.585625 238.998281 
L 603.400625 238.998281 
L 599.215625 238.998281 
L 595.030625 238.998281 
L 590.845625 238.998281 
L 586.660625 238.998281 
L 582.475625 238.998281 
L 578.290625 238.998281 
L 574.105625 238.998281 
L 569.920625 238.998281 
L 565.735625 238.998281 
L 561.550625 238.998281 
L 557.365625 238.998281 
L 553.180625 238.998281 
L 548.995625 238.998281 
L 544.810625 238.998281 
L 540.625625 238.998281 
L 536.440625 238.998281 
L 532.255625 238.998281 
L 528.070625 238.998281 
L 523.885625 238.998281 
L 519.700625 238.998281 
L 515.515625 238.998281 
L 511.330625 238.998281 
L 507.145625 238.998281 
L 502.960625 238.998281 
L 498.775625 238.998281 
L 494.590625 238.998281 
L 490.405625 238.998281 
L 486.220625 238.998281 
L 482.035625 238.998281 
L 477.850625 238.998281 
L 473.665625 238.998281 
L 469.480625 238.998281 
L 465.295625 238.998281 
L 461.110625 238.998281 
L 456.925625 238.998281 
L 452.740625 238.998281 
L 448.555625 238.998281 
L 444.370625 238.998281 
L 440.185625 238.998281 
L 436.000625 238.998281 
L 431.815625 238.998281 
L 427.630625 238.998281 
L 423.445625 238.998281 
L 419.260625 238.998281 
L 415.075625 238.998281 
L 410.890625 238.998281 
L 406.705625 238.998281 
L 402.520625 238.998281 
L 398.335625 238.998281 
L 394.150625 238.998281 
L 389.965625 238.998281 
L 385.780625 238.998281 
L 381.595625 238.998281 
L 377.410625 238.998281 
L 373.225625 238.998281 
L 369.040625 238.998281 
L 364.855625 238.998281 
L 360.670625 238.998281 
L 356.485625 238.998281 
L 352.300625 238.998281 
L 348.115625 238.998281 
L 343.930625 238.998281 
L 339.745625 238.998281 
L 335.560625 238.998281 
L 331.375625 238.998281 
L 327.190625 238.998281 
L 323.005625 238.998281 
L 318.820625 238.998281 
L 314.635625 238.998281 
L 310.450625 238.998281 
L 306.265625 238.998281 
L 302.080625 238.998281 
L 297.895625 238.998281 
L 293.710625 238.998281 
L 289.525625 238.998281 
L 285.340625 238.998281 
L 281.155625 238.998281 
L 276.970625 238.998281 
L 272.785625 238.998281 
L 268.600625 238.998281 
L 264.415625 238.998281 
L 260.230625 238.998281 
L 256.045625 238.998281 
L 251.860625 238.998281 
L 247.675625 238.998281 
L 243.490625 238.998281 
L 239.305625 238.998281 
L 235.120625 238.998281 
L 230.935625 238.998281 
L 226.750625 238.998281 
L 222.565625 238.998281 
L 218.380625 238.998281 
L 214.195625 238.998281 
L 210.010625 238.998281 
L 205.825625 238.998281 
L 201.640625 238.998281 
L 197.455625 238.998281 
L 193.270625 238.998281 
L 189.085625 238.998281 
L 184.900625 238.998281 
L 180.715625 238.998281 
L 176.530625 238.998281 
L 172.345625 238.998281 
L 168.160625 238.998281 
L 163.975625 238.998281 
L 159.790625 238.998281 
L 155.605625 238.998281 
L 151.420625 238.998281 
L 147.235625 238.998281 
L 143.050625 238.998281 
L 138.865625 238.998281 
L 134.680625 238.998281 
L 130.495625 238.998281 
L 126.310625 238.998281 
L 122.125625 238.998281 
L 117.940625 238.998281 
L 113.755625 238.998281 
L 109.570625 238.998281 
L 105.385625 238.998281 
L 101.200625 238.998281 
L 97.015625 238.998281 
L 92.830625 238.998281 
L 88.645625 238.998281 
L 84.460625 238.998281 
L 80.275625 238.998281 
L 76.090625 238.998281 
L 71.905625 238.998281 
L 67.720625 238.998281 
L 63.535625 238.998281 
L 59.350625 238.998281 
L 55.165625 238.998281 
L 50.980625 238.998281 
L 46.795625 238.998281 
L 42.610625 238.998281 
L 38.425625 238.998281 
L 34.240625 238.998281 
z
" style="fill:#ff6347;fill-opacity:0.5;stroke:#ff6347;stroke-opacity:0.5;"/>
   </g>
   <g id="matplotlib.axis_3">
    <g id="ytick_7">
     <g id="line2d_53">
      <defs>
       <path d="M 0 0 
L 3.5 0 
" id="m973d103fba" style="stroke:#000000;stroke-width:0.8;"/>
      </defs>
      <g>
       <use style="stroke:#000000;stroke-width:0.8;" x="703.840625" xlink:href="#m973d103fba" y="238.998281"/>
      </g>
     </g>
     <g id="text_27">
      <!-- 0 -->
      <g style="fill:#ff6347;" transform="translate(710.840625 242.7975)scale(0.1 -0.1)">
       <use xlink:href="#DejaVuSans-48"/>
      </g>
     </g>
    </g>
    <g id="ytick_8">
     <g id="line2d_54">
      <g>
       <use style="stroke:#000000;stroke-width:0.8;" x="703.840625" xlink:href="#m973d103fba" y="202.758281"/>
      </g>
     </g>
     <g id="text_28">
      <!-- 1 -->
      <g style="fill:#ff6347;" transform="translate(710.840625 206.5575)scale(0.1 -0.1)">
       <use xlink:href="#DejaVuSans-49"/>
      </g>
     </g>
    </g>
    <g id="text_29">
     <!-- Toe probability -->
     <g style="fill:#ff6347;" transform="translate(763.202188 180.649594)rotate(-270)scale(0.1 -0.1)">
      <use xlink:href="#DejaVuSans-84"/>
      <use x="44.083984" xlink:href="#DejaVuSans-111"/>
      <use x="105.265625" xlink:href="#DejaVuSans-101"/>
      <use x="166.789062" xlink:href="#DejaVuSans-32"/>
      <use x="198.576172" xlink:href="#DejaVuSans-112"/>
      <use x="262.052734" xlink:href="#DejaVuSans-114"/>
      <use x="300.916016" xlink:href="#DejaVuSans-111"/>
      <use x="362.097656" xlink:href="#DejaVuSans-98"/>
      <use x="425.574219" xlink:href="#DejaVuSans-97"/>
      <use x="486.853516" xlink:href="#DejaVuSans-98"/>
      <use x="550.330078" xlink:href="#DejaVuSans-105"/>
      <use x="578.113281" xlink:href="#DejaVuSans-108"/>
      <use x="605.896484" xlink:href="#DejaVuSans-105"/>
      <use x="633.679688" xlink:href="#DejaVuSans-116"/>
      <use x="672.888672" xlink:href="#DejaVuSans-121"/>
     </g>
    </g>
   </g>
   <g id="patch_10">
    <path d="M 34.240625 238.998281 
L 34.240625 21.558281 
" style="fill:none;stroke:#000000;stroke-linecap:square;stroke-linejoin:miter;stroke-width:0.8;"/>
   </g>
   <g id="patch_11">
    <path d="M 703.840625 238.998281 
L 703.840625 21.558281 
" style="fill:none;stroke:#000000;stroke-linecap:square;stroke-linejoin:miter;stroke-width:0.8;"/>
   </g>
   <g id="patch_12">
    <path d="M 34.240625 238.998281 
L 703.840625 238.998281 
" style="fill:none;stroke:#000000;stroke-linecap:square;stroke-linejoin:miter;stroke-width:0.8;"/>
   </g>
   <g id="patch_13">
    <path d="M 34.240625 21.558281 
L 703.840625 21.558281 
" style="fill:none;stroke:#000000;stroke-linecap:square;stroke-linejoin:miter;stroke-width:0.8;"/>
   </g>
  </g>
 </g>
 <defs>
  <clipPath id="p758f051cdb">
   <rect height="217.44" width="669.6" x="34.240625" y="21.558281"/>
  </clipPath>
 </defs>
</svg>
