<?xml version="1.0" encoding="utf-8" standalone="no"?>
<!DOCTYPE svg PUBLIC "-//W3C//DTD SVG 1.1//EN"
  "http://www.w3.org/Graphics/SVG/1.1/DTD/svg11.dtd">
<!-- Created with matplotlib (https://matplotlib.org/) -->
<svg height="276.554531pt" version="1.1" viewBox="0 0 778.000625 276.554531" width="778.000625pt" xmlns="http://www.w3.org/2000/svg" xmlns:xlink="http://www.w3.org/1999/xlink">
 <metadata>
  <rdf:RDF xmlns:cc="http://creativecommons.org/ns#" xmlns:dc="http://purl.org/dc/elements/1.1/" xmlns:rdf="http://www.w3.org/1999/02/22-rdf-syntax-ns#">
   <cc:Work>
    <dc:type rdf:resource="http://purl.org/dc/dcmitype/StillImage"/>
    <dc:date>2021-03-25T06:03:25.581891</dc:date>
    <dc:format>image/svg+xml</dc:format>
    <dc:creator>
     <cc:Agent>
      <dc:title>Matplotlib v3.3.4, https://matplotlib.org/</dc:title>
     </cc:Agent>
    </dc:creator>
   </cc:Work>
  </rdf:RDF>
 </metadata>
 <defs>
  <style type="text/css">*{stroke-linecap:butt;stroke-linejoin:round;}</style>
 </defs>
 <g id="figure_1">
  <g id="patch_1">
   <path d="M 0 276.554531 
L 778.000625 276.554531 
L 778.000625 0 
L 0 0 
z
" style="fill:none;"/>
  </g>
  <g id="axes_1">
   <g id="patch_2">
    <path d="M 34.240625 238.998281 
L 703.840625 238.998281 
L 703.840625 21.558281 
L 34.240625 21.558281 
z
" style="fill:#ffffff;"/>
   </g>
   <g id="PolyCollection_1">
    <defs>
     <path d="M 86.320625 5.93175 
L 86.320625 -37.55625 
L 108.640625 -37.55625 
L 108.640625 5.93175 
L 108.640625 5.93175 
L 86.320625 5.93175 
z
" id="m5aa62029b0" style="stroke:#87cefa;stroke-opacity:0.5;"/>
    </defs>
    <g clip-path="url(#pd63a3dbe2d)">
     <use style="fill:#87cefa;fill-opacity:0.5;stroke:#87cefa;stroke-opacity:0.5;" x="0" xlink:href="#m5aa62029b0" y="276.554531"/>
    </g>
   </g>
   <g id="PolyCollection_2">
    <defs>
     <path d="M 34.240625 5.93175 
L 34.240625 -75.818555 
L 36.100625 -75.818555 
L 37.960625 -74.318913 
L 39.820625 -70.2226 
L 41.680625 -64.554131 
L 43.540625 -61.84202 
L 45.400625 -61.84202 
L 47.260625 -67.274218 
L 49.120625 -79.387799 
L 50.980625 -92.448562 
L 52.840625 -92.448562 
L 54.700625 -88.857169 
L 56.560625 -76.970067 
L 58.420625 -64.223088 
L 60.280625 -56.884635 
L 62.140625 -56.884635 
L 64.000625 -60.827951 
L 65.860625 -65.123718 
L 67.720625 -65.253083 
L 69.580625 -65.572 
L 71.440625 -68.760083 
L 73.300625 -73.828783 
L 75.160625 -74.633471 
L 77.020625 -75.781582 
L 78.880625 -77.984032 
L 80.740625 -85.455068 
L 82.600625 -86.305092 
L 84.460625 -86.305092 
L 86.320625 -76.474692 
L 88.180625 -72.34582 
L 90.040625 -72.34582 
L 91.900625 -72.529361 
L 93.760625 -76.038138 
L 95.620625 -79.192411 
L 97.480625 -80.278376 
L 99.340625 -81.091906 
L 101.200625 -86.085481 
L 103.060625 -87.765021 
L 104.920625 -87.765021 
L 106.780625 -81.164021 
L 108.640625 -81.164021 
L 110.500625 -82.91438 
L 112.360625 -84.493103 
L 114.220625 -86.023452 
L 116.080625 -86.023452 
L 117.940625 -86.016618 
L 119.800625 -86.016618 
L 121.660625 -86.689301 
L 123.520625 -96.480957 
L 125.380625 -110.285773 
L 127.240625 -110.285773 
L 129.100625 -106.545964 
L 130.960625 -96.046969 
L 132.820625 -96.046969 
L 134.680625 -100.445799 
L 136.540625 -107.98935 
L 138.400625 -107.98935 
L 140.260625 -106.291608 
L 142.120625 -99.296456 
L 143.980625 -99.296456 
L 145.840625 -105.387902 
L 147.700625 -110.457546 
L 149.560625 -116.985673 
L 151.420625 -117.243748 
L 153.280625 -117.243748 
L 155.140625 -117.243748 
L 157.000625 -117.92854 
L 158.860625 -119.404565 
L 160.720625 -119.404565 
L 162.580625 -117.69881 
L 164.440625 -110.86206 
L 166.300625 -103.518951 
L 168.160625 -100.234638 
L 170.020625 -98.971796 
L 171.880625 -98.207355 
L 173.740625 -98.207355 
L 175.600625 -107.178087 
L 177.460625 -107.307302 
L 179.320625 -107.307302 
L 181.180625 -109.003077 
L 183.040625 -111.818829 
L 184.900625 -115.266233 
L 186.760625 -123.465978 
L 188.620625 -137.864946 
L 190.480625 -143.400036 
L 192.340625 -143.400036 
L 194.200625 -140.641274 
L 196.060625 -140.636455 
L 197.920625 -137.737842 
L 199.780625 -130.978636 
L 201.640625 -125.999579 
L 203.500625 -122.682315 
L 205.360625 -116.901046 
L 207.220625 -107.487116 
L 209.080625 -102.472113 
L 210.940625 -102.472113 
L 212.800625 -115.052829 
L 214.660625 -128.917084 
L 216.520625 -135.738556 
L 218.380625 -135.738556 
L 220.240625 -132.93059 
L 222.100625 -129.472898 
L 223.960625 -126.303252 
L 225.820625 -123.41951 
L 227.680625 -118.244606 
L 229.540625 -113.62663 
L 231.400625 -110.857766 
L 233.260625 -109.180709 
L 235.120625 -106.484303 
L 236.980625 -101.9375 
L 238.840625 -98.190235 
L 240.700625 -95.877862 
L 242.560625 -93.204432 
L 244.420625 -89.641443 
L 246.280625 -85.820085 
L 248.140625 -83.365363 
L 250.000625 -82.000083 
L 251.860625 -79.036092 
L 253.720625 -72.681577 
L 255.580625 -59.294463 
L 257.440625 -44.019884 
L 259.300625 -37.55625 
L 261.160625 -37.55625 
L 263.020625 -37.55625 
L 264.880625 -37.55625 
L 266.740625 -37.55625 
L 268.600625 -37.55625 
L 270.460625 -37.55625 
L 272.320625 -37.55625 
L 274.180625 -37.55625 
L 276.040625 -37.55625 
L 277.900625 -37.55625 
L 279.760625 -37.55625 
L 281.620625 -37.55625 
L 283.480625 -37.55625 
L 285.340625 -37.55625 
L 287.200625 -37.55625 
L 289.060625 -37.55625 
L 290.920625 -37.55625 
L 292.780625 -37.55625 
L 294.640625 -37.55625 
L 296.500625 -37.55625 
L 298.360625 -37.55625 
L 300.220625 -37.55625 
L 302.080625 -37.55625 
L 303.940625 -37.55625 
L 305.800625 -37.55625 
L 307.660625 -37.55625 
L 309.520625 -37.55625 
L 311.380625 -37.55625 
L 313.240625 -37.55625 
L 315.100625 -37.55625 
L 316.960625 -37.55625 
L 318.820625 -37.55625 
L 320.680625 -37.55625 
L 322.540625 -37.55625 
L 324.400625 -37.55625 
L 326.260625 -37.55625 
L 328.120625 -37.55625 
L 329.980625 -37.55625 
L 331.840625 -37.55625 
L 333.700625 -37.55625 
L 335.560625 -37.55625 
L 337.420625 -37.55625 
L 339.280625 -37.55625 
L 341.140625 -37.55625 
L 343.000625 -37.55625 
L 344.860625 -37.55625 
L 346.720625 -37.55625 
L 348.580625 -37.55625 
L 350.440625 -37.55625 
L 352.300625 -37.55625 
L 354.160625 -37.55625 
L 356.020625 -37.55625 
L 357.880625 -37.55625 
L 359.740625 -37.55625 
L 361.600625 -37.55625 
L 363.460625 -37.55625 
L 365.320625 -37.55625 
L 367.180625 -37.55625 
L 369.040625 -37.55625 
L 370.900625 -37.55625 
L 372.760625 -37.55625 
L 374.620625 -37.55625 
L 376.480625 -37.55625 
L 378.340625 -37.55625 
L 380.200625 -37.55625 
L 382.060625 -37.55625 
L 383.920625 -37.55625 
L 385.780625 -37.55625 
L 387.640625 -37.55625 
L 389.500625 -37.55625 
L 391.360625 -37.55625 
L 393.220625 -37.55625 
L 395.080625 -37.55625 
L 396.940625 -37.55625 
L 398.800625 -37.55625 
L 400.660625 -37.55625 
L 402.520625 -37.55625 
L 404.380625 -37.55625 
L 406.240625 -37.55625 
L 408.100625 -37.55625 
L 409.960625 -37.55625 
L 411.820625 -37.55625 
L 413.680625 -37.55625 
L 415.540625 -37.55625 
L 417.400625 -37.55625 
L 419.260625 -37.55625 
L 421.120625 -37.55625 
L 422.980625 -37.55625 
L 424.840625 -37.55625 
L 426.700625 -37.55625 
L 428.560625 -37.55625 
L 430.420625 -37.55625 
L 432.280625 -37.55625 
L 434.140625 -37.55625 
L 436.000625 -37.55625 
L 437.860625 -37.55625 
L 439.720625 -37.55625 
L 441.580625 -37.55625 
L 443.440625 -37.55625 
L 445.300625 -37.55625 
L 447.160625 -37.55625 
L 449.020625 -37.55625 
L 450.880625 -37.55625 
L 452.740625 -37.55625 
L 454.600625 -37.55625 
L 456.460625 -37.55625 
L 458.320625 -37.55625 
L 460.180625 -37.55625 
L 462.040625 -37.55625 
L 463.900625 -37.55625 
L 465.760625 -37.55625 
L 467.620625 -37.55625 
L 469.480625 -37.55625 
L 471.340625 -37.55625 
L 473.200625 -37.55625 
L 475.060625 -37.55625 
L 476.920625 -37.55625 
L 478.780625 -37.55625 
L 480.640625 -37.55625 
L 482.500625 -37.55625 
L 484.360625 -37.55625 
L 486.220625 -37.55625 
L 488.080625 -37.55625 
L 489.940625 -37.55625 
L 491.800625 -37.55625 
L 493.660625 -37.55625 
L 495.520625 -37.55625 
L 497.380625 -37.55625 
L 499.240625 -37.55625 
L 501.100625 -37.55625 
L 502.960625 -37.55625 
L 504.820625 -37.55625 
L 506.680625 -37.55625 
L 508.540625 -37.55625 
L 510.400625 -37.55625 
L 512.260625 -37.55625 
L 514.120625 -37.55625 
L 515.980625 -37.55625 
L 517.840625 -37.55625 
L 519.700625 -37.55625 
L 521.560625 -37.55625 
L 523.420625 -37.55625 
L 525.280625 -37.55625 
L 527.140625 -37.55625 
L 529.000625 -37.55625 
L 530.860625 -37.55625 
L 532.720625 -37.55625 
L 534.580625 -37.55625 
L 536.440625 -37.55625 
L 538.300625 -37.55625 
L 540.160625 -37.55625 
L 542.020625 -37.55625 
L 543.880625 -37.55625 
L 545.740625 -37.55625 
L 547.600625 -37.55625 
L 549.460625 -37.55625 
L 551.320625 -37.55625 
L 553.180625 -37.55625 
L 555.040625 -37.55625 
L 556.900625 -37.55625 
L 558.760625 -37.55625 
L 560.620625 -37.55625 
L 562.480625 -37.55625 
L 564.340625 -37.55625 
L 566.200625 -37.55625 
L 568.060625 -37.55625 
L 569.920625 -37.55625 
L 571.780625 -37.55625 
L 573.640625 -37.55625 
L 575.500625 -37.55625 
L 577.360625 -37.55625 
L 579.220625 -37.55625 
L 581.080625 -37.55625 
L 582.940625 -37.55625 
L 584.800625 -37.55625 
L 586.660625 -37.55625 
L 588.520625 -37.55625 
L 590.380625 -37.55625 
L 592.240625 -37.55625 
L 594.100625 -37.55625 
L 595.960625 -37.55625 
L 597.820625 -37.55625 
L 599.680625 -37.55625 
L 601.540625 -37.55625 
L 603.400625 -37.55625 
L 605.260625 -37.55625 
L 607.120625 -37.55625 
L 608.980625 -37.55625 
L 610.840625 -37.55625 
L 612.700625 -37.55625 
L 614.560625 -37.55625 
L 616.420625 -37.55625 
L 618.280625 -37.55625 
L 620.140625 -37.55625 
L 622.000625 -37.55625 
L 623.860625 -37.55625 
L 625.720625 -37.55625 
L 627.580625 -37.55625 
L 629.440625 -37.55625 
L 631.300625 -37.55625 
L 633.160625 -37.55625 
L 635.020625 -37.55625 
L 636.880625 -37.55625 
L 638.740625 -37.55625 
L 640.600625 -37.55625 
L 642.460625 -37.55625 
L 644.320625 -37.55625 
L 646.180625 -37.55625 
L 648.040625 -37.55625 
L 649.900625 -37.55625 
L 651.760625 -37.55625 
L 653.620625 -37.55625 
L 655.480625 -37.55625 
L 657.340625 -37.55625 
L 659.200625 -37.55625 
L 661.060625 -37.55625 
L 662.920625 -37.55625 
L 664.780625 -37.55625 
L 666.640625 -37.55625 
L 668.500625 -37.55625 
L 670.360625 -37.55625 
L 672.220625 -37.55625 
L 674.080625 -37.55625 
L 675.940625 -37.55625 
L 677.800625 -37.55625 
L 679.660625 -37.55625 
L 681.520625 -37.55625 
L 683.380625 -37.55625 
L 685.240625 -37.55625 
L 687.100625 -37.55625 
L 688.960625 -37.55625 
L 690.820625 -37.55625 
L 692.680625 -37.55625 
L 694.540625 -37.55625 
L 696.400625 -37.55625 
L 698.260625 -37.55625 
L 700.120625 -37.55625 
L 701.980625 -37.55625 
L 703.840625 -37.55625 
L 703.840625 5.93175 
L 703.840625 5.93175 
L 701.980625 5.93175 
L 700.120625 5.93175 
L 698.260625 5.93175 
L 696.400625 5.93175 
L 694.540625 5.93175 
L 692.680625 5.93175 
L 690.820625 5.93175 
L 688.960625 5.93175 
L 687.100625 5.93175 
L 685.240625 5.93175 
L 683.380625 5.93175 
L 681.520625 5.93175 
L 679.660625 5.93175 
L 677.800625 5.93175 
L 675.940625 5.93175 
L 674.080625 5.93175 
L 672.220625 5.93175 
L 670.360625 5.93175 
L 668.500625 5.93175 
L 666.640625 5.93175 
L 664.780625 5.93175 
L 662.920625 5.93175 
L 661.060625 5.93175 
L 659.200625 5.93175 
L 657.340625 5.93175 
L 655.480625 5.93175 
L 653.620625 5.93175 
L 651.760625 5.93175 
L 649.900625 5.93175 
L 648.040625 5.93175 
L 646.180625 5.93175 
L 644.320625 5.93175 
L 642.460625 5.93175 
L 640.600625 5.93175 
L 638.740625 5.93175 
L 636.880625 5.93175 
L 635.020625 5.93175 
L 633.160625 5.93175 
L 631.300625 5.93175 
L 629.440625 5.93175 
L 627.580625 5.93175 
L 625.720625 5.93175 
L 623.860625 5.93175 
L 622.000625 5.93175 
L 620.140625 5.93175 
L 618.280625 5.93175 
L 616.420625 5.93175 
L 614.560625 5.93175 
L 612.700625 5.93175 
L 610.840625 5.93175 
L 608.980625 5.93175 
L 607.120625 5.93175 
L 605.260625 5.93175 
L 603.400625 5.93175 
L 601.540625 5.93175 
L 599.680625 5.93175 
L 597.820625 5.93175 
L 595.960625 5.93175 
L 594.100625 5.93175 
L 592.240625 5.93175 
L 590.380625 5.93175 
L 588.520625 5.93175 
L 586.660625 5.93175 
L 584.800625 5.93175 
L 582.940625 5.93175 
L 581.080625 5.93175 
L 579.220625 5.93175 
L 577.360625 5.93175 
L 575.500625 5.93175 
L 573.640625 5.93175 
L 571.780625 5.93175 
L 569.920625 5.93175 
L 568.060625 5.93175 
L 566.200625 5.93175 
L 564.340625 5.93175 
L 562.480625 5.93175 
L 560.620625 5.93175 
L 558.760625 5.93175 
L 556.900625 5.93175 
L 555.040625 5.93175 
L 553.180625 5.93175 
L 551.320625 5.93175 
L 549.460625 5.93175 
L 547.600625 5.93175 
L 545.740625 5.93175 
L 543.880625 5.93175 
L 542.020625 5.93175 
L 540.160625 5.93175 
L 538.300625 5.93175 
L 536.440625 5.93175 
L 534.580625 5.93175 
L 532.720625 5.93175 
L 530.860625 5.93175 
L 529.000625 5.93175 
L 527.140625 5.93175 
L 525.280625 5.93175 
L 523.420625 5.93175 
L 521.560625 5.93175 
L 519.700625 5.93175 
L 517.840625 5.93175 
L 515.980625 5.93175 
L 514.120625 5.93175 
L 512.260625 5.93175 
L 510.400625 5.93175 
L 508.540625 5.93175 
L 506.680625 5.93175 
L 504.820625 5.93175 
L 502.960625 5.93175 
L 501.100625 5.93175 
L 499.240625 5.93175 
L 497.380625 5.93175 
L 495.520625 5.93175 
L 493.660625 5.93175 
L 491.800625 5.93175 
L 489.940625 5.93175 
L 488.080625 5.93175 
L 486.220625 5.93175 
L 484.360625 5.93175 
L 482.500625 5.93175 
L 480.640625 5.93175 
L 478.780625 5.93175 
L 476.920625 5.93175 
L 475.060625 5.93175 
L 473.200625 5.93175 
L 471.340625 5.93175 
L 469.480625 5.93175 
L 467.620625 5.93175 
L 465.760625 5.93175 
L 463.900625 5.93175 
L 462.040625 5.93175 
L 460.180625 5.93175 
L 458.320625 5.93175 
L 456.460625 5.93175 
L 454.600625 5.93175 
L 452.740625 5.93175 
L 450.880625 5.93175 
L 449.020625 5.93175 
L 447.160625 5.93175 
L 445.300625 5.93175 
L 443.440625 5.93175 
L 441.580625 5.93175 
L 439.720625 5.93175 
L 437.860625 5.93175 
L 436.000625 5.93175 
L 434.140625 5.93175 
L 432.280625 5.93175 
L 430.420625 5.93175 
L 428.560625 5.93175 
L 426.700625 5.93175 
L 424.840625 5.93175 
L 422.980625 5.93175 
L 421.120625 5.93175 
L 419.260625 5.93175 
L 417.400625 5.93175 
L 415.540625 5.93175 
L 413.680625 5.93175 
L 411.820625 5.93175 
L 409.960625 5.93175 
L 408.100625 5.93175 
L 406.240625 5.93175 
L 404.380625 5.93175 
L 402.520625 5.93175 
L 400.660625 5.93175 
L 398.800625 5.93175 
L 396.940625 5.93175 
L 395.080625 5.93175 
L 393.220625 5.93175 
L 391.360625 5.93175 
L 389.500625 5.93175 
L 387.640625 5.93175 
L 385.780625 5.93175 
L 383.920625 5.93175 
L 382.060625 5.93175 
L 380.200625 5.93175 
L 378.340625 5.93175 
L 376.480625 5.93175 
L 374.620625 5.93175 
L 372.760625 5.93175 
L 370.900625 5.93175 
L 369.040625 5.93175 
L 367.180625 5.93175 
L 365.320625 5.93175 
L 363.460625 5.93175 
L 361.600625 5.93175 
L 359.740625 5.93175 
L 357.880625 5.93175 
L 356.020625 5.93175 
L 354.160625 5.93175 
L 352.300625 5.93175 
L 350.440625 5.93175 
L 348.580625 5.93175 
L 346.720625 5.93175 
L 344.860625 5.93175 
L 343.000625 5.93175 
L 341.140625 5.93175 
L 339.280625 5.93175 
L 337.420625 5.93175 
L 335.560625 5.93175 
L 333.700625 5.93175 
L 331.840625 5.93175 
L 329.980625 5.93175 
L 328.120625 5.93175 
L 326.260625 5.93175 
L 324.400625 5.93175 
L 322.540625 5.93175 
L 320.680625 5.93175 
L 318.820625 5.93175 
L 316.960625 5.93175 
L 315.100625 5.93175 
L 313.240625 5.93175 
L 311.380625 5.93175 
L 309.520625 5.93175 
L 307.660625 5.93175 
L 305.800625 5.93175 
L 303.940625 5.93175 
L 302.080625 5.93175 
L 300.220625 5.93175 
L 298.360625 5.93175 
L 296.500625 5.93175 
L 294.640625 5.93175 
L 292.780625 5.93175 
L 290.920625 5.93175 
L 289.060625 5.93175 
L 287.200625 5.93175 
L 285.340625 5.93175 
L 283.480625 5.93175 
L 281.620625 5.93175 
L 279.760625 5.93175 
L 277.900625 5.93175 
L 276.040625 5.93175 
L 274.180625 5.93175 
L 272.320625 5.93175 
L 270.460625 5.93175 
L 268.600625 5.93175 
L 266.740625 5.93175 
L 264.880625 5.93175 
L 263.020625 5.93175 
L 261.160625 5.93175 
L 259.300625 5.93175 
L 257.440625 5.93175 
L 255.580625 5.93175 
L 253.720625 5.93175 
L 251.860625 5.93175 
L 250.000625 5.93175 
L 248.140625 5.93175 
L 246.280625 5.93175 
L 244.420625 5.93175 
L 242.560625 5.93175 
L 240.700625 5.93175 
L 238.840625 5.93175 
L 236.980625 5.93175 
L 235.120625 5.93175 
L 233.260625 5.93175 
L 231.400625 5.93175 
L 229.540625 5.93175 
L 227.680625 5.93175 
L 225.820625 5.93175 
L 223.960625 5.93175 
L 222.100625 5.93175 
L 220.240625 5.93175 
L 218.380625 5.93175 
L 216.520625 5.93175 
L 214.660625 5.93175 
L 212.800625 5.93175 
L 210.940625 5.93175 
L 209.080625 5.93175 
L 207.220625 5.93175 
L 205.360625 5.93175 
L 203.500625 5.93175 
L 201.640625 5.93175 
L 199.780625 5.93175 
L 197.920625 5.93175 
L 196.060625 5.93175 
L 194.200625 5.93175 
L 192.340625 5.93175 
L 190.480625 5.93175 
L 188.620625 5.93175 
L 186.760625 5.93175 
L 184.900625 5.93175 
L 183.040625 5.93175 
L 181.180625 5.93175 
L 179.320625 5.93175 
L 177.460625 5.93175 
L 175.600625 5.93175 
L 173.740625 5.93175 
L 171.880625 5.93175 
L 170.020625 5.93175 
L 168.160625 5.93175 
L 166.300625 5.93175 
L 164.440625 5.93175 
L 162.580625 5.93175 
L 160.720625 5.93175 
L 158.860625 5.93175 
L 157.000625 5.93175 
L 155.140625 5.93175 
L 153.280625 5.93175 
L 151.420625 5.93175 
L 149.560625 5.93175 
L 147.700625 5.93175 
L 145.840625 5.93175 
L 143.980625 5.93175 
L 142.120625 5.93175 
L 140.260625 5.93175 
L 138.400625 5.93175 
L 136.540625 5.93175 
L 134.680625 5.93175 
L 132.820625 5.93175 
L 130.960625 5.93175 
L 129.100625 5.93175 
L 127.240625 5.93175 
L 125.380625 5.93175 
L 123.520625 5.93175 
L 121.660625 5.93175 
L 119.800625 5.93175 
L 117.940625 5.93175 
L 116.080625 5.93175 
L 114.220625 5.93175 
L 112.360625 5.93175 
L 110.500625 5.93175 
L 108.640625 5.93175 
L 106.780625 5.93175 
L 104.920625 5.93175 
L 103.060625 5.93175 
L 101.200625 5.93175 
L 99.340625 5.93175 
L 97.480625 5.93175 
L 95.620625 5.93175 
L 93.760625 5.93175 
L 91.900625 5.93175 
L 90.040625 5.93175 
L 88.180625 5.93175 
L 86.320625 5.93175 
L 84.460625 5.93175 
L 82.600625 5.93175 
L 80.740625 5.93175 
L 78.880625 5.93175 
L 77.020625 5.93175 
L 75.160625 5.93175 
L 73.300625 5.93175 
L 71.440625 5.93175 
L 69.580625 5.93175 
L 67.720625 5.93175 
L 65.860625 5.93175 
L 64.000625 5.93175 
L 62.140625 5.93175 
L 60.280625 5.93175 
L 58.420625 5.93175 
L 56.560625 5.93175 
L 54.700625 5.93175 
L 52.840625 5.93175 
L 50.980625 5.93175 
L 49.120625 5.93175 
L 47.260625 5.93175 
L 45.400625 5.93175 
L 43.540625 5.93175 
L 41.680625 5.93175 
L 39.820625 5.93175 
L 37.960625 5.93175 
L 36.100625 5.93175 
L 34.240625 5.93175 
z
" id="mb7a6b11884" style="stroke:#fff8dc;"/>
    </defs>
    <g clip-path="url(#pd63a3dbe2d)">
     <use style="fill:#fff8dc;stroke:#fff8dc;" x="0" xlink:href="#mb7a6b11884" y="276.554531"/>
    </g>
   </g>
   <g id="patch_3">
    <path clip-path="url(#pd63a3dbe2d)" d="M 26.800625 238.998281 
L 26.800625 21.558281 
L 27.544625 21.558281 
L 27.544625 238.998281 
z
" style="fill:#ff6347;opacity:0.6;stroke:#ff6347;stroke-linejoin:miter;"/>
   </g>
   <g id="matplotlib.axis_1">
    <g id="xtick_1">
     <g id="line2d_1">
      <path clip-path="url(#pd63a3dbe2d)" d="M 34.240625 238.998281 
L 34.240625 21.558281 
" style="fill:none;stroke:#b0b0b0;stroke-linecap:square;stroke-width:0.8;"/>
     </g>
     <g id="line2d_2">
      <defs>
       <path d="M 0 0 
L 0 3.5 
" id="m1c5f5a3666" style="stroke:#000000;stroke-width:0.8;"/>
      </defs>
      <g>
       <use style="stroke:#000000;stroke-width:0.8;" x="34.240625" xlink:href="#m1c5f5a3666" y="238.998281"/>
      </g>
     </g>
     <g id="text_1">
      <!-- 0 -->
      <g transform="translate(31.059375 253.596719)scale(0.1 -0.1)">
       <defs>
        <path d="M 31.78125 66.40625 
Q 24.171875 66.40625 20.328125 58.90625 
Q 16.5 51.421875 16.5 36.375 
Q 16.5 21.390625 20.328125 13.890625 
Q 24.171875 6.390625 31.78125 6.390625 
Q 39.453125 6.390625 43.28125 13.890625 
Q 47.125 21.390625 47.125 36.375 
Q 47.125 51.421875 43.28125 58.90625 
Q 39.453125 66.40625 31.78125 66.40625 
z
M 31.78125 74.21875 
Q 44.046875 74.21875 50.515625 64.515625 
Q 56.984375 54.828125 56.984375 36.375 
Q 56.984375 17.96875 50.515625 8.265625 
Q 44.046875 -1.421875 31.78125 -1.421875 
Q 19.53125 -1.421875 13.0625 8.265625 
Q 6.59375 17.96875 6.59375 36.375 
Q 6.59375 54.828125 13.0625 64.515625 
Q 19.53125 74.21875 31.78125 74.21875 
z
" id="DejaVuSans-48"/>
       </defs>
       <use xlink:href="#DejaVuSans-48"/>
      </g>
     </g>
    </g>
    <g id="xtick_2">
     <g id="line2d_3">
      <path clip-path="url(#pd63a3dbe2d)" d="M 108.640625 238.998281 
L 108.640625 21.558281 
" style="fill:none;stroke:#b0b0b0;stroke-linecap:square;stroke-width:0.8;"/>
     </g>
     <g id="line2d_4">
      <g>
       <use style="stroke:#000000;stroke-width:0.8;" x="108.640625" xlink:href="#m1c5f5a3666" y="238.998281"/>
      </g>
     </g>
     <g id="text_2">
      <!-- 100 -->
      <g transform="translate(99.096875 253.596719)scale(0.1 -0.1)">
       <defs>
        <path d="M 12.40625 8.296875 
L 28.515625 8.296875 
L 28.515625 63.921875 
L 10.984375 60.40625 
L 10.984375 69.390625 
L 28.421875 72.90625 
L 38.28125 72.90625 
L 38.28125 8.296875 
L 54.390625 8.296875 
L 54.390625 0 
L 12.40625 0 
z
" id="DejaVuSans-49"/>
       </defs>
       <use xlink:href="#DejaVuSans-49"/>
       <use x="63.623047" xlink:href="#DejaVuSans-48"/>
       <use x="127.246094" xlink:href="#DejaVuSans-48"/>
      </g>
     </g>
    </g>
    <g id="xtick_3">
     <g id="line2d_5">
      <path clip-path="url(#pd63a3dbe2d)" d="M 183.040625 238.998281 
L 183.040625 21.558281 
" style="fill:none;stroke:#b0b0b0;stroke-linecap:square;stroke-width:0.8;"/>
     </g>
     <g id="line2d_6">
      <g>
       <use style="stroke:#000000;stroke-width:0.8;" x="183.040625" xlink:href="#m1c5f5a3666" y="238.998281"/>
      </g>
     </g>
     <g id="text_3">
      <!-- 200 -->
      <g transform="translate(173.496875 253.596719)scale(0.1 -0.1)">
       <defs>
        <path d="M 19.1875 8.296875 
L 53.609375 8.296875 
L 53.609375 0 
L 7.328125 0 
L 7.328125 8.296875 
Q 12.9375 14.109375 22.625 23.890625 
Q 32.328125 33.6875 34.8125 36.53125 
Q 39.546875 41.84375 41.421875 45.53125 
Q 43.3125 49.21875 43.3125 52.78125 
Q 43.3125 58.59375 39.234375 62.25 
Q 35.15625 65.921875 28.609375 65.921875 
Q 23.96875 65.921875 18.8125 64.3125 
Q 13.671875 62.703125 7.8125 59.421875 
L 7.8125 69.390625 
Q 13.765625 71.78125 18.9375 73 
Q 24.125 74.21875 28.421875 74.21875 
Q 39.75 74.21875 46.484375 68.546875 
Q 53.21875 62.890625 53.21875 53.421875 
Q 53.21875 48.921875 51.53125 44.890625 
Q 49.859375 40.875 45.40625 35.40625 
Q 44.1875 33.984375 37.640625 27.21875 
Q 31.109375 20.453125 19.1875 8.296875 
z
" id="DejaVuSans-50"/>
       </defs>
       <use xlink:href="#DejaVuSans-50"/>
       <use x="63.623047" xlink:href="#DejaVuSans-48"/>
       <use x="127.246094" xlink:href="#DejaVuSans-48"/>
      </g>
     </g>
    </g>
    <g id="xtick_4">
     <g id="line2d_7">
      <path clip-path="url(#pd63a3dbe2d)" d="M 257.440625 238.998281 
L 257.440625 21.558281 
" style="fill:none;stroke:#b0b0b0;stroke-linecap:square;stroke-width:0.8;"/>
     </g>
     <g id="line2d_8">
      <g>
       <use style="stroke:#000000;stroke-width:0.8;" x="257.440625" xlink:href="#m1c5f5a3666" y="238.998281"/>
      </g>
     </g>
     <g id="text_4">
      <!-- 300 -->
      <g transform="translate(247.896875 253.596719)scale(0.1 -0.1)">
       <defs>
        <path d="M 40.578125 39.3125 
Q 47.65625 37.796875 51.625 33 
Q 55.609375 28.21875 55.609375 21.1875 
Q 55.609375 10.40625 48.1875 4.484375 
Q 40.765625 -1.421875 27.09375 -1.421875 
Q 22.515625 -1.421875 17.65625 -0.515625 
Q 12.796875 0.390625 7.625 2.203125 
L 7.625 11.71875 
Q 11.71875 9.328125 16.59375 8.109375 
Q 21.484375 6.890625 26.8125 6.890625 
Q 36.078125 6.890625 40.9375 10.546875 
Q 45.796875 14.203125 45.796875 21.1875 
Q 45.796875 27.640625 41.28125 31.265625 
Q 36.765625 34.90625 28.71875 34.90625 
L 20.21875 34.90625 
L 20.21875 43.015625 
L 29.109375 43.015625 
Q 36.375 43.015625 40.234375 45.921875 
Q 44.09375 48.828125 44.09375 54.296875 
Q 44.09375 59.90625 40.109375 62.90625 
Q 36.140625 65.921875 28.71875 65.921875 
Q 24.65625 65.921875 20.015625 65.03125 
Q 15.375 64.15625 9.8125 62.3125 
L 9.8125 71.09375 
Q 15.4375 72.65625 20.34375 73.4375 
Q 25.25 74.21875 29.59375 74.21875 
Q 40.828125 74.21875 47.359375 69.109375 
Q 53.90625 64.015625 53.90625 55.328125 
Q 53.90625 49.265625 50.4375 45.09375 
Q 46.96875 40.921875 40.578125 39.3125 
z
" id="DejaVuSans-51"/>
       </defs>
       <use xlink:href="#DejaVuSans-51"/>
       <use x="63.623047" xlink:href="#DejaVuSans-48"/>
       <use x="127.246094" xlink:href="#DejaVuSans-48"/>
      </g>
     </g>
    </g>
    <g id="xtick_5">
     <g id="line2d_9">
      <path clip-path="url(#pd63a3dbe2d)" d="M 331.840625 238.998281 
L 331.840625 21.558281 
" style="fill:none;stroke:#b0b0b0;stroke-linecap:square;stroke-width:0.8;"/>
     </g>
     <g id="line2d_10">
      <g>
       <use style="stroke:#000000;stroke-width:0.8;" x="331.840625" xlink:href="#m1c5f5a3666" y="238.998281"/>
      </g>
     </g>
     <g id="text_5">
      <!-- 400 -->
      <g transform="translate(322.296875 253.596719)scale(0.1 -0.1)">
       <defs>
        <path d="M 37.796875 64.3125 
L 12.890625 25.390625 
L 37.796875 25.390625 
z
M 35.203125 72.90625 
L 47.609375 72.90625 
L 47.609375 25.390625 
L 58.015625 25.390625 
L 58.015625 17.1875 
L 47.609375 17.1875 
L 47.609375 0 
L 37.796875 0 
L 37.796875 17.1875 
L 4.890625 17.1875 
L 4.890625 26.703125 
z
" id="DejaVuSans-52"/>
       </defs>
       <use xlink:href="#DejaVuSans-52"/>
       <use x="63.623047" xlink:href="#DejaVuSans-48"/>
       <use x="127.246094" xlink:href="#DejaVuSans-48"/>
      </g>
     </g>
    </g>
    <g id="xtick_6">
     <g id="line2d_11">
      <path clip-path="url(#pd63a3dbe2d)" d="M 406.240625 238.998281 
L 406.240625 21.558281 
" style="fill:none;stroke:#b0b0b0;stroke-linecap:square;stroke-width:0.8;"/>
     </g>
     <g id="line2d_12">
      <g>
       <use style="stroke:#000000;stroke-width:0.8;" x="406.240625" xlink:href="#m1c5f5a3666" y="238.998281"/>
      </g>
     </g>
     <g id="text_6">
      <!-- 500 -->
      <g transform="translate(396.696875 253.596719)scale(0.1 -0.1)">
       <defs>
        <path d="M 10.796875 72.90625 
L 49.515625 72.90625 
L 49.515625 64.59375 
L 19.828125 64.59375 
L 19.828125 46.734375 
Q 21.96875 47.46875 24.109375 47.828125 
Q 26.265625 48.1875 28.421875 48.1875 
Q 40.625 48.1875 47.75 41.5 
Q 54.890625 34.8125 54.890625 23.390625 
Q 54.890625 11.625 47.5625 5.09375 
Q 40.234375 -1.421875 26.90625 -1.421875 
Q 22.3125 -1.421875 17.546875 -0.640625 
Q 12.796875 0.140625 7.71875 1.703125 
L 7.71875 11.625 
Q 12.109375 9.234375 16.796875 8.0625 
Q 21.484375 6.890625 26.703125 6.890625 
Q 35.15625 6.890625 40.078125 11.328125 
Q 45.015625 15.765625 45.015625 23.390625 
Q 45.015625 31 40.078125 35.4375 
Q 35.15625 39.890625 26.703125 39.890625 
Q 22.75 39.890625 18.8125 39.015625 
Q 14.890625 38.140625 10.796875 36.28125 
z
" id="DejaVuSans-53"/>
       </defs>
       <use xlink:href="#DejaVuSans-53"/>
       <use x="63.623047" xlink:href="#DejaVuSans-48"/>
       <use x="127.246094" xlink:href="#DejaVuSans-48"/>
      </g>
     </g>
    </g>
    <g id="xtick_7">
     <g id="line2d_13">
      <path clip-path="url(#pd63a3dbe2d)" d="M 480.640625 238.998281 
L 480.640625 21.558281 
" style="fill:none;stroke:#b0b0b0;stroke-linecap:square;stroke-width:0.8;"/>
     </g>
     <g id="line2d_14">
      <g>
       <use style="stroke:#000000;stroke-width:0.8;" x="480.640625" xlink:href="#m1c5f5a3666" y="238.998281"/>
      </g>
     </g>
     <g id="text_7">
      <!-- 600 -->
      <g transform="translate(471.096875 253.596719)scale(0.1 -0.1)">
       <defs>
        <path d="M 33.015625 40.375 
Q 26.375 40.375 22.484375 35.828125 
Q 18.609375 31.296875 18.609375 23.390625 
Q 18.609375 15.53125 22.484375 10.953125 
Q 26.375 6.390625 33.015625 6.390625 
Q 39.65625 6.390625 43.53125 10.953125 
Q 47.40625 15.53125 47.40625 23.390625 
Q 47.40625 31.296875 43.53125 35.828125 
Q 39.65625 40.375 33.015625 40.375 
z
M 52.59375 71.296875 
L 52.59375 62.3125 
Q 48.875 64.0625 45.09375 64.984375 
Q 41.3125 65.921875 37.59375 65.921875 
Q 27.828125 65.921875 22.671875 59.328125 
Q 17.53125 52.734375 16.796875 39.40625 
Q 19.671875 43.65625 24.015625 45.921875 
Q 28.375 48.1875 33.59375 48.1875 
Q 44.578125 48.1875 50.953125 41.515625 
Q 57.328125 34.859375 57.328125 23.390625 
Q 57.328125 12.15625 50.6875 5.359375 
Q 44.046875 -1.421875 33.015625 -1.421875 
Q 20.359375 -1.421875 13.671875 8.265625 
Q 6.984375 17.96875 6.984375 36.375 
Q 6.984375 53.65625 15.1875 63.9375 
Q 23.390625 74.21875 37.203125 74.21875 
Q 40.921875 74.21875 44.703125 73.484375 
Q 48.484375 72.75 52.59375 71.296875 
z
" id="DejaVuSans-54"/>
       </defs>
       <use xlink:href="#DejaVuSans-54"/>
       <use x="63.623047" xlink:href="#DejaVuSans-48"/>
       <use x="127.246094" xlink:href="#DejaVuSans-48"/>
      </g>
     </g>
    </g>
    <g id="xtick_8">
     <g id="line2d_15">
      <path clip-path="url(#pd63a3dbe2d)" d="M 555.040625 238.998281 
L 555.040625 21.558281 
" style="fill:none;stroke:#b0b0b0;stroke-linecap:square;stroke-width:0.8;"/>
     </g>
     <g id="line2d_16">
      <g>
       <use style="stroke:#000000;stroke-width:0.8;" x="555.040625" xlink:href="#m1c5f5a3666" y="238.998281"/>
      </g>
     </g>
     <g id="text_8">
      <!-- 700 -->
      <g transform="translate(545.496875 253.596719)scale(0.1 -0.1)">
       <defs>
        <path d="M 8.203125 72.90625 
L 55.078125 72.90625 
L 55.078125 68.703125 
L 28.609375 0 
L 18.3125 0 
L 43.21875 64.59375 
L 8.203125 64.59375 
z
" id="DejaVuSans-55"/>
       </defs>
       <use xlink:href="#DejaVuSans-55"/>
       <use x="63.623047" xlink:href="#DejaVuSans-48"/>
       <use x="127.246094" xlink:href="#DejaVuSans-48"/>
      </g>
     </g>
    </g>
    <g id="xtick_9">
     <g id="line2d_17">
      <path clip-path="url(#pd63a3dbe2d)" d="M 629.440625 238.998281 
L 629.440625 21.558281 
" style="fill:none;stroke:#b0b0b0;stroke-linecap:square;stroke-width:0.8;"/>
     </g>
     <g id="line2d_18">
      <g>
       <use style="stroke:#000000;stroke-width:0.8;" x="629.440625" xlink:href="#m1c5f5a3666" y="238.998281"/>
      </g>
     </g>
     <g id="text_9">
      <!-- 800 -->
      <g transform="translate(619.896875 253.596719)scale(0.1 -0.1)">
       <defs>
        <path d="M 31.78125 34.625 
Q 24.75 34.625 20.71875 30.859375 
Q 16.703125 27.09375 16.703125 20.515625 
Q 16.703125 13.921875 20.71875 10.15625 
Q 24.75 6.390625 31.78125 6.390625 
Q 38.8125 6.390625 42.859375 10.171875 
Q 46.921875 13.96875 46.921875 20.515625 
Q 46.921875 27.09375 42.890625 30.859375 
Q 38.875 34.625 31.78125 34.625 
z
M 21.921875 38.8125 
Q 15.578125 40.375 12.03125 44.71875 
Q 8.5 49.078125 8.5 55.328125 
Q 8.5 64.0625 14.71875 69.140625 
Q 20.953125 74.21875 31.78125 74.21875 
Q 42.671875 74.21875 48.875 69.140625 
Q 55.078125 64.0625 55.078125 55.328125 
Q 55.078125 49.078125 51.53125 44.71875 
Q 48 40.375 41.703125 38.8125 
Q 48.828125 37.15625 52.796875 32.3125 
Q 56.78125 27.484375 56.78125 20.515625 
Q 56.78125 9.90625 50.3125 4.234375 
Q 43.84375 -1.421875 31.78125 -1.421875 
Q 19.734375 -1.421875 13.25 4.234375 
Q 6.78125 9.90625 6.78125 20.515625 
Q 6.78125 27.484375 10.78125 32.3125 
Q 14.796875 37.15625 21.921875 38.8125 
z
M 18.3125 54.390625 
Q 18.3125 48.734375 21.84375 45.5625 
Q 25.390625 42.390625 31.78125 42.390625 
Q 38.140625 42.390625 41.71875 45.5625 
Q 45.3125 48.734375 45.3125 54.390625 
Q 45.3125 60.0625 41.71875 63.234375 
Q 38.140625 66.40625 31.78125 66.40625 
Q 25.390625 66.40625 21.84375 63.234375 
Q 18.3125 60.0625 18.3125 54.390625 
z
" id="DejaVuSans-56"/>
       </defs>
       <use xlink:href="#DejaVuSans-56"/>
       <use x="63.623047" xlink:href="#DejaVuSans-48"/>
       <use x="127.246094" xlink:href="#DejaVuSans-48"/>
      </g>
     </g>
    </g>
    <g id="xtick_10">
     <g id="line2d_19">
      <path clip-path="url(#pd63a3dbe2d)" d="M 703.840625 238.998281 
L 703.840625 21.558281 
" style="fill:none;stroke:#b0b0b0;stroke-linecap:square;stroke-width:0.8;"/>
     </g>
     <g id="line2d_20">
      <g>
       <use style="stroke:#000000;stroke-width:0.8;" x="703.840625" xlink:href="#m1c5f5a3666" y="238.998281"/>
      </g>
     </g>
     <g id="text_10">
      <!-- 900 -->
      <g transform="translate(694.296875 253.596719)scale(0.1 -0.1)">
       <defs>
        <path d="M 10.984375 1.515625 
L 10.984375 10.5 
Q 14.703125 8.734375 18.5 7.8125 
Q 22.3125 6.890625 25.984375 6.890625 
Q 35.75 6.890625 40.890625 13.453125 
Q 46.046875 20.015625 46.78125 33.40625 
Q 43.953125 29.203125 39.59375 26.953125 
Q 35.25 24.703125 29.984375 24.703125 
Q 19.046875 24.703125 12.671875 31.3125 
Q 6.296875 37.9375 6.296875 49.421875 
Q 6.296875 60.640625 12.9375 67.421875 
Q 19.578125 74.21875 30.609375 74.21875 
Q 43.265625 74.21875 49.921875 64.515625 
Q 56.59375 54.828125 56.59375 36.375 
Q 56.59375 19.140625 48.40625 8.859375 
Q 40.234375 -1.421875 26.421875 -1.421875 
Q 22.703125 -1.421875 18.890625 -0.6875 
Q 15.09375 0.046875 10.984375 1.515625 
z
M 30.609375 32.421875 
Q 37.25 32.421875 41.125 36.953125 
Q 45.015625 41.5 45.015625 49.421875 
Q 45.015625 57.28125 41.125 61.84375 
Q 37.25 66.40625 30.609375 66.40625 
Q 23.96875 66.40625 20.09375 61.84375 
Q 16.21875 57.28125 16.21875 49.421875 
Q 16.21875 41.5 20.09375 36.953125 
Q 23.96875 32.421875 30.609375 32.421875 
z
" id="DejaVuSans-57"/>
       </defs>
       <use xlink:href="#DejaVuSans-57"/>
       <use x="63.623047" xlink:href="#DejaVuSans-48"/>
       <use x="127.246094" xlink:href="#DejaVuSans-48"/>
      </g>
     </g>
    </g>
    <g id="text_11">
     <!-- Cross-shore distance (m) -->
     <g transform="translate(306.544531 267.274844)scale(0.1 -0.1)">
      <defs>
       <path d="M 64.40625 67.28125 
L 64.40625 56.890625 
Q 59.421875 61.53125 53.78125 63.8125 
Q 48.140625 66.109375 41.796875 66.109375 
Q 29.296875 66.109375 22.65625 58.46875 
Q 16.015625 50.828125 16.015625 36.375 
Q 16.015625 21.96875 22.65625 14.328125 
Q 29.296875 6.6875 41.796875 6.6875 
Q 48.140625 6.6875 53.78125 8.984375 
Q 59.421875 11.28125 64.40625 15.921875 
L 64.40625 5.609375 
Q 59.234375 2.09375 53.4375 0.328125 
Q 47.65625 -1.421875 41.21875 -1.421875 
Q 24.65625 -1.421875 15.125 8.703125 
Q 5.609375 18.84375 5.609375 36.375 
Q 5.609375 53.953125 15.125 64.078125 
Q 24.65625 74.21875 41.21875 74.21875 
Q 47.75 74.21875 53.53125 72.484375 
Q 59.328125 70.75 64.40625 67.28125 
z
" id="DejaVuSans-67"/>
       <path d="M 41.109375 46.296875 
Q 39.59375 47.171875 37.8125 47.578125 
Q 36.03125 48 33.890625 48 
Q 26.265625 48 22.1875 43.046875 
Q 18.109375 38.09375 18.109375 28.8125 
L 18.109375 0 
L 9.078125 0 
L 9.078125 54.6875 
L 18.109375 54.6875 
L 18.109375 46.1875 
Q 20.953125 51.171875 25.484375 53.578125 
Q 30.03125 56 36.53125 56 
Q 37.453125 56 38.578125 55.875 
Q 39.703125 55.765625 41.0625 55.515625 
z
" id="DejaVuSans-114"/>
       <path d="M 30.609375 48.390625 
Q 23.390625 48.390625 19.1875 42.75 
Q 14.984375 37.109375 14.984375 27.296875 
Q 14.984375 17.484375 19.15625 11.84375 
Q 23.34375 6.203125 30.609375 6.203125 
Q 37.796875 6.203125 41.984375 11.859375 
Q 46.1875 17.53125 46.1875 27.296875 
Q 46.1875 37.015625 41.984375 42.703125 
Q 37.796875 48.390625 30.609375 48.390625 
z
M 30.609375 56 
Q 42.328125 56 49.015625 48.375 
Q 55.71875 40.765625 55.71875 27.296875 
Q 55.71875 13.875 49.015625 6.21875 
Q 42.328125 -1.421875 30.609375 -1.421875 
Q 18.84375 -1.421875 12.171875 6.21875 
Q 5.515625 13.875 5.515625 27.296875 
Q 5.515625 40.765625 12.171875 48.375 
Q 18.84375 56 30.609375 56 
z
" id="DejaVuSans-111"/>
       <path d="M 44.28125 53.078125 
L 44.28125 44.578125 
Q 40.484375 46.53125 36.375 47.5 
Q 32.28125 48.484375 27.875 48.484375 
Q 21.1875 48.484375 17.84375 46.4375 
Q 14.5 44.390625 14.5 40.28125 
Q 14.5 37.15625 16.890625 35.375 
Q 19.28125 33.59375 26.515625 31.984375 
L 29.59375 31.296875 
Q 39.15625 29.25 43.1875 25.515625 
Q 47.21875 21.78125 47.21875 15.09375 
Q 47.21875 7.46875 41.1875 3.015625 
Q 35.15625 -1.421875 24.609375 -1.421875 
Q 20.21875 -1.421875 15.453125 -0.5625 
Q 10.6875 0.296875 5.421875 2 
L 5.421875 11.28125 
Q 10.40625 8.6875 15.234375 7.390625 
Q 20.0625 6.109375 24.8125 6.109375 
Q 31.15625 6.109375 34.5625 8.28125 
Q 37.984375 10.453125 37.984375 14.40625 
Q 37.984375 18.0625 35.515625 20.015625 
Q 33.0625 21.96875 24.703125 23.78125 
L 21.578125 24.515625 
Q 13.234375 26.265625 9.515625 29.90625 
Q 5.8125 33.546875 5.8125 39.890625 
Q 5.8125 47.609375 11.28125 51.796875 
Q 16.75 56 26.8125 56 
Q 31.78125 56 36.171875 55.265625 
Q 40.578125 54.546875 44.28125 53.078125 
z
" id="DejaVuSans-115"/>
       <path d="M 4.890625 31.390625 
L 31.203125 31.390625 
L 31.203125 23.390625 
L 4.890625 23.390625 
z
" id="DejaVuSans-45"/>
       <path d="M 54.890625 33.015625 
L 54.890625 0 
L 45.90625 0 
L 45.90625 32.71875 
Q 45.90625 40.484375 42.875 44.328125 
Q 39.84375 48.1875 33.796875 48.1875 
Q 26.515625 48.1875 22.3125 43.546875 
Q 18.109375 38.921875 18.109375 30.90625 
L 18.109375 0 
L 9.078125 0 
L 9.078125 75.984375 
L 18.109375 75.984375 
L 18.109375 46.1875 
Q 21.34375 51.125 25.703125 53.5625 
Q 30.078125 56 35.796875 56 
Q 45.21875 56 50.046875 50.171875 
Q 54.890625 44.34375 54.890625 33.015625 
z
" id="DejaVuSans-104"/>
       <path d="M 56.203125 29.59375 
L 56.203125 25.203125 
L 14.890625 25.203125 
Q 15.484375 15.921875 20.484375 11.0625 
Q 25.484375 6.203125 34.421875 6.203125 
Q 39.59375 6.203125 44.453125 7.46875 
Q 49.3125 8.734375 54.109375 11.28125 
L 54.109375 2.78125 
Q 49.265625 0.734375 44.1875 -0.34375 
Q 39.109375 -1.421875 33.890625 -1.421875 
Q 20.796875 -1.421875 13.15625 6.1875 
Q 5.515625 13.8125 5.515625 26.8125 
Q 5.515625 40.234375 12.765625 48.109375 
Q 20.015625 56 32.328125 56 
Q 43.359375 56 49.78125 48.890625 
Q 56.203125 41.796875 56.203125 29.59375 
z
M 47.21875 32.234375 
Q 47.125 39.59375 43.09375 43.984375 
Q 39.0625 48.390625 32.421875 48.390625 
Q 24.90625 48.390625 20.390625 44.140625 
Q 15.875 39.890625 15.1875 32.171875 
z
" id="DejaVuSans-101"/>
       <path id="DejaVuSans-32"/>
       <path d="M 45.40625 46.390625 
L 45.40625 75.984375 
L 54.390625 75.984375 
L 54.390625 0 
L 45.40625 0 
L 45.40625 8.203125 
Q 42.578125 3.328125 38.25 0.953125 
Q 33.9375 -1.421875 27.875 -1.421875 
Q 17.96875 -1.421875 11.734375 6.484375 
Q 5.515625 14.40625 5.515625 27.296875 
Q 5.515625 40.1875 11.734375 48.09375 
Q 17.96875 56 27.875 56 
Q 33.9375 56 38.25 53.625 
Q 42.578125 51.265625 45.40625 46.390625 
z
M 14.796875 27.296875 
Q 14.796875 17.390625 18.875 11.75 
Q 22.953125 6.109375 30.078125 6.109375 
Q 37.203125 6.109375 41.296875 11.75 
Q 45.40625 17.390625 45.40625 27.296875 
Q 45.40625 37.203125 41.296875 42.84375 
Q 37.203125 48.484375 30.078125 48.484375 
Q 22.953125 48.484375 18.875 42.84375 
Q 14.796875 37.203125 14.796875 27.296875 
z
" id="DejaVuSans-100"/>
       <path d="M 9.421875 54.6875 
L 18.40625 54.6875 
L 18.40625 0 
L 9.421875 0 
z
M 9.421875 75.984375 
L 18.40625 75.984375 
L 18.40625 64.59375 
L 9.421875 64.59375 
z
" id="DejaVuSans-105"/>
       <path d="M 18.3125 70.21875 
L 18.3125 54.6875 
L 36.8125 54.6875 
L 36.8125 47.703125 
L 18.3125 47.703125 
L 18.3125 18.015625 
Q 18.3125 11.328125 20.140625 9.421875 
Q 21.96875 7.515625 27.59375 7.515625 
L 36.8125 7.515625 
L 36.8125 0 
L 27.59375 0 
Q 17.1875 0 13.234375 3.875 
Q 9.28125 7.765625 9.28125 18.015625 
L 9.28125 47.703125 
L 2.6875 47.703125 
L 2.6875 54.6875 
L 9.28125 54.6875 
L 9.28125 70.21875 
z
" id="DejaVuSans-116"/>
       <path d="M 34.28125 27.484375 
Q 23.390625 27.484375 19.1875 25 
Q 14.984375 22.515625 14.984375 16.5 
Q 14.984375 11.71875 18.140625 8.90625 
Q 21.296875 6.109375 26.703125 6.109375 
Q 34.1875 6.109375 38.703125 11.40625 
Q 43.21875 16.703125 43.21875 25.484375 
L 43.21875 27.484375 
z
M 52.203125 31.203125 
L 52.203125 0 
L 43.21875 0 
L 43.21875 8.296875 
Q 40.140625 3.328125 35.546875 0.953125 
Q 30.953125 -1.421875 24.3125 -1.421875 
Q 15.921875 -1.421875 10.953125 3.296875 
Q 6 8.015625 6 15.921875 
Q 6 25.140625 12.171875 29.828125 
Q 18.359375 34.515625 30.609375 34.515625 
L 43.21875 34.515625 
L 43.21875 35.40625 
Q 43.21875 41.609375 39.140625 45 
Q 35.0625 48.390625 27.6875 48.390625 
Q 23 48.390625 18.546875 47.265625 
Q 14.109375 46.140625 10.015625 43.890625 
L 10.015625 52.203125 
Q 14.9375 54.109375 19.578125 55.046875 
Q 24.21875 56 28.609375 56 
Q 40.484375 56 46.34375 49.84375 
Q 52.203125 43.703125 52.203125 31.203125 
z
" id="DejaVuSans-97"/>
       <path d="M 54.890625 33.015625 
L 54.890625 0 
L 45.90625 0 
L 45.90625 32.71875 
Q 45.90625 40.484375 42.875 44.328125 
Q 39.84375 48.1875 33.796875 48.1875 
Q 26.515625 48.1875 22.3125 43.546875 
Q 18.109375 38.921875 18.109375 30.90625 
L 18.109375 0 
L 9.078125 0 
L 9.078125 54.6875 
L 18.109375 54.6875 
L 18.109375 46.1875 
Q 21.34375 51.125 25.703125 53.5625 
Q 30.078125 56 35.796875 56 
Q 45.21875 56 50.046875 50.171875 
Q 54.890625 44.34375 54.890625 33.015625 
z
" id="DejaVuSans-110"/>
       <path d="M 48.78125 52.59375 
L 48.78125 44.1875 
Q 44.96875 46.296875 41.140625 47.34375 
Q 37.3125 48.390625 33.40625 48.390625 
Q 24.65625 48.390625 19.8125 42.84375 
Q 14.984375 37.3125 14.984375 27.296875 
Q 14.984375 17.28125 19.8125 11.734375 
Q 24.65625 6.203125 33.40625 6.203125 
Q 37.3125 6.203125 41.140625 7.25 
Q 44.96875 8.296875 48.78125 10.40625 
L 48.78125 2.09375 
Q 45.015625 0.34375 40.984375 -0.53125 
Q 36.96875 -1.421875 32.421875 -1.421875 
Q 20.0625 -1.421875 12.78125 6.34375 
Q 5.515625 14.109375 5.515625 27.296875 
Q 5.515625 40.671875 12.859375 48.328125 
Q 20.21875 56 33.015625 56 
Q 37.15625 56 41.109375 55.140625 
Q 45.0625 54.296875 48.78125 52.59375 
z
" id="DejaVuSans-99"/>
       <path d="M 31 75.875 
Q 24.46875 64.65625 21.28125 53.65625 
Q 18.109375 42.671875 18.109375 31.390625 
Q 18.109375 20.125 21.3125 9.0625 
Q 24.515625 -2 31 -13.1875 
L 23.1875 -13.1875 
Q 15.875 -1.703125 12.234375 9.375 
Q 8.59375 20.453125 8.59375 31.390625 
Q 8.59375 42.28125 12.203125 53.3125 
Q 15.828125 64.359375 23.1875 75.875 
z
" id="DejaVuSans-40"/>
       <path d="M 52 44.1875 
Q 55.375 50.25 60.0625 53.125 
Q 64.75 56 71.09375 56 
Q 79.640625 56 84.28125 50.015625 
Q 88.921875 44.046875 88.921875 33.015625 
L 88.921875 0 
L 79.890625 0 
L 79.890625 32.71875 
Q 79.890625 40.578125 77.09375 44.375 
Q 74.3125 48.1875 68.609375 48.1875 
Q 61.625 48.1875 57.5625 43.546875 
Q 53.515625 38.921875 53.515625 30.90625 
L 53.515625 0 
L 44.484375 0 
L 44.484375 32.71875 
Q 44.484375 40.625 41.703125 44.40625 
Q 38.921875 48.1875 33.109375 48.1875 
Q 26.21875 48.1875 22.15625 43.53125 
Q 18.109375 38.875 18.109375 30.90625 
L 18.109375 0 
L 9.078125 0 
L 9.078125 54.6875 
L 18.109375 54.6875 
L 18.109375 46.1875 
Q 21.1875 51.21875 25.484375 53.609375 
Q 29.78125 56 35.6875 56 
Q 41.65625 56 45.828125 52.96875 
Q 50 49.953125 52 44.1875 
z
" id="DejaVuSans-109"/>
       <path d="M 8.015625 75.875 
L 15.828125 75.875 
Q 23.140625 64.359375 26.78125 53.3125 
Q 30.421875 42.28125 30.421875 31.390625 
Q 30.421875 20.453125 26.78125 9.375 
Q 23.140625 -1.703125 15.828125 -13.1875 
L 8.015625 -13.1875 
Q 14.5 -2 17.703125 9.0625 
Q 20.90625 20.125 20.90625 31.390625 
Q 20.90625 42.671875 17.703125 53.65625 
Q 14.5 64.65625 8.015625 75.875 
z
" id="DejaVuSans-41"/>
      </defs>
      <use xlink:href="#DejaVuSans-67"/>
      <use x="69.824219" xlink:href="#DejaVuSans-114"/>
      <use x="108.6875" xlink:href="#DejaVuSans-111"/>
      <use x="169.869141" xlink:href="#DejaVuSans-115"/>
      <use x="221.96875" xlink:href="#DejaVuSans-115"/>
      <use x="274.068359" xlink:href="#DejaVuSans-45"/>
      <use x="310.152344" xlink:href="#DejaVuSans-115"/>
      <use x="362.251953" xlink:href="#DejaVuSans-104"/>
      <use x="425.630859" xlink:href="#DejaVuSans-111"/>
      <use x="486.8125" xlink:href="#DejaVuSans-114"/>
      <use x="525.675781" xlink:href="#DejaVuSans-101"/>
      <use x="587.199219" xlink:href="#DejaVuSans-32"/>
      <use x="618.986328" xlink:href="#DejaVuSans-100"/>
      <use x="682.462891" xlink:href="#DejaVuSans-105"/>
      <use x="710.246094" xlink:href="#DejaVuSans-115"/>
      <use x="762.345703" xlink:href="#DejaVuSans-116"/>
      <use x="801.554688" xlink:href="#DejaVuSans-97"/>
      <use x="862.833984" xlink:href="#DejaVuSans-110"/>
      <use x="926.212891" xlink:href="#DejaVuSans-99"/>
      <use x="981.193359" xlink:href="#DejaVuSans-101"/>
      <use x="1042.716797" xlink:href="#DejaVuSans-32"/>
      <use x="1074.503906" xlink:href="#DejaVuSans-40"/>
      <use x="1113.517578" xlink:href="#DejaVuSans-109"/>
      <use x="1210.929688" xlink:href="#DejaVuSans-41"/>
     </g>
    </g>
   </g>
   <g id="matplotlib.axis_2">
    <g id="ytick_1">
     <g id="line2d_21">
      <path clip-path="url(#pd63a3dbe2d)" d="M 34.240625 238.998281 
L 703.840625 238.998281 
" style="fill:none;stroke:#b0b0b0;stroke-linecap:square;stroke-width:0.8;"/>
     </g>
     <g id="line2d_22">
      <defs>
       <path d="M 0 0 
L -3.5 0 
" id="m03b5ae9dd0" style="stroke:#000000;stroke-width:0.8;"/>
      </defs>
      <g>
       <use style="stroke:#000000;stroke-width:0.8;" x="34.240625" xlink:href="#m03b5ae9dd0" y="238.998281"/>
      </g>
     </g>
     <g id="text_12">
      <!-- 0 -->
      <g transform="translate(20.878125 242.7975)scale(0.1 -0.1)">
       <use xlink:href="#DejaVuSans-48"/>
      </g>
     </g>
    </g>
    <g id="ytick_2">
     <g id="line2d_23">
      <path clip-path="url(#pd63a3dbe2d)" d="M 34.240625 195.510281 
L 703.840625 195.510281 
" style="fill:none;stroke:#b0b0b0;stroke-linecap:square;stroke-width:0.8;"/>
     </g>
     <g id="line2d_24">
      <g>
       <use style="stroke:#000000;stroke-width:0.8;" x="34.240625" xlink:href="#m03b5ae9dd0" y="195.510281"/>
      </g>
     </g>
     <g id="text_13">
      <!-- 1 -->
      <g transform="translate(20.878125 199.3095)scale(0.1 -0.1)">
       <use xlink:href="#DejaVuSans-49"/>
      </g>
     </g>
    </g>
    <g id="ytick_3">
     <g id="line2d_25">
      <path clip-path="url(#pd63a3dbe2d)" d="M 34.240625 152.022281 
L 703.840625 152.022281 
" style="fill:none;stroke:#b0b0b0;stroke-linecap:square;stroke-width:0.8;"/>
     </g>
     <g id="line2d_26">
      <g>
       <use style="stroke:#000000;stroke-width:0.8;" x="34.240625" xlink:href="#m03b5ae9dd0" y="152.022281"/>
      </g>
     </g>
     <g id="text_14">
      <!-- 2 -->
      <g transform="translate(20.878125 155.8215)scale(0.1 -0.1)">
       <use xlink:href="#DejaVuSans-50"/>
      </g>
     </g>
    </g>
    <g id="ytick_4">
     <g id="line2d_27">
      <path clip-path="url(#pd63a3dbe2d)" d="M 34.240625 108.534281 
L 703.840625 108.534281 
" style="fill:none;stroke:#b0b0b0;stroke-linecap:square;stroke-width:0.8;"/>
     </g>
     <g id="line2d_28">
      <g>
       <use style="stroke:#000000;stroke-width:0.8;" x="34.240625" xlink:href="#m03b5ae9dd0" y="108.534281"/>
      </g>
     </g>
     <g id="text_15">
      <!-- 3 -->
      <g transform="translate(20.878125 112.3335)scale(0.1 -0.1)">
       <use xlink:href="#DejaVuSans-51"/>
      </g>
     </g>
    </g>
    <g id="ytick_5">
     <g id="line2d_29">
      <path clip-path="url(#pd63a3dbe2d)" d="M 34.240625 65.046281 
L 703.840625 65.046281 
" style="fill:none;stroke:#b0b0b0;stroke-linecap:square;stroke-width:0.8;"/>
     </g>
     <g id="line2d_30">
      <g>
       <use style="stroke:#000000;stroke-width:0.8;" x="34.240625" xlink:href="#m03b5ae9dd0" y="65.046281"/>
      </g>
     </g>
     <g id="text_16">
      <!-- 4 -->
      <g transform="translate(20.878125 68.8455)scale(0.1 -0.1)">
       <use xlink:href="#DejaVuSans-52"/>
      </g>
     </g>
    </g>
    <g id="ytick_6">
     <g id="line2d_31">
      <path clip-path="url(#pd63a3dbe2d)" d="M 34.240625 21.558281 
L 703.840625 21.558281 
" style="fill:none;stroke:#b0b0b0;stroke-linecap:square;stroke-width:0.8;"/>
     </g>
     <g id="line2d_32">
      <g>
       <use style="stroke:#000000;stroke-width:0.8;" x="34.240625" xlink:href="#m03b5ae9dd0" y="21.558281"/>
      </g>
     </g>
     <g id="text_17">
      <!-- 5 -->
      <g transform="translate(20.878125 25.3575)scale(0.1 -0.1)">
       <use xlink:href="#DejaVuSans-53"/>
      </g>
     </g>
    </g>
    <g id="text_18">
     <!-- Elevation (m) -->
     <g transform="translate(14.798438 163.865)rotate(-90)scale(0.1 -0.1)">
      <defs>
       <path d="M 9.8125 72.90625 
L 55.90625 72.90625 
L 55.90625 64.59375 
L 19.671875 64.59375 
L 19.671875 43.015625 
L 54.390625 43.015625 
L 54.390625 34.71875 
L 19.671875 34.71875 
L 19.671875 8.296875 
L 56.78125 8.296875 
L 56.78125 0 
L 9.8125 0 
z
" id="DejaVuSans-69"/>
       <path d="M 9.421875 75.984375 
L 18.40625 75.984375 
L 18.40625 0 
L 9.421875 0 
z
" id="DejaVuSans-108"/>
       <path d="M 2.984375 54.6875 
L 12.5 54.6875 
L 29.59375 8.796875 
L 46.6875 54.6875 
L 56.203125 54.6875 
L 35.6875 0 
L 23.484375 0 
z
" id="DejaVuSans-118"/>
      </defs>
      <use xlink:href="#DejaVuSans-69"/>
      <use x="63.183594" xlink:href="#DejaVuSans-108"/>
      <use x="90.966797" xlink:href="#DejaVuSans-101"/>
      <use x="152.490234" xlink:href="#DejaVuSans-118"/>
      <use x="211.669922" xlink:href="#DejaVuSans-97"/>
      <use x="272.949219" xlink:href="#DejaVuSans-116"/>
      <use x="312.158203" xlink:href="#DejaVuSans-105"/>
      <use x="339.941406" xlink:href="#DejaVuSans-111"/>
      <use x="401.123047" xlink:href="#DejaVuSans-110"/>
      <use x="464.501953" xlink:href="#DejaVuSans-32"/>
      <use x="496.289062" xlink:href="#DejaVuSans-40"/>
      <use x="535.302734" xlink:href="#DejaVuSans-109"/>
      <use x="632.714844" xlink:href="#DejaVuSans-41"/>
     </g>
    </g>
   </g>
   <g id="line2d_33">
    <path clip-path="url(#pd63a3dbe2d)" d="M 34.240625 200.735976 
L 36.100625 200.735976 
L 37.960625 202.235618 
L 39.820625 206.331931 
L 41.680625 212.000401 
L 43.540625 214.712512 
L 45.400625 214.712512 
L 47.260625 209.280313 
L 49.120625 197.166732 
L 50.980625 184.10597 
L 52.840625 184.10597 
L 54.700625 187.697363 
L 56.560625 199.584464 
L 58.420625 212.331443 
L 60.280625 219.669896 
L 62.140625 219.669896 
L 64.000625 215.72658 
L 65.860625 211.430813 
L 67.720625 211.301448 
L 69.580625 210.982532 
L 71.440625 207.794449 
L 73.300625 202.725749 
L 75.160625 201.92106 
L 77.020625 200.772949 
L 78.880625 198.570499 
L 80.740625 191.099463 
L 82.600625 190.249439 
L 84.460625 190.249439 
L 86.320625 200.079839 
L 88.180625 204.208712 
L 90.040625 204.208712 
L 91.900625 204.02517 
L 93.760625 200.516394 
L 95.620625 197.36212 
L 97.480625 196.276155 
L 99.340625 195.462625 
L 101.200625 190.46905 
L 103.060625 188.789511 
L 104.920625 188.789511 
L 106.780625 195.39051 
L 108.640625 195.39051 
L 110.500625 193.640151 
L 114.220625 190.531079 
L 119.800625 190.537914 
L 121.660625 189.865231 
L 123.520625 180.073574 
L 125.380625 166.268759 
L 127.240625 166.268759 
L 129.100625 170.008568 
L 130.960625 180.507562 
L 132.820625 180.507562 
L 134.680625 176.108732 
L 136.540625 168.565182 
L 138.400625 168.565182 
L 140.260625 170.262923 
L 142.120625 177.258075 
L 143.980625 177.258075 
L 145.840625 171.166629 
L 147.700625 166.096985 
L 149.560625 159.568859 
L 151.420625 159.310784 
L 155.140625 159.310784 
L 157.000625 158.625991 
L 158.860625 157.149967 
L 160.720625 157.149967 
L 162.580625 158.855721 
L 164.440625 165.692471 
L 166.300625 173.03558 
L 168.160625 176.319893 
L 170.020625 177.582736 
L 171.880625 178.347177 
L 173.740625 178.347177 
L 175.600625 169.376444 
L 177.460625 169.247229 
L 179.320625 169.247229 
L 181.180625 167.551455 
L 183.040625 164.735702 
L 184.900625 161.288298 
L 186.760625 153.088553 
L 188.620625 138.689586 
L 190.480625 133.154495 
L 192.340625 133.154495 
L 194.200625 135.913257 
L 196.060625 135.918076 
L 197.920625 138.816689 
L 199.780625 145.575896 
L 201.640625 150.554952 
L 203.500625 153.872216 
L 205.360625 159.653485 
L 207.220625 169.067415 
L 209.080625 174.082418 
L 210.940625 174.082418 
L 212.800625 161.501702 
L 214.660625 147.637448 
L 216.520625 140.815975 
L 218.380625 140.815975 
L 220.240625 143.623941 
L 222.100625 147.081633 
L 223.960625 150.25128 
L 225.820625 153.135021 
L 227.680625 158.309925 
L 229.540625 162.927901 
L 231.400625 165.696765 
L 233.260625 167.373822 
L 235.120625 170.070229 
L 236.980625 174.617031 
L 238.840625 178.364297 
L 240.700625 180.676669 
L 242.560625 183.350099 
L 244.420625 186.913088 
L 246.280625 190.734447 
L 248.140625 193.189168 
L 250.000625 194.554448 
L 251.860625 197.518439 
L 253.720625 203.872954 
L 255.580625 217.260068 
L 257.440625 232.534647 
L 259.300625 238.998281 
L 703.840625 238.998281 
L 703.840625 238.998281 
" style="fill:none;stroke:#000000;stroke-linecap:square;stroke-width:1.5;"/>
   </g>
   <g id="line2d_34">
    <defs>
     <path d="M 0 6 
C 1.591219 6 3.117479 5.367802 4.242641 4.242641 
C 5.367802 3.117479 6 1.591219 6 0 
C 6 -1.591219 5.367802 -3.117479 4.242641 -4.242641 
C 3.117479 -5.367802 1.591219 -6 0 -6 
C -1.591219 -6 -3.117479 -5.367802 -4.242641 -4.242641 
C -5.367802 -3.117479 -6 -1.591219 -6 0 
C -6 1.591219 -5.367802 3.117479 -4.242641 4.242641 
C -3.117479 5.367802 -1.591219 6 0 6 
z
" id="m2d50e6e568" style="stroke:#000000;"/>
    </defs>
    <g clip-path="url(#pd63a3dbe2d)">
     <use style="stroke:#000000;" x="233.260625" xlink:href="#m2d50e6e568" y="167.373822"/>
    </g>
   </g>
   <g id="line2d_35">
    <defs>
     <path d="M 0 6 
C 1.591219 6 3.117479 5.367802 4.242641 4.242641 
C 5.367802 3.117479 6 1.591219 6 0 
C 6 -1.591219 5.367802 -3.117479 4.242641 -4.242641 
C 3.117479 -5.367802 1.591219 -6 0 -6 
C -1.591219 -6 -3.117479 -5.367802 -4.242641 -4.242641 
C -5.367802 -3.117479 -6 -1.591219 -6 0 
C -6 1.591219 -5.367802 3.117479 -4.242641 4.242641 
C -3.117479 5.367802 -1.591219 6 0 6 
z
" id="m6576909ca3" style="stroke:#000000;"/>
    </defs>
    <g clip-path="url(#pd63a3dbe2d)">
     <use style="fill:#ff6347;stroke:#000000;" x="231.400625" xlink:href="#m6576909ca3" y="165.696765"/>
    </g>
   </g>
   <g id="line2d_36">
    <defs>
     <path d="M 0 6 
C 1.591219 6 3.117479 5.367802 4.242641 4.242641 
C 5.367802 3.117479 6 1.591219 6 0 
C 6 -1.591219 5.367802 -3.117479 4.242641 -4.242641 
C 3.117479 -5.367802 1.591219 -6 0 -6 
C -1.591219 -6 -3.117479 -5.367802 -4.242641 -4.242641 
C -5.367802 -3.117479 -6 -1.591219 -6 0 
C -6 1.591219 -5.367802 3.117479 -4.242641 4.242641 
C -3.117479 5.367802 -1.591219 6 0 6 
z
" id="md48f1bfba3" style="stroke:#000000;"/>
    </defs>
    <g clip-path="url(#pd63a3dbe2d)">
     <use style="fill:#6495ed;stroke:#000000;" x="229.540625" xlink:href="#md48f1bfba3" y="162.927901"/>
    </g>
   </g>
   <g id="line2d_37">
    <defs>
     <path d="M 0 6 
C 1.591219 6 3.117479 5.367802 4.242641 4.242641 
C 5.367802 3.117479 6 1.591219 6 0 
C 6 -1.591219 5.367802 -3.117479 4.242641 -4.242641 
C 3.117479 -5.367802 1.591219 -6 0 -6 
C -1.591219 -6 -3.117479 -5.367802 -4.242641 -4.242641 
C -5.367802 -3.117479 -6 -1.591219 -6 0 
C -6 1.591219 -5.367802 3.117479 -4.242641 4.242641 
C -3.117479 5.367802 -1.591219 6 0 6 
z
" id="m2db4ff0ab8" style="stroke:#000000;"/>
    </defs>
    <g clip-path="url(#pd63a3dbe2d)">
     <use style="fill:#ffd700;stroke:#000000;" x="229.540625" xlink:href="#m2db4ff0ab8" y="162.927901"/>
    </g>
   </g>
   <g id="line2d_38">
    <defs>
     <path d="M 0 6 
C 1.591219 6 3.117479 5.367802 4.242641 4.242641 
C 5.367802 3.117479 6 1.591219 6 0 
C 6 -1.591219 5.367802 -3.117479 4.242641 -4.242641 
C 3.117479 -5.367802 1.591219 -6 0 -6 
C -1.591219 -6 -3.117479 -5.367802 -4.242641 -4.242641 
C -5.367802 -3.117479 -6 -1.591219 -6 0 
C -6 1.591219 -5.367802 3.117479 -4.242641 4.242641 
C -3.117479 5.367802 -1.591219 6 0 6 
z
" id="mdd2761bfee" style="stroke:#000000;"/>
    </defs>
    <g clip-path="url(#pd63a3dbe2d)">
     <use style="fill:#32cd32;stroke:#000000;" x="218.380625" xlink:href="#mdd2761bfee" y="140.815975"/>
    </g>
   </g>
   <g id="line2d_39">
    <defs>
     <path d="M -0 6 
L 6 -6 
L -6 -6 
z
" id="mc0f6ae1f50" style="stroke:#000000;stroke-linejoin:miter;"/>
    </defs>
    <g clip-path="url(#pd63a3dbe2d)">
     <use style="stroke:#000000;stroke-linejoin:miter;" x="190.480625" xlink:href="#mc0f6ae1f50" y="133.154495"/>
    </g>
   </g>
   <g id="line2d_40">
    <defs>
     <path d="M 0 -6 
L -6 6 
L 6 6 
z
" id="mdbbc97c8f5" style="stroke:#000000;stroke-linejoin:miter;"/>
    </defs>
    <g clip-path="url(#pd63a3dbe2d)">
     <use style="stroke:#000000;stroke-linejoin:miter;" x="259.300625" xlink:href="#mdbbc97c8f5" y="238.998281"/>
    </g>
   </g>
   <g id="patch_4">
    <path d="M 34.240625 238.998281 
L 34.240625 21.558281 
" style="fill:none;stroke:#000000;stroke-linecap:square;stroke-linejoin:miter;stroke-width:0.8;"/>
   </g>
   <g id="patch_5">
    <path d="M 703.840625 238.998281 
L 703.840625 21.558281 
" style="fill:none;stroke:#000000;stroke-linecap:square;stroke-linejoin:miter;stroke-width:0.8;"/>
   </g>
   <g id="patch_6">
    <path d="M 34.240625 238.998281 
L 703.840625 238.998281 
" style="fill:none;stroke:#000000;stroke-linecap:square;stroke-linejoin:miter;stroke-width:0.8;"/>
   </g>
   <g id="patch_7">
    <path d="M 34.240625 21.558281 
L 703.840625 21.558281 
" style="fill:none;stroke:#000000;stroke-linecap:square;stroke-linejoin:miter;stroke-width:0.8;"/>
   </g>
   <g id="text_19">
    <!-- Example profile -->
    <g transform="translate(326.059844 15.558281)scale(0.11 -0.11)">
     <defs>
      <path d="M 54.890625 54.6875 
L 35.109375 28.078125 
L 55.90625 0 
L 45.3125 0 
L 29.390625 21.484375 
L 13.484375 0 
L 2.875 0 
L 24.125 28.609375 
L 4.6875 54.6875 
L 15.28125 54.6875 
L 29.78125 35.203125 
L 44.28125 54.6875 
z
" id="DejaVuSans-120"/>
      <path d="M 18.109375 8.203125 
L 18.109375 -20.796875 
L 9.078125 -20.796875 
L 9.078125 54.6875 
L 18.109375 54.6875 
L 18.109375 46.390625 
Q 20.953125 51.265625 25.265625 53.625 
Q 29.59375 56 35.59375 56 
Q 45.5625 56 51.78125 48.09375 
Q 58.015625 40.1875 58.015625 27.296875 
Q 58.015625 14.40625 51.78125 6.484375 
Q 45.5625 -1.421875 35.59375 -1.421875 
Q 29.59375 -1.421875 25.265625 0.953125 
Q 20.953125 3.328125 18.109375 8.203125 
z
M 48.6875 27.296875 
Q 48.6875 37.203125 44.609375 42.84375 
Q 40.53125 48.484375 33.40625 48.484375 
Q 26.265625 48.484375 22.1875 42.84375 
Q 18.109375 37.203125 18.109375 27.296875 
Q 18.109375 17.390625 22.1875 11.75 
Q 26.265625 6.109375 33.40625 6.109375 
Q 40.53125 6.109375 44.609375 11.75 
Q 48.6875 17.390625 48.6875 27.296875 
z
" id="DejaVuSans-112"/>
      <path d="M 37.109375 75.984375 
L 37.109375 68.5 
L 28.515625 68.5 
Q 23.6875 68.5 21.796875 66.546875 
Q 19.921875 64.59375 19.921875 59.515625 
L 19.921875 54.6875 
L 34.71875 54.6875 
L 34.71875 47.703125 
L 19.921875 47.703125 
L 19.921875 0 
L 10.890625 0 
L 10.890625 47.703125 
L 2.296875 47.703125 
L 2.296875 54.6875 
L 10.890625 54.6875 
L 10.890625 58.5 
Q 10.890625 67.625 15.140625 71.796875 
Q 19.390625 75.984375 28.609375 75.984375 
z
" id="DejaVuSans-102"/>
     </defs>
     <use xlink:href="#DejaVuSans-69"/>
     <use x="63.183594" xlink:href="#DejaVuSans-120"/>
     <use x="122.363281" xlink:href="#DejaVuSans-97"/>
     <use x="183.642578" xlink:href="#DejaVuSans-109"/>
     <use x="281.054688" xlink:href="#DejaVuSans-112"/>
     <use x="344.53125" xlink:href="#DejaVuSans-108"/>
     <use x="372.314453" xlink:href="#DejaVuSans-101"/>
     <use x="433.837891" xlink:href="#DejaVuSans-32"/>
     <use x="465.625" xlink:href="#DejaVuSans-112"/>
     <use x="529.101562" xlink:href="#DejaVuSans-114"/>
     <use x="567.964844" xlink:href="#DejaVuSans-111"/>
     <use x="629.146484" xlink:href="#DejaVuSans-102"/>
     <use x="664.351562" xlink:href="#DejaVuSans-105"/>
     <use x="692.134766" xlink:href="#DejaVuSans-108"/>
     <use x="719.917969" xlink:href="#DejaVuSans-101"/>
    </g>
   </g>
   <g id="legend_1">
    <g id="patch_8">
     <path d="M 550.539062 146.983281 
L 696.840625 146.983281 
Q 698.840625 146.983281 698.840625 144.983281 
L 698.840625 28.558281 
Q 698.840625 26.558281 696.840625 26.558281 
L 550.539062 26.558281 
Q 548.539062 26.558281 548.539062 28.558281 
L 548.539062 144.983281 
Q 548.539062 146.983281 550.539062 146.983281 
z
" style="fill:#ffffff;stroke:#cccccc;stroke-linejoin:miter;"/>
    </g>
    <g id="line2d_41"/>
    <g id="line2d_42">
     <g>
      <use style="stroke:#000000;" x="562.539062" xlink:href="#m2d50e6e568" y="34.656719"/>
     </g>
    </g>
    <g id="text_20">
     <!-- True toe -->
     <g transform="translate(580.539062 38.156719)scale(0.1 -0.1)">
      <defs>
       <path d="M -0.296875 72.90625 
L 61.375 72.90625 
L 61.375 64.59375 
L 35.5 64.59375 
L 35.5 0 
L 25.59375 0 
L 25.59375 64.59375 
L -0.296875 64.59375 
z
" id="DejaVuSans-84"/>
       <path d="M 8.5 21.578125 
L 8.5 54.6875 
L 17.484375 54.6875 
L 17.484375 21.921875 
Q 17.484375 14.15625 20.5 10.265625 
Q 23.53125 6.390625 29.59375 6.390625 
Q 36.859375 6.390625 41.078125 11.03125 
Q 45.3125 15.671875 45.3125 23.6875 
L 45.3125 54.6875 
L 54.296875 54.6875 
L 54.296875 0 
L 45.3125 0 
L 45.3125 8.40625 
Q 42.046875 3.421875 37.71875 1 
Q 33.40625 -1.421875 27.6875 -1.421875 
Q 18.265625 -1.421875 13.375 4.4375 
Q 8.5 10.296875 8.5 21.578125 
z
M 31.109375 56 
z
" id="DejaVuSans-117"/>
      </defs>
      <use xlink:href="#DejaVuSans-84"/>
      <use x="46.333984" xlink:href="#DejaVuSans-114"/>
      <use x="87.447266" xlink:href="#DejaVuSans-117"/>
      <use x="150.826172" xlink:href="#DejaVuSans-101"/>
      <use x="212.349609" xlink:href="#DejaVuSans-32"/>
      <use x="244.136719" xlink:href="#DejaVuSans-116"/>
      <use x="283.345703" xlink:href="#DejaVuSans-111"/>
      <use x="344.527344" xlink:href="#DejaVuSans-101"/>
     </g>
    </g>
    <g id="line2d_43"/>
    <g id="line2d_44">
     <g>
      <use style="fill:#ff6347;stroke:#000000;" x="562.539062" xlink:href="#m6576909ca3" y="49.334844"/>
     </g>
    </g>
    <g id="text_21">
     <!-- Machine learning -->
     <g transform="translate(580.539062 52.834844)scale(0.1 -0.1)">
      <defs>
       <path d="M 9.8125 72.90625 
L 24.515625 72.90625 
L 43.109375 23.296875 
L 61.8125 72.90625 
L 76.515625 72.90625 
L 76.515625 0 
L 66.890625 0 
L 66.890625 64.015625 
L 48.09375 14.015625 
L 38.1875 14.015625 
L 19.390625 64.015625 
L 19.390625 0 
L 9.8125 0 
z
" id="DejaVuSans-77"/>
       <path d="M 45.40625 27.984375 
Q 45.40625 37.75 41.375 43.109375 
Q 37.359375 48.484375 30.078125 48.484375 
Q 22.859375 48.484375 18.828125 43.109375 
Q 14.796875 37.75 14.796875 27.984375 
Q 14.796875 18.265625 18.828125 12.890625 
Q 22.859375 7.515625 30.078125 7.515625 
Q 37.359375 7.515625 41.375 12.890625 
Q 45.40625 18.265625 45.40625 27.984375 
z
M 54.390625 6.78125 
Q 54.390625 -7.171875 48.1875 -13.984375 
Q 42 -20.796875 29.203125 -20.796875 
Q 24.46875 -20.796875 20.265625 -20.09375 
Q 16.0625 -19.390625 12.109375 -17.921875 
L 12.109375 -9.1875 
Q 16.0625 -11.328125 19.921875 -12.34375 
Q 23.78125 -13.375 27.78125 -13.375 
Q 36.625 -13.375 41.015625 -8.765625 
Q 45.40625 -4.15625 45.40625 5.171875 
L 45.40625 9.625 
Q 42.625 4.78125 38.28125 2.390625 
Q 33.9375 0 27.875 0 
Q 17.828125 0 11.671875 7.65625 
Q 5.515625 15.328125 5.515625 27.984375 
Q 5.515625 40.671875 11.671875 48.328125 
Q 17.828125 56 27.875 56 
Q 33.9375 56 38.28125 53.609375 
Q 42.625 51.21875 45.40625 46.390625 
L 45.40625 54.6875 
L 54.390625 54.6875 
z
" id="DejaVuSans-103"/>
      </defs>
      <use xlink:href="#DejaVuSans-77"/>
      <use x="86.279297" xlink:href="#DejaVuSans-97"/>
      <use x="147.558594" xlink:href="#DejaVuSans-99"/>
      <use x="202.539062" xlink:href="#DejaVuSans-104"/>
      <use x="265.917969" xlink:href="#DejaVuSans-105"/>
      <use x="293.701172" xlink:href="#DejaVuSans-110"/>
      <use x="357.080078" xlink:href="#DejaVuSans-101"/>
      <use x="418.603516" xlink:href="#DejaVuSans-32"/>
      <use x="450.390625" xlink:href="#DejaVuSans-108"/>
      <use x="478.173828" xlink:href="#DejaVuSans-101"/>
      <use x="539.697266" xlink:href="#DejaVuSans-97"/>
      <use x="600.976562" xlink:href="#DejaVuSans-114"/>
      <use x="640.339844" xlink:href="#DejaVuSans-110"/>
      <use x="703.71875" xlink:href="#DejaVuSans-105"/>
      <use x="731.501953" xlink:href="#DejaVuSans-110"/>
      <use x="794.880859" xlink:href="#DejaVuSans-103"/>
     </g>
    </g>
    <g id="line2d_45"/>
    <g id="line2d_46">
     <g>
      <use style="fill:#6495ed;stroke:#000000;" x="562.539062" xlink:href="#md48f1bfba3" y="64.012969"/>
     </g>
    </g>
    <g id="text_22">
     <!-- Maximum curvature -->
     <g transform="translate(580.539062 67.512969)scale(0.1 -0.1)">
      <use xlink:href="#DejaVuSans-77"/>
      <use x="86.279297" xlink:href="#DejaVuSans-97"/>
      <use x="147.558594" xlink:href="#DejaVuSans-120"/>
      <use x="206.738281" xlink:href="#DejaVuSans-105"/>
      <use x="234.521484" xlink:href="#DejaVuSans-109"/>
      <use x="331.933594" xlink:href="#DejaVuSans-117"/>
      <use x="395.3125" xlink:href="#DejaVuSans-109"/>
      <use x="492.724609" xlink:href="#DejaVuSans-32"/>
      <use x="524.511719" xlink:href="#DejaVuSans-99"/>
      <use x="579.492188" xlink:href="#DejaVuSans-117"/>
      <use x="642.871094" xlink:href="#DejaVuSans-114"/>
      <use x="683.984375" xlink:href="#DejaVuSans-118"/>
      <use x="743.164062" xlink:href="#DejaVuSans-97"/>
      <use x="804.443359" xlink:href="#DejaVuSans-116"/>
      <use x="843.652344" xlink:href="#DejaVuSans-117"/>
      <use x="907.03125" xlink:href="#DejaVuSans-114"/>
      <use x="945.894531" xlink:href="#DejaVuSans-101"/>
     </g>
    </g>
    <g id="line2d_47"/>
    <g id="line2d_48">
     <g>
      <use style="fill:#ffd700;stroke:#000000;" x="562.539062" xlink:href="#m2db4ff0ab8" y="78.691094"/>
     </g>
    </g>
    <g id="text_23">
     <!-- Relative relief -->
     <g transform="translate(580.539062 82.191094)scale(0.1 -0.1)">
      <defs>
       <path d="M 44.390625 34.1875 
Q 47.5625 33.109375 50.5625 29.59375 
Q 53.5625 26.078125 56.59375 19.921875 
L 66.609375 0 
L 56 0 
L 46.6875 18.703125 
Q 43.0625 26.03125 39.671875 28.421875 
Q 36.28125 30.8125 30.421875 30.8125 
L 19.671875 30.8125 
L 19.671875 0 
L 9.8125 0 
L 9.8125 72.90625 
L 32.078125 72.90625 
Q 44.578125 72.90625 50.734375 67.671875 
Q 56.890625 62.453125 56.890625 51.90625 
Q 56.890625 45.015625 53.6875 40.46875 
Q 50.484375 35.9375 44.390625 34.1875 
z
M 19.671875 64.796875 
L 19.671875 38.921875 
L 32.078125 38.921875 
Q 39.203125 38.921875 42.84375 42.21875 
Q 46.484375 45.515625 46.484375 51.90625 
Q 46.484375 58.296875 42.84375 61.546875 
Q 39.203125 64.796875 32.078125 64.796875 
z
" id="DejaVuSans-82"/>
      </defs>
      <use xlink:href="#DejaVuSans-82"/>
      <use x="64.982422" xlink:href="#DejaVuSans-101"/>
      <use x="126.505859" xlink:href="#DejaVuSans-108"/>
      <use x="154.289062" xlink:href="#DejaVuSans-97"/>
      <use x="215.568359" xlink:href="#DejaVuSans-116"/>
      <use x="254.777344" xlink:href="#DejaVuSans-105"/>
      <use x="282.560547" xlink:href="#DejaVuSans-118"/>
      <use x="341.740234" xlink:href="#DejaVuSans-101"/>
      <use x="403.263672" xlink:href="#DejaVuSans-32"/>
      <use x="435.050781" xlink:href="#DejaVuSans-114"/>
      <use x="473.914062" xlink:href="#DejaVuSans-101"/>
      <use x="535.4375" xlink:href="#DejaVuSans-108"/>
      <use x="563.220703" xlink:href="#DejaVuSans-105"/>
      <use x="591.003906" xlink:href="#DejaVuSans-101"/>
      <use x="652.527344" xlink:href="#DejaVuSans-102"/>
     </g>
    </g>
    <g id="line2d_49"/>
    <g id="line2d_50">
     <g>
      <use style="fill:#32cd32;stroke:#000000;" x="562.539062" xlink:href="#mdd2761bfee" y="93.369219"/>
     </g>
    </g>
    <g id="text_24">
     <!-- Perpendicular distance -->
     <g transform="translate(580.539062 96.869219)scale(0.1 -0.1)">
      <defs>
       <path d="M 19.671875 64.796875 
L 19.671875 37.40625 
L 32.078125 37.40625 
Q 38.96875 37.40625 42.71875 40.96875 
Q 46.484375 44.53125 46.484375 51.125 
Q 46.484375 57.671875 42.71875 61.234375 
Q 38.96875 64.796875 32.078125 64.796875 
z
M 9.8125 72.90625 
L 32.078125 72.90625 
Q 44.34375 72.90625 50.609375 67.359375 
Q 56.890625 61.8125 56.890625 51.125 
Q 56.890625 40.328125 50.609375 34.8125 
Q 44.34375 29.296875 32.078125 29.296875 
L 19.671875 29.296875 
L 19.671875 0 
L 9.8125 0 
z
" id="DejaVuSans-80"/>
      </defs>
      <use xlink:href="#DejaVuSans-80"/>
      <use x="56.677734" xlink:href="#DejaVuSans-101"/>
      <use x="118.201172" xlink:href="#DejaVuSans-114"/>
      <use x="159.314453" xlink:href="#DejaVuSans-112"/>
      <use x="222.791016" xlink:href="#DejaVuSans-101"/>
      <use x="284.314453" xlink:href="#DejaVuSans-110"/>
      <use x="347.693359" xlink:href="#DejaVuSans-100"/>
      <use x="411.169922" xlink:href="#DejaVuSans-105"/>
      <use x="438.953125" xlink:href="#DejaVuSans-99"/>
      <use x="493.933594" xlink:href="#DejaVuSans-117"/>
      <use x="557.3125" xlink:href="#DejaVuSans-108"/>
      <use x="585.095703" xlink:href="#DejaVuSans-97"/>
      <use x="646.375" xlink:href="#DejaVuSans-114"/>
      <use x="687.488281" xlink:href="#DejaVuSans-32"/>
      <use x="719.275391" xlink:href="#DejaVuSans-100"/>
      <use x="782.751953" xlink:href="#DejaVuSans-105"/>
      <use x="810.535156" xlink:href="#DejaVuSans-115"/>
      <use x="862.634766" xlink:href="#DejaVuSans-116"/>
      <use x="901.84375" xlink:href="#DejaVuSans-97"/>
      <use x="963.123047" xlink:href="#DejaVuSans-110"/>
      <use x="1026.501953" xlink:href="#DejaVuSans-99"/>
      <use x="1081.482422" xlink:href="#DejaVuSans-101"/>
     </g>
    </g>
    <g id="line2d_51"/>
    <g id="line2d_52">
     <g>
      <use style="stroke:#000000;stroke-linejoin:miter;" x="562.539062" xlink:href="#mc0f6ae1f50" y="108.047344"/>
     </g>
    </g>
    <g id="text_25">
     <!-- Crest -->
     <g transform="translate(580.539062 111.547344)scale(0.1 -0.1)">
      <use xlink:href="#DejaVuSans-67"/>
      <use x="69.824219" xlink:href="#DejaVuSans-114"/>
      <use x="108.6875" xlink:href="#DejaVuSans-101"/>
      <use x="170.210938" xlink:href="#DejaVuSans-115"/>
      <use x="222.310547" xlink:href="#DejaVuSans-116"/>
     </g>
    </g>
    <g id="line2d_53"/>
    <g id="line2d_54">
     <g>
      <use style="stroke:#000000;stroke-linejoin:miter;" x="562.539062" xlink:href="#mdbbc97c8f5" y="122.725469"/>
     </g>
    </g>
    <g id="text_26">
     <!-- Shoreline -->
     <g transform="translate(580.539062 126.225469)scale(0.1 -0.1)">
      <defs>
       <path d="M 53.515625 70.515625 
L 53.515625 60.890625 
Q 47.90625 63.578125 42.921875 64.890625 
Q 37.9375 66.21875 33.296875 66.21875 
Q 25.25 66.21875 20.875 63.09375 
Q 16.5 59.96875 16.5 54.203125 
Q 16.5 49.359375 19.40625 46.890625 
Q 22.3125 44.4375 30.421875 42.921875 
L 36.375 41.703125 
Q 47.40625 39.59375 52.65625 34.296875 
Q 57.90625 29 57.90625 20.125 
Q 57.90625 9.515625 50.796875 4.046875 
Q 43.703125 -1.421875 29.984375 -1.421875 
Q 24.8125 -1.421875 18.96875 -0.25 
Q 13.140625 0.921875 6.890625 3.21875 
L 6.890625 13.375 
Q 12.890625 10.015625 18.65625 8.296875 
Q 24.421875 6.59375 29.984375 6.59375 
Q 38.421875 6.59375 43.015625 9.90625 
Q 47.609375 13.234375 47.609375 19.390625 
Q 47.609375 24.75 44.3125 27.78125 
Q 41.015625 30.8125 33.5 32.328125 
L 27.484375 33.5 
Q 16.453125 35.6875 11.515625 40.375 
Q 6.59375 45.0625 6.59375 53.421875 
Q 6.59375 63.09375 13.40625 68.65625 
Q 20.21875 74.21875 32.171875 74.21875 
Q 37.3125 74.21875 42.625 73.28125 
Q 47.953125 72.359375 53.515625 70.515625 
z
" id="DejaVuSans-83"/>
      </defs>
      <use xlink:href="#DejaVuSans-83"/>
      <use x="63.476562" xlink:href="#DejaVuSans-104"/>
      <use x="126.855469" xlink:href="#DejaVuSans-111"/>
      <use x="188.037109" xlink:href="#DejaVuSans-114"/>
      <use x="226.900391" xlink:href="#DejaVuSans-101"/>
      <use x="288.423828" xlink:href="#DejaVuSans-108"/>
      <use x="316.207031" xlink:href="#DejaVuSans-105"/>
      <use x="343.990234" xlink:href="#DejaVuSans-110"/>
      <use x="407.369141" xlink:href="#DejaVuSans-101"/>
     </g>
    </g>
    <g id="patch_9">
     <path d="M 552.539062 140.903594 
L 572.539062 140.903594 
L 572.539062 133.903594 
L 552.539062 133.903594 
z
" style="fill:#ff6347;opacity:0.6;stroke:#ff6347;stroke-linejoin:miter;"/>
    </g>
    <g id="text_27">
     <!-- ML Toe probability -->
     <g transform="translate(580.539062 140.903594)scale(0.1 -0.1)">
      <defs>
       <path d="M 9.8125 72.90625 
L 19.671875 72.90625 
L 19.671875 8.296875 
L 55.171875 8.296875 
L 55.171875 0 
L 9.8125 0 
z
" id="DejaVuSans-76"/>
       <path d="M 48.6875 27.296875 
Q 48.6875 37.203125 44.609375 42.84375 
Q 40.53125 48.484375 33.40625 48.484375 
Q 26.265625 48.484375 22.1875 42.84375 
Q 18.109375 37.203125 18.109375 27.296875 
Q 18.109375 17.390625 22.1875 11.75 
Q 26.265625 6.109375 33.40625 6.109375 
Q 40.53125 6.109375 44.609375 11.75 
Q 48.6875 17.390625 48.6875 27.296875 
z
M 18.109375 46.390625 
Q 20.953125 51.265625 25.265625 53.625 
Q 29.59375 56 35.59375 56 
Q 45.5625 56 51.78125 48.09375 
Q 58.015625 40.1875 58.015625 27.296875 
Q 58.015625 14.40625 51.78125 6.484375 
Q 45.5625 -1.421875 35.59375 -1.421875 
Q 29.59375 -1.421875 25.265625 0.953125 
Q 20.953125 3.328125 18.109375 8.203125 
L 18.109375 0 
L 9.078125 0 
L 9.078125 75.984375 
L 18.109375 75.984375 
z
" id="DejaVuSans-98"/>
       <path d="M 32.171875 -5.078125 
Q 28.375 -14.84375 24.75 -17.8125 
Q 21.140625 -20.796875 15.09375 -20.796875 
L 7.90625 -20.796875 
L 7.90625 -13.28125 
L 13.1875 -13.28125 
Q 16.890625 -13.28125 18.9375 -11.515625 
Q 21 -9.765625 23.484375 -3.21875 
L 25.09375 0.875 
L 2.984375 54.6875 
L 12.5 54.6875 
L 29.59375 11.921875 
L 46.6875 54.6875 
L 56.203125 54.6875 
z
" id="DejaVuSans-121"/>
      </defs>
      <use xlink:href="#DejaVuSans-77"/>
      <use x="86.279297" xlink:href="#DejaVuSans-76"/>
      <use x="141.992188" xlink:href="#DejaVuSans-32"/>
      <use x="173.779297" xlink:href="#DejaVuSans-84"/>
      <use x="217.863281" xlink:href="#DejaVuSans-111"/>
      <use x="279.044922" xlink:href="#DejaVuSans-101"/>
      <use x="340.568359" xlink:href="#DejaVuSans-32"/>
      <use x="372.355469" xlink:href="#DejaVuSans-112"/>
      <use x="435.832031" xlink:href="#DejaVuSans-114"/>
      <use x="474.695312" xlink:href="#DejaVuSans-111"/>
      <use x="535.876953" xlink:href="#DejaVuSans-98"/>
      <use x="599.353516" xlink:href="#DejaVuSans-97"/>
      <use x="660.632812" xlink:href="#DejaVuSans-98"/>
      <use x="724.109375" xlink:href="#DejaVuSans-105"/>
      <use x="751.892578" xlink:href="#DejaVuSans-108"/>
      <use x="779.675781" xlink:href="#DejaVuSans-105"/>
      <use x="807.458984" xlink:href="#DejaVuSans-116"/>
      <use x="846.667969" xlink:href="#DejaVuSans-121"/>
     </g>
    </g>
   </g>
  </g>
  <g id="axes_2">
   <g id="PolyCollection_3">
    <defs>
     <path d="M 34.240625 -37.55625 
L 34.240625 -37.55625 
L 36.100625 -37.55625 
L 37.960625 -37.55625 
L 39.820625 -38.28105 
L 41.680625 -39.36825 
L 43.540625 -41.18025 
L 45.400625 -39.36825 
L 47.260625 -40.09305 
L 49.120625 -40.09305 
L 50.980625 -39.73065 
L 52.840625 -37.55625 
L 54.700625 -37.91865 
L 56.560625 -37.55625 
L 58.420625 -40.81785 
L 60.280625 -50.60265 
L 62.140625 -44.44185 
L 64.000625 -44.44185 
L 65.860625 -37.91865 
L 67.720625 -37.55625 
L 69.580625 -37.55625 
L 71.440625 -37.55625 
L 73.300625 -37.55625 
L 75.160625 -37.55625 
L 77.020625 -37.55625 
L 78.880625 -37.55625 
L 80.740625 -37.55625 
L 82.600625 -37.55625 
L 84.460625 -37.91865 
L 86.320625 -38.28105 
L 88.180625 -38.28105 
L 90.040625 -41.54265 
L 91.900625 -39.00585 
L 93.760625 -37.91865 
L 95.620625 -37.55625 
L 97.480625 -38.28105 
L 99.340625 -37.91865 
L 101.200625 -37.91865 
L 103.060625 -37.55625 
L 104.920625 -37.55625 
L 106.780625 -37.91865 
L 108.640625 -37.91865 
L 110.500625 -40.09305 
L 112.360625 -37.55625 
L 114.220625 -37.55625 
L 116.080625 -37.55625 
L 117.940625 -37.55625 
L 119.800625 -37.55625 
L 121.660625 -37.55625 
L 123.520625 -37.55625 
L 125.380625 -37.55625 
L 127.240625 -37.55625 
L 129.100625 -37.55625 
L 130.960625 -37.91865 
L 132.820625 -41.18025 
L 134.680625 -46.61625 
L 136.540625 -41.54265 
L 138.400625 -38.28105 
L 140.260625 -39.36825 
L 142.120625 -37.91865 
L 143.980625 -40.45545 
L 145.840625 -40.81785 
L 147.700625 -38.28105 
L 149.560625 -37.91865 
L 151.420625 -37.55625 
L 153.280625 -37.91865 
L 155.140625 -37.55625 
L 157.000625 -37.55625 
L 158.860625 -37.91865 
L 160.720625 -37.55625 
L 162.580625 -37.55625 
L 164.440625 -37.91865 
L 166.300625 -38.64345 
L 168.160625 -46.97865 
L 170.020625 -46.97865 
L 171.880625 -38.64345 
L 173.740625 -38.28105 
L 175.600625 -37.91865 
L 177.460625 -37.91865 
L 179.320625 -38.28105 
L 181.180625 -37.55625 
L 183.040625 -37.55625 
L 184.900625 -37.55625 
L 186.760625 -37.55625 
L 188.620625 -37.55625 
L 190.480625 -37.55625 
L 192.340625 -38.28105 
L 194.200625 -37.91865 
L 196.060625 -37.55625 
L 197.920625 -41.90505 
L 199.780625 -40.45545 
L 201.640625 -40.09305 
L 203.500625 -44.80425 
L 205.360625 -42.26745 
L 207.220625 -45.16665 
L 209.080625 -44.80425 
L 210.940625 -40.09305 
L 212.800625 -44.80425 
L 214.660625 -41.54265 
L 216.520625 -39.36825 
L 218.380625 -40.09305 
L 220.240625 -37.55625 
L 222.100625 -37.91865 
L 223.960625 -43.35465 
L 225.820625 -43.35465 
L 227.680625 -45.89145 
L 229.540625 -51.68985 
L 231.400625 -67.63545 
L 233.260625 -64.37385 
L 235.120625 -48.06585 
L 236.980625 -49.51545 
L 238.840625 -49.87785 
L 240.700625 -55.67625 
L 242.560625 -47.70345 
L 244.420625 -44.44185 
L 246.280625 -46.97865 
L 248.140625 -43.35465 
L 250.000625 -45.16665 
L 251.860625 -37.91865 
L 253.720625 -38.28105 
L 255.580625 -37.91865 
L 257.440625 -37.91865 
L 259.300625 -41.90505 
L 261.160625 -37.55625 
L 263.020625 -37.91865 
L 264.880625 -37.55625 
L 266.740625 -37.91865 
L 268.600625 -37.55625 
L 270.460625 -37.55625 
L 272.320625 -37.55625 
L 274.180625 -37.55625 
L 276.040625 -37.55625 
L 277.900625 -37.55625 
L 279.760625 -37.55625 
L 281.620625 -37.55625 
L 283.480625 -37.55625 
L 285.340625 -37.55625 
L 287.200625 -37.55625 
L 289.060625 -37.55625 
L 290.920625 -37.55625 
L 292.780625 -37.55625 
L 294.640625 -37.55625 
L 296.500625 -37.55625 
L 298.360625 -37.55625 
L 300.220625 -37.55625 
L 302.080625 -37.55625 
L 303.940625 -37.55625 
L 305.800625 -37.55625 
L 307.660625 -37.55625 
L 309.520625 -37.55625 
L 311.380625 -37.55625 
L 313.240625 -37.55625 
L 315.100625 -37.55625 
L 316.960625 -37.55625 
L 318.820625 -37.55625 
L 320.680625 -37.55625 
L 322.540625 -37.55625 
L 324.400625 -37.55625 
L 326.260625 -37.55625 
L 328.120625 -37.55625 
L 329.980625 -37.55625 
L 331.840625 -37.55625 
L 333.700625 -37.55625 
L 335.560625 -37.55625 
L 337.420625 -37.55625 
L 339.280625 -37.55625 
L 341.140625 -37.55625 
L 343.000625 -37.55625 
L 344.860625 -37.55625 
L 346.720625 -37.55625 
L 348.580625 -37.55625 
L 350.440625 -37.55625 
L 352.300625 -37.55625 
L 354.160625 -37.55625 
L 356.020625 -37.55625 
L 357.880625 -37.55625 
L 359.740625 -37.55625 
L 361.600625 -37.55625 
L 363.460625 -37.55625 
L 365.320625 -37.55625 
L 367.180625 -37.55625 
L 369.040625 -37.55625 
L 370.900625 -37.55625 
L 372.760625 -37.55625 
L 374.620625 -37.55625 
L 376.480625 -37.55625 
L 378.340625 -37.55625 
L 380.200625 -37.55625 
L 382.060625 -37.55625 
L 383.920625 -37.55625 
L 385.780625 -37.55625 
L 387.640625 -37.55625 
L 389.500625 -37.55625 
L 391.360625 -37.55625 
L 393.220625 -37.55625 
L 395.080625 -37.55625 
L 396.940625 -37.55625 
L 398.800625 -37.55625 
L 400.660625 -37.55625 
L 402.520625 -37.55625 
L 404.380625 -37.55625 
L 406.240625 -37.55625 
L 408.100625 -37.55625 
L 409.960625 -37.55625 
L 411.820625 -37.55625 
L 413.680625 -37.55625 
L 415.540625 -37.55625 
L 417.400625 -37.55625 
L 419.260625 -37.55625 
L 421.120625 -37.55625 
L 422.980625 -37.55625 
L 424.840625 -37.55625 
L 426.700625 -37.55625 
L 428.560625 -37.55625 
L 430.420625 -37.55625 
L 432.280625 -37.55625 
L 434.140625 -37.55625 
L 436.000625 -37.55625 
L 437.860625 -37.55625 
L 439.720625 -37.55625 
L 441.580625 -37.55625 
L 443.440625 -37.55625 
L 445.300625 -37.55625 
L 447.160625 -37.55625 
L 449.020625 -37.55625 
L 450.880625 -37.55625 
L 452.740625 -37.55625 
L 454.600625 -37.55625 
L 456.460625 -37.55625 
L 458.320625 -37.55625 
L 460.180625 -37.55625 
L 462.040625 -37.55625 
L 463.900625 -37.55625 
L 465.760625 -37.55625 
L 467.620625 -37.55625 
L 469.480625 -37.55625 
L 471.340625 -37.55625 
L 473.200625 -37.55625 
L 475.060625 -37.55625 
L 476.920625 -37.55625 
L 478.780625 -37.55625 
L 480.640625 -37.55625 
L 482.500625 -37.55625 
L 484.360625 -37.55625 
L 486.220625 -37.55625 
L 488.080625 -37.55625 
L 489.940625 -37.55625 
L 491.800625 -37.55625 
L 493.660625 -37.55625 
L 495.520625 -37.55625 
L 497.380625 -37.55625 
L 499.240625 -37.55625 
L 501.100625 -37.55625 
L 502.960625 -37.55625 
L 504.820625 -37.55625 
L 506.680625 -37.55625 
L 508.540625 -37.55625 
L 510.400625 -37.55625 
L 512.260625 -37.55625 
L 514.120625 -37.55625 
L 515.980625 -37.55625 
L 517.840625 -37.55625 
L 519.700625 -37.55625 
L 521.560625 -37.55625 
L 523.420625 -37.55625 
L 525.280625 -37.55625 
L 527.140625 -37.55625 
L 529.000625 -37.55625 
L 530.860625 -37.55625 
L 532.720625 -37.55625 
L 534.580625 -37.55625 
L 536.440625 -37.55625 
L 538.300625 -37.55625 
L 540.160625 -37.55625 
L 542.020625 -37.55625 
L 543.880625 -37.55625 
L 545.740625 -37.55625 
L 547.600625 -37.55625 
L 549.460625 -37.55625 
L 551.320625 -37.55625 
L 553.180625 -37.55625 
L 555.040625 -37.55625 
L 556.900625 -37.55625 
L 558.760625 -37.55625 
L 560.620625 -37.55625 
L 562.480625 -37.55625 
L 564.340625 -37.55625 
L 566.200625 -37.55625 
L 568.060625 -37.55625 
L 569.920625 -37.55625 
L 571.780625 -37.55625 
L 573.640625 -37.55625 
L 575.500625 -37.55625 
L 577.360625 -37.55625 
L 579.220625 -37.55625 
L 581.080625 -37.55625 
L 582.940625 -37.55625 
L 584.800625 -37.55625 
L 586.660625 -37.55625 
L 588.520625 -37.55625 
L 590.380625 -37.55625 
L 592.240625 -37.55625 
L 594.100625 -37.55625 
L 595.960625 -37.55625 
L 597.820625 -37.55625 
L 599.680625 -37.55625 
L 601.540625 -37.55625 
L 603.400625 -37.55625 
L 605.260625 -37.55625 
L 607.120625 -37.55625 
L 608.980625 -37.55625 
L 610.840625 -37.55625 
L 612.700625 -37.55625 
L 614.560625 -37.55625 
L 616.420625 -37.55625 
L 618.280625 -37.55625 
L 620.140625 -37.55625 
L 622.000625 -37.55625 
L 623.860625 -37.55625 
L 625.720625 -37.55625 
L 627.580625 -37.55625 
L 629.440625 -37.55625 
L 631.300625 -37.55625 
L 633.160625 -37.55625 
L 635.020625 -37.55625 
L 636.880625 -37.55625 
L 638.740625 -37.55625 
L 640.600625 -37.55625 
L 642.460625 -37.55625 
L 644.320625 -37.55625 
L 646.180625 -37.55625 
L 648.040625 -37.55625 
L 649.900625 -37.55625 
L 651.760625 -37.55625 
L 653.620625 -37.55625 
L 655.480625 -37.55625 
L 657.340625 -37.55625 
L 659.200625 -37.55625 
L 661.060625 -37.55625 
L 662.920625 -37.55625 
L 664.780625 -37.55625 
L 666.640625 -37.55625 
L 668.500625 -37.55625 
L 670.360625 -37.55625 
L 672.220625 -37.55625 
L 674.080625 -37.55625 
L 675.940625 -37.55625 
L 677.800625 -37.55625 
L 679.660625 -37.55625 
L 681.520625 -37.55625 
L 683.380625 -37.55625 
L 685.240625 -37.55625 
L 687.100625 -37.55625 
L 688.960625 -37.55625 
L 690.820625 -37.55625 
L 692.680625 -37.55625 
L 694.540625 -37.55625 
L 696.400625 -37.55625 
L 698.260625 -37.55625 
L 700.120625 -37.55625 
L 701.980625 -37.55625 
L 703.840625 -37.55625 
L 703.840625 -37.55625 
L 703.840625 -37.55625 
L 701.980625 -37.55625 
L 700.120625 -37.55625 
L 698.260625 -37.55625 
L 696.400625 -37.55625 
L 694.540625 -37.55625 
L 692.680625 -37.55625 
L 690.820625 -37.55625 
L 688.960625 -37.55625 
L 687.100625 -37.55625 
L 685.240625 -37.55625 
L 683.380625 -37.55625 
L 681.520625 -37.55625 
L 679.660625 -37.55625 
L 677.800625 -37.55625 
L 675.940625 -37.55625 
L 674.080625 -37.55625 
L 672.220625 -37.55625 
L 670.360625 -37.55625 
L 668.500625 -37.55625 
L 666.640625 -37.55625 
L 664.780625 -37.55625 
L 662.920625 -37.55625 
L 661.060625 -37.55625 
L 659.200625 -37.55625 
L 657.340625 -37.55625 
L 655.480625 -37.55625 
L 653.620625 -37.55625 
L 651.760625 -37.55625 
L 649.900625 -37.55625 
L 648.040625 -37.55625 
L 646.180625 -37.55625 
L 644.320625 -37.55625 
L 642.460625 -37.55625 
L 640.600625 -37.55625 
L 638.740625 -37.55625 
L 636.880625 -37.55625 
L 635.020625 -37.55625 
L 633.160625 -37.55625 
L 631.300625 -37.55625 
L 629.440625 -37.55625 
L 627.580625 -37.55625 
L 625.720625 -37.55625 
L 623.860625 -37.55625 
L 622.000625 -37.55625 
L 620.140625 -37.55625 
L 618.280625 -37.55625 
L 616.420625 -37.55625 
L 614.560625 -37.55625 
L 612.700625 -37.55625 
L 610.840625 -37.55625 
L 608.980625 -37.55625 
L 607.120625 -37.55625 
L 605.260625 -37.55625 
L 603.400625 -37.55625 
L 601.540625 -37.55625 
L 599.680625 -37.55625 
L 597.820625 -37.55625 
L 595.960625 -37.55625 
L 594.100625 -37.55625 
L 592.240625 -37.55625 
L 590.380625 -37.55625 
L 588.520625 -37.55625 
L 586.660625 -37.55625 
L 584.800625 -37.55625 
L 582.940625 -37.55625 
L 581.080625 -37.55625 
L 579.220625 -37.55625 
L 577.360625 -37.55625 
L 575.500625 -37.55625 
L 573.640625 -37.55625 
L 571.780625 -37.55625 
L 569.920625 -37.55625 
L 568.060625 -37.55625 
L 566.200625 -37.55625 
L 564.340625 -37.55625 
L 562.480625 -37.55625 
L 560.620625 -37.55625 
L 558.760625 -37.55625 
L 556.900625 -37.55625 
L 555.040625 -37.55625 
L 553.180625 -37.55625 
L 551.320625 -37.55625 
L 549.460625 -37.55625 
L 547.600625 -37.55625 
L 545.740625 -37.55625 
L 543.880625 -37.55625 
L 542.020625 -37.55625 
L 540.160625 -37.55625 
L 538.300625 -37.55625 
L 536.440625 -37.55625 
L 534.580625 -37.55625 
L 532.720625 -37.55625 
L 530.860625 -37.55625 
L 529.000625 -37.55625 
L 527.140625 -37.55625 
L 525.280625 -37.55625 
L 523.420625 -37.55625 
L 521.560625 -37.55625 
L 519.700625 -37.55625 
L 517.840625 -37.55625 
L 515.980625 -37.55625 
L 514.120625 -37.55625 
L 512.260625 -37.55625 
L 510.400625 -37.55625 
L 508.540625 -37.55625 
L 506.680625 -37.55625 
L 504.820625 -37.55625 
L 502.960625 -37.55625 
L 501.100625 -37.55625 
L 499.240625 -37.55625 
L 497.380625 -37.55625 
L 495.520625 -37.55625 
L 493.660625 -37.55625 
L 491.800625 -37.55625 
L 489.940625 -37.55625 
L 488.080625 -37.55625 
L 486.220625 -37.55625 
L 484.360625 -37.55625 
L 482.500625 -37.55625 
L 480.640625 -37.55625 
L 478.780625 -37.55625 
L 476.920625 -37.55625 
L 475.060625 -37.55625 
L 473.200625 -37.55625 
L 471.340625 -37.55625 
L 469.480625 -37.55625 
L 467.620625 -37.55625 
L 465.760625 -37.55625 
L 463.900625 -37.55625 
L 462.040625 -37.55625 
L 460.180625 -37.55625 
L 458.320625 -37.55625 
L 456.460625 -37.55625 
L 454.600625 -37.55625 
L 452.740625 -37.55625 
L 450.880625 -37.55625 
L 449.020625 -37.55625 
L 447.160625 -37.55625 
L 445.300625 -37.55625 
L 443.440625 -37.55625 
L 441.580625 -37.55625 
L 439.720625 -37.55625 
L 437.860625 -37.55625 
L 436.000625 -37.55625 
L 434.140625 -37.55625 
L 432.280625 -37.55625 
L 430.420625 -37.55625 
L 428.560625 -37.55625 
L 426.700625 -37.55625 
L 424.840625 -37.55625 
L 422.980625 -37.55625 
L 421.120625 -37.55625 
L 419.260625 -37.55625 
L 417.400625 -37.55625 
L 415.540625 -37.55625 
L 413.680625 -37.55625 
L 411.820625 -37.55625 
L 409.960625 -37.55625 
L 408.100625 -37.55625 
L 406.240625 -37.55625 
L 404.380625 -37.55625 
L 402.520625 -37.55625 
L 400.660625 -37.55625 
L 398.800625 -37.55625 
L 396.940625 -37.55625 
L 395.080625 -37.55625 
L 393.220625 -37.55625 
L 391.360625 -37.55625 
L 389.500625 -37.55625 
L 387.640625 -37.55625 
L 385.780625 -37.55625 
L 383.920625 -37.55625 
L 382.060625 -37.55625 
L 380.200625 -37.55625 
L 378.340625 -37.55625 
L 376.480625 -37.55625 
L 374.620625 -37.55625 
L 372.760625 -37.55625 
L 370.900625 -37.55625 
L 369.040625 -37.55625 
L 367.180625 -37.55625 
L 365.320625 -37.55625 
L 363.460625 -37.55625 
L 361.600625 -37.55625 
L 359.740625 -37.55625 
L 357.880625 -37.55625 
L 356.020625 -37.55625 
L 354.160625 -37.55625 
L 352.300625 -37.55625 
L 350.440625 -37.55625 
L 348.580625 -37.55625 
L 346.720625 -37.55625 
L 344.860625 -37.55625 
L 343.000625 -37.55625 
L 341.140625 -37.55625 
L 339.280625 -37.55625 
L 337.420625 -37.55625 
L 335.560625 -37.55625 
L 333.700625 -37.55625 
L 331.840625 -37.55625 
L 329.980625 -37.55625 
L 328.120625 -37.55625 
L 326.260625 -37.55625 
L 324.400625 -37.55625 
L 322.540625 -37.55625 
L 320.680625 -37.55625 
L 318.820625 -37.55625 
L 316.960625 -37.55625 
L 315.100625 -37.55625 
L 313.240625 -37.55625 
L 311.380625 -37.55625 
L 309.520625 -37.55625 
L 307.660625 -37.55625 
L 305.800625 -37.55625 
L 303.940625 -37.55625 
L 302.080625 -37.55625 
L 300.220625 -37.55625 
L 298.360625 -37.55625 
L 296.500625 -37.55625 
L 294.640625 -37.55625 
L 292.780625 -37.55625 
L 290.920625 -37.55625 
L 289.060625 -37.55625 
L 287.200625 -37.55625 
L 285.340625 -37.55625 
L 283.480625 -37.55625 
L 281.620625 -37.55625 
L 279.760625 -37.55625 
L 277.900625 -37.55625 
L 276.040625 -37.55625 
L 274.180625 -37.55625 
L 272.320625 -37.55625 
L 270.460625 -37.55625 
L 268.600625 -37.55625 
L 266.740625 -37.55625 
L 264.880625 -37.55625 
L 263.020625 -37.55625 
L 261.160625 -37.55625 
L 259.300625 -37.55625 
L 257.440625 -37.55625 
L 255.580625 -37.55625 
L 253.720625 -37.55625 
L 251.860625 -37.55625 
L 250.000625 -37.55625 
L 248.140625 -37.55625 
L 246.280625 -37.55625 
L 244.420625 -37.55625 
L 242.560625 -37.55625 
L 240.700625 -37.55625 
L 238.840625 -37.55625 
L 236.980625 -37.55625 
L 235.120625 -37.55625 
L 233.260625 -37.55625 
L 231.400625 -37.55625 
L 229.540625 -37.55625 
L 227.680625 -37.55625 
L 225.820625 -37.55625 
L 223.960625 -37.55625 
L 222.100625 -37.55625 
L 220.240625 -37.55625 
L 218.380625 -37.55625 
L 216.520625 -37.55625 
L 214.660625 -37.55625 
L 212.800625 -37.55625 
L 210.940625 -37.55625 
L 209.080625 -37.55625 
L 207.220625 -37.55625 
L 205.360625 -37.55625 
L 203.500625 -37.55625 
L 201.640625 -37.55625 
L 199.780625 -37.55625 
L 197.920625 -37.55625 
L 196.060625 -37.55625 
L 194.200625 -37.55625 
L 192.340625 -37.55625 
L 190.480625 -37.55625 
L 188.620625 -37.55625 
L 186.760625 -37.55625 
L 184.900625 -37.55625 
L 183.040625 -37.55625 
L 181.180625 -37.55625 
L 179.320625 -37.55625 
L 177.460625 -37.55625 
L 175.600625 -37.55625 
L 173.740625 -37.55625 
L 171.880625 -37.55625 
L 170.020625 -37.55625 
L 168.160625 -37.55625 
L 166.300625 -37.55625 
L 164.440625 -37.55625 
L 162.580625 -37.55625 
L 160.720625 -37.55625 
L 158.860625 -37.55625 
L 157.000625 -37.55625 
L 155.140625 -37.55625 
L 153.280625 -37.55625 
L 151.420625 -37.55625 
L 149.560625 -37.55625 
L 147.700625 -37.55625 
L 145.840625 -37.55625 
L 143.980625 -37.55625 
L 142.120625 -37.55625 
L 140.260625 -37.55625 
L 138.400625 -37.55625 
L 136.540625 -37.55625 
L 134.680625 -37.55625 
L 132.820625 -37.55625 
L 130.960625 -37.55625 
L 129.100625 -37.55625 
L 127.240625 -37.55625 
L 125.380625 -37.55625 
L 123.520625 -37.55625 
L 121.660625 -37.55625 
L 119.800625 -37.55625 
L 117.940625 -37.55625 
L 116.080625 -37.55625 
L 114.220625 -37.55625 
L 112.360625 -37.55625 
L 110.500625 -37.55625 
L 108.640625 -37.55625 
L 106.780625 -37.55625 
L 104.920625 -37.55625 
L 103.060625 -37.55625 
L 101.200625 -37.55625 
L 99.340625 -37.55625 
L 97.480625 -37.55625 
L 95.620625 -37.55625 
L 93.760625 -37.55625 
L 91.900625 -37.55625 
L 90.040625 -37.55625 
L 88.180625 -37.55625 
L 86.320625 -37.55625 
L 84.460625 -37.55625 
L 82.600625 -37.55625 
L 80.740625 -37.55625 
L 78.880625 -37.55625 
L 77.020625 -37.55625 
L 75.160625 -37.55625 
L 73.300625 -37.55625 
L 71.440625 -37.55625 
L 69.580625 -37.55625 
L 67.720625 -37.55625 
L 65.860625 -37.55625 
L 64.000625 -37.55625 
L 62.140625 -37.55625 
L 60.280625 -37.55625 
L 58.420625 -37.55625 
L 56.560625 -37.55625 
L 54.700625 -37.55625 
L 52.840625 -37.55625 
L 50.980625 -37.55625 
L 49.120625 -37.55625 
L 47.260625 -37.55625 
L 45.400625 -37.55625 
L 43.540625 -37.55625 
L 41.680625 -37.55625 
L 39.820625 -37.55625 
L 37.960625 -37.55625 
L 36.100625 -37.55625 
L 34.240625 -37.55625 
z
" id="m767934ed9d" style="stroke:#ff6347;stroke-opacity:0.5;"/>
    </defs>
    <g clip-path="url(#pd63a3dbe2d)">
     <use style="fill:#ff6347;fill-opacity:0.5;stroke:#ff6347;stroke-opacity:0.5;" x="0" xlink:href="#m767934ed9d" y="276.554531"/>
    </g>
   </g>
   <g id="matplotlib.axis_3">
    <g id="ytick_7">
     <g id="line2d_55">
      <defs>
       <path d="M 0 0 
L 3.5 0 
" id="m568c8a9e7f" style="stroke:#000000;stroke-width:0.8;"/>
      </defs>
      <g>
       <use style="stroke:#000000;stroke-width:0.8;" x="703.840625" xlink:href="#m568c8a9e7f" y="238.998281"/>
      </g>
     </g>
     <g id="text_28">
      <!-- 0 -->
      <g style="fill:#ff6347;" transform="translate(710.840625 242.7975)scale(0.1 -0.1)">
       <use xlink:href="#DejaVuSans-48"/>
      </g>
     </g>
    </g>
    <g id="ytick_8">
     <g id="line2d_56">
      <g>
       <use style="stroke:#000000;stroke-width:0.8;" x="703.840625" xlink:href="#m568c8a9e7f" y="202.758281"/>
      </g>
     </g>
     <g id="text_29">
      <!-- 1 -->
      <g style="fill:#ff6347;" transform="translate(710.840625 206.5575)scale(0.1 -0.1)">
       <use xlink:href="#DejaVuSans-49"/>
      </g>
     </g>
    </g>
    <g id="text_30">
     <!-- Toe probability -->
     <g style="fill:#ff6347;" transform="translate(763.202188 180.649594)rotate(-270)scale(0.1 -0.1)">
      <use xlink:href="#DejaVuSans-84"/>
      <use x="44.083984" xlink:href="#DejaVuSans-111"/>
      <use x="105.265625" xlink:href="#DejaVuSans-101"/>
      <use x="166.789062" xlink:href="#DejaVuSans-32"/>
      <use x="198.576172" xlink:href="#DejaVuSans-112"/>
      <use x="262.052734" xlink:href="#DejaVuSans-114"/>
      <use x="300.916016" xlink:href="#DejaVuSans-111"/>
      <use x="362.097656" xlink:href="#DejaVuSans-98"/>
      <use x="425.574219" xlink:href="#DejaVuSans-97"/>
      <use x="486.853516" xlink:href="#DejaVuSans-98"/>
      <use x="550.330078" xlink:href="#DejaVuSans-105"/>
      <use x="578.113281" xlink:href="#DejaVuSans-108"/>
      <use x="605.896484" xlink:href="#DejaVuSans-105"/>
      <use x="633.679688" xlink:href="#DejaVuSans-116"/>
      <use x="672.888672" xlink:href="#DejaVuSans-121"/>
     </g>
    </g>
   </g>
   <g id="patch_10">
    <path d="M 34.240625 238.998281 
L 34.240625 21.558281 
" style="fill:none;stroke:#000000;stroke-linecap:square;stroke-linejoin:miter;stroke-width:0.8;"/>
   </g>
   <g id="patch_11">
    <path d="M 703.840625 238.998281 
L 703.840625 21.558281 
" style="fill:none;stroke:#000000;stroke-linecap:square;stroke-linejoin:miter;stroke-width:0.8;"/>
   </g>
   <g id="patch_12">
    <path d="M 34.240625 238.998281 
L 703.840625 238.998281 
" style="fill:none;stroke:#000000;stroke-linecap:square;stroke-linejoin:miter;stroke-width:0.8;"/>
   </g>
   <g id="patch_13">
    <path d="M 34.240625 21.558281 
L 703.840625 21.558281 
" style="fill:none;stroke:#000000;stroke-linecap:square;stroke-linejoin:miter;stroke-width:0.8;"/>
   </g>
  </g>
 </g>
 <defs>
  <clipPath id="pd63a3dbe2d">
   <rect height="217.44" width="669.6" x="34.240625" y="21.558281"/>
  </clipPath>
 </defs>
</svg>
