<?xml version="1.0" encoding="utf-8" standalone="no"?>
<!DOCTYPE svg PUBLIC "-//W3C//DTD SVG 1.1//EN"
  "http://www.w3.org/Graphics/SVG/1.1/DTD/svg11.dtd">
<!-- Created with matplotlib (https://matplotlib.org/) -->
<svg height="276.554531pt" version="1.1" viewBox="0 0 661.603125 276.554531" width="661.603125pt" xmlns="http://www.w3.org/2000/svg" xmlns:xlink="http://www.w3.org/1999/xlink">
 <metadata>
  <rdf:RDF xmlns:cc="http://creativecommons.org/ns#" xmlns:dc="http://purl.org/dc/elements/1.1/" xmlns:rdf="http://www.w3.org/1999/02/22-rdf-syntax-ns#">
   <cc:Work>
    <dc:type rdf:resource="http://purl.org/dc/dcmitype/StillImage"/>
    <dc:date>2021-03-25T08:31:47.298447</dc:date>
    <dc:format>image/svg+xml</dc:format>
    <dc:creator>
     <cc:Agent>
      <dc:title>Matplotlib v3.3.4, https://matplotlib.org/</dc:title>
     </cc:Agent>
    </dc:creator>
   </cc:Work>
  </rdf:RDF>
 </metadata>
 <defs>
  <style type="text/css">*{stroke-linecap:butt;stroke-linejoin:round;}</style>
 </defs>
 <g id="figure_1">
  <g id="patch_1">
   <path d="M 0 276.554531 
L 661.603125 276.554531 
L 661.603125 0 
L 0 0 
z
" style="fill:none;"/>
  </g>
  <g id="axes_1">
   <g id="patch_2">
    <path d="M 40.603125 238.998281 
L 598.603125 238.998281 
L 598.603125 21.558281 
L 40.603125 21.558281 
z
" style="fill:#ffffff;"/>
   </g>
   <g id="PolyCollection_1">
    <defs>
     <path d="M 412.603125 -15.81225 
L 412.603125 -37.55625 
L 598.603125 -37.55625 
L 598.603125 -15.81225 
L 598.603125 -15.81225 
L 412.603125 -15.81225 
z
" id="mea21391b2c" style="stroke:#87cefa;stroke-opacity:0.5;"/>
    </defs>
    <g clip-path="url(#pb0edb4f19b)">
     <use style="fill:#87cefa;fill-opacity:0.5;stroke:#87cefa;stroke-opacity:0.5;" x="0" xlink:href="#mea21391b2c" y="276.554531"/>
    </g>
   </g>
   <g id="PolyCollection_2">
    <defs>
     <path d="M 40.603125 -15.81225 
L 40.603125 -241.94985 
L 45.917411 -241.08009 
L 51.231696 -240.42777 
L 56.545982 -239.55801 
L 61.860268 -238.90569 
L 67.174554 -239.77545 
L 72.488839 -238.25337 
L 77.803125 -232.81737 
L 83.117411 -228.25113 
L 88.431696 -222.38025 
L 93.745982 -214.76985 
L 99.060268 -208.24665 
L 104.374554 -201.07113 
L 109.688839 -192.80841 
L 115.003125 -185.41545 
L 120.317411 -177.37017 
L 125.631696 -173.45625 
L 130.945982 -173.23881 
L 136.260268 -174.10857 
L 141.574554 -176.28297 
L 146.888839 -176.50041 
L 152.203125 -175.19577 
L 157.517411 -173.45625 
L 162.831696 -163.88889 
L 168.145982 -158.23545 
L 173.460268 -154.32153 
L 178.774554 -151.92969 
L 184.088839 -150.84249 
L 189.403125 -147.79833 
L 194.717411 -143.23209 
L 200.031696 -140.84025 
L 205.345982 -132.79497 
L 210.660268 -130.18569 
L 215.974554 -128.22873 
L 221.288839 -126.05433 
L 226.603125 -124.09737 
L 231.917411 -121.05321 
L 237.231696 -118.00905 
L 242.545982 -115.18233 
L 247.860268 -111.92073 
L 253.174554 -108.87657 
L 258.488839 -105.83241 
L 263.803125 -103.65801 
L 269.117411 -101.91849 
L 274.431696 -100.83129 
L 279.745982 -99.96153 
L 285.060268 -98.87433 
L 290.374554 -97.56969 
L 295.688839 -96.48249 
L 301.003125 -96.48249 
L 306.317411 -95.83017 
L 311.631696 -94.74297 
L 316.945982 -94.74297 
L 322.260268 -94.96041 
L 327.574554 -95.39529 
L 332.888839 -95.39529 
L 338.203125 -96.48249 
L 343.517411 -96.04761 
L 348.831696 -96.48249 
L 354.145982 -96.26505 
L 359.460268 -95.39529 
L 364.774554 -94.09065 
L 370.088839 -93.22089 
L 375.403125 -91.69881 
L 380.717411 -91.04649 
L 386.031696 -90.61161 
L 391.345982 -89.30697 
L 396.660268 -89.08953 
L 401.974554 -88.43721 
L 407.288839 -87.35001 
L 412.603125 -85.82793 
L 417.917411 -85.39305 
L 423.231696 -85.61049 
L 428.545982 -86.04537 
L 433.860268 -86.26281 
L 439.174554 -86.48025 
L 444.488839 -86.26281 
L 449.803125 -86.26281 
L 455.117411 -85.39305 
L 460.431696 -83.43609 
L 465.745982 -80.82681 
L 471.060268 -78.00009 
L 476.374554 -74.30361 
L 481.688839 -70.82457 
L 487.003125 -67.34553 
L 492.317411 -64.30137 
L 497.631696 -61.47465 
L 502.945982 -58.64793 
L 508.260268 -56.03865 
L 513.574554 -53.64681 
L 518.888839 -51.25497 
L 524.203125 -49.08057 
L 529.517411 -47.77593 
L 534.831696 -46.47129 
L 540.145982 -45.60153 
L 545.460268 -44.94921 
L 550.774554 -43.42713 
L 556.088839 -41.68761 
L 561.403125 -39.29577 
L 566.717411 -38.86089 
L 572.031696 -37.33881 
L 572.031696 -15.81225 
L 572.031696 -15.81225 
L 566.717411 -15.81225 
L 561.403125 -15.81225 
L 556.088839 -15.81225 
L 550.774554 -15.81225 
L 545.460268 -15.81225 
L 540.145982 -15.81225 
L 534.831696 -15.81225 
L 529.517411 -15.81225 
L 524.203125 -15.81225 
L 518.888839 -15.81225 
L 513.574554 -15.81225 
L 508.260268 -15.81225 
L 502.945982 -15.81225 
L 497.631696 -15.81225 
L 492.317411 -15.81225 
L 487.003125 -15.81225 
L 481.688839 -15.81225 
L 476.374554 -15.81225 
L 471.060268 -15.81225 
L 465.745982 -15.81225 
L 460.431696 -15.81225 
L 455.117411 -15.81225 
L 449.803125 -15.81225 
L 444.488839 -15.81225 
L 439.174554 -15.81225 
L 433.860268 -15.81225 
L 428.545982 -15.81225 
L 423.231696 -15.81225 
L 417.917411 -15.81225 
L 412.603125 -15.81225 
L 407.288839 -15.81225 
L 401.974554 -15.81225 
L 396.660268 -15.81225 
L 391.345982 -15.81225 
L 386.031696 -15.81225 
L 380.717411 -15.81225 
L 375.403125 -15.81225 
L 370.088839 -15.81225 
L 364.774554 -15.81225 
L 359.460268 -15.81225 
L 354.145982 -15.81225 
L 348.831696 -15.81225 
L 343.517411 -15.81225 
L 338.203125 -15.81225 
L 332.888839 -15.81225 
L 327.574554 -15.81225 
L 322.260268 -15.81225 
L 316.945982 -15.81225 
L 311.631696 -15.81225 
L 306.317411 -15.81225 
L 301.003125 -15.81225 
L 295.688839 -15.81225 
L 290.374554 -15.81225 
L 285.060268 -15.81225 
L 279.745982 -15.81225 
L 274.431696 -15.81225 
L 269.117411 -15.81225 
L 263.803125 -15.81225 
L 258.488839 -15.81225 
L 253.174554 -15.81225 
L 247.860268 -15.81225 
L 242.545982 -15.81225 
L 237.231696 -15.81225 
L 231.917411 -15.81225 
L 226.603125 -15.81225 
L 221.288839 -15.81225 
L 215.974554 -15.81225 
L 210.660268 -15.81225 
L 205.345982 -15.81225 
L 200.031696 -15.81225 
L 194.717411 -15.81225 
L 189.403125 -15.81225 
L 184.088839 -15.81225 
L 178.774554 -15.81225 
L 173.460268 -15.81225 
L 168.145982 -15.81225 
L 162.831696 -15.81225 
L 157.517411 -15.81225 
L 152.203125 -15.81225 
L 146.888839 -15.81225 
L 141.574554 -15.81225 
L 136.260268 -15.81225 
L 130.945982 -15.81225 
L 125.631696 -15.81225 
L 120.317411 -15.81225 
L 115.003125 -15.81225 
L 109.688839 -15.81225 
L 104.374554 -15.81225 
L 99.060268 -15.81225 
L 93.745982 -15.81225 
L 88.431696 -15.81225 
L 83.117411 -15.81225 
L 77.803125 -15.81225 
L 72.488839 -15.81225 
L 67.174554 -15.81225 
L 61.860268 -15.81225 
L 56.545982 -15.81225 
L 51.231696 -15.81225 
L 45.917411 -15.81225 
L 40.603125 -15.81225 
z
" id="m62b4d03303" style="stroke:#fff8dc;"/>
    </defs>
    <g clip-path="url(#pb0edb4f19b)">
     <use style="fill:#fff8dc;stroke:#fff8dc;" x="0" xlink:href="#m62b4d03303" y="276.554531"/>
    </g>
   </g>
   <g id="patch_3">
    <path clip-path="url(#pb0edb4f19b)" d="M -12.539732 238.998281 
L -12.539732 21.558281 
L -7.225446 21.558281 
L -7.225446 238.998281 
z
" style="fill:#ff6347;opacity:0.6;stroke:#ff6347;stroke-linejoin:miter;"/>
   </g>
   <g id="matplotlib.axis_1">
    <g id="xtick_1">
     <g id="line2d_1">
      <path clip-path="url(#pb0edb4f19b)" d="M 40.603125 238.998281 
L 40.603125 21.558281 
" style="fill:none;stroke:#b0b0b0;stroke-linecap:square;stroke-width:0.8;"/>
     </g>
     <g id="line2d_2">
      <defs>
       <path d="M 0 0 
L 0 3.5 
" id="ma4589e4814" style="stroke:#000000;stroke-width:0.8;"/>
      </defs>
      <g>
       <use style="stroke:#000000;stroke-width:0.8;" x="40.603125" xlink:href="#ma4589e4814" y="238.998281"/>
      </g>
     </g>
     <g id="text_1">
      <!-- 0 -->
      <g transform="translate(37.421875 253.596719)scale(0.1 -0.1)">
       <defs>
        <path d="M 31.78125 66.40625 
Q 24.171875 66.40625 20.328125 58.90625 
Q 16.5 51.421875 16.5 36.375 
Q 16.5 21.390625 20.328125 13.890625 
Q 24.171875 6.390625 31.78125 6.390625 
Q 39.453125 6.390625 43.28125 13.890625 
Q 47.125 21.390625 47.125 36.375 
Q 47.125 51.421875 43.28125 58.90625 
Q 39.453125 66.40625 31.78125 66.40625 
z
M 31.78125 74.21875 
Q 44.046875 74.21875 50.515625 64.515625 
Q 56.984375 54.828125 56.984375 36.375 
Q 56.984375 17.96875 50.515625 8.265625 
Q 44.046875 -1.421875 31.78125 -1.421875 
Q 19.53125 -1.421875 13.0625 8.265625 
Q 6.59375 17.96875 6.59375 36.375 
Q 6.59375 54.828125 13.0625 64.515625 
Q 19.53125 74.21875 31.78125 74.21875 
z
" id="DejaVuSans-48"/>
       </defs>
       <use xlink:href="#DejaVuSans-48"/>
      </g>
     </g>
    </g>
    <g id="xtick_2">
     <g id="line2d_3">
      <path clip-path="url(#pb0edb4f19b)" d="M 146.888839 238.998281 
L 146.888839 21.558281 
" style="fill:none;stroke:#b0b0b0;stroke-linecap:square;stroke-width:0.8;"/>
     </g>
     <g id="line2d_4">
      <g>
       <use style="stroke:#000000;stroke-width:0.8;" x="146.888839" xlink:href="#ma4589e4814" y="238.998281"/>
      </g>
     </g>
     <g id="text_2">
      <!-- 20 -->
      <g transform="translate(140.526339 253.596719)scale(0.1 -0.1)">
       <defs>
        <path d="M 19.1875 8.296875 
L 53.609375 8.296875 
L 53.609375 0 
L 7.328125 0 
L 7.328125 8.296875 
Q 12.9375 14.109375 22.625 23.890625 
Q 32.328125 33.6875 34.8125 36.53125 
Q 39.546875 41.84375 41.421875 45.53125 
Q 43.3125 49.21875 43.3125 52.78125 
Q 43.3125 58.59375 39.234375 62.25 
Q 35.15625 65.921875 28.609375 65.921875 
Q 23.96875 65.921875 18.8125 64.3125 
Q 13.671875 62.703125 7.8125 59.421875 
L 7.8125 69.390625 
Q 13.765625 71.78125 18.9375 73 
Q 24.125 74.21875 28.421875 74.21875 
Q 39.75 74.21875 46.484375 68.546875 
Q 53.21875 62.890625 53.21875 53.421875 
Q 53.21875 48.921875 51.53125 44.890625 
Q 49.859375 40.875 45.40625 35.40625 
Q 44.1875 33.984375 37.640625 27.21875 
Q 31.109375 20.453125 19.1875 8.296875 
z
" id="DejaVuSans-50"/>
       </defs>
       <use xlink:href="#DejaVuSans-50"/>
       <use x="63.623047" xlink:href="#DejaVuSans-48"/>
      </g>
     </g>
    </g>
    <g id="xtick_3">
     <g id="line2d_5">
      <path clip-path="url(#pb0edb4f19b)" d="M 253.174554 238.998281 
L 253.174554 21.558281 
" style="fill:none;stroke:#b0b0b0;stroke-linecap:square;stroke-width:0.8;"/>
     </g>
     <g id="line2d_6">
      <g>
       <use style="stroke:#000000;stroke-width:0.8;" x="253.174554" xlink:href="#ma4589e4814" y="238.998281"/>
      </g>
     </g>
     <g id="text_3">
      <!-- 40 -->
      <g transform="translate(246.812054 253.596719)scale(0.1 -0.1)">
       <defs>
        <path d="M 37.796875 64.3125 
L 12.890625 25.390625 
L 37.796875 25.390625 
z
M 35.203125 72.90625 
L 47.609375 72.90625 
L 47.609375 25.390625 
L 58.015625 25.390625 
L 58.015625 17.1875 
L 47.609375 17.1875 
L 47.609375 0 
L 37.796875 0 
L 37.796875 17.1875 
L 4.890625 17.1875 
L 4.890625 26.703125 
z
" id="DejaVuSans-52"/>
       </defs>
       <use xlink:href="#DejaVuSans-52"/>
       <use x="63.623047" xlink:href="#DejaVuSans-48"/>
      </g>
     </g>
    </g>
    <g id="xtick_4">
     <g id="line2d_7">
      <path clip-path="url(#pb0edb4f19b)" d="M 359.460268 238.998281 
L 359.460268 21.558281 
" style="fill:none;stroke:#b0b0b0;stroke-linecap:square;stroke-width:0.8;"/>
     </g>
     <g id="line2d_8">
      <g>
       <use style="stroke:#000000;stroke-width:0.8;" x="359.460268" xlink:href="#ma4589e4814" y="238.998281"/>
      </g>
     </g>
     <g id="text_4">
      <!-- 60 -->
      <g transform="translate(353.097768 253.596719)scale(0.1 -0.1)">
       <defs>
        <path d="M 33.015625 40.375 
Q 26.375 40.375 22.484375 35.828125 
Q 18.609375 31.296875 18.609375 23.390625 
Q 18.609375 15.53125 22.484375 10.953125 
Q 26.375 6.390625 33.015625 6.390625 
Q 39.65625 6.390625 43.53125 10.953125 
Q 47.40625 15.53125 47.40625 23.390625 
Q 47.40625 31.296875 43.53125 35.828125 
Q 39.65625 40.375 33.015625 40.375 
z
M 52.59375 71.296875 
L 52.59375 62.3125 
Q 48.875 64.0625 45.09375 64.984375 
Q 41.3125 65.921875 37.59375 65.921875 
Q 27.828125 65.921875 22.671875 59.328125 
Q 17.53125 52.734375 16.796875 39.40625 
Q 19.671875 43.65625 24.015625 45.921875 
Q 28.375 48.1875 33.59375 48.1875 
Q 44.578125 48.1875 50.953125 41.515625 
Q 57.328125 34.859375 57.328125 23.390625 
Q 57.328125 12.15625 50.6875 5.359375 
Q 44.046875 -1.421875 33.015625 -1.421875 
Q 20.359375 -1.421875 13.671875 8.265625 
Q 6.984375 17.96875 6.984375 36.375 
Q 6.984375 53.65625 15.1875 63.9375 
Q 23.390625 74.21875 37.203125 74.21875 
Q 40.921875 74.21875 44.703125 73.484375 
Q 48.484375 72.75 52.59375 71.296875 
z
" id="DejaVuSans-54"/>
       </defs>
       <use xlink:href="#DejaVuSans-54"/>
       <use x="63.623047" xlink:href="#DejaVuSans-48"/>
      </g>
     </g>
    </g>
    <g id="xtick_5">
     <g id="line2d_9">
      <path clip-path="url(#pb0edb4f19b)" d="M 465.745982 238.998281 
L 465.745982 21.558281 
" style="fill:none;stroke:#b0b0b0;stroke-linecap:square;stroke-width:0.8;"/>
     </g>
     <g id="line2d_10">
      <g>
       <use style="stroke:#000000;stroke-width:0.8;" x="465.745982" xlink:href="#ma4589e4814" y="238.998281"/>
      </g>
     </g>
     <g id="text_5">
      <!-- 80 -->
      <g transform="translate(459.383482 253.596719)scale(0.1 -0.1)">
       <defs>
        <path d="M 31.78125 34.625 
Q 24.75 34.625 20.71875 30.859375 
Q 16.703125 27.09375 16.703125 20.515625 
Q 16.703125 13.921875 20.71875 10.15625 
Q 24.75 6.390625 31.78125 6.390625 
Q 38.8125 6.390625 42.859375 10.171875 
Q 46.921875 13.96875 46.921875 20.515625 
Q 46.921875 27.09375 42.890625 30.859375 
Q 38.875 34.625 31.78125 34.625 
z
M 21.921875 38.8125 
Q 15.578125 40.375 12.03125 44.71875 
Q 8.5 49.078125 8.5 55.328125 
Q 8.5 64.0625 14.71875 69.140625 
Q 20.953125 74.21875 31.78125 74.21875 
Q 42.671875 74.21875 48.875 69.140625 
Q 55.078125 64.0625 55.078125 55.328125 
Q 55.078125 49.078125 51.53125 44.71875 
Q 48 40.375 41.703125 38.8125 
Q 48.828125 37.15625 52.796875 32.3125 
Q 56.78125 27.484375 56.78125 20.515625 
Q 56.78125 9.90625 50.3125 4.234375 
Q 43.84375 -1.421875 31.78125 -1.421875 
Q 19.734375 -1.421875 13.25 4.234375 
Q 6.78125 9.90625 6.78125 20.515625 
Q 6.78125 27.484375 10.78125 32.3125 
Q 14.796875 37.15625 21.921875 38.8125 
z
M 18.3125 54.390625 
Q 18.3125 48.734375 21.84375 45.5625 
Q 25.390625 42.390625 31.78125 42.390625 
Q 38.140625 42.390625 41.71875 45.5625 
Q 45.3125 48.734375 45.3125 54.390625 
Q 45.3125 60.0625 41.71875 63.234375 
Q 38.140625 66.40625 31.78125 66.40625 
Q 25.390625 66.40625 21.84375 63.234375 
Q 18.3125 60.0625 18.3125 54.390625 
z
" id="DejaVuSans-56"/>
       </defs>
       <use xlink:href="#DejaVuSans-56"/>
       <use x="63.623047" xlink:href="#DejaVuSans-48"/>
      </g>
     </g>
    </g>
    <g id="xtick_6">
     <g id="line2d_11">
      <path clip-path="url(#pb0edb4f19b)" d="M 572.031696 238.998281 
L 572.031696 21.558281 
" style="fill:none;stroke:#b0b0b0;stroke-linecap:square;stroke-width:0.8;"/>
     </g>
     <g id="line2d_12">
      <g>
       <use style="stroke:#000000;stroke-width:0.8;" x="572.031696" xlink:href="#ma4589e4814" y="238.998281"/>
      </g>
     </g>
     <g id="text_6">
      <!-- 100 -->
      <g transform="translate(562.487946 253.596719)scale(0.1 -0.1)">
       <defs>
        <path d="M 12.40625 8.296875 
L 28.515625 8.296875 
L 28.515625 63.921875 
L 10.984375 60.40625 
L 10.984375 69.390625 
L 28.421875 72.90625 
L 38.28125 72.90625 
L 38.28125 8.296875 
L 54.390625 8.296875 
L 54.390625 0 
L 12.40625 0 
z
" id="DejaVuSans-49"/>
       </defs>
       <use xlink:href="#DejaVuSans-49"/>
       <use x="63.623047" xlink:href="#DejaVuSans-48"/>
       <use x="127.246094" xlink:href="#DejaVuSans-48"/>
      </g>
     </g>
    </g>
    <g id="text_7">
     <!-- Cross-shore distance (m) -->
     <g transform="translate(257.107031 267.274844)scale(0.1 -0.1)">
      <defs>
       <path d="M 64.40625 67.28125 
L 64.40625 56.890625 
Q 59.421875 61.53125 53.78125 63.8125 
Q 48.140625 66.109375 41.796875 66.109375 
Q 29.296875 66.109375 22.65625 58.46875 
Q 16.015625 50.828125 16.015625 36.375 
Q 16.015625 21.96875 22.65625 14.328125 
Q 29.296875 6.6875 41.796875 6.6875 
Q 48.140625 6.6875 53.78125 8.984375 
Q 59.421875 11.28125 64.40625 15.921875 
L 64.40625 5.609375 
Q 59.234375 2.09375 53.4375 0.328125 
Q 47.65625 -1.421875 41.21875 -1.421875 
Q 24.65625 -1.421875 15.125 8.703125 
Q 5.609375 18.84375 5.609375 36.375 
Q 5.609375 53.953125 15.125 64.078125 
Q 24.65625 74.21875 41.21875 74.21875 
Q 47.75 74.21875 53.53125 72.484375 
Q 59.328125 70.75 64.40625 67.28125 
z
" id="DejaVuSans-67"/>
       <path d="M 41.109375 46.296875 
Q 39.59375 47.171875 37.8125 47.578125 
Q 36.03125 48 33.890625 48 
Q 26.265625 48 22.1875 43.046875 
Q 18.109375 38.09375 18.109375 28.8125 
L 18.109375 0 
L 9.078125 0 
L 9.078125 54.6875 
L 18.109375 54.6875 
L 18.109375 46.1875 
Q 20.953125 51.171875 25.484375 53.578125 
Q 30.03125 56 36.53125 56 
Q 37.453125 56 38.578125 55.875 
Q 39.703125 55.765625 41.0625 55.515625 
z
" id="DejaVuSans-114"/>
       <path d="M 30.609375 48.390625 
Q 23.390625 48.390625 19.1875 42.75 
Q 14.984375 37.109375 14.984375 27.296875 
Q 14.984375 17.484375 19.15625 11.84375 
Q 23.34375 6.203125 30.609375 6.203125 
Q 37.796875 6.203125 41.984375 11.859375 
Q 46.1875 17.53125 46.1875 27.296875 
Q 46.1875 37.015625 41.984375 42.703125 
Q 37.796875 48.390625 30.609375 48.390625 
z
M 30.609375 56 
Q 42.328125 56 49.015625 48.375 
Q 55.71875 40.765625 55.71875 27.296875 
Q 55.71875 13.875 49.015625 6.21875 
Q 42.328125 -1.421875 30.609375 -1.421875 
Q 18.84375 -1.421875 12.171875 6.21875 
Q 5.515625 13.875 5.515625 27.296875 
Q 5.515625 40.765625 12.171875 48.375 
Q 18.84375 56 30.609375 56 
z
" id="DejaVuSans-111"/>
       <path d="M 44.28125 53.078125 
L 44.28125 44.578125 
Q 40.484375 46.53125 36.375 47.5 
Q 32.28125 48.484375 27.875 48.484375 
Q 21.1875 48.484375 17.84375 46.4375 
Q 14.5 44.390625 14.5 40.28125 
Q 14.5 37.15625 16.890625 35.375 
Q 19.28125 33.59375 26.515625 31.984375 
L 29.59375 31.296875 
Q 39.15625 29.25 43.1875 25.515625 
Q 47.21875 21.78125 47.21875 15.09375 
Q 47.21875 7.46875 41.1875 3.015625 
Q 35.15625 -1.421875 24.609375 -1.421875 
Q 20.21875 -1.421875 15.453125 -0.5625 
Q 10.6875 0.296875 5.421875 2 
L 5.421875 11.28125 
Q 10.40625 8.6875 15.234375 7.390625 
Q 20.0625 6.109375 24.8125 6.109375 
Q 31.15625 6.109375 34.5625 8.28125 
Q 37.984375 10.453125 37.984375 14.40625 
Q 37.984375 18.0625 35.515625 20.015625 
Q 33.0625 21.96875 24.703125 23.78125 
L 21.578125 24.515625 
Q 13.234375 26.265625 9.515625 29.90625 
Q 5.8125 33.546875 5.8125 39.890625 
Q 5.8125 47.609375 11.28125 51.796875 
Q 16.75 56 26.8125 56 
Q 31.78125 56 36.171875 55.265625 
Q 40.578125 54.546875 44.28125 53.078125 
z
" id="DejaVuSans-115"/>
       <path d="M 4.890625 31.390625 
L 31.203125 31.390625 
L 31.203125 23.390625 
L 4.890625 23.390625 
z
" id="DejaVuSans-45"/>
       <path d="M 54.890625 33.015625 
L 54.890625 0 
L 45.90625 0 
L 45.90625 32.71875 
Q 45.90625 40.484375 42.875 44.328125 
Q 39.84375 48.1875 33.796875 48.1875 
Q 26.515625 48.1875 22.3125 43.546875 
Q 18.109375 38.921875 18.109375 30.90625 
L 18.109375 0 
L 9.078125 0 
L 9.078125 75.984375 
L 18.109375 75.984375 
L 18.109375 46.1875 
Q 21.34375 51.125 25.703125 53.5625 
Q 30.078125 56 35.796875 56 
Q 45.21875 56 50.046875 50.171875 
Q 54.890625 44.34375 54.890625 33.015625 
z
" id="DejaVuSans-104"/>
       <path d="M 56.203125 29.59375 
L 56.203125 25.203125 
L 14.890625 25.203125 
Q 15.484375 15.921875 20.484375 11.0625 
Q 25.484375 6.203125 34.421875 6.203125 
Q 39.59375 6.203125 44.453125 7.46875 
Q 49.3125 8.734375 54.109375 11.28125 
L 54.109375 2.78125 
Q 49.265625 0.734375 44.1875 -0.34375 
Q 39.109375 -1.421875 33.890625 -1.421875 
Q 20.796875 -1.421875 13.15625 6.1875 
Q 5.515625 13.8125 5.515625 26.8125 
Q 5.515625 40.234375 12.765625 48.109375 
Q 20.015625 56 32.328125 56 
Q 43.359375 56 49.78125 48.890625 
Q 56.203125 41.796875 56.203125 29.59375 
z
M 47.21875 32.234375 
Q 47.125 39.59375 43.09375 43.984375 
Q 39.0625 48.390625 32.421875 48.390625 
Q 24.90625 48.390625 20.390625 44.140625 
Q 15.875 39.890625 15.1875 32.171875 
z
" id="DejaVuSans-101"/>
       <path id="DejaVuSans-32"/>
       <path d="M 45.40625 46.390625 
L 45.40625 75.984375 
L 54.390625 75.984375 
L 54.390625 0 
L 45.40625 0 
L 45.40625 8.203125 
Q 42.578125 3.328125 38.25 0.953125 
Q 33.9375 -1.421875 27.875 -1.421875 
Q 17.96875 -1.421875 11.734375 6.484375 
Q 5.515625 14.40625 5.515625 27.296875 
Q 5.515625 40.1875 11.734375 48.09375 
Q 17.96875 56 27.875 56 
Q 33.9375 56 38.25 53.625 
Q 42.578125 51.265625 45.40625 46.390625 
z
M 14.796875 27.296875 
Q 14.796875 17.390625 18.875 11.75 
Q 22.953125 6.109375 30.078125 6.109375 
Q 37.203125 6.109375 41.296875 11.75 
Q 45.40625 17.390625 45.40625 27.296875 
Q 45.40625 37.203125 41.296875 42.84375 
Q 37.203125 48.484375 30.078125 48.484375 
Q 22.953125 48.484375 18.875 42.84375 
Q 14.796875 37.203125 14.796875 27.296875 
z
" id="DejaVuSans-100"/>
       <path d="M 9.421875 54.6875 
L 18.40625 54.6875 
L 18.40625 0 
L 9.421875 0 
z
M 9.421875 75.984375 
L 18.40625 75.984375 
L 18.40625 64.59375 
L 9.421875 64.59375 
z
" id="DejaVuSans-105"/>
       <path d="M 18.3125 70.21875 
L 18.3125 54.6875 
L 36.8125 54.6875 
L 36.8125 47.703125 
L 18.3125 47.703125 
L 18.3125 18.015625 
Q 18.3125 11.328125 20.140625 9.421875 
Q 21.96875 7.515625 27.59375 7.515625 
L 36.8125 7.515625 
L 36.8125 0 
L 27.59375 0 
Q 17.1875 0 13.234375 3.875 
Q 9.28125 7.765625 9.28125 18.015625 
L 9.28125 47.703125 
L 2.6875 47.703125 
L 2.6875 54.6875 
L 9.28125 54.6875 
L 9.28125 70.21875 
z
" id="DejaVuSans-116"/>
       <path d="M 34.28125 27.484375 
Q 23.390625 27.484375 19.1875 25 
Q 14.984375 22.515625 14.984375 16.5 
Q 14.984375 11.71875 18.140625 8.90625 
Q 21.296875 6.109375 26.703125 6.109375 
Q 34.1875 6.109375 38.703125 11.40625 
Q 43.21875 16.703125 43.21875 25.484375 
L 43.21875 27.484375 
z
M 52.203125 31.203125 
L 52.203125 0 
L 43.21875 0 
L 43.21875 8.296875 
Q 40.140625 3.328125 35.546875 0.953125 
Q 30.953125 -1.421875 24.3125 -1.421875 
Q 15.921875 -1.421875 10.953125 3.296875 
Q 6 8.015625 6 15.921875 
Q 6 25.140625 12.171875 29.828125 
Q 18.359375 34.515625 30.609375 34.515625 
L 43.21875 34.515625 
L 43.21875 35.40625 
Q 43.21875 41.609375 39.140625 45 
Q 35.0625 48.390625 27.6875 48.390625 
Q 23 48.390625 18.546875 47.265625 
Q 14.109375 46.140625 10.015625 43.890625 
L 10.015625 52.203125 
Q 14.9375 54.109375 19.578125 55.046875 
Q 24.21875 56 28.609375 56 
Q 40.484375 56 46.34375 49.84375 
Q 52.203125 43.703125 52.203125 31.203125 
z
" id="DejaVuSans-97"/>
       <path d="M 54.890625 33.015625 
L 54.890625 0 
L 45.90625 0 
L 45.90625 32.71875 
Q 45.90625 40.484375 42.875 44.328125 
Q 39.84375 48.1875 33.796875 48.1875 
Q 26.515625 48.1875 22.3125 43.546875 
Q 18.109375 38.921875 18.109375 30.90625 
L 18.109375 0 
L 9.078125 0 
L 9.078125 54.6875 
L 18.109375 54.6875 
L 18.109375 46.1875 
Q 21.34375 51.125 25.703125 53.5625 
Q 30.078125 56 35.796875 56 
Q 45.21875 56 50.046875 50.171875 
Q 54.890625 44.34375 54.890625 33.015625 
z
" id="DejaVuSans-110"/>
       <path d="M 48.78125 52.59375 
L 48.78125 44.1875 
Q 44.96875 46.296875 41.140625 47.34375 
Q 37.3125 48.390625 33.40625 48.390625 
Q 24.65625 48.390625 19.8125 42.84375 
Q 14.984375 37.3125 14.984375 27.296875 
Q 14.984375 17.28125 19.8125 11.734375 
Q 24.65625 6.203125 33.40625 6.203125 
Q 37.3125 6.203125 41.140625 7.25 
Q 44.96875 8.296875 48.78125 10.40625 
L 48.78125 2.09375 
Q 45.015625 0.34375 40.984375 -0.53125 
Q 36.96875 -1.421875 32.421875 -1.421875 
Q 20.0625 -1.421875 12.78125 6.34375 
Q 5.515625 14.109375 5.515625 27.296875 
Q 5.515625 40.671875 12.859375 48.328125 
Q 20.21875 56 33.015625 56 
Q 37.15625 56 41.109375 55.140625 
Q 45.0625 54.296875 48.78125 52.59375 
z
" id="DejaVuSans-99"/>
       <path d="M 31 75.875 
Q 24.46875 64.65625 21.28125 53.65625 
Q 18.109375 42.671875 18.109375 31.390625 
Q 18.109375 20.125 21.3125 9.0625 
Q 24.515625 -2 31 -13.1875 
L 23.1875 -13.1875 
Q 15.875 -1.703125 12.234375 9.375 
Q 8.59375 20.453125 8.59375 31.390625 
Q 8.59375 42.28125 12.203125 53.3125 
Q 15.828125 64.359375 23.1875 75.875 
z
" id="DejaVuSans-40"/>
       <path d="M 52 44.1875 
Q 55.375 50.25 60.0625 53.125 
Q 64.75 56 71.09375 56 
Q 79.640625 56 84.28125 50.015625 
Q 88.921875 44.046875 88.921875 33.015625 
L 88.921875 0 
L 79.890625 0 
L 79.890625 32.71875 
Q 79.890625 40.578125 77.09375 44.375 
Q 74.3125 48.1875 68.609375 48.1875 
Q 61.625 48.1875 57.5625 43.546875 
Q 53.515625 38.921875 53.515625 30.90625 
L 53.515625 0 
L 44.484375 0 
L 44.484375 32.71875 
Q 44.484375 40.625 41.703125 44.40625 
Q 38.921875 48.1875 33.109375 48.1875 
Q 26.21875 48.1875 22.15625 43.53125 
Q 18.109375 38.875 18.109375 30.90625 
L 18.109375 0 
L 9.078125 0 
L 9.078125 54.6875 
L 18.109375 54.6875 
L 18.109375 46.1875 
Q 21.1875 51.21875 25.484375 53.609375 
Q 29.78125 56 35.6875 56 
Q 41.65625 56 45.828125 52.96875 
Q 50 49.953125 52 44.1875 
z
" id="DejaVuSans-109"/>
       <path d="M 8.015625 75.875 
L 15.828125 75.875 
Q 23.140625 64.359375 26.78125 53.3125 
Q 30.421875 42.28125 30.421875 31.390625 
Q 30.421875 20.453125 26.78125 9.375 
Q 23.140625 -1.703125 15.828125 -13.1875 
L 8.015625 -13.1875 
Q 14.5 -2 17.703125 9.0625 
Q 20.90625 20.125 20.90625 31.390625 
Q 20.90625 42.671875 17.703125 53.65625 
Q 14.5 64.65625 8.015625 75.875 
z
" id="DejaVuSans-41"/>
      </defs>
      <use xlink:href="#DejaVuSans-67"/>
      <use x="69.824219" xlink:href="#DejaVuSans-114"/>
      <use x="108.6875" xlink:href="#DejaVuSans-111"/>
      <use x="169.869141" xlink:href="#DejaVuSans-115"/>
      <use x="221.96875" xlink:href="#DejaVuSans-115"/>
      <use x="274.068359" xlink:href="#DejaVuSans-45"/>
      <use x="310.152344" xlink:href="#DejaVuSans-115"/>
      <use x="362.251953" xlink:href="#DejaVuSans-104"/>
      <use x="425.630859" xlink:href="#DejaVuSans-111"/>
      <use x="486.8125" xlink:href="#DejaVuSans-114"/>
      <use x="525.675781" xlink:href="#DejaVuSans-101"/>
      <use x="587.199219" xlink:href="#DejaVuSans-32"/>
      <use x="618.986328" xlink:href="#DejaVuSans-100"/>
      <use x="682.462891" xlink:href="#DejaVuSans-105"/>
      <use x="710.246094" xlink:href="#DejaVuSans-115"/>
      <use x="762.345703" xlink:href="#DejaVuSans-116"/>
      <use x="801.554688" xlink:href="#DejaVuSans-97"/>
      <use x="862.833984" xlink:href="#DejaVuSans-110"/>
      <use x="926.212891" xlink:href="#DejaVuSans-99"/>
      <use x="981.193359" xlink:href="#DejaVuSans-101"/>
      <use x="1042.716797" xlink:href="#DejaVuSans-32"/>
      <use x="1074.503906" xlink:href="#DejaVuSans-40"/>
      <use x="1113.517578" xlink:href="#DejaVuSans-109"/>
      <use x="1210.929688" xlink:href="#DejaVuSans-41"/>
     </g>
    </g>
   </g>
   <g id="matplotlib.axis_2">
    <g id="ytick_1">
     <g id="line2d_13">
      <path clip-path="url(#pb0edb4f19b)" d="M 40.603125 238.998281 
L 598.603125 238.998281 
" style="fill:none;stroke:#b0b0b0;stroke-linecap:square;stroke-width:0.8;"/>
     </g>
     <g id="line2d_14">
      <defs>
       <path d="M 0 0 
L -3.5 0 
" id="m1074a6a507" style="stroke:#000000;stroke-width:0.8;"/>
      </defs>
      <g>
       <use style="stroke:#000000;stroke-width:0.8;" x="40.603125" xlink:href="#m1074a6a507" y="238.998281"/>
      </g>
     </g>
     <g id="text_8">
      <!-- 0 -->
      <g transform="translate(27.240625 242.7975)scale(0.1 -0.1)">
       <use xlink:href="#DejaVuSans-48"/>
      </g>
     </g>
    </g>
    <g id="ytick_2">
     <g id="line2d_15">
      <path clip-path="url(#pb0edb4f19b)" d="M 40.603125 195.510281 
L 598.603125 195.510281 
" style="fill:none;stroke:#b0b0b0;stroke-linecap:square;stroke-width:0.8;"/>
     </g>
     <g id="line2d_16">
      <g>
       <use style="stroke:#000000;stroke-width:0.8;" x="40.603125" xlink:href="#m1074a6a507" y="195.510281"/>
      </g>
     </g>
     <g id="text_9">
      <!-- 2 -->
      <g transform="translate(27.240625 199.3095)scale(0.1 -0.1)">
       <use xlink:href="#DejaVuSans-50"/>
      </g>
     </g>
    </g>
    <g id="ytick_3">
     <g id="line2d_17">
      <path clip-path="url(#pb0edb4f19b)" d="M 40.603125 152.022281 
L 598.603125 152.022281 
" style="fill:none;stroke:#b0b0b0;stroke-linecap:square;stroke-width:0.8;"/>
     </g>
     <g id="line2d_18">
      <g>
       <use style="stroke:#000000;stroke-width:0.8;" x="40.603125" xlink:href="#m1074a6a507" y="152.022281"/>
      </g>
     </g>
     <g id="text_10">
      <!-- 4 -->
      <g transform="translate(27.240625 155.8215)scale(0.1 -0.1)">
       <use xlink:href="#DejaVuSans-52"/>
      </g>
     </g>
    </g>
    <g id="ytick_4">
     <g id="line2d_19">
      <path clip-path="url(#pb0edb4f19b)" d="M 40.603125 108.534281 
L 598.603125 108.534281 
" style="fill:none;stroke:#b0b0b0;stroke-linecap:square;stroke-width:0.8;"/>
     </g>
     <g id="line2d_20">
      <g>
       <use style="stroke:#000000;stroke-width:0.8;" x="40.603125" xlink:href="#m1074a6a507" y="108.534281"/>
      </g>
     </g>
     <g id="text_11">
      <!-- 6 -->
      <g transform="translate(27.240625 112.3335)scale(0.1 -0.1)">
       <use xlink:href="#DejaVuSans-54"/>
      </g>
     </g>
    </g>
    <g id="ytick_5">
     <g id="line2d_21">
      <path clip-path="url(#pb0edb4f19b)" d="M 40.603125 65.046281 
L 598.603125 65.046281 
" style="fill:none;stroke:#b0b0b0;stroke-linecap:square;stroke-width:0.8;"/>
     </g>
     <g id="line2d_22">
      <g>
       <use style="stroke:#000000;stroke-width:0.8;" x="40.603125" xlink:href="#m1074a6a507" y="65.046281"/>
      </g>
     </g>
     <g id="text_12">
      <!-- 8 -->
      <g transform="translate(27.240625 68.8455)scale(0.1 -0.1)">
       <use xlink:href="#DejaVuSans-56"/>
      </g>
     </g>
    </g>
    <g id="ytick_6">
     <g id="line2d_23">
      <path clip-path="url(#pb0edb4f19b)" d="M 40.603125 21.558281 
L 598.603125 21.558281 
" style="fill:none;stroke:#b0b0b0;stroke-linecap:square;stroke-width:0.8;"/>
     </g>
     <g id="line2d_24">
      <g>
       <use style="stroke:#000000;stroke-width:0.8;" x="40.603125" xlink:href="#m1074a6a507" y="21.558281"/>
      </g>
     </g>
     <g id="text_13">
      <!-- 10 -->
      <g transform="translate(20.878125 25.3575)scale(0.1 -0.1)">
       <use xlink:href="#DejaVuSans-49"/>
       <use x="63.623047" xlink:href="#DejaVuSans-48"/>
      </g>
     </g>
    </g>
    <g id="text_14">
     <!-- Elevation (m) -->
     <g transform="translate(14.798437 163.865)rotate(-90)scale(0.1 -0.1)">
      <defs>
       <path d="M 9.8125 72.90625 
L 55.90625 72.90625 
L 55.90625 64.59375 
L 19.671875 64.59375 
L 19.671875 43.015625 
L 54.390625 43.015625 
L 54.390625 34.71875 
L 19.671875 34.71875 
L 19.671875 8.296875 
L 56.78125 8.296875 
L 56.78125 0 
L 9.8125 0 
z
" id="DejaVuSans-69"/>
       <path d="M 9.421875 75.984375 
L 18.40625 75.984375 
L 18.40625 0 
L 9.421875 0 
z
" id="DejaVuSans-108"/>
       <path d="M 2.984375 54.6875 
L 12.5 54.6875 
L 29.59375 8.796875 
L 46.6875 54.6875 
L 56.203125 54.6875 
L 35.6875 0 
L 23.484375 0 
z
" id="DejaVuSans-118"/>
      </defs>
      <use xlink:href="#DejaVuSans-69"/>
      <use x="63.183594" xlink:href="#DejaVuSans-108"/>
      <use x="90.966797" xlink:href="#DejaVuSans-101"/>
      <use x="152.490234" xlink:href="#DejaVuSans-118"/>
      <use x="211.669922" xlink:href="#DejaVuSans-97"/>
      <use x="272.949219" xlink:href="#DejaVuSans-116"/>
      <use x="312.158203" xlink:href="#DejaVuSans-105"/>
      <use x="339.941406" xlink:href="#DejaVuSans-111"/>
      <use x="401.123047" xlink:href="#DejaVuSans-110"/>
      <use x="464.501953" xlink:href="#DejaVuSans-32"/>
      <use x="496.289062" xlink:href="#DejaVuSans-40"/>
      <use x="535.302734" xlink:href="#DejaVuSans-109"/>
      <use x="632.714844" xlink:href="#DejaVuSans-41"/>
     </g>
    </g>
   </g>
   <g id="line2d_25">
    <path clip-path="url(#pb0edb4f19b)" d="M 40.603125 34.604681 
L 45.917411 35.474441 
L 51.231696 36.126761 
L 56.545982 36.996521 
L 61.860268 37.648841 
L 67.174554 36.779081 
L 72.488839 38.301161 
L 77.803125 43.737161 
L 83.117411 48.303401 
L 88.431696 54.174281 
L 93.745982 61.784681 
L 99.060268 68.307881 
L 104.374554 75.483401 
L 109.688839 83.746121 
L 115.003125 91.139081 
L 120.317411 99.184361 
L 125.631696 103.098281 
L 130.945982 103.315721 
L 136.260268 102.445961 
L 141.574554 100.271561 
L 146.888839 100.054121 
L 152.203125 101.358761 
L 157.517411 103.098281 
L 162.831696 112.665641 
L 168.145982 118.319081 
L 173.460268 122.233001 
L 178.774554 124.624841 
L 184.088839 125.712041 
L 189.403125 128.756201 
L 194.717411 133.322441 
L 200.031696 135.714281 
L 205.345982 143.759561 
L 210.660268 146.368841 
L 215.974554 148.325801 
L 221.288839 150.500201 
L 226.603125 152.457161 
L 231.917411 155.501321 
L 237.231696 158.545481 
L 242.545982 161.372201 
L 247.860268 164.633801 
L 253.174554 167.677961 
L 258.488839 170.722121 
L 263.803125 172.896521 
L 269.117411 174.636041 
L 274.431696 175.723241 
L 279.745982 176.593001 
L 285.060268 177.680201 
L 290.374554 178.984841 
L 295.688839 180.072041 
L 301.003125 180.072041 
L 306.317411 180.724361 
L 311.631696 181.811561 
L 316.945982 181.811561 
L 322.260268 181.594121 
L 327.574554 181.159241 
L 332.888839 181.159241 
L 338.203125 180.072041 
L 343.517411 180.506921 
L 348.831696 180.072041 
L 354.145982 180.289481 
L 359.460268 181.159241 
L 364.774554 182.463881 
L 370.088839 183.333641 
L 375.403125 184.855721 
L 380.717411 185.508041 
L 386.031696 185.942921 
L 391.345982 187.247561 
L 396.660268 187.465001 
L 401.974554 188.117321 
L 407.288839 189.204521 
L 412.603125 190.726601 
L 417.917411 191.161481 
L 423.231696 190.944041 
L 428.545982 190.509161 
L 433.860268 190.291721 
L 439.174554 190.074281 
L 444.488839 190.291721 
L 449.803125 190.291721 
L 455.117411 191.161481 
L 460.431696 193.118441 
L 465.745982 195.727721 
L 471.060268 198.554441 
L 476.374554 202.250921 
L 481.688839 205.729961 
L 487.003125 209.209001 
L 492.317411 212.253161 
L 497.631696 215.079881 
L 502.945982 217.906601 
L 508.260268 220.515881 
L 513.574554 222.907721 
L 518.888839 225.299561 
L 524.203125 227.473961 
L 529.517411 228.778601 
L 534.831696 230.083241 
L 540.145982 230.953001 
L 545.460268 231.605321 
L 550.774554 233.127401 
L 556.088839 234.866921 
L 561.403125 237.258761 
L 566.717411 237.693641 
L 572.031696 239.215721 
" style="fill:none;stroke:#000000;stroke-linecap:square;stroke-width:1.5;"/>
   </g>
   <g id="line2d_26">
    <defs>
     <path d="M 0 6 
C 1.591219 6 3.117479 5.367802 4.242641 4.242641 
C 5.367802 3.117479 6 1.591219 6 0 
C 6 -1.591219 5.367802 -3.117479 4.242641 -4.242641 
C 3.117479 -5.367802 1.591219 -6 0 -6 
C -1.591219 -6 -3.117479 -5.367802 -4.242641 -4.242641 
C -5.367802 -3.117479 -6 -1.591219 -6 0 
C -6 1.591219 -5.367802 3.117479 -4.242641 4.242641 
C -3.117479 5.367802 -1.591219 6 0 6 
z
" id="m61cbe7610b" style="stroke:#000000;"/>
    </defs>
    <g clip-path="url(#pb0edb4f19b)">
     <use style="fill:#ff6347;stroke:#000000;" x="279.745982" xlink:href="#m61cbe7610b" y="176.593001"/>
    </g>
   </g>
   <g id="line2d_27">
    <defs>
     <path d="M 0 6 
C 1.591219 6 3.117479 5.367802 4.242641 4.242641 
C 5.367802 3.117479 6 1.591219 6 0 
C 6 -1.591219 5.367802 -3.117479 4.242641 -4.242641 
C 3.117479 -5.367802 1.591219 -6 0 -6 
C -1.591219 -6 -3.117479 -5.367802 -4.242641 -4.242641 
C -5.367802 -3.117479 -6 -1.591219 -6 0 
C -6 1.591219 -5.367802 3.117479 -4.242641 4.242641 
C -3.117479 5.367802 -1.591219 6 0 6 
z
" id="m1f5502dda5" style="stroke:#000000;"/>
    </defs>
    <g clip-path="url(#pb0edb4f19b)">
     <use style="fill:#6495ed;stroke:#000000;" x="125.631696" xlink:href="#m1f5502dda5" y="103.098281"/>
    </g>
   </g>
   <g id="line2d_28">
    <defs>
     <path d="M 0 6 
C 1.591219 6 3.117479 5.367802 4.242641 4.242641 
C 5.367802 3.117479 6 1.591219 6 0 
C 6 -1.591219 5.367802 -3.117479 4.242641 -4.242641 
C 3.117479 -5.367802 1.591219 -6 0 -6 
C -1.591219 -6 -3.117479 -5.367802 -4.242641 -4.242641 
C -5.367802 -3.117479 -6 -1.591219 -6 0 
C -6 1.591219 -5.367802 3.117479 -4.242641 4.242641 
C -3.117479 5.367802 -1.591219 6 0 6 
z
" id="m1ad086305b" style="stroke:#000000;"/>
    </defs>
    <g clip-path="url(#pb0edb4f19b)">
     <use style="fill:#ffd700;stroke:#000000;" x="423.231696" xlink:href="#m1ad086305b" y="190.944041"/>
    </g>
   </g>
   <g id="line2d_29">
    <defs>
     <path d="M 0 6 
C 1.591219 6 3.117479 5.367802 4.242641 4.242641 
C 5.367802 3.117479 6 1.591219 6 0 
C 6 -1.591219 5.367802 -3.117479 4.242641 -4.242641 
C 3.117479 -5.367802 1.591219 -6 0 -6 
C -1.591219 -6 -3.117479 -5.367802 -4.242641 -4.242641 
C -5.367802 -3.117479 -6 -1.591219 -6 0 
C -6 1.591219 -5.367802 3.117479 -4.242641 4.242641 
C -3.117479 5.367802 -1.591219 6 0 6 
z
" id="mf91d716e02" style="stroke:#000000;"/>
    </defs>
    <g clip-path="url(#pb0edb4f19b)">
     <use style="fill:#32cd32;stroke:#000000;" x="263.803125" xlink:href="#mf91d716e02" y="172.896521"/>
    </g>
   </g>
   <g id="line2d_30">
    <defs>
     <path d="M -0 6 
L 6 -6 
L -6 -6 
z
" id="m75bdc6ffee" style="stroke:#000000;stroke-linejoin:miter;"/>
    </defs>
    <g clip-path="url(#pb0edb4f19b)">
     <use style="stroke:#000000;stroke-linejoin:miter;" x="40.603125" xlink:href="#m75bdc6ffee" y="34.604681"/>
    </g>
   </g>
   <g id="line2d_31">
    <defs>
     <path d="M 0 -6 
L -6 6 
L 6 6 
z
" id="m413c448255" style="stroke:#000000;stroke-linejoin:miter;"/>
    </defs>
    <g clip-path="url(#pb0edb4f19b)">
     <use style="stroke:#000000;stroke-linejoin:miter;" x="572.031696" xlink:href="#m413c448255" y="239.215721"/>
    </g>
   </g>
   <g id="patch_4">
    <path d="M 40.603125 238.998281 
L 40.603125 21.558281 
" style="fill:none;stroke:#000000;stroke-linecap:square;stroke-linejoin:miter;stroke-width:0.8;"/>
   </g>
   <g id="patch_5">
    <path d="M 598.603125 238.998281 
L 598.603125 21.558281 
" style="fill:none;stroke:#000000;stroke-linecap:square;stroke-linejoin:miter;stroke-width:0.8;"/>
   </g>
   <g id="patch_6">
    <path d="M 40.603125 238.998281 
L 598.603125 238.998281 
" style="fill:none;stroke:#000000;stroke-linecap:square;stroke-linejoin:miter;stroke-width:0.8;"/>
   </g>
   <g id="patch_7">
    <path d="M 40.603125 21.558281 
L 598.603125 21.558281 
" style="fill:none;stroke:#000000;stroke-linecap:square;stroke-linejoin:miter;stroke-width:0.8;"/>
   </g>
   <g id="text_15">
    <!-- Example profile -->
    <g transform="translate(276.622344 15.558281)scale(0.11 -0.11)">
     <defs>
      <path d="M 54.890625 54.6875 
L 35.109375 28.078125 
L 55.90625 0 
L 45.3125 0 
L 29.390625 21.484375 
L 13.484375 0 
L 2.875 0 
L 24.125 28.609375 
L 4.6875 54.6875 
L 15.28125 54.6875 
L 29.78125 35.203125 
L 44.28125 54.6875 
z
" id="DejaVuSans-120"/>
      <path d="M 18.109375 8.203125 
L 18.109375 -20.796875 
L 9.078125 -20.796875 
L 9.078125 54.6875 
L 18.109375 54.6875 
L 18.109375 46.390625 
Q 20.953125 51.265625 25.265625 53.625 
Q 29.59375 56 35.59375 56 
Q 45.5625 56 51.78125 48.09375 
Q 58.015625 40.1875 58.015625 27.296875 
Q 58.015625 14.40625 51.78125 6.484375 
Q 45.5625 -1.421875 35.59375 -1.421875 
Q 29.59375 -1.421875 25.265625 0.953125 
Q 20.953125 3.328125 18.109375 8.203125 
z
M 48.6875 27.296875 
Q 48.6875 37.203125 44.609375 42.84375 
Q 40.53125 48.484375 33.40625 48.484375 
Q 26.265625 48.484375 22.1875 42.84375 
Q 18.109375 37.203125 18.109375 27.296875 
Q 18.109375 17.390625 22.1875 11.75 
Q 26.265625 6.109375 33.40625 6.109375 
Q 40.53125 6.109375 44.609375 11.75 
Q 48.6875 17.390625 48.6875 27.296875 
z
" id="DejaVuSans-112"/>
      <path d="M 37.109375 75.984375 
L 37.109375 68.5 
L 28.515625 68.5 
Q 23.6875 68.5 21.796875 66.546875 
Q 19.921875 64.59375 19.921875 59.515625 
L 19.921875 54.6875 
L 34.71875 54.6875 
L 34.71875 47.703125 
L 19.921875 47.703125 
L 19.921875 0 
L 10.890625 0 
L 10.890625 47.703125 
L 2.296875 47.703125 
L 2.296875 54.6875 
L 10.890625 54.6875 
L 10.890625 58.5 
Q 10.890625 67.625 15.140625 71.796875 
Q 19.390625 75.984375 28.609375 75.984375 
z
" id="DejaVuSans-102"/>
     </defs>
     <use xlink:href="#DejaVuSans-69"/>
     <use x="63.183594" xlink:href="#DejaVuSans-120"/>
     <use x="122.363281" xlink:href="#DejaVuSans-97"/>
     <use x="183.642578" xlink:href="#DejaVuSans-109"/>
     <use x="281.054688" xlink:href="#DejaVuSans-112"/>
     <use x="344.53125" xlink:href="#DejaVuSans-108"/>
     <use x="372.314453" xlink:href="#DejaVuSans-101"/>
     <use x="433.837891" xlink:href="#DejaVuSans-32"/>
     <use x="465.625" xlink:href="#DejaVuSans-112"/>
     <use x="529.101562" xlink:href="#DejaVuSans-114"/>
     <use x="567.964844" xlink:href="#DejaVuSans-111"/>
     <use x="629.146484" xlink:href="#DejaVuSans-102"/>
     <use x="664.351562" xlink:href="#DejaVuSans-105"/>
     <use x="692.134766" xlink:href="#DejaVuSans-108"/>
     <use x="719.917969" xlink:href="#DejaVuSans-101"/>
    </g>
   </g>
   <g id="legend_1">
    <g id="patch_8">
     <path d="M 445.301562 132.305156 
L 591.603125 132.305156 
Q 593.603125 132.305156 593.603125 130.305156 
L 593.603125 28.558281 
Q 593.603125 26.558281 591.603125 26.558281 
L 445.301562 26.558281 
Q 443.301562 26.558281 443.301562 28.558281 
L 443.301562 130.305156 
Q 443.301562 132.305156 445.301562 132.305156 
z
" style="fill:#ffffff;stroke:#cccccc;stroke-linejoin:miter;"/>
    </g>
    <g id="line2d_32"/>
    <g id="line2d_33">
     <g>
      <use style="fill:#ff6347;stroke:#000000;" x="457.301562" xlink:href="#m61cbe7610b" y="34.656719"/>
     </g>
    </g>
    <g id="text_16">
     <!-- Machine learning -->
     <g transform="translate(475.301562 38.156719)scale(0.1 -0.1)">
      <defs>
       <path d="M 9.8125 72.90625 
L 24.515625 72.90625 
L 43.109375 23.296875 
L 61.8125 72.90625 
L 76.515625 72.90625 
L 76.515625 0 
L 66.890625 0 
L 66.890625 64.015625 
L 48.09375 14.015625 
L 38.1875 14.015625 
L 19.390625 64.015625 
L 19.390625 0 
L 9.8125 0 
z
" id="DejaVuSans-77"/>
       <path d="M 45.40625 27.984375 
Q 45.40625 37.75 41.375 43.109375 
Q 37.359375 48.484375 30.078125 48.484375 
Q 22.859375 48.484375 18.828125 43.109375 
Q 14.796875 37.75 14.796875 27.984375 
Q 14.796875 18.265625 18.828125 12.890625 
Q 22.859375 7.515625 30.078125 7.515625 
Q 37.359375 7.515625 41.375 12.890625 
Q 45.40625 18.265625 45.40625 27.984375 
z
M 54.390625 6.78125 
Q 54.390625 -7.171875 48.1875 -13.984375 
Q 42 -20.796875 29.203125 -20.796875 
Q 24.46875 -20.796875 20.265625 -20.09375 
Q 16.0625 -19.390625 12.109375 -17.921875 
L 12.109375 -9.1875 
Q 16.0625 -11.328125 19.921875 -12.34375 
Q 23.78125 -13.375 27.78125 -13.375 
Q 36.625 -13.375 41.015625 -8.765625 
Q 45.40625 -4.15625 45.40625 5.171875 
L 45.40625 9.625 
Q 42.625 4.78125 38.28125 2.390625 
Q 33.9375 0 27.875 0 
Q 17.828125 0 11.671875 7.65625 
Q 5.515625 15.328125 5.515625 27.984375 
Q 5.515625 40.671875 11.671875 48.328125 
Q 17.828125 56 27.875 56 
Q 33.9375 56 38.28125 53.609375 
Q 42.625 51.21875 45.40625 46.390625 
L 45.40625 54.6875 
L 54.390625 54.6875 
z
" id="DejaVuSans-103"/>
      </defs>
      <use xlink:href="#DejaVuSans-77"/>
      <use x="86.279297" xlink:href="#DejaVuSans-97"/>
      <use x="147.558594" xlink:href="#DejaVuSans-99"/>
      <use x="202.539062" xlink:href="#DejaVuSans-104"/>
      <use x="265.917969" xlink:href="#DejaVuSans-105"/>
      <use x="293.701172" xlink:href="#DejaVuSans-110"/>
      <use x="357.080078" xlink:href="#DejaVuSans-101"/>
      <use x="418.603516" xlink:href="#DejaVuSans-32"/>
      <use x="450.390625" xlink:href="#DejaVuSans-108"/>
      <use x="478.173828" xlink:href="#DejaVuSans-101"/>
      <use x="539.697266" xlink:href="#DejaVuSans-97"/>
      <use x="600.976562" xlink:href="#DejaVuSans-114"/>
      <use x="640.339844" xlink:href="#DejaVuSans-110"/>
      <use x="703.71875" xlink:href="#DejaVuSans-105"/>
      <use x="731.501953" xlink:href="#DejaVuSans-110"/>
      <use x="794.880859" xlink:href="#DejaVuSans-103"/>
     </g>
    </g>
    <g id="line2d_34"/>
    <g id="line2d_35">
     <g>
      <use style="fill:#6495ed;stroke:#000000;" x="457.301562" xlink:href="#m1f5502dda5" y="49.334844"/>
     </g>
    </g>
    <g id="text_17">
     <!-- Maximum curvature -->
     <g transform="translate(475.301562 52.834844)scale(0.1 -0.1)">
      <defs>
       <path d="M 8.5 21.578125 
L 8.5 54.6875 
L 17.484375 54.6875 
L 17.484375 21.921875 
Q 17.484375 14.15625 20.5 10.265625 
Q 23.53125 6.390625 29.59375 6.390625 
Q 36.859375 6.390625 41.078125 11.03125 
Q 45.3125 15.671875 45.3125 23.6875 
L 45.3125 54.6875 
L 54.296875 54.6875 
L 54.296875 0 
L 45.3125 0 
L 45.3125 8.40625 
Q 42.046875 3.421875 37.71875 1 
Q 33.40625 -1.421875 27.6875 -1.421875 
Q 18.265625 -1.421875 13.375 4.4375 
Q 8.5 10.296875 8.5 21.578125 
z
M 31.109375 56 
z
" id="DejaVuSans-117"/>
      </defs>
      <use xlink:href="#DejaVuSans-77"/>
      <use x="86.279297" xlink:href="#DejaVuSans-97"/>
      <use x="147.558594" xlink:href="#DejaVuSans-120"/>
      <use x="206.738281" xlink:href="#DejaVuSans-105"/>
      <use x="234.521484" xlink:href="#DejaVuSans-109"/>
      <use x="331.933594" xlink:href="#DejaVuSans-117"/>
      <use x="395.3125" xlink:href="#DejaVuSans-109"/>
      <use x="492.724609" xlink:href="#DejaVuSans-32"/>
      <use x="524.511719" xlink:href="#DejaVuSans-99"/>
      <use x="579.492188" xlink:href="#DejaVuSans-117"/>
      <use x="642.871094" xlink:href="#DejaVuSans-114"/>
      <use x="683.984375" xlink:href="#DejaVuSans-118"/>
      <use x="743.164062" xlink:href="#DejaVuSans-97"/>
      <use x="804.443359" xlink:href="#DejaVuSans-116"/>
      <use x="843.652344" xlink:href="#DejaVuSans-117"/>
      <use x="907.03125" xlink:href="#DejaVuSans-114"/>
      <use x="945.894531" xlink:href="#DejaVuSans-101"/>
     </g>
    </g>
    <g id="line2d_36"/>
    <g id="line2d_37">
     <g>
      <use style="fill:#ffd700;stroke:#000000;" x="457.301562" xlink:href="#m1ad086305b" y="64.012969"/>
     </g>
    </g>
    <g id="text_18">
     <!-- Relative relief -->
     <g transform="translate(475.301562 67.512969)scale(0.1 -0.1)">
      <defs>
       <path d="M 44.390625 34.1875 
Q 47.5625 33.109375 50.5625 29.59375 
Q 53.5625 26.078125 56.59375 19.921875 
L 66.609375 0 
L 56 0 
L 46.6875 18.703125 
Q 43.0625 26.03125 39.671875 28.421875 
Q 36.28125 30.8125 30.421875 30.8125 
L 19.671875 30.8125 
L 19.671875 0 
L 9.8125 0 
L 9.8125 72.90625 
L 32.078125 72.90625 
Q 44.578125 72.90625 50.734375 67.671875 
Q 56.890625 62.453125 56.890625 51.90625 
Q 56.890625 45.015625 53.6875 40.46875 
Q 50.484375 35.9375 44.390625 34.1875 
z
M 19.671875 64.796875 
L 19.671875 38.921875 
L 32.078125 38.921875 
Q 39.203125 38.921875 42.84375 42.21875 
Q 46.484375 45.515625 46.484375 51.90625 
Q 46.484375 58.296875 42.84375 61.546875 
Q 39.203125 64.796875 32.078125 64.796875 
z
" id="DejaVuSans-82"/>
      </defs>
      <use xlink:href="#DejaVuSans-82"/>
      <use x="64.982422" xlink:href="#DejaVuSans-101"/>
      <use x="126.505859" xlink:href="#DejaVuSans-108"/>
      <use x="154.289062" xlink:href="#DejaVuSans-97"/>
      <use x="215.568359" xlink:href="#DejaVuSans-116"/>
      <use x="254.777344" xlink:href="#DejaVuSans-105"/>
      <use x="282.560547" xlink:href="#DejaVuSans-118"/>
      <use x="341.740234" xlink:href="#DejaVuSans-101"/>
      <use x="403.263672" xlink:href="#DejaVuSans-32"/>
      <use x="435.050781" xlink:href="#DejaVuSans-114"/>
      <use x="473.914062" xlink:href="#DejaVuSans-101"/>
      <use x="535.4375" xlink:href="#DejaVuSans-108"/>
      <use x="563.220703" xlink:href="#DejaVuSans-105"/>
      <use x="591.003906" xlink:href="#DejaVuSans-101"/>
      <use x="652.527344" xlink:href="#DejaVuSans-102"/>
     </g>
    </g>
    <g id="line2d_38"/>
    <g id="line2d_39">
     <g>
      <use style="fill:#32cd32;stroke:#000000;" x="457.301562" xlink:href="#mf91d716e02" y="78.691094"/>
     </g>
    </g>
    <g id="text_19">
     <!-- Perpendicular distance -->
     <g transform="translate(475.301562 82.191094)scale(0.1 -0.1)">
      <defs>
       <path d="M 19.671875 64.796875 
L 19.671875 37.40625 
L 32.078125 37.40625 
Q 38.96875 37.40625 42.71875 40.96875 
Q 46.484375 44.53125 46.484375 51.125 
Q 46.484375 57.671875 42.71875 61.234375 
Q 38.96875 64.796875 32.078125 64.796875 
z
M 9.8125 72.90625 
L 32.078125 72.90625 
Q 44.34375 72.90625 50.609375 67.359375 
Q 56.890625 61.8125 56.890625 51.125 
Q 56.890625 40.328125 50.609375 34.8125 
Q 44.34375 29.296875 32.078125 29.296875 
L 19.671875 29.296875 
L 19.671875 0 
L 9.8125 0 
z
" id="DejaVuSans-80"/>
      </defs>
      <use xlink:href="#DejaVuSans-80"/>
      <use x="56.677734" xlink:href="#DejaVuSans-101"/>
      <use x="118.201172" xlink:href="#DejaVuSans-114"/>
      <use x="159.314453" xlink:href="#DejaVuSans-112"/>
      <use x="222.791016" xlink:href="#DejaVuSans-101"/>
      <use x="284.314453" xlink:href="#DejaVuSans-110"/>
      <use x="347.693359" xlink:href="#DejaVuSans-100"/>
      <use x="411.169922" xlink:href="#DejaVuSans-105"/>
      <use x="438.953125" xlink:href="#DejaVuSans-99"/>
      <use x="493.933594" xlink:href="#DejaVuSans-117"/>
      <use x="557.3125" xlink:href="#DejaVuSans-108"/>
      <use x="585.095703" xlink:href="#DejaVuSans-97"/>
      <use x="646.375" xlink:href="#DejaVuSans-114"/>
      <use x="687.488281" xlink:href="#DejaVuSans-32"/>
      <use x="719.275391" xlink:href="#DejaVuSans-100"/>
      <use x="782.751953" xlink:href="#DejaVuSans-105"/>
      <use x="810.535156" xlink:href="#DejaVuSans-115"/>
      <use x="862.634766" xlink:href="#DejaVuSans-116"/>
      <use x="901.84375" xlink:href="#DejaVuSans-97"/>
      <use x="963.123047" xlink:href="#DejaVuSans-110"/>
      <use x="1026.501953" xlink:href="#DejaVuSans-99"/>
      <use x="1081.482422" xlink:href="#DejaVuSans-101"/>
     </g>
    </g>
    <g id="line2d_40"/>
    <g id="line2d_41">
     <g>
      <use style="stroke:#000000;stroke-linejoin:miter;" x="457.301562" xlink:href="#m75bdc6ffee" y="93.369219"/>
     </g>
    </g>
    <g id="text_20">
     <!-- Crest -->
     <g transform="translate(475.301562 96.869219)scale(0.1 -0.1)">
      <use xlink:href="#DejaVuSans-67"/>
      <use x="69.824219" xlink:href="#DejaVuSans-114"/>
      <use x="108.6875" xlink:href="#DejaVuSans-101"/>
      <use x="170.210938" xlink:href="#DejaVuSans-115"/>
      <use x="222.310547" xlink:href="#DejaVuSans-116"/>
     </g>
    </g>
    <g id="line2d_42"/>
    <g id="line2d_43">
     <g>
      <use style="stroke:#000000;stroke-linejoin:miter;" x="457.301562" xlink:href="#m413c448255" y="108.047344"/>
     </g>
    </g>
    <g id="text_21">
     <!-- Shoreline -->
     <g transform="translate(475.301562 111.547344)scale(0.1 -0.1)">
      <defs>
       <path d="M 53.515625 70.515625 
L 53.515625 60.890625 
Q 47.90625 63.578125 42.921875 64.890625 
Q 37.9375 66.21875 33.296875 66.21875 
Q 25.25 66.21875 20.875 63.09375 
Q 16.5 59.96875 16.5 54.203125 
Q 16.5 49.359375 19.40625 46.890625 
Q 22.3125 44.4375 30.421875 42.921875 
L 36.375 41.703125 
Q 47.40625 39.59375 52.65625 34.296875 
Q 57.90625 29 57.90625 20.125 
Q 57.90625 9.515625 50.796875 4.046875 
Q 43.703125 -1.421875 29.984375 -1.421875 
Q 24.8125 -1.421875 18.96875 -0.25 
Q 13.140625 0.921875 6.890625 3.21875 
L 6.890625 13.375 
Q 12.890625 10.015625 18.65625 8.296875 
Q 24.421875 6.59375 29.984375 6.59375 
Q 38.421875 6.59375 43.015625 9.90625 
Q 47.609375 13.234375 47.609375 19.390625 
Q 47.609375 24.75 44.3125 27.78125 
Q 41.015625 30.8125 33.5 32.328125 
L 27.484375 33.5 
Q 16.453125 35.6875 11.515625 40.375 
Q 6.59375 45.0625 6.59375 53.421875 
Q 6.59375 63.09375 13.40625 68.65625 
Q 20.21875 74.21875 32.171875 74.21875 
Q 37.3125 74.21875 42.625 73.28125 
Q 47.953125 72.359375 53.515625 70.515625 
z
" id="DejaVuSans-83"/>
      </defs>
      <use xlink:href="#DejaVuSans-83"/>
      <use x="63.476562" xlink:href="#DejaVuSans-104"/>
      <use x="126.855469" xlink:href="#DejaVuSans-111"/>
      <use x="188.037109" xlink:href="#DejaVuSans-114"/>
      <use x="226.900391" xlink:href="#DejaVuSans-101"/>
      <use x="288.423828" xlink:href="#DejaVuSans-108"/>
      <use x="316.207031" xlink:href="#DejaVuSans-105"/>
      <use x="343.990234" xlink:href="#DejaVuSans-110"/>
      <use x="407.369141" xlink:href="#DejaVuSans-101"/>
     </g>
    </g>
    <g id="patch_9">
     <path d="M 447.301562 126.225469 
L 467.301562 126.225469 
L 467.301562 119.225469 
L 447.301562 119.225469 
z
" style="fill:#ff6347;opacity:0.6;stroke:#ff6347;stroke-linejoin:miter;"/>
    </g>
    <g id="text_22">
     <!-- ML Toe probability -->
     <g transform="translate(475.301562 126.225469)scale(0.1 -0.1)">
      <defs>
       <path d="M 9.8125 72.90625 
L 19.671875 72.90625 
L 19.671875 8.296875 
L 55.171875 8.296875 
L 55.171875 0 
L 9.8125 0 
z
" id="DejaVuSans-76"/>
       <path d="M -0.296875 72.90625 
L 61.375 72.90625 
L 61.375 64.59375 
L 35.5 64.59375 
L 35.5 0 
L 25.59375 0 
L 25.59375 64.59375 
L -0.296875 64.59375 
z
" id="DejaVuSans-84"/>
       <path d="M 48.6875 27.296875 
Q 48.6875 37.203125 44.609375 42.84375 
Q 40.53125 48.484375 33.40625 48.484375 
Q 26.265625 48.484375 22.1875 42.84375 
Q 18.109375 37.203125 18.109375 27.296875 
Q 18.109375 17.390625 22.1875 11.75 
Q 26.265625 6.109375 33.40625 6.109375 
Q 40.53125 6.109375 44.609375 11.75 
Q 48.6875 17.390625 48.6875 27.296875 
z
M 18.109375 46.390625 
Q 20.953125 51.265625 25.265625 53.625 
Q 29.59375 56 35.59375 56 
Q 45.5625 56 51.78125 48.09375 
Q 58.015625 40.1875 58.015625 27.296875 
Q 58.015625 14.40625 51.78125 6.484375 
Q 45.5625 -1.421875 35.59375 -1.421875 
Q 29.59375 -1.421875 25.265625 0.953125 
Q 20.953125 3.328125 18.109375 8.203125 
L 18.109375 0 
L 9.078125 0 
L 9.078125 75.984375 
L 18.109375 75.984375 
z
" id="DejaVuSans-98"/>
       <path d="M 32.171875 -5.078125 
Q 28.375 -14.84375 24.75 -17.8125 
Q 21.140625 -20.796875 15.09375 -20.796875 
L 7.90625 -20.796875 
L 7.90625 -13.28125 
L 13.1875 -13.28125 
Q 16.890625 -13.28125 18.9375 -11.515625 
Q 21 -9.765625 23.484375 -3.21875 
L 25.09375 0.875 
L 2.984375 54.6875 
L 12.5 54.6875 
L 29.59375 11.921875 
L 46.6875 54.6875 
L 56.203125 54.6875 
z
" id="DejaVuSans-121"/>
      </defs>
      <use xlink:href="#DejaVuSans-77"/>
      <use x="86.279297" xlink:href="#DejaVuSans-76"/>
      <use x="141.992188" xlink:href="#DejaVuSans-32"/>
      <use x="173.779297" xlink:href="#DejaVuSans-84"/>
      <use x="217.863281" xlink:href="#DejaVuSans-111"/>
      <use x="279.044922" xlink:href="#DejaVuSans-101"/>
      <use x="340.568359" xlink:href="#DejaVuSans-32"/>
      <use x="372.355469" xlink:href="#DejaVuSans-112"/>
      <use x="435.832031" xlink:href="#DejaVuSans-114"/>
      <use x="474.695312" xlink:href="#DejaVuSans-111"/>
      <use x="535.876953" xlink:href="#DejaVuSans-98"/>
      <use x="599.353516" xlink:href="#DejaVuSans-97"/>
      <use x="660.632812" xlink:href="#DejaVuSans-98"/>
      <use x="724.109375" xlink:href="#DejaVuSans-105"/>
      <use x="751.892578" xlink:href="#DejaVuSans-108"/>
      <use x="779.675781" xlink:href="#DejaVuSans-105"/>
      <use x="807.458984" xlink:href="#DejaVuSans-116"/>
      <use x="846.667969" xlink:href="#DejaVuSans-121"/>
     </g>
    </g>
   </g>
  </g>
  <g id="axes_2">
   <g id="PolyCollection_3">
    <defs>
     <path d="M 40.603125 -37.55625 
L 40.603125 -38.28105 
L 45.917411 -38.28105 
L 51.231696 -37.55625 
L 56.545982 -38.64345 
L 61.860268 -38.28105 
L 67.174554 -37.55625 
L 72.488839 -38.64345 
L 77.803125 -40.09305 
L 83.117411 -42.26745 
L 88.431696 -41.54265 
L 93.745982 -42.62985 
L 99.060268 -42.99225 
L 104.374554 -46.61625 
L 109.688839 -42.26745 
L 115.003125 -41.90505 
L 120.317411 -44.44185 
L 125.631696 -54.95145 
L 130.945982 -61.11225 
L 136.260268 -53.50185 
L 141.574554 -48.42825 
L 146.888839 -45.16665 
L 152.203125 -47.70345 
L 157.517411 -50.24025 
L 162.831696 -52.77705 
L 168.145982 -57.48825 
L 173.460268 -67.27305 
L 178.774554 -66.54825 
L 184.088839 -60.02505 
L 189.403125 -64.73625 
L 194.717411 -63.28665 
L 200.031696 -65.82345 
L 205.345982 -72.34665 
L 210.660268 -69.44745 
L 215.974554 -61.83705 
L 221.288839 -59.30025 
L 226.603125 -60.02505 
L 231.917411 -58.93785 
L 237.231696 -60.38745 
L 242.545982 -62.19945 
L 247.860268 -62.92425 
L 253.174554 -65.46105 
L 258.488839 -67.63545 
L 263.803125 -71.62185 
L 269.117411 -71.62185 
L 274.431696 -72.70905 
L 279.745982 -73.79625 
L 285.060268 -72.70905 
L 290.374554 -73.07145 
L 295.688839 -73.07145 
L 301.003125 -67.63545 
L 306.317411 -66.54825 
L 311.631696 -60.74985 
L 316.945982 -58.57545 
L 322.260268 -54.95145 
L 327.574554 -51.68985 
L 332.888839 -45.52905 
L 338.203125 -41.90505 
L 343.517411 -40.45545 
L 348.831696 -40.09305 
L 354.145982 -39.73065 
L 359.460268 -39.73065 
L 364.774554 -39.00585 
L 370.088839 -39.00585 
L 375.403125 -40.81785 
L 380.717411 -43.71705 
L 386.031696 -44.44185 
L 391.345982 -48.06585 
L 396.660268 -54.22665 
L 401.974554 -53.86425 
L 407.288839 -51.68985 
L 412.603125 -48.79065 
L 417.917411 -49.87785 
L 423.231696 -46.25385 
L 428.545982 -43.35465 
L 433.860268 -45.52905 
L 439.174554 -47.70345 
L 444.488839 -50.24025 
L 449.803125 -47.70345 
L 455.117411 -42.99225 
L 460.431696 -41.90505 
L 465.745982 -42.62985 
L 471.060268 -41.54265 
L 476.374554 -43.71705 
L 481.688839 -43.35465 
L 487.003125 -44.07945 
L 492.317411 -46.25385 
L 497.631696 -47.70345 
L 502.945982 -52.77705 
L 508.260268 -52.05225 
L 513.574554 -51.68985 
L 518.888839 -56.40105 
L 524.203125 -59.30025 
L 529.517411 -59.66265 
L 534.831696 -56.40105 
L 540.145982 -54.22665 
L 545.460268 -49.15305 
L 550.774554 -46.25385 
L 556.088839 -44.80425 
L 561.403125 -42.62985 
L 566.717411 -42.99225 
L 572.031696 -41.90505 
L 572.031696 -37.55625 
L 572.031696 -37.55625 
L 566.717411 -37.55625 
L 561.403125 -37.55625 
L 556.088839 -37.55625 
L 550.774554 -37.55625 
L 545.460268 -37.55625 
L 540.145982 -37.55625 
L 534.831696 -37.55625 
L 529.517411 -37.55625 
L 524.203125 -37.55625 
L 518.888839 -37.55625 
L 513.574554 -37.55625 
L 508.260268 -37.55625 
L 502.945982 -37.55625 
L 497.631696 -37.55625 
L 492.317411 -37.55625 
L 487.003125 -37.55625 
L 481.688839 -37.55625 
L 476.374554 -37.55625 
L 471.060268 -37.55625 
L 465.745982 -37.55625 
L 460.431696 -37.55625 
L 455.117411 -37.55625 
L 449.803125 -37.55625 
L 444.488839 -37.55625 
L 439.174554 -37.55625 
L 433.860268 -37.55625 
L 428.545982 -37.55625 
L 423.231696 -37.55625 
L 417.917411 -37.55625 
L 412.603125 -37.55625 
L 407.288839 -37.55625 
L 401.974554 -37.55625 
L 396.660268 -37.55625 
L 391.345982 -37.55625 
L 386.031696 -37.55625 
L 380.717411 -37.55625 
L 375.403125 -37.55625 
L 370.088839 -37.55625 
L 364.774554 -37.55625 
L 359.460268 -37.55625 
L 354.145982 -37.55625 
L 348.831696 -37.55625 
L 343.517411 -37.55625 
L 338.203125 -37.55625 
L 332.888839 -37.55625 
L 327.574554 -37.55625 
L 322.260268 -37.55625 
L 316.945982 -37.55625 
L 311.631696 -37.55625 
L 306.317411 -37.55625 
L 301.003125 -37.55625 
L 295.688839 -37.55625 
L 290.374554 -37.55625 
L 285.060268 -37.55625 
L 279.745982 -37.55625 
L 274.431696 -37.55625 
L 269.117411 -37.55625 
L 263.803125 -37.55625 
L 258.488839 -37.55625 
L 253.174554 -37.55625 
L 247.860268 -37.55625 
L 242.545982 -37.55625 
L 237.231696 -37.55625 
L 231.917411 -37.55625 
L 226.603125 -37.55625 
L 221.288839 -37.55625 
L 215.974554 -37.55625 
L 210.660268 -37.55625 
L 205.345982 -37.55625 
L 200.031696 -37.55625 
L 194.717411 -37.55625 
L 189.403125 -37.55625 
L 184.088839 -37.55625 
L 178.774554 -37.55625 
L 173.460268 -37.55625 
L 168.145982 -37.55625 
L 162.831696 -37.55625 
L 157.517411 -37.55625 
L 152.203125 -37.55625 
L 146.888839 -37.55625 
L 141.574554 -37.55625 
L 136.260268 -37.55625 
L 130.945982 -37.55625 
L 125.631696 -37.55625 
L 120.317411 -37.55625 
L 115.003125 -37.55625 
L 109.688839 -37.55625 
L 104.374554 -37.55625 
L 99.060268 -37.55625 
L 93.745982 -37.55625 
L 88.431696 -37.55625 
L 83.117411 -37.55625 
L 77.803125 -37.55625 
L 72.488839 -37.55625 
L 67.174554 -37.55625 
L 61.860268 -37.55625 
L 56.545982 -37.55625 
L 51.231696 -37.55625 
L 45.917411 -37.55625 
L 40.603125 -37.55625 
z
" id="m0a634a3e73" style="stroke:#ff6347;stroke-opacity:0.5;"/>
    </defs>
    <g clip-path="url(#pb0edb4f19b)">
     <use style="fill:#ff6347;fill-opacity:0.5;stroke:#ff6347;stroke-opacity:0.5;" x="0" xlink:href="#m0a634a3e73" y="276.554531"/>
    </g>
   </g>
   <g id="matplotlib.axis_3">
    <g id="ytick_7">
     <g id="line2d_44">
      <defs>
       <path d="M 0 0 
L 3.5 0 
" id="mb05fa6c9cc" style="stroke:#000000;stroke-width:0.8;"/>
      </defs>
      <g>
       <use style="stroke:#000000;stroke-width:0.8;" x="598.603125" xlink:href="#mb05fa6c9cc" y="238.998281"/>
      </g>
     </g>
     <g id="text_23">
      <!-- 0 -->
      <g style="fill:#ff6347;" transform="translate(605.603125 242.7975)scale(0.1 -0.1)">
       <use xlink:href="#DejaVuSans-48"/>
      </g>
     </g>
    </g>
    <g id="ytick_8">
     <g id="line2d_45">
      <g>
       <use style="stroke:#000000;stroke-width:0.8;" x="598.603125" xlink:href="#mb05fa6c9cc" y="202.758281"/>
      </g>
     </g>
     <g id="text_24">
      <!-- 1 -->
      <g style="fill:#ff6347;" transform="translate(605.603125 206.5575)scale(0.1 -0.1)">
       <use xlink:href="#DejaVuSans-49"/>
      </g>
     </g>
    </g>
    <g id="text_25">
     <!-- Toe probability -->
     <g style="fill:#ff6347;" transform="translate(646.804688 180.649594)rotate(-270)scale(0.1 -0.1)">
      <use xlink:href="#DejaVuSans-84"/>
      <use x="44.083984" xlink:href="#DejaVuSans-111"/>
      <use x="105.265625" xlink:href="#DejaVuSans-101"/>
      <use x="166.789062" xlink:href="#DejaVuSans-32"/>
      <use x="198.576172" xlink:href="#DejaVuSans-112"/>
      <use x="262.052734" xlink:href="#DejaVuSans-114"/>
      <use x="300.916016" xlink:href="#DejaVuSans-111"/>
      <use x="362.097656" xlink:href="#DejaVuSans-98"/>
      <use x="425.574219" xlink:href="#DejaVuSans-97"/>
      <use x="486.853516" xlink:href="#DejaVuSans-98"/>
      <use x="550.330078" xlink:href="#DejaVuSans-105"/>
      <use x="578.113281" xlink:href="#DejaVuSans-108"/>
      <use x="605.896484" xlink:href="#DejaVuSans-105"/>
      <use x="633.679688" xlink:href="#DejaVuSans-116"/>
      <use x="672.888672" xlink:href="#DejaVuSans-121"/>
     </g>
    </g>
   </g>
   <g id="patch_10">
    <path d="M 40.603125 238.998281 
L 40.603125 21.558281 
" style="fill:none;stroke:#000000;stroke-linecap:square;stroke-linejoin:miter;stroke-width:0.8;"/>
   </g>
   <g id="patch_11">
    <path d="M 598.603125 238.998281 
L 598.603125 21.558281 
" style="fill:none;stroke:#000000;stroke-linecap:square;stroke-linejoin:miter;stroke-width:0.8;"/>
   </g>
   <g id="patch_12">
    <path d="M 40.603125 238.998281 
L 598.603125 238.998281 
" style="fill:none;stroke:#000000;stroke-linecap:square;stroke-linejoin:miter;stroke-width:0.8;"/>
   </g>
   <g id="patch_13">
    <path d="M 40.603125 21.558281 
L 598.603125 21.558281 
" style="fill:none;stroke:#000000;stroke-linecap:square;stroke-linejoin:miter;stroke-width:0.8;"/>
   </g>
  </g>
 </g>
 <defs>
  <clipPath id="pb0edb4f19b">
   <rect height="217.44" width="558" x="40.603125" y="21.558281"/>
  </clipPath>
 </defs>
</svg>
